<?xml version="1.0" encoding="UTF-8" standalone="no"?>
<!DOCTYPE svg PUBLIC "-//W3C//DTD SVG 1.1//EN"
 "http://www.w3.org/Graphics/SVG/1.1/DTD/svg11.dtd">
<!-- Generated by graphviz version 2.43.0 (0)
 -->
<!-- Title: %3 Pages: 1 -->
<svg width="183pt" height="234pt"
 viewBox="0.00 0.00 182.50 234.00" xmlns="http://www.w3.org/2000/svg" xmlns:xlink="http://www.w3.org/1999/xlink">
<g id="graph0" class="graph" transform="scale(1 1) rotate(0) translate(4 230)">
<title>%3</title>
<polygon fill="white" stroke="transparent" points="-4,4 -4,-230 178.5,-230 178.5,4 -4,4"/>
<!-- torch_input_0 -->
<g id="node1" class="node">
<title>torch_input_0</title>
<polygon fill="#dcdcdc" stroke="black" points="174.5,-226 80.5,-226 80.5,-148 174.5,-148 174.5,-226"/>
<polygon fill="none" stroke="black" points="81.5,-199 81.5,-225 173.5,-225 173.5,-199 81.5,-199"/>
<text text-anchor="start" x="96" y="-215" font-family="Linux libertine" font-size="10.00">torch.randint</text>
<text text-anchor="start" x="83.5" y="-204" font-family="Linux libertine" font-size="10.00">duration: 604.2 µs</text>
<polygon fill="none" stroke="black" points="81.5,-149 81.5,-198 173.5,-198 173.5,-149 81.5,-149"/>
<text text-anchor="start" x="106" y="-188" font-family="Linux libertine" font-size="10.00">Output 0</text>
<text text-anchor="start" x="111.5" y="-177" font-family="Linux libertine" font-size="10.00">(1, 64)</text>
<text text-anchor="start" x="101" y="-166" font-family="Linux libertine" font-size="10.00">torch.int64</text>
</g>
<!-- exp_1 -->
<g id="node2" class="node">
<title>exp_1</title>
<polygon fill="#dcdcdc" stroke="black" points="161,-101 0,-101 0,0 161,0 161,-101"/>
<polygon fill="none" stroke="black" points="1.5,-0.5 1.5,-99.5 93.5,-99.5 93.5,-0.5 1.5,-0.5"/>
<text text-anchor="start" x="24.5" y="-53" font-family="Linux libertine" font-size="10.00">torch.exp</text>
<text text-anchor="start" x="3.5" y="-42" font-family="Linux libertine" font-size="10.00">duration: 465.6 µs</text>
<polygon fill="none" stroke="black" points="94.5,-50.5 94.5,-99.5 160.5,-99.5 160.5,-50.5 94.5,-50.5"/>
<text text-anchor="start" x="110.5" y="-89.5" font-family="Linux libertine" font-size="10.00">Input 0</text>
<text text-anchor="start" x="111.5" y="-78.5" font-family="Linux libertine" font-size="10.00">(1, 64)</text>
<text text-anchor="start" x="101" y="-67.5" font-family="Linux libertine" font-size="10.00">torch.int64</text>
<polygon fill="none" stroke="black" points="94.5,-0.5 94.5,-49.5 160.5,-49.5 160.5,-0.5 94.5,-0.5"/>
<text text-anchor="start" x="106" y="-39.5" font-family="Linux libertine" font-size="10.00">Output 0</text>
<text text-anchor="start" x="111.5" y="-28.5" font-family="Linux libertine" font-size="10.00">(1, 64)</text>
<text text-anchor="start" x="96.5" y="-17.5" font-family="Linux libertine" font-size="10.00">torch.float32</text>
</g>
<!-- torch_input_0&#45;&gt;exp_1 -->
<g id="edge1" class="edge">
<title>torch_input_0:#0&#45;&gt;exp_1:$0</title>
<path fill="none" stroke="black" d="M127.5,-148C127.5,-130.68 127.5,-124.02 127.5,-110.53"/>
<polygon fill="black" stroke="black" points="131,-110.5 127.5,-100.5 124,-110.5 131,-110.5"/>
<text text-anchor="middle" x="143" y="-122" font-family="Times,serif" font-size="10.00">0 &#45;&gt; 0</text>
</g>
</g>
</svg>
