<?xml version="1.0" encoding="UTF-8" standalone="no"?>
<!DOCTYPE svg PUBLIC "-//W3C//DTD SVG 1.1//EN"
 "http://www.w3.org/Graphics/SVG/1.1/DTD/svg11.dtd">
<!-- Generated by graphviz version 2.43.0 (0)
 -->
<!-- Title: %3 Pages: 1 -->
<svg width="211pt" height="525pt"
 viewBox="0.00 0.00 210.50 525.00" xmlns="http://www.w3.org/2000/svg" xmlns:xlink="http://www.w3.org/1999/xlink">
<g id="graph0" class="graph" transform="scale(1 1) rotate(0) translate(4 521)">
<title>%3</title>
<polygon fill="white" stroke="transparent" points="-4,4 -4,-521 206.5,-521 206.5,4 -4,4"/>
<!-- torch_input_2 -->
<g id="node1" class="node">
<title>torch_input_2</title>
<polygon fill="#dcdcdc" stroke="black" points="194.5,-517 100.5,-517 100.5,-439 194.5,-439 194.5,-517"/>
<polygon fill="none" stroke="black" points="101.5,-490 101.5,-516 193.5,-516 193.5,-490 101.5,-490"/>
<text text-anchor="start" x="116" y="-506" font-family="Linux libertine" font-size="10.00">torch.randint</text>
<text text-anchor="start" x="103.5" y="-495" font-family="Linux libertine" font-size="10.00">duration: 361.9 µs</text>
<polygon fill="none" stroke="black" points="101.5,-440 101.5,-489 193.5,-489 193.5,-440 101.5,-440"/>
<text text-anchor="start" x="126" y="-479" font-family="Linux libertine" font-size="10.00">Output 0</text>
<text text-anchor="start" x="131.5" y="-468" font-family="Linux libertine" font-size="10.00">(4, 64)</text>
<text text-anchor="start" x="121" y="-457" font-family="Linux libertine" font-size="10.00">torch.int64</text>
</g>
<!-- ttnn.from_torch_8 -->
<g id="node2" class="node">
<title>ttnn.from_torch_8</title>
<g id="a_node2"><a xlink:href="/operation_buffer_report/0" xlink:title="&lt;TABLE&gt;">
<polygon fill="#dcdcdc" stroke="black" points="201,-392 0,-392 0,-292 201,-292 201,-392"/>
<polygon fill="none" stroke="black" points="1.5,-293 1.5,-391 93.5,-391 93.5,-293 1.5,-293"/>
<text text-anchor="start" x="3.5" y="-339.5" font-family="Linux libertine" font-size="10.00">0: ttnn.from_torch</text>
<polygon fill="none" stroke="black" points="94.5,-342 94.5,-391 200.5,-391 200.5,-342 94.5,-342"/>
<text text-anchor="start" x="130.5" y="-381" font-family="Linux libertine" font-size="10.00">Input 0</text>
<text text-anchor="start" x="131.5" y="-370" font-family="Linux libertine" font-size="10.00">(4, 64)</text>
<text text-anchor="start" x="121" y="-359" font-family="Linux libertine" font-size="10.00">torch.int64</text>
<polygon fill="none" stroke="black" points="94.5,-293 94.5,-341 200.5,-341 200.5,-293 94.5,-293"/>
<text text-anchor="start" x="126" y="-331" font-family="Linux libertine" font-size="10.00">Output 0</text>
<text text-anchor="start" x="101.5" y="-320" font-family="Linux libertine" font-size="10.00">ttnn.Shape([4, 64])</text>
<text text-anchor="start" x="105" y="-309" font-family="Linux libertine" font-size="10.00">DataType.UINT32</text>
<text text-anchor="start" x="96.5" y="-298" font-family="Linux libertine" font-size="10.00">Layout: ROW_MAJOR</text>
</a>
</g>
</g>
<!-- torch_input_2&#45;&gt;ttnn.from_torch_8 -->
<g id="edge1" class="edge">
<title>torch_input_2:#0&#45;&gt;ttnn.from_torch_8:$0</title>
<path fill="none" stroke="black" d="M147.5,-439C147.5,-422.03 147.5,-415.4 147.5,-402.3"/>
<polygon fill="black" stroke="black" points="151,-402 147.5,-392 144,-402 151,-402"/>
<text text-anchor="middle" x="163" y="-413" font-family="Times,serif" font-size="10.00">0 &#45;&gt; 0</text>
</g>
<!-- ttnn.reshape_11 -->
<g id="node3" class="node">
<title>ttnn.reshape_11</title>
<g id="a_node3"><a xlink:href="/operation_buffer_report/1" xlink:title="&lt;TABLE&gt;">
<polygon fill="#dcdcdc" stroke="black" points="202,-245 13,-245 13,-146 202,-146 202,-245"/>
<polygon fill="none" stroke="black" points="14.5,-146.5 14.5,-243.5 92.5,-243.5 92.5,-146.5 14.5,-146.5"/>
<text text-anchor="start" x="16.5" y="-192.5" font-family="Linux libertine" font-size="10.00">1: ttnn.reshape</text>
<polygon fill="none" stroke="black" points="93.5,-195.5 93.5,-243.5 201.5,-243.5 201.5,-195.5 93.5,-195.5"/>
<text text-anchor="start" x="130.5" y="-233.5" font-family="Linux libertine" font-size="10.00">Input 0</text>
<text text-anchor="start" x="101.5" y="-222.5" font-family="Linux libertine" font-size="10.00">ttnn.Shape([4, 64])</text>
<text text-anchor="start" x="105" y="-211.5" font-family="Linux libertine" font-size="10.00">DataType.UINT32</text>
<text text-anchor="start" x="96.5" y="-200.5" font-family="Linux libertine" font-size="10.00">Layout: ROW_MAJOR</text>
<polygon fill="none" stroke="black" points="93.5,-146.5 93.5,-194.5 201.5,-194.5 201.5,-146.5 93.5,-146.5"/>
<text text-anchor="start" x="126" y="-184.5" font-family="Linux libertine" font-size="10.00">Output 0</text>
<text text-anchor="start" x="95.5" y="-173.5" font-family="Linux libertine" font-size="10.00">ttnn.Shape([2, 4, 32])</text>
<text text-anchor="start" x="105" y="-162.5" font-family="Linux libertine" font-size="10.00">DataType.UINT32</text>
<text text-anchor="start" x="96.5" y="-151.5" font-family="Linux libertine" font-size="10.00">Layout: ROW_MAJOR</text>
</a>
</g>
</g>
<!-- ttnn.from_torch_8&#45;&gt;ttnn.reshape_11 -->
<g id="edge2" class="edge">
<title>ttnn.from_torch_8:#0&#45;&gt;ttnn.reshape_11:$0</title>
<path fill="none" stroke="black" d="M147.5,-292C147.5,-274.68 147.5,-268.02 147.5,-254.53"/>
<polygon fill="black" stroke="black" points="151,-254.5 147.5,-244.5 144,-254.5 151,-254.5"/>
<text text-anchor="middle" x="163" y="-266" font-family="Times,serif" font-size="10.00">0 &#45;&gt; 0</text>
</g>
<!-- ttnn.to_torch_13 -->
<g id="node4" class="node">
<title>ttnn.to_torch_13</title>
<g id="a_node4"><a xlink:href="/operation_buffer_report/2" xlink:title="&lt;TABLE&gt;">
<polygon fill="#dcdcdc" stroke="black" points="202.5,-99 12.5,-99 12.5,0 202.5,0 202.5,-99"/>
<polygon fill="none" stroke="black" points="13.5,-0.5 13.5,-97.5 92.5,-97.5 92.5,-0.5 13.5,-0.5"/>
<text text-anchor="start" x="15.5" y="-46.5" font-family="Linux libertine" font-size="10.00">2: ttnn.to_torch</text>
<polygon fill="none" stroke="black" points="93.5,-49.5 93.5,-97.5 201.5,-97.5 201.5,-49.5 93.5,-49.5"/>
<text text-anchor="start" x="130.5" y="-87.5" font-family="Linux libertine" font-size="10.00">Input 0</text>
<text text-anchor="start" x="95.5" y="-76.5" font-family="Linux libertine" font-size="10.00">ttnn.Shape([2, 4, 32])</text>
<text text-anchor="start" x="105" y="-65.5" font-family="Linux libertine" font-size="10.00">DataType.UINT32</text>
<text text-anchor="start" x="96.5" y="-54.5" font-family="Linux libertine" font-size="10.00">Layout: ROW_MAJOR</text>
<polygon fill="none" stroke="black" points="93.5,-0.5 93.5,-48.5 201.5,-48.5 201.5,-0.5 93.5,-0.5"/>
<text text-anchor="start" x="126" y="-38.5" font-family="Linux libertine" font-size="10.00">Output 0</text>
<text text-anchor="start" x="97.5" y="-27.5" font-family="Linux libertine" font-size="10.00">torch.Size([2, 4, 32])</text>
<text text-anchor="start" x="121" y="-16.5" font-family="Linux libertine" font-size="10.00">torch.int32</text>
<text text-anchor="start" x="116.5" y="-5.5" font-family="Linux libertine" font-size="10.00">torch.strided</text>
</a>
</g>
</g>
<!-- ttnn.reshape_11&#45;&gt;ttnn.to_torch_13 -->
<g id="edge3" class="edge">
<title>ttnn.reshape_11:#0&#45;&gt;ttnn.to_torch_13:$0</title>
<path fill="none" stroke="black" d="M147.5,-146C147.5,-128.68 147.5,-122.02 147.5,-108.53"/>
<polygon fill="black" stroke="black" points="151,-108.5 147.5,-98.5 144,-108.5 151,-108.5"/>
<text text-anchor="middle" x="163" y="-120" font-family="Times,serif" font-size="10.00">0 &#45;&gt; 0</text>
</g>
</g>
</svg>
