<?xml version="1.0" encoding="UTF-8" standalone="no"?>
<!DOCTYPE svg PUBLIC "-//W3C//DTD SVG 1.1//EN"
 "http://www.w3.org/Graphics/SVG/1.1/DTD/svg11.dtd">
<!-- Generated by graphviz version 2.43.0 (0)
 -->
<!-- Title: %3 Pages: 1 -->
<svg width="939pt" height="1066pt"
 viewBox="0.00 0.00 939.00 1066.00" xmlns="http://www.w3.org/2000/svg" xmlns:xlink="http://www.w3.org/1999/xlink">
<g id="graph0" class="graph" transform="scale(1 1) rotate(0) translate(4 1062)">
<title>%3</title>
<polygon fill="white" stroke="transparent" points="-4,4 -4,-1062 935,-1062 935,4 -4,4"/>
<!-- ttnn.from_torch_171 -->
<g id="node1" class="node">
<title>ttnn.from_torch_171</title>
<polygon fill="#dcdcdc" stroke="black" points="172,-821 0,-821 0,-744 172,-744 172,-821"/>
<polygon fill="none" stroke="black" points="1,-744.5 1,-819.5 81,-819.5 81,-744.5 1,-744.5"/>
<text text-anchor="start" x="3" y="-779.5" font-family="Linux libertine" font-size="10.00">ttnn.from_torch</text>
<polygon fill="none" stroke="black" points="82,-782.5 82,-819.5 171,-819.5 171,-782.5 82,-782.5"/>
<text text-anchor="start" x="109.5" y="-809.5" font-family="Linux libertine" font-size="10.00">Input 0</text>
<text text-anchor="start" x="107.5" y="-798.5" font-family="Linux libertine" font-size="10.00">(1, 128)</text>
<text text-anchor="start" x="100" y="-787.5" font-family="Linux libertine" font-size="10.00">torch.int64</text>
<polygon fill="none" stroke="black" points="82,-744.5 82,-781.5 171,-781.5 171,-744.5 82,-744.5"/>
<text text-anchor="start" x="105" y="-771.5" font-family="Linux libertine" font-size="10.00">Output 0</text>
<text text-anchor="start" x="107.5" y="-760.5" font-family="Linux libertine" font-size="10.00">(1, 128)</text>
<text text-anchor="start" x="84" y="-749.5" font-family="Linux libertine" font-size="10.00">DataType.UINT32</text>
</g>
<!-- ttnn.embedding_210 -->
<g id="node8" class="node">
<title>ttnn.embedding_210</title>
<polygon fill="#dcdcdc" stroke="black" points="287,-697 9,-697 9,-620 287,-620 287,-697"/>
<polygon fill="none" stroke="black" points="10,-620.5 10,-695.5 92,-695.5 92,-620.5 10,-620.5"/>
<text text-anchor="start" x="12" y="-655.5" font-family="Linux libertine" font-size="10.00">ttnn.embedding</text>
<polygon fill="none" stroke="black" points="93,-658.5 93,-695.5 182,-695.5 182,-658.5 93,-658.5"/>
<text text-anchor="start" x="120.5" y="-685.5" font-family="Linux libertine" font-size="10.00">Input 0</text>
<text text-anchor="start" x="118.5" y="-674.5" font-family="Linux libertine" font-size="10.00">(1, 128)</text>
<text text-anchor="start" x="95" y="-663.5" font-family="Linux libertine" font-size="10.00">DataType.UINT32</text>
<polygon fill="none" stroke="black" points="183,-658.5 183,-695.5 286,-695.5 286,-658.5 183,-658.5"/>
<text text-anchor="start" x="217.5" y="-685.5" font-family="Linux libertine" font-size="10.00">Input 1</text>
<text text-anchor="start" x="209.5" y="-674.5" font-family="Linux libertine" font-size="10.00">(512, 768)</text>
<text text-anchor="start" x="185" y="-663.5" font-family="Linux libertine" font-size="10.00">DataType.BFLOAT16</text>
<polygon fill="none" stroke="black" points="93,-620.5 93,-657.5 286,-657.5 286,-620.5 93,-620.5"/>
<text text-anchor="start" x="168" y="-647.5" font-family="Linux libertine" font-size="10.00">Output 0</text>
<text text-anchor="start" x="158.5" y="-636.5" font-family="Linux libertine" font-size="10.00">(1, 128, 768)</text>
<text text-anchor="start" x="140" y="-625.5" font-family="Linux libertine" font-size="10.00">DataType.BFLOAT16</text>
</g>
<!-- ttnn.from_torch_171&#45;&gt;ttnn.embedding_210 -->
<g id="edge6" class="edge">
<title>ttnn.from_torch_171:#0&#45;&gt;ttnn.embedding_210:$0</title>
<path fill="none" stroke="black" d="M127,-744C127,-726.3 133.73,-720.19 136.15,-706.66"/>
<polygon fill="black" stroke="black" points="139.65,-706.76 137,-696.5 132.68,-706.17 139.65,-706.76"/>
<text text-anchor="middle" x="149.5" y="-718" font-family="Times,serif" font-size="10.00">0 &#45;&gt; 0</text>
</g>
<!-- torch_input_148 -->
<g id="node2" class="node">
<title>torch_input_148</title>
<polygon fill="#dcdcdc" stroke="black" points="479,-1058 391,-1058 391,-992 479,-992 479,-1058"/>
<polygon fill="none" stroke="black" points="392,-1031 392,-1057 478,-1057 478,-1031 392,-1031"/>
<text text-anchor="start" x="403.5" y="-1047" font-family="Linux libertine" font-size="10.00">torch.randint</text>
<text text-anchor="start" x="394" y="-1036" font-family="Linux libertine" font-size="10.00">duration: 40.5 µs</text>
<polygon fill="none" stroke="black" points="392,-993 392,-1030 478,-1030 478,-993 392,-993"/>
<text text-anchor="start" x="413.5" y="-1020" font-family="Linux libertine" font-size="10.00">Output 0</text>
<text text-anchor="start" x="416" y="-1009" font-family="Linux libertine" font-size="10.00">(1, 128)</text>
<text text-anchor="start" x="408.5" y="-998" font-family="Linux libertine" font-size="10.00">torch.int64</text>
</g>
<!-- ttnn.from_torch_159 -->
<g id="node3" class="node">
<title>ttnn.from_torch_159</title>
<polygon fill="#dcdcdc" stroke="black" points="480,-945 308,-945 308,-868 480,-868 480,-945"/>
<polygon fill="none" stroke="black" points="309,-868.5 309,-943.5 389,-943.5 389,-868.5 309,-868.5"/>
<text text-anchor="start" x="311" y="-903.5" font-family="Linux libertine" font-size="10.00">ttnn.from_torch</text>
<polygon fill="none" stroke="black" points="390,-906.5 390,-943.5 479,-943.5 479,-906.5 390,-906.5"/>
<text text-anchor="start" x="417.5" y="-933.5" font-family="Linux libertine" font-size="10.00">Input 0</text>
<text text-anchor="start" x="415.5" y="-922.5" font-family="Linux libertine" font-size="10.00">(1, 128)</text>
<text text-anchor="start" x="408" y="-911.5" font-family="Linux libertine" font-size="10.00">torch.int64</text>
<polygon fill="none" stroke="black" points="390,-868.5 390,-905.5 479,-905.5 479,-868.5 390,-868.5"/>
<text text-anchor="start" x="413" y="-895.5" font-family="Linux libertine" font-size="10.00">Output 0</text>
<text text-anchor="start" x="415.5" y="-884.5" font-family="Linux libertine" font-size="10.00">(1, 128)</text>
<text text-anchor="start" x="392" y="-873.5" font-family="Linux libertine" font-size="10.00">DataType.UINT32</text>
</g>
<!-- torch_input_148&#45;&gt;ttnn.from_torch_159 -->
<g id="edge2" class="edge">
<title>torch_input_148:#0&#45;&gt;ttnn.from_torch_159:$0</title>
<path fill="none" stroke="black" d="M435,-992C435,-974.68 435,-968.02 435,-954.53"/>
<polygon fill="black" stroke="black" points="438.5,-954.5 435,-944.5 431.5,-954.5 438.5,-954.5"/>
<text text-anchor="middle" x="450.5" y="-966" font-family="Times,serif" font-size="10.00">0 &#45;&gt; 0</text>
</g>
<!-- ttnn.embedding_197 -->
<g id="node9" class="node">
<title>ttnn.embedding_197</title>
<polygon fill="#dcdcdc" stroke="black" points="599,-821 321,-821 321,-744 599,-744 599,-821"/>
<polygon fill="none" stroke="black" points="322,-744.5 322,-819.5 404,-819.5 404,-744.5 322,-744.5"/>
<text text-anchor="start" x="324" y="-779.5" font-family="Linux libertine" font-size="10.00">ttnn.embedding</text>
<polygon fill="none" stroke="black" points="405,-782.5 405,-819.5 494,-819.5 494,-782.5 405,-782.5"/>
<text text-anchor="start" x="432.5" y="-809.5" font-family="Linux libertine" font-size="10.00">Input 0</text>
<text text-anchor="start" x="430.5" y="-798.5" font-family="Linux libertine" font-size="10.00">(1, 128)</text>
<text text-anchor="start" x="407" y="-787.5" font-family="Linux libertine" font-size="10.00">DataType.UINT32</text>
<polygon fill="none" stroke="black" points="495,-782.5 495,-819.5 598,-819.5 598,-782.5 495,-782.5"/>
<text text-anchor="start" x="529.5" y="-809.5" font-family="Linux libertine" font-size="10.00">Input 1</text>
<text text-anchor="start" x="527.5" y="-798.5" font-family="Linux libertine" font-size="10.00">(2, 768)</text>
<text text-anchor="start" x="497" y="-787.5" font-family="Linux libertine" font-size="10.00">DataType.BFLOAT16</text>
<polygon fill="none" stroke="black" points="405,-744.5 405,-781.5 598,-781.5 598,-744.5 405,-744.5"/>
<text text-anchor="start" x="480" y="-771.5" font-family="Linux libertine" font-size="10.00">Output 0</text>
<text text-anchor="start" x="470.5" y="-760.5" font-family="Linux libertine" font-size="10.00">(1, 128, 768)</text>
<text text-anchor="start" x="452" y="-749.5" font-family="Linux libertine" font-size="10.00">DataType.BFLOAT16</text>
</g>
<!-- ttnn.from_torch_159&#45;&gt;ttnn.embedding_197 -->
<g id="edge8" class="edge">
<title>ttnn.from_torch_159:#0&#45;&gt;ttnn.embedding_197:$0</title>
<path fill="none" stroke="black" d="M435,-868C435,-849.95 444.42,-844.36 447.81,-830.78"/>
<polygon fill="black" stroke="black" points="451.32,-830.84 449,-820.5 444.37,-830.03 451.32,-830.84"/>
<text text-anchor="middle" x="459.5" y="-842" font-family="Times,serif" font-size="10.00">0 &#45;&gt; 0</text>
</g>
<!-- ttnn_input_172 -->
<g id="node4" class="node">
<title>ttnn_input_172</title>
<polygon fill="#dcdcdc" stroke="black" points="740.5,-934 635.5,-934 635.5,-879 740.5,-879 740.5,-934"/>
<polygon fill="none" stroke="black" points="637,-917.5 637,-932.5 740,-932.5 740,-917.5 637,-917.5"/>
<text text-anchor="start" x="661" y="-922.5" font-family="Linux libertine" font-size="10.00">ttnn.Tensor</text>
<polygon fill="none" stroke="black" points="637,-879.5 637,-916.5 740,-916.5 740,-879.5 637,-879.5"/>
<text text-anchor="start" x="667" y="-906.5" font-family="Linux libertine" font-size="10.00">Output 0</text>
<text text-anchor="start" x="657.5" y="-895.5" font-family="Linux libertine" font-size="10.00">(30522, 768)</text>
<text text-anchor="start" x="639" y="-884.5" font-family="Linux libertine" font-size="10.00">DataType.BFLOAT16</text>
</g>
<!-- ttnn.embedding_184 -->
<g id="node19" class="node">
<title>ttnn.embedding_184</title>
<polygon fill="#dcdcdc" stroke="black" points="895,-821 617,-821 617,-744 895,-744 895,-821"/>
<polygon fill="none" stroke="black" points="618,-744.5 618,-819.5 700,-819.5 700,-744.5 618,-744.5"/>
<text text-anchor="start" x="620" y="-779.5" font-family="Linux libertine" font-size="10.00">ttnn.embedding</text>
<polygon fill="none" stroke="black" points="701,-782.5 701,-819.5 804,-819.5 804,-782.5 701,-782.5"/>
<text text-anchor="start" x="735.5" y="-809.5" font-family="Linux libertine" font-size="10.00">Input 0</text>
<text text-anchor="start" x="721.5" y="-798.5" font-family="Linux libertine" font-size="10.00">(30522, 768)</text>
<text text-anchor="start" x="703" y="-787.5" font-family="Linux libertine" font-size="10.00">DataType.BFLOAT16</text>
<polygon fill="none" stroke="black" points="805,-782.5 805,-819.5 894,-819.5 894,-782.5 805,-782.5"/>
<text text-anchor="start" x="832.5" y="-809.5" font-family="Linux libertine" font-size="10.00">Input 1</text>
<text text-anchor="start" x="830.5" y="-798.5" font-family="Linux libertine" font-size="10.00">(1, 128)</text>
<text text-anchor="start" x="807" y="-787.5" font-family="Linux libertine" font-size="10.00">DataType.UINT32</text>
<polygon fill="none" stroke="black" points="701,-744.5 701,-781.5 894,-781.5 894,-744.5 701,-744.5"/>
<text text-anchor="start" x="776" y="-771.5" font-family="Linux libertine" font-size="10.00">Output 0</text>
<text text-anchor="start" x="766.5" y="-760.5" font-family="Linux libertine" font-size="10.00">(1, 128, 768)</text>
<text text-anchor="start" x="748" y="-749.5" font-family="Linux libertine" font-size="10.00">DataType.BFLOAT16</text>
</g>
<!-- ttnn_input_172&#45;&gt;ttnn.embedding_184 -->
<g id="edge18" class="edge">
<title>ttnn_input_172:#0&#45;&gt;ttnn.embedding_184:$1</title>
<path fill="none" stroke="black" d="M689,-878.5C689,-840.04 729.81,-852.02 766,-839 780.61,-833.74 826.93,-837.43 843.79,-828.75"/>
<polygon fill="black" stroke="black" points="846.78,-830.59 850,-820.5 841.19,-826.38 846.78,-830.59"/>
<text text-anchor="middle" x="781.5" y="-842" font-family="Times,serif" font-size="10.00">0 &#45;&gt; 1</text>
</g>
<!-- ttnn.add_216 -->
<g id="node5" class="node">
<title>ttnn.add_216</title>
<polygon fill="#dcdcdc" stroke="black" points="426.5,-573 171.5,-573 171.5,-496 426.5,-496 426.5,-573"/>
<polygon fill="none" stroke="black" points="173,-496.5 173,-571.5 218,-571.5 218,-496.5 173,-496.5"/>
<text text-anchor="start" x="175" y="-531.5" font-family="Linux libertine" font-size="10.00">ttnn.add</text>
<polygon fill="none" stroke="black" points="219,-534.5 219,-571.5 322,-571.5 322,-534.5 219,-534.5"/>
<text text-anchor="start" x="253.5" y="-561.5" font-family="Linux libertine" font-size="10.00">Input 0</text>
<text text-anchor="start" x="239.5" y="-550.5" font-family="Linux libertine" font-size="10.00">(1, 128, 768)</text>
<text text-anchor="start" x="221" y="-539.5" font-family="Linux libertine" font-size="10.00">DataType.BFLOAT16</text>
<polygon fill="none" stroke="black" points="323,-534.5 323,-571.5 426,-571.5 426,-534.5 323,-534.5"/>
<text text-anchor="start" x="357.5" y="-561.5" font-family="Linux libertine" font-size="10.00">Input 1</text>
<text text-anchor="start" x="343.5" y="-550.5" font-family="Linux libertine" font-size="10.00">(1, 128, 768)</text>
<text text-anchor="start" x="325" y="-539.5" font-family="Linux libertine" font-size="10.00">DataType.BFLOAT16</text>
<polygon fill="none" stroke="black" points="219,-496.5 219,-533.5 426,-533.5 426,-496.5 219,-496.5"/>
<text text-anchor="start" x="301" y="-523.5" font-family="Linux libertine" font-size="10.00">Output 0</text>
<text text-anchor="start" x="291.5" y="-512.5" font-family="Linux libertine" font-size="10.00">(1, 128, 768)</text>
<text text-anchor="start" x="273" y="-501.5" font-family="Linux libertine" font-size="10.00">DataType.BFLOAT16</text>
</g>
<!-- ttnn.layer_norm_233 -->
<g id="node13" class="node">
<title>ttnn.layer_norm_233</title>
<polygon fill="#dcdcdc" stroke="black" points="583.5,-449 186.5,-449 186.5,-372 583.5,-372 583.5,-449"/>
<polygon fill="none" stroke="black" points="188,-372.5 188,-447.5 271,-447.5 271,-372.5 188,-372.5"/>
<text text-anchor="start" x="190" y="-407.5" font-family="Linux libertine" font-size="10.00">ttnn.layer_norm</text>
<polygon fill="none" stroke="black" points="272,-410.5 272,-447.5 375,-447.5 375,-410.5 272,-410.5"/>
<text text-anchor="start" x="306.5" y="-437.5" font-family="Linux libertine" font-size="10.00">Input 0</text>
<text text-anchor="start" x="292.5" y="-426.5" font-family="Linux libertine" font-size="10.00">(1, 128, 768)</text>
<text text-anchor="start" x="274" y="-415.5" font-family="Linux libertine" font-size="10.00">DataType.BFLOAT16</text>
<polygon fill="none" stroke="black" points="376,-410.5 376,-447.5 479,-447.5 479,-410.5 376,-410.5"/>
<text text-anchor="start" x="410.5" y="-437.5" font-family="Linux libertine" font-size="10.00">Input 1</text>
<text text-anchor="start" x="408.5" y="-426.5" font-family="Linux libertine" font-size="10.00">(1, 768)</text>
<text text-anchor="start" x="378" y="-415.5" font-family="Linux libertine" font-size="10.00">DataType.BFLOAT16</text>
<polygon fill="none" stroke="black" points="480,-410.5 480,-447.5 583,-447.5 583,-410.5 480,-410.5"/>
<text text-anchor="start" x="514.5" y="-437.5" font-family="Linux libertine" font-size="10.00">Input 2</text>
<text text-anchor="start" x="512.5" y="-426.5" font-family="Linux libertine" font-size="10.00">(1, 768)</text>
<text text-anchor="start" x="482" y="-415.5" font-family="Linux libertine" font-size="10.00">DataType.BFLOAT16</text>
<polygon fill="none" stroke="black" points="272,-372.5 272,-409.5 583,-409.5 583,-372.5 272,-372.5"/>
<text text-anchor="start" x="406" y="-399.5" font-family="Linux libertine" font-size="10.00">Output 0</text>
<text text-anchor="start" x="396.5" y="-388.5" font-family="Linux libertine" font-size="10.00">(1, 128, 768)</text>
<text text-anchor="start" x="378" y="-377.5" font-family="Linux libertine" font-size="10.00">DataType.BFLOAT16</text>
</g>
<!-- ttnn.add_216&#45;&gt;ttnn.layer_norm_233 -->
<g id="edge11" class="edge">
<title>ttnn.add_216:#0&#45;&gt;ttnn.layer_norm_233:$0</title>
<path fill="none" stroke="black" d="M323,-496C323,-478.68 323,-472.02 323,-458.53"/>
<polygon fill="black" stroke="black" points="326.5,-458.5 323,-448.5 319.5,-458.5 326.5,-458.5"/>
<text text-anchor="middle" x="338.5" y="-470" font-family="Times,serif" font-size="10.00">0 &#45;&gt; 0</text>
</g>
<!-- ttnn.from_torch_147 -->
<g id="node6" class="node">
<title>ttnn.from_torch_147</title>
<polygon fill="#dcdcdc" stroke="black" points="931,-945 759,-945 759,-868 931,-868 931,-945"/>
<polygon fill="none" stroke="black" points="760,-868.5 760,-943.5 840,-943.5 840,-868.5 760,-868.5"/>
<text text-anchor="start" x="762" y="-903.5" font-family="Linux libertine" font-size="10.00">ttnn.from_torch</text>
<polygon fill="none" stroke="black" points="841,-906.5 841,-943.5 930,-943.5 930,-906.5 841,-906.5"/>
<text text-anchor="start" x="868.5" y="-933.5" font-family="Linux libertine" font-size="10.00">Input 0</text>
<text text-anchor="start" x="866.5" y="-922.5" font-family="Linux libertine" font-size="10.00">(1, 128)</text>
<text text-anchor="start" x="859" y="-911.5" font-family="Linux libertine" font-size="10.00">torch.int64</text>
<polygon fill="none" stroke="black" points="841,-868.5 841,-905.5 930,-905.5 930,-868.5 841,-868.5"/>
<text text-anchor="start" x="864" y="-895.5" font-family="Linux libertine" font-size="10.00">Output 0</text>
<text text-anchor="start" x="866.5" y="-884.5" font-family="Linux libertine" font-size="10.00">(1, 128)</text>
<text text-anchor="start" x="843" y="-873.5" font-family="Linux libertine" font-size="10.00">DataType.UINT32</text>
</g>
<!-- ttnn.from_torch_147&#45;&gt;ttnn.embedding_184 -->
<g id="edge19" class="edge">
<title>ttnn.from_torch_147:#0&#45;&gt;ttnn.embedding_184:$0</title>
<path fill="none" stroke="black" d="M886,-868C886,-854.49 787.94,-840.89 759.59,-827.36"/>
<polygon fill="black" stroke="black" points="761.77,-824.61 752,-820.5 757.07,-829.8 761.77,-824.61"/>
<text text-anchor="middle" x="857.5" y="-842" font-family="Times,serif" font-size="10.00">0 &#45;&gt; 0</text>
</g>
<!-- ttnn_input_198 -->
<g id="node7" class="node">
<title>ttnn_input_198</title>
<polygon fill="#dcdcdc" stroke="black" points="295.5,-810 190.5,-810 190.5,-755 295.5,-755 295.5,-810"/>
<polygon fill="none" stroke="black" points="192,-793.5 192,-808.5 295,-808.5 295,-793.5 192,-793.5"/>
<text text-anchor="start" x="216" y="-798.5" font-family="Linux libertine" font-size="10.00">ttnn.Tensor</text>
<polygon fill="none" stroke="black" points="192,-755.5 192,-792.5 295,-792.5 295,-755.5 192,-755.5"/>
<text text-anchor="start" x="222" y="-782.5" font-family="Linux libertine" font-size="10.00">Output 0</text>
<text text-anchor="start" x="218.5" y="-771.5" font-family="Linux libertine" font-size="10.00">(512, 768)</text>
<text text-anchor="start" x="194" y="-760.5" font-family="Linux libertine" font-size="10.00">DataType.BFLOAT16</text>
</g>
<!-- ttnn_input_198&#45;&gt;ttnn.embedding_210 -->
<g id="edge7" class="edge">
<title>ttnn_input_198:#0&#45;&gt;ttnn.embedding_210:$1</title>
<path fill="none" stroke="black" d="M244,-754.5C244,-732.29 237.47,-724.76 235.54,-706.91"/>
<polygon fill="black" stroke="black" points="239.01,-706.31 235,-696.5 232.02,-706.67 239.01,-706.31"/>
<text text-anchor="middle" x="255.5" y="-718" font-family="Times,serif" font-size="10.00">0 &#45;&gt; 1</text>
</g>
<!-- ttnn.embedding_210&#45;&gt;ttnn.add_216 -->
<g id="edge3" class="edge">
<title>ttnn.embedding_210:#0&#45;&gt;ttnn.add_216:$1</title>
<path fill="none" stroke="black" d="M190,-620C190,-585.09 229.36,-600.34 263,-591 283.79,-585.22 350.98,-594.25 369.96,-581.19"/>
<polygon fill="black" stroke="black" points="373.01,-582.91 375,-572.5 366.96,-579.39 373.01,-582.91"/>
<text text-anchor="middle" x="278.5" y="-594" font-family="Times,serif" font-size="10.00">0 &#45;&gt; 1</text>
</g>
<!-- ttnn.add_213 -->
<g id="node18" class="node">
<title>ttnn.add_213</title>
<polygon fill="#dcdcdc" stroke="black" points="560.5,-697 305.5,-697 305.5,-620 560.5,-620 560.5,-697"/>
<polygon fill="none" stroke="black" points="307,-620.5 307,-695.5 352,-695.5 352,-620.5 307,-620.5"/>
<text text-anchor="start" x="309" y="-655.5" font-family="Linux libertine" font-size="10.00">ttnn.add</text>
<polygon fill="none" stroke="black" points="353,-658.5 353,-695.5 456,-695.5 456,-658.5 353,-658.5"/>
<text text-anchor="start" x="387.5" y="-685.5" font-family="Linux libertine" font-size="10.00">Input 0</text>
<text text-anchor="start" x="373.5" y="-674.5" font-family="Linux libertine" font-size="10.00">(1, 128, 768)</text>
<text text-anchor="start" x="355" y="-663.5" font-family="Linux libertine" font-size="10.00">DataType.BFLOAT16</text>
<polygon fill="none" stroke="black" points="457,-658.5 457,-695.5 560,-695.5 560,-658.5 457,-658.5"/>
<text text-anchor="start" x="491.5" y="-685.5" font-family="Linux libertine" font-size="10.00">Input 1</text>
<text text-anchor="start" x="477.5" y="-674.5" font-family="Linux libertine" font-size="10.00">(1, 128, 768)</text>
<text text-anchor="start" x="459" y="-663.5" font-family="Linux libertine" font-size="10.00">DataType.BFLOAT16</text>
<polygon fill="none" stroke="black" points="353,-620.5 353,-657.5 560,-657.5 560,-620.5 353,-620.5"/>
<text text-anchor="start" x="435" y="-647.5" font-family="Linux libertine" font-size="10.00">Output 0</text>
<text text-anchor="start" x="425.5" y="-636.5" font-family="Linux libertine" font-size="10.00">(1, 128, 768)</text>
<text text-anchor="start" x="407" y="-625.5" font-family="Linux libertine" font-size="10.00">DataType.BFLOAT16</text>
</g>
<!-- ttnn.embedding_197&#45;&gt;ttnn.add_213 -->
<g id="edge16" class="edge">
<title>ttnn.embedding_197:#0&#45;&gt;ttnn.add_213:$1</title>
<path fill="none" stroke="black" d="M502,-744C502,-726.5 506.71,-720.11 508.4,-706.59"/>
<polygon fill="black" stroke="black" points="511.9,-706.69 509,-696.5 504.92,-706.28 511.9,-706.69"/>
<text text-anchor="middle" x="521.5" y="-718" font-family="Times,serif" font-size="10.00">0 &#45;&gt; 1</text>
</g>
<!-- ttnn_input_217 -->
<g id="node10" class="node">
<title>ttnn_input_217</title>
<polygon fill="#dcdcdc" stroke="black" points="689.5,-562 584.5,-562 584.5,-507 689.5,-507 689.5,-562"/>
<polygon fill="none" stroke="black" points="586,-545.5 586,-560.5 689,-560.5 689,-545.5 586,-545.5"/>
<text text-anchor="start" x="610" y="-550.5" font-family="Linux libertine" font-size="10.00">ttnn.Tensor</text>
<polygon fill="none" stroke="black" points="586,-507.5 586,-544.5 689,-544.5 689,-507.5 586,-507.5"/>
<text text-anchor="start" x="616" y="-534.5" font-family="Linux libertine" font-size="10.00">Output 0</text>
<text text-anchor="start" x="618.5" y="-523.5" font-family="Linux libertine" font-size="10.00">(1, 768)</text>
<text text-anchor="start" x="588" y="-512.5" font-family="Linux libertine" font-size="10.00">DataType.BFLOAT16</text>
</g>
<!-- ttnn_input_217&#45;&gt;ttnn.layer_norm_233 -->
<g id="edge13" class="edge">
<title>ttnn_input_217:#0&#45;&gt;ttnn.layer_norm_233:$1</title>
<path fill="none" stroke="black" d="M638,-506.5C638,-468.83 598.87,-478.51 563,-467 537.77,-458.91 453.33,-474 432.62,-457.61"/>
<polygon fill="black" stroke="black" points="435.64,-455.84 428,-448.5 429.4,-459 435.64,-455.84"/>
<text text-anchor="middle" x="632.5" y="-470" font-family="Times,serif" font-size="10.00">0 &#45;&gt; 1</text>
</g>
<!-- ttnn.to_torch_260 -->
<g id="node11" class="node">
<title>ttnn.to_torch_260</title>
<polygon fill="#dcdcdc" stroke="black" points="426.5,-77 253.5,-77 253.5,0 426.5,0 426.5,-77"/>
<polygon fill="none" stroke="black" points="255,-0.5 255,-75.5 322,-75.5 322,-0.5 255,-0.5"/>
<text text-anchor="start" x="257" y="-35.5" font-family="Linux libertine" font-size="10.00">ttnn.to_torch</text>
<polygon fill="none" stroke="black" points="323,-38.5 323,-75.5 426,-75.5 426,-38.5 323,-38.5"/>
<text text-anchor="start" x="357.5" y="-65.5" font-family="Linux libertine" font-size="10.00">Input 0</text>
<text text-anchor="start" x="343.5" y="-54.5" font-family="Linux libertine" font-size="10.00">(1, 128, 768)</text>
<text text-anchor="start" x="325" y="-43.5" font-family="Linux libertine" font-size="10.00">DataType.BFLOAT16</text>
<polygon fill="none" stroke="black" points="323,-0.5 323,-37.5 426,-37.5 426,-0.5 323,-0.5"/>
<text text-anchor="start" x="353" y="-27.5" font-family="Linux libertine" font-size="10.00">Output 0</text>
<text text-anchor="start" x="343.5" y="-16.5" font-family="Linux libertine" font-size="10.00">(1, 128, 768)</text>
<text text-anchor="start" x="340.5" y="-5.5" font-family="Linux libertine" font-size="10.00">torch.bfloat16</text>
</g>
<!-- torch_input_136 -->
<g id="node12" class="node">
<title>torch_input_136</title>
<polygon fill="#dcdcdc" stroke="black" points="919,-1052.5 853,-1052.5 853,-997.5 919,-997.5 919,-1052.5"/>
<polygon fill="none" stroke="black" points="854,-1036 854,-1051 918,-1051 918,-1036 854,-1036"/>
<text text-anchor="start" x="856" y="-1041" font-family="Linux libertine" font-size="10.00">torch.Tensor</text>
<polygon fill="none" stroke="black" points="854,-998 854,-1035 918,-1035 918,-998 854,-998"/>
<text text-anchor="start" x="864.5" y="-1025" font-family="Linux libertine" font-size="10.00">Output 0</text>
<text text-anchor="start" x="867" y="-1014" font-family="Linux libertine" font-size="10.00">(1, 128)</text>
<text text-anchor="start" x="859.5" y="-1003" font-family="Linux libertine" font-size="10.00">torch.int64</text>
</g>
<!-- torch_input_136&#45;&gt;ttnn.from_torch_147 -->
<g id="edge5" class="edge">
<title>torch_input_136:#0&#45;&gt;ttnn.from_torch_147:$0</title>
<path fill="none" stroke="black" d="M886,-997C886,-977.49 886,-970.22 886,-954.73"/>
<polygon fill="black" stroke="black" points="889.5,-954.5 886,-944.5 882.5,-954.5 889.5,-954.5"/>
<text text-anchor="middle" x="901.5" y="-966" font-family="Times,serif" font-size="10.00">0 &#45;&gt; 0</text>
</g>
<!-- ttnn.matmul_248 -->
<g id="node20" class="node">
<title>ttnn.matmul_248</title>
<polygon fill="#dcdcdc" stroke="black" points="645.5,-325 370.5,-325 370.5,-248 645.5,-248 645.5,-325"/>
<polygon fill="none" stroke="black" points="372,-248.5 372,-323.5 437,-323.5 437,-248.5 372,-248.5"/>
<text text-anchor="start" x="374" y="-283.5" font-family="Linux libertine" font-size="10.00">ttnn.matmul</text>
<polygon fill="none" stroke="black" points="438,-286.5 438,-323.5 541,-323.5 541,-286.5 438,-286.5"/>
<text text-anchor="start" x="472.5" y="-313.5" font-family="Linux libertine" font-size="10.00">Input 0</text>
<text text-anchor="start" x="458.5" y="-302.5" font-family="Linux libertine" font-size="10.00">(1, 128, 768)</text>
<text text-anchor="start" x="440" y="-291.5" font-family="Linux libertine" font-size="10.00">DataType.BFLOAT16</text>
<polygon fill="none" stroke="black" points="542,-286.5 542,-323.5 645,-323.5 645,-286.5 542,-286.5"/>
<text text-anchor="start" x="576.5" y="-313.5" font-family="Linux libertine" font-size="10.00">Input 1</text>
<text text-anchor="start" x="568.5" y="-302.5" font-family="Linux libertine" font-size="10.00">(768, 768)</text>
<text text-anchor="start" x="544" y="-291.5" font-family="Linux libertine" font-size="10.00">DataType.BFLOAT16</text>
<polygon fill="none" stroke="black" points="438,-248.5 438,-285.5 645,-285.5 645,-248.5 438,-248.5"/>
<text text-anchor="start" x="520" y="-275.5" font-family="Linux libertine" font-size="10.00">Output 0</text>
<text text-anchor="start" x="510.5" y="-264.5" font-family="Linux libertine" font-size="10.00">(1, 128, 768)</text>
<text text-anchor="start" x="492" y="-253.5" font-family="Linux libertine" font-size="10.00">DataType.BFLOAT16</text>
</g>
<!-- ttnn.layer_norm_233&#45;&gt;ttnn.matmul_248 -->
<g id="edge20" class="edge">
<title>ttnn.layer_norm_233:#0&#45;&gt;ttnn.matmul_248:$0</title>
<path fill="none" stroke="black" d="M428,-372C428,-341.67 475.54,-354.65 486.68,-334.47"/>
<polygon fill="black" stroke="black" points="490.15,-335.03 489,-324.5 483.33,-333.45 490.15,-335.03"/>
<text text-anchor="middle" x="490.5" y="-346" font-family="Times,serif" font-size="10.00">0 &#45;&gt; 0</text>
</g>
<!-- ttnn.add_252 -->
<g id="node14" class="node">
<title>ttnn.add_252</title>
<polygon fill="#dcdcdc" stroke="black" points="478.5,-201 223.5,-201 223.5,-124 478.5,-124 478.5,-201"/>
<polygon fill="none" stroke="black" points="225,-124.5 225,-199.5 270,-199.5 270,-124.5 225,-124.5"/>
<text text-anchor="start" x="227" y="-159.5" font-family="Linux libertine" font-size="10.00">ttnn.add</text>
<polygon fill="none" stroke="black" points="271,-162.5 271,-199.5 374,-199.5 374,-162.5 271,-162.5"/>
<text text-anchor="start" x="305.5" y="-189.5" font-family="Linux libertine" font-size="10.00">Input 0</text>
<text text-anchor="start" x="303.5" y="-178.5" font-family="Linux libertine" font-size="10.00">(1, 768)</text>
<text text-anchor="start" x="273" y="-167.5" font-family="Linux libertine" font-size="10.00">DataType.BFLOAT16</text>
<polygon fill="none" stroke="black" points="375,-162.5 375,-199.5 478,-199.5 478,-162.5 375,-162.5"/>
<text text-anchor="start" x="409.5" y="-189.5" font-family="Linux libertine" font-size="10.00">Input 1</text>
<text text-anchor="start" x="395.5" y="-178.5" font-family="Linux libertine" font-size="10.00">(1, 128, 768)</text>
<text text-anchor="start" x="377" y="-167.5" font-family="Linux libertine" font-size="10.00">DataType.BFLOAT16</text>
<polygon fill="none" stroke="black" points="271,-124.5 271,-161.5 478,-161.5 478,-124.5 271,-124.5"/>
<text text-anchor="start" x="353" y="-151.5" font-family="Linux libertine" font-size="10.00">Output 0</text>
<text text-anchor="start" x="343.5" y="-140.5" font-family="Linux libertine" font-size="10.00">(1, 128, 768)</text>
<text text-anchor="start" x="325" y="-129.5" font-family="Linux libertine" font-size="10.00">DataType.BFLOAT16</text>
</g>
<!-- ttnn.add_252&#45;&gt;ttnn.to_torch_260 -->
<g id="edge10" class="edge">
<title>ttnn.add_252:#0&#45;&gt;ttnn.to_torch_260:$0</title>
<path fill="none" stroke="black" d="M375,-124C375,-106.68 375,-100.02 375,-86.53"/>
<polygon fill="black" stroke="black" points="378.5,-86.5 375,-76.5 371.5,-86.5 378.5,-86.5"/>
<text text-anchor="middle" x="390.5" y="-98" font-family="Times,serif" font-size="10.00">0 &#45;&gt; 0</text>
</g>
<!-- ttnn_input_249 -->
<g id="node15" class="node">
<title>ttnn_input_249</title>
<polygon fill="#dcdcdc" stroke="black" points="352.5,-314 247.5,-314 247.5,-259 352.5,-259 352.5,-314"/>
<polygon fill="none" stroke="black" points="249,-297.5 249,-312.5 352,-312.5 352,-297.5 249,-297.5"/>
<text text-anchor="start" x="273" y="-302.5" font-family="Linux libertine" font-size="10.00">ttnn.Tensor</text>
<polygon fill="none" stroke="black" points="249,-259.5 249,-296.5 352,-296.5 352,-259.5 249,-259.5"/>
<text text-anchor="start" x="279" y="-286.5" font-family="Linux libertine" font-size="10.00">Output 0</text>
<text text-anchor="start" x="281.5" y="-275.5" font-family="Linux libertine" font-size="10.00">(1, 768)</text>
<text text-anchor="start" x="251" y="-264.5" font-family="Linux libertine" font-size="10.00">DataType.BFLOAT16</text>
</g>
<!-- ttnn_input_249&#45;&gt;ttnn.add_252 -->
<g id="edge14" class="edge">
<title>ttnn_input_249:#0&#45;&gt;ttnn.add_252:$1</title>
<path fill="none" stroke="black" d="M301,-258.5C301,-245.32 393.21,-223.52 419.86,-207.85"/>
<polygon fill="black" stroke="black" points="422.54,-210.11 427,-200.5 417.52,-205.24 422.54,-210.11"/>
<text text-anchor="middle" x="408.5" y="-222" font-family="Times,serif" font-size="10.00">0 &#45;&gt; 1</text>
</g>
<!-- ttnn_input_218 -->
<g id="node16" class="node">
<title>ttnn_input_218</title>
<polygon fill="#dcdcdc" stroke="black" points="566.5,-562 461.5,-562 461.5,-507 566.5,-507 566.5,-562"/>
<polygon fill="none" stroke="black" points="463,-545.5 463,-560.5 566,-560.5 566,-545.5 463,-545.5"/>
<text text-anchor="start" x="487" y="-550.5" font-family="Linux libertine" font-size="10.00">ttnn.Tensor</text>
<polygon fill="none" stroke="black" points="463,-507.5 463,-544.5 566,-544.5 566,-507.5 463,-507.5"/>
<text text-anchor="start" x="493" y="-534.5" font-family="Linux libertine" font-size="10.00">Output 0</text>
<text text-anchor="start" x="495.5" y="-523.5" font-family="Linux libertine" font-size="10.00">(1, 768)</text>
<text text-anchor="start" x="465" y="-512.5" font-family="Linux libertine" font-size="10.00">DataType.BFLOAT16</text>
</g>
<!-- ttnn_input_218&#45;&gt;ttnn.layer_norm_233 -->
<g id="edge12" class="edge">
<title>ttnn_input_218:#0&#45;&gt;ttnn.layer_norm_233:$2</title>
<path fill="none" stroke="black" d="M515,-506.5C515,-483.42 527.55,-477.01 531.09,-458.62"/>
<polygon fill="black" stroke="black" points="534.59,-458.77 532,-448.5 527.61,-458.14 534.59,-458.77"/>
<text text-anchor="middle" x="543.5" y="-470" font-family="Times,serif" font-size="10.00">0 &#45;&gt; 2</text>
</g>
<!-- torch_input_160 -->
<g id="node17" class="node">
<title>torch_input_160</title>
<polygon fill="#dcdcdc" stroke="black" points="171,-939.5 83,-939.5 83,-873.5 171,-873.5 171,-939.5"/>
<polygon fill="none" stroke="black" points="84,-912.5 84,-938.5 170,-938.5 170,-912.5 84,-912.5"/>
<text text-anchor="start" x="95.5" y="-928.5" font-family="Linux libertine" font-size="10.00">torch.randint</text>
<text text-anchor="start" x="86" y="-917.5" font-family="Linux libertine" font-size="10.00">duration: 15.0 µs</text>
<polygon fill="none" stroke="black" points="84,-874.5 84,-911.5 170,-911.5 170,-874.5 84,-874.5"/>
<text text-anchor="start" x="105.5" y="-901.5" font-family="Linux libertine" font-size="10.00">Output 0</text>
<text text-anchor="start" x="108" y="-890.5" font-family="Linux libertine" font-size="10.00">(1, 128)</text>
<text text-anchor="start" x="100.5" y="-879.5" font-family="Linux libertine" font-size="10.00">torch.int64</text>
</g>
<!-- torch_input_160&#45;&gt;ttnn.from_torch_171 -->
<g id="edge1" class="edge">
<title>torch_input_160:#0&#45;&gt;ttnn.from_torch_171:$0</title>
<path fill="none" stroke="black" d="M127,-873.5C127,-853.81 127,-846.46 127,-830.82"/>
<polygon fill="black" stroke="black" points="130.5,-830.5 127,-820.5 123.5,-830.5 130.5,-830.5"/>
<text text-anchor="middle" x="142.5" y="-842" font-family="Times,serif" font-size="10.00">0 &#45;&gt; 0</text>
</g>
<!-- ttnn.add_213&#45;&gt;ttnn.add_216 -->
<g id="edge4" class="edge">
<title>ttnn.add_213:#0&#45;&gt;ttnn.add_216:$0</title>
<path fill="none" stroke="black" d="M457,-620C457,-580.81 300.76,-609.4 273.91,-581.86"/>
<polygon fill="black" stroke="black" points="277.08,-580.38 270,-572.5 270.62,-583.08 277.08,-580.38"/>
<text text-anchor="middle" x="448.5" y="-594" font-family="Times,serif" font-size="10.00">0 &#45;&gt; 0</text>
</g>
<!-- ttnn.embedding_184&#45;&gt;ttnn.add_213 -->
<g id="edge17" class="edge">
<title>ttnn.embedding_184:#0&#45;&gt;ttnn.add_213:$0</title>
<path fill="none" stroke="black" d="M798,-744C798,-734.01 474.41,-712.17 413.74,-699.96"/>
<polygon fill="black" stroke="black" points="414.59,-696.55 404,-696.5 412.25,-703.14 414.59,-696.55"/>
<text text-anchor="middle" x="674.5" y="-718" font-family="Times,serif" font-size="10.00">0 &#45;&gt; 0</text>
</g>
<!-- ttnn.matmul_248&#45;&gt;ttnn.add_252 -->
<g id="edge15" class="edge">
<title>ttnn.matmul_248:#0&#45;&gt;ttnn.add_252:$0</title>
<path fill="none" stroke="black" d="M542,-248C542,-194.86 477.97,-230.1 426,-219 406.63,-214.86 345.91,-221.25 327.41,-209.24"/>
<polygon fill="black" stroke="black" points="330.24,-207.17 322,-200.5 324.28,-210.85 330.24,-207.17"/>
<text text-anchor="middle" x="552.5" y="-222" font-family="Times,serif" font-size="10.00">0 &#45;&gt; 0</text>
</g>
<!-- ttnn_input_234 -->
<g id="node21" class="node">
<title>ttnn_input_234</title>
<polygon fill="#dcdcdc" stroke="black" points="706.5,-438 601.5,-438 601.5,-383 706.5,-383 706.5,-438"/>
<polygon fill="none" stroke="black" points="603,-421.5 603,-436.5 706,-436.5 706,-421.5 603,-421.5"/>
<text text-anchor="start" x="627" y="-426.5" font-family="Linux libertine" font-size="10.00">ttnn.Tensor</text>
<polygon fill="none" stroke="black" points="603,-383.5 603,-420.5 706,-420.5 706,-383.5 603,-383.5"/>
<text text-anchor="start" x="633" y="-410.5" font-family="Linux libertine" font-size="10.00">Output 0</text>
<text text-anchor="start" x="629.5" y="-399.5" font-family="Linux libertine" font-size="10.00">(768, 768)</text>
<text text-anchor="start" x="605" y="-388.5" font-family="Linux libertine" font-size="10.00">DataType.BFLOAT16</text>
</g>
<!-- ttnn_input_234&#45;&gt;ttnn.matmul_248 -->
<g id="edge21" class="edge">
<title>ttnn_input_234:#0&#45;&gt;ttnn.matmul_248:$1</title>
<path fill="none" stroke="black" d="M655,-382.5C655,-352.22 674.66,-315.69 656.03,-307.28"/>
<polygon fill="black" stroke="black" points="656.46,-303.8 646,-305.5 655.23,-310.69 656.46,-303.8"/>
<text text-anchor="middle" x="675.5" y="-346" font-family="Times,serif" font-size="10.00">0 &#45;&gt; 1</text>
</g>
<!-- ttnn_input_185 -->
<g id="node22" class="node">
<title>ttnn_input_185</title>
<polygon fill="#dcdcdc" stroke="black" points="603.5,-934 498.5,-934 498.5,-879 603.5,-879 603.5,-934"/>
<polygon fill="none" stroke="black" points="500,-917.5 500,-932.5 603,-932.5 603,-917.5 500,-917.5"/>
<text text-anchor="start" x="524" y="-922.5" font-family="Linux libertine" font-size="10.00">ttnn.Tensor</text>
<polygon fill="none" stroke="black" points="500,-879.5 500,-916.5 603,-916.5 603,-879.5 500,-879.5"/>
<text text-anchor="start" x="530" y="-906.5" font-family="Linux libertine" font-size="10.00">Output 0</text>
<text text-anchor="start" x="532.5" y="-895.5" font-family="Linux libertine" font-size="10.00">(2, 768)</text>
<text text-anchor="start" x="502" y="-884.5" font-family="Linux libertine" font-size="10.00">DataType.BFLOAT16</text>
</g>
<!-- ttnn_input_185&#45;&gt;ttnn.embedding_197 -->
<g id="edge9" class="edge">
<title>ttnn_input_185:#0&#45;&gt;ttnn.embedding_197:$1</title>
<path fill="none" stroke="black" d="M552,-878.5C552,-856.47 548.37,-848.66 547.3,-830.85"/>
<polygon fill="black" stroke="black" points="550.79,-830.4 547,-820.5 543.79,-830.6 550.79,-830.4"/>
<text text-anchor="middle" x="564.5" y="-842" font-family="Times,serif" font-size="10.00">0 &#45;&gt; 1</text>
</g>
</g>
</svg>
