<svg xmlns="http://www.w3.org/2000/svg" xmlns:xlink="http://www.w3.org/1999/xlink" width="766pt" height="2319pt" viewBox="0.00 0.00 765.52 2319.00">
<g id="graph0" class="graph" transform="scale(1 1) rotate(0) translate(4 2315)">
<title>%3</title>
<polygon fill="white" stroke="transparent" points="-4,4 -4,-2315 761.52,-2315 761.52,4 -4,4"/>
<g id="clust1" class="cluster">
<title>_31</title>
<polygon fill="#0000ff" fill-opacity="0.501961" stroke="black" points="8,-8 8,-2207 552,-2207 552,-8 8,-8"/>
<text text-anchor="middle" x="280" y="-2191.8" font-family="Times,serif" font-size="14.00">__main__.TorchBasicBlock</text>
<text text-anchor="middle" x="280" y="-2176.8" font-family="Times,serif" font-size="14.00">duration: 22.3 ms</text>
</g>
<g id="clust2" class="cluster">
<title>conv1_5</title>
<polygon fill="#ee00ee" fill-opacity="0.501961" stroke="black" points="150,-1762 150,-2057 398,-2057 398,-1762 150,-1762"/>
<text text-anchor="middle" x="274" y="-2041.8" font-family="Times,serif" font-size="14.00">torch.nn.modules.conv.Conv2d</text>
<text text-anchor="middle" x="274" y="-2026.8" font-family="Times,serif" font-size="14.00">conv1</text>
<text text-anchor="middle" x="274" y="-2011.8" font-family="Times,serif" font-size="14.00">duration: 11.5 ms</text>
</g>
<g id="clust3" class="cluster">
<title>bn1_12</title>
<polygon fill="#ee00ee" fill-opacity="0.501961" stroke="black" points="16,-1438 16,-1733 532,-1733 532,-1438 16,-1438"/>
<text text-anchor="middle" x="274" y="-1717.8" font-family="Times,serif" font-size="14.00">torch.nn.modules.batchnorm.BatchNorm2d</text>
<text text-anchor="middle" x="274" y="-1702.8" font-family="Times,serif" font-size="14.00">bn1</text>
<text text-anchor="middle" x="274" y="-1687.8" font-family="Times,serif" font-size="14.00">duration: 3.1 ms</text>
</g>
<g id="clust4" class="cluster">
<title>relu_15</title>
<polygon fill="#ee00ee" fill-opacity="0.501961" stroke="black" points="157,-1125 157,-1409 417,-1409 417,-1125 157,-1125"/>
<text text-anchor="middle" x="287" y="-1393.8" font-family="Times,serif" font-size="14.00">torch.nn.modules.activation.ReLU</text>
<text text-anchor="middle" x="287" y="-1378.8" font-family="Times,serif" font-size="14.00">relu</text>
<text text-anchor="middle" x="287" y="-1363.8" font-family="Times,serif" font-size="14.00">duration: 312.3 µs</text>
</g>
<g id="clust5" class="cluster">
<title>conv2_19</title>
<polygon fill="#ee00ee" fill-opacity="0.501961" stroke="black" points="267,-801 267,-1096 509,-1096 509,-801 267,-801"/>
<text text-anchor="middle" x="388" y="-1080.8" font-family="Times,serif" font-size="14.00">torch.nn.modules.conv.Conv2d</text>
<text text-anchor="middle" x="388" y="-1065.8" font-family="Times,serif" font-size="14.00">conv2</text>
<text text-anchor="middle" x="388" y="-1050.8" font-family="Times,serif" font-size="14.00">duration: 4.6 ms</text>
</g>
<g id="clust6" class="cluster">
<title>bn2_26</title>
<polygon fill="#ee00ee" fill-opacity="0.501961" stroke="black" points="16,-477 16,-772 532,-772 532,-477 16,-477"/>
<text text-anchor="middle" x="274" y="-756.8" font-family="Times,serif" font-size="14.00">torch.nn.modules.batchnorm.BatchNorm2d</text>
<text text-anchor="middle" x="274" y="-741.8" font-family="Times,serif" font-size="14.00">bn2</text>
<text text-anchor="middle" x="274" y="-726.8" font-family="Times,serif" font-size="14.00">duration: 957.7 µs</text>
</g>
<g id="clust7" class="cluster">
<title>relu_30</title>
<polygon fill="#ee00ee" fill-opacity="0.501961" stroke="black" points="260,-16 260,-300 520,-300 520,-16 260,-16"/>
<text text-anchor="middle" x="390" y="-284.8" font-family="Times,serif" font-size="14.00">torch.nn.modules.activation.ReLU</text>
<text text-anchor="middle" x="390" y="-269.8" font-family="Times,serif" font-size="14.00">relu</text>
<text text-anchor="middle" x="390" y="-254.8" font-family="Times,serif" font-size="14.00">duration: 163.6 µs</text>
</g>
<!-- torch_input_0 -->
<g id="node1" class="node">
<title>torch_input_0</title>
<polygon fill="#dcdcdc" stroke="black" points="475,-2311 401,-2311 401,-2244 475,-2244 475,-2311"/>
<polygon fill="none" stroke="black" points="402,-2294.5 402,-2309.5 474,-2309.5 474,-2294.5 402,-2294.5"/>
<text text-anchor="start" x="408" y="-2299.5" font-family="Linux libertine" font-size="10.00">torch.Tensor</text>
<polygon fill="none" stroke="black" points="402,-2244.5 402,-2293.5 474,-2293.5 474,-2244.5 402,-2244.5"/>
<text text-anchor="start" x="416.5" y="-2283.5" font-family="Linux libertine" font-size="10.00">Output 0</text>
<text text-anchor="start" x="404" y="-2272.5" font-family="Linux libertine" font-size="10.00">(8, 64, 56, 56)</text>
<text text-anchor="start" x="407" y="-2261.5" font-family="Linux libertine" font-size="10.00">torch.float32</text>
</g>
<!-- module_input_1 -->
<g id="node2" class="node">
<title>module_input_1</title>
<polygon fill="#dcdcdc" stroke="black" points="475,-2161 401,-2161 401,-2094 475,-2094 475,-2161"/>
<polygon fill="none" stroke="black" points="402,-2144.5 402,-2159.5 474,-2159.5 474,-2144.5 402,-2144.5"/>
<text text-anchor="start" x="434.5" y="-2149.5" font-family="Linux libertine" font-size="10.00">x</text>
<polygon fill="none" stroke="black" points="402,-2094.5 402,-2143.5 474,-2143.5 474,-2094.5 402,-2094.5"/>
<text text-anchor="start" x="416.5" y="-2133.5" font-family="Linux libertine" font-size="10.00">Output 0</text>
<text text-anchor="start" x="404" y="-2122.5" font-family="Linux libertine" font-size="10.00">(8, 64, 56, 56)</text>
<text text-anchor="start" x="407" y="-2111.5" font-family="Linux libertine" font-size="10.00">torch.float32</text>
</g>
<!-- torch_input_0&#45;&gt;module_input_1 -->
<g id="edge25" class="edge">
<title>torch_input_0:#0-&gt;module_input_1</title>
<path fill="none" stroke="black" d="M438,-2244C438,-2219.96 438,-2193.11 438,-2171.35"/>
<polygon fill="black" stroke="black" points="441.5,-2171.11 438,-2161.11 434.5,-2171.11 441.5,-2171.11"/>
<text text-anchor="middle" x="453.5" y="-2218" font-family="Times,serif" font-size="10.00">0 -&gt; 0</text>
</g>
<!-- module_input_2 -->
<g id="node3" class="node">
<title>module_input_2</title>
<polygon fill="#dcdcdc" stroke="black" points="272,-1990.5 198,-1990.5 198,-1923.5 272,-1923.5 272,-1990.5"/>
<polygon fill="none" stroke="black" points="199,-1974 199,-1989 271,-1989 271,-1974 199,-1974"/>
<text text-anchor="start" x="222.5" y="-1979" font-family="Linux libertine" font-size="10.00">input</text>
<polygon fill="none" stroke="black" points="199,-1924 199,-1973 271,-1973 271,-1924 199,-1924"/>
<text text-anchor="start" x="213.5" y="-1963" font-family="Linux libertine" font-size="10.00">Output 0</text>
<text text-anchor="start" x="201" y="-1952" font-family="Linux libertine" font-size="10.00">(8, 64, 56, 56)</text>
<text text-anchor="start" x="204" y="-1941" font-family="Linux libertine" font-size="10.00">torch.float32</text>
</g>
<!-- module_input_1&#45;&gt;module_input_2 -->
<g id="edge17" class="edge">
<title>module_input_1:#0-&gt;module_input_2</title>
<path fill="none" stroke="black" d="M438,-2094C438,-2022.31 336.58,-2102.28 281,-2057 263.45,-2042.7 252.26,-2020.19 245.32,-2000.25"/>
<polygon fill="black" stroke="black" points="248.64,-1999.15 242.24,-1990.71 241.98,-2001.3 248.64,-1999.15"/>
<text text-anchor="middle" x="448.5" y="-2068" font-family="Times,serif" font-size="10.00" fill="white">0 -&gt; 0</text>
</g>
<!-- add__27 -->
<g id="node23" class="node">
<title>add__27</title>
<polygon fill="#dcdcdc" stroke="black" points="523,-438 283,-438 283,-337 523,-337 523,-438"/>
<polygon fill="none" stroke="black" points="284,-337.5 284,-436.5 376,-436.5 376,-337.5 284,-337.5"/>
<text text-anchor="start" x="287.5" y="-390" font-family="Linux libertine" font-size="10.00">torch.Tensor.add_</text>
<text text-anchor="start" x="286" y="-379" font-family="Linux libertine" font-size="10.00">duration: 121.6 µs</text>
<polygon fill="none" stroke="black" points="377,-387.5 377,-436.5 449,-436.5 449,-387.5 377,-387.5"/>
<text text-anchor="start" x="396" y="-426.5" font-family="Linux libertine" font-size="10.00">Input 0</text>
<text text-anchor="start" x="379" y="-415.5" font-family="Linux libertine" font-size="10.00">(8, 64, 56, 56)</text>
<text text-anchor="start" x="382" y="-404.5" font-family="Linux libertine" font-size="10.00">torch.float32</text>
<polygon fill="none" stroke="black" points="450,-387.5 450,-436.5 522,-436.5 522,-387.5 450,-387.5"/>
<text text-anchor="start" x="469" y="-426.5" font-family="Linux libertine" font-size="10.00">Input 1</text>
<text text-anchor="start" x="452" y="-415.5" font-family="Linux libertine" font-size="10.00">(8, 64, 56, 56)</text>
<text text-anchor="start" x="455" y="-404.5" font-family="Linux libertine" font-size="10.00">torch.float32</text>
<polygon fill="none" stroke="black" points="377,-337.5 377,-386.5 522,-386.5 522,-337.5 377,-337.5"/>
<text text-anchor="start" x="428" y="-376.5" font-family="Linux libertine" font-size="10.00">Output 0</text>
<text text-anchor="start" x="415.5" y="-365.5" font-family="Linux libertine" font-size="10.00">(8, 64, 56, 56)</text>
<text text-anchor="start" x="418.5" y="-354.5" font-family="Linux libertine" font-size="10.00">torch.float32</text>
</g>
<!-- module_input_1&#45;&gt;add__27 -->
<g id="edge23" class="edge">
<title>module_input_1:#0-&gt;add__27:$1</title>
<path fill="none" stroke="black" d="M475,-2118.5C552.47,-2118.5 543,-2035.47 543,-1958 543,-1958 543,-1958 543,-1569.5 543,-1058.59 1030.8,-420.97 533.04,-412.58"/>
<polygon fill="black" stroke="black" points="533.03,-409.08 523,-412.5 532.97,-416.08 533.03,-409.08"/>
<text text-anchor="middle" x="603.5" y="-1255" font-family="Times,serif" font-size="10.00" fill="white">0 -&gt; 1</text>
</g>
<!-- conv2d_4 -->
<g id="node5" class="node">
<title>conv2d_4</title>
<polygon fill="#dcdcdc" stroke="black" points="390,-1871 158,-1871 158,-1770 390,-1770 390,-1871"/>
<polygon fill="none" stroke="black" points="159,-1770.5 159,-1869.5 249,-1869.5 249,-1770.5 159,-1770.5"/>
<text text-anchor="start" x="172" y="-1823" font-family="Linux libertine" font-size="10.00">torch.conv2d</text>
<text text-anchor="start" x="161" y="-1812" font-family="Linux libertine" font-size="10.00">duration: 11.2 ms</text>
<polygon fill="none" stroke="black" points="250,-1820.5 250,-1869.5 322,-1869.5 322,-1820.5 250,-1820.5"/>
<text text-anchor="start" x="269" y="-1859.5" font-family="Linux libertine" font-size="10.00">Input 0</text>
<text text-anchor="start" x="252" y="-1848.5" font-family="Linux libertine" font-size="10.00">(8, 64, 56, 56)</text>
<text text-anchor="start" x="255" y="-1837.5" font-family="Linux libertine" font-size="10.00">torch.float32</text>
<polygon fill="none" stroke="black" points="323,-1820.5 323,-1869.5 389,-1869.5 389,-1820.5 323,-1820.5"/>
<text text-anchor="start" x="339" y="-1859.5" font-family="Linux libertine" font-size="10.00">Input 1</text>
<text text-anchor="start" x="325" y="-1848.5" font-family="Linux libertine" font-size="10.00">(64, 64, 3, 3)</text>
<text text-anchor="start" x="325" y="-1837.5" font-family="Linux libertine" font-size="10.00">torch.float32</text>
<polygon fill="none" stroke="black" points="250,-1770.5 250,-1819.5 389,-1819.5 389,-1770.5 250,-1770.5"/>
<text text-anchor="start" x="298" y="-1809.5" font-family="Linux libertine" font-size="10.00">Output 0</text>
<text text-anchor="start" x="285.5" y="-1798.5" font-family="Linux libertine" font-size="10.00">(8, 64, 56, 56)</text>
<text text-anchor="start" x="288.5" y="-1787.5" font-family="Linux libertine" font-size="10.00">torch.float32</text>
</g>
<!-- module_input_2&#45;&gt;conv2d_4 -->
<g id="edge1" class="edge">
<title>module_input_2:#0-&gt;conv2d_4:$0</title>
<path fill="none" stroke="black" d="M235,-1923C235,-1894.41 274.4,-1900.65 283.94,-1880.49"/>
<polygon fill="black" stroke="black" points="287.41,-1881 286,-1870.5 280.55,-1879.59 287.41,-1881"/>
<text text-anchor="middle" x="291.5" y="-1892" font-family="Times,serif" font-size="10.00" fill="white">0 -&gt; 0</text>
</g>
<!-- torch_parameter_3 -->
<g id="node4" class="node">
<title>torch_parameter_3</title>
<polygon fill="#dcdcdc" stroke="black" points="390,-1996 290,-1996 290,-1918 390,-1918 390,-1996"/>
<polygon fill="none" stroke="black" points="291,-1969 291,-1995 389,-1995 389,-1969 291,-1969"/>
<text text-anchor="start" x="293" y="-1985" font-family="Linux libertine" font-size="10.00">torch.nn.Parameter</text>
<text text-anchor="start" x="307" y="-1974" font-family="Linux libertine" font-size="10.00">conv1.weight</text>
<polygon fill="none" stroke="black" points="291,-1919 291,-1968 389,-1968 389,-1919 291,-1919"/>
<text text-anchor="start" x="318.5" y="-1958" font-family="Linux libertine" font-size="10.00">Output 0</text>
<text text-anchor="start" x="309" y="-1947" font-family="Linux libertine" font-size="10.00">(64, 64, 3, 3)</text>
<text text-anchor="start" x="309" y="-1936" font-family="Linux libertine" font-size="10.00">torch.float32</text>
</g>
<!-- torch_parameter_3&#45;&gt;conv2d_4 -->
<g id="edge2" class="edge">
<title>torch_parameter_3:#0-&gt;conv2d_4:$1</title>
<path fill="none" stroke="black" d="M340,-1918C340,-1908.13 330.04,-1909.39 327,-1900 325.5,-1895.35 324.65,-1893.29 327,-1889 331.94,-1879.99 343.33,-1881.64 350.28,-1879.05"/>
<polygon fill="black" stroke="black" points="353.35,-1880.76 356,-1870.5 347.53,-1876.86 353.35,-1880.76"/>
<text text-anchor="middle" x="342.5" y="-1892" font-family="Times,serif" font-size="10.00" fill="white">0 -&gt; 1</text>
</g>
<!-- module_input_6 -->
<g id="node6" class="node">
<title>module_input_6</title>
<polygon fill="#dcdcdc" stroke="black" points="116,-1666.5 42,-1666.5 42,-1599.5 116,-1599.5 116,-1666.5"/>
<polygon fill="none" stroke="black" points="43,-1650 43,-1665 115,-1665 115,-1650 43,-1650"/>
<text text-anchor="start" x="66.5" y="-1655" font-family="Linux libertine" font-size="10.00">input</text>
<polygon fill="none" stroke="black" points="43,-1600 43,-1649 115,-1649 115,-1600 43,-1600"/>
<text text-anchor="start" x="57.5" y="-1639" font-family="Linux libertine" font-size="10.00">Output 0</text>
<text text-anchor="start" x="45" y="-1628" font-family="Linux libertine" font-size="10.00">(8, 64, 56, 56)</text>
<text text-anchor="start" x="48" y="-1617" font-family="Linux libertine" font-size="10.00">torch.float32</text>
</g>
<!-- conv2d_4&#45;&gt;module_input_6 -->
<g id="edge18" class="edge">
<title>conv2d_4:#0-&gt;module_input_6</title>
<path fill="none" stroke="black" d="M320,-1769.5C320,-1753.71 194.37,-1755.61 179,-1752 154.23,-1746.18 143.84,-1750.1 125,-1733 108.43,-1717.96 97.36,-1695.74 90.24,-1676.16"/>
<polygon fill="black" stroke="black" points="93.5,-1674.85 86.97,-1666.51 86.87,-1677.1 93.5,-1674.85"/>
<text text-anchor="middle" x="194.5" y="-1744" font-family="Times,serif" font-size="10.00" fill="white">0 -&gt; 0</text>
</g>
<!-- batch_norm_11 -->
<g id="node11" class="node">
<title>batch_norm_11</title>
<polygon fill="#dcdcdc" stroke="black" points="524,-1547 24,-1547 24,-1446 524,-1446 524,-1547"/>
<polygon fill="none" stroke="black" points="25,-1446.5 25,-1545.5 182,-1545.5 182,-1446.5 25,-1446.5"/>
<text text-anchor="start" x="27" y="-1499" font-family="Linux libertine" font-size="10.00">torch.nn.functional.batch_norm</text>
<text text-anchor="start" x="63.5" y="-1488" font-family="Linux libertine" font-size="10.00">duration: 1.4 ms</text>
<polygon fill="none" stroke="black" points="183,-1496.5 183,-1545.5 255,-1545.5 255,-1496.5 183,-1496.5"/>
<text text-anchor="start" x="202" y="-1535.5" font-family="Linux libertine" font-size="10.00">Input 0</text>
<text text-anchor="start" x="185" y="-1524.5" font-family="Linux libertine" font-size="10.00">(8, 64, 56, 56)</text>
<text text-anchor="start" x="188" y="-1513.5" font-family="Linux libertine" font-size="10.00">torch.float32</text>
<polygon fill="none" stroke="black" points="256,-1496.5 256,-1545.5 322,-1545.5 322,-1496.5 256,-1496.5"/>
<text text-anchor="start" x="272" y="-1535.5" font-family="Linux libertine" font-size="10.00">Input 1</text>
<text text-anchor="start" x="277.5" y="-1524.5" font-family="Linux libertine" font-size="10.00">(64,)</text>
<text text-anchor="start" x="258" y="-1513.5" font-family="Linux libertine" font-size="10.00">torch.float32</text>
<polygon fill="none" stroke="black" points="323,-1496.5 323,-1545.5 389,-1545.5 389,-1496.5 323,-1496.5"/>
<text text-anchor="start" x="339" y="-1535.5" font-family="Linux libertine" font-size="10.00">Input 2</text>
<text text-anchor="start" x="344.5" y="-1524.5" font-family="Linux libertine" font-size="10.00">(64,)</text>
<text text-anchor="start" x="325" y="-1513.5" font-family="Linux libertine" font-size="10.00">torch.float32</text>
<polygon fill="none" stroke="black" points="390,-1496.5 390,-1545.5 456,-1545.5 456,-1496.5 390,-1496.5"/>
<text text-anchor="start" x="406" y="-1535.5" font-family="Linux libertine" font-size="10.00">Input 3</text>
<text text-anchor="start" x="411.5" y="-1524.5" font-family="Linux libertine" font-size="10.00">(64,)</text>
<text text-anchor="start" x="392" y="-1513.5" font-family="Linux libertine" font-size="10.00">torch.float32</text>
<polygon fill="none" stroke="black" points="457,-1496.5 457,-1545.5 523,-1545.5 523,-1496.5 457,-1496.5"/>
<text text-anchor="start" x="473" y="-1535.5" font-family="Linux libertine" font-size="10.00">Input 4</text>
<text text-anchor="start" x="478.5" y="-1524.5" font-family="Linux libertine" font-size="10.00">(64,)</text>
<text text-anchor="start" x="459" y="-1513.5" font-family="Linux libertine" font-size="10.00">torch.float32</text>
<polygon fill="none" stroke="black" points="183,-1446.5 183,-1495.5 523,-1495.5 523,-1446.5 183,-1446.5"/>
<text text-anchor="start" x="331.5" y="-1485.5" font-family="Linux libertine" font-size="10.00">Output 0</text>
<text text-anchor="start" x="319" y="-1474.5" font-family="Linux libertine" font-size="10.00">(8, 64, 56, 56)</text>
<text text-anchor="start" x="322" y="-1463.5" font-family="Linux libertine" font-size="10.00">torch.float32</text>
</g>
<!-- module_input_6&#45;&gt;batch_norm_11 -->
<g id="edge3" class="edge">
<title>module_input_6:#0-&gt;batch_norm_11:$0</title>
<path fill="none" stroke="black" d="M116,-1624C129.92,-1624 116.06,-1604.67 125,-1594 137.8,-1578.72 196.96,-1571.99 214.25,-1555.88"/>
<polygon fill="black" stroke="black" points="217.6,-1557 219,-1546.5 211.36,-1553.84 217.6,-1557"/>
<text text-anchor="middle" x="212.5" y="-1568" font-family="Times,serif" font-size="10.00" fill="white">0 -&gt; 0</text>
</g>
<!-- torch_input_7 -->
<g id="node7" class="node">
<title>torch_input_7</title>
<polygon fill="#dcdcdc" stroke="black" points="202,-1666.5 134,-1666.5 134,-1599.5 202,-1599.5 202,-1666.5"/>
<polygon fill="none" stroke="black" points="135,-1650 135,-1665 201,-1665 201,-1650 135,-1650"/>
<text text-anchor="start" x="138" y="-1655" font-family="Linux libertine" font-size="10.00">torch.Tensor</text>
<polygon fill="none" stroke="black" points="135,-1600 135,-1649 201,-1649 201,-1600 135,-1600"/>
<text text-anchor="start" x="146.5" y="-1639" font-family="Linux libertine" font-size="10.00">Output 0</text>
<text text-anchor="start" x="156.5" y="-1628" font-family="Linux libertine" font-size="10.00">(64,)</text>
<text text-anchor="start" x="137" y="-1617" font-family="Linux libertine" font-size="10.00">torch.float32</text>
</g>
<!-- torch_input_7&#45;&gt;batch_norm_11 -->
<g id="edge4" class="edge">
<title>torch_input_7:#0-&gt;batch_norm_11:$1</title>
<path fill="none" stroke="black" d="M202,-1624C215.92,-1624 202.49,-1605.02 211,-1594 233.39,-1565.01 278.88,-1582.71 287.55,-1556.62"/>
<polygon fill="black" stroke="black" points="291.05,-1556.89 289,-1546.5 284.12,-1555.9 291.05,-1556.89"/>
<text text-anchor="middle" x="296.5" y="-1568" font-family="Times,serif" font-size="10.00" fill="white">0 -&gt; 1</text>
</g>
<!-- torch_input_8 -->
<g id="node8" class="node">
<title>torch_input_8</title>
<polygon fill="#dcdcdc" stroke="black" points="288,-1666.5 220,-1666.5 220,-1599.5 288,-1599.5 288,-1666.5"/>
<polygon fill="none" stroke="black" points="221,-1650 221,-1665 287,-1665 287,-1650 221,-1650"/>
<text text-anchor="start" x="224" y="-1655" font-family="Linux libertine" font-size="10.00">torch.Tensor</text>
<polygon fill="none" stroke="black" points="221,-1600 221,-1649 287,-1649 287,-1600 221,-1600"/>
<text text-anchor="start" x="232.5" y="-1639" font-family="Linux libertine" font-size="10.00">Output 0</text>
<text text-anchor="start" x="242.5" y="-1628" font-family="Linux libertine" font-size="10.00">(64,)</text>
<text text-anchor="start" x="223" y="-1617" font-family="Linux libertine" font-size="10.00">torch.float32</text>
</g>
<!-- torch_input_8&#45;&gt;batch_norm_11 -->
<g id="edge5" class="edge">
<title>torch_input_8:#0-&gt;batch_norm_11:$2</title>
<path fill="none" stroke="black" d="M288,-1624C301.92,-1624 289.23,-1605.55 297,-1594 313.59,-1569.34 346.87,-1577.44 354.44,-1556.51"/>
<polygon fill="black" stroke="black" points="357.92,-1556.92 356,-1546.5 351,-1555.84 357.92,-1556.92"/>
<text text-anchor="middle" x="362.5" y="-1568" font-family="Times,serif" font-size="10.00" fill="white">0 -&gt; 2</text>
</g>
<!-- torch_parameter_9 -->
<g id="node9" class="node">
<title>torch_parameter_9</title>
<polygon fill="#dcdcdc" stroke="black" points="406,-1672 306,-1672 306,-1594 406,-1594 406,-1672"/>
<polygon fill="none" stroke="black" points="307,-1645 307,-1671 405,-1671 405,-1645 307,-1645"/>
<text text-anchor="start" x="309" y="-1661" font-family="Linux libertine" font-size="10.00">torch.nn.Parameter</text>
<text text-anchor="start" x="328.5" y="-1650" font-family="Linux libertine" font-size="10.00">bn1.weight</text>
<polygon fill="none" stroke="black" points="307,-1595 307,-1644 405,-1644 405,-1595 307,-1595"/>
<text text-anchor="start" x="334.5" y="-1634" font-family="Linux libertine" font-size="10.00">Output 0</text>
<text text-anchor="start" x="344.5" y="-1623" font-family="Linux libertine" font-size="10.00">(64,)</text>
<text text-anchor="start" x="325" y="-1612" font-family="Linux libertine" font-size="10.00">torch.float32</text>
</g>
<!-- torch_parameter_9&#45;&gt;batch_norm_11 -->
<g id="edge6" class="edge">
<title>torch_parameter_9:#0-&gt;batch_norm_11:$3</title>
<path fill="none" stroke="black" d="M406,-1619C409.26,-1619 417.96,-1576.44 421.49,-1556.45"/>
<polygon fill="black" stroke="black" points="424.95,-1556.91 423,-1546.5 418.03,-1555.86 424.95,-1556.91"/>
<text text-anchor="middle" x="434.5" y="-1568" font-family="Times,serif" font-size="10.00" fill="white">0 -&gt; 3</text>
</g>
<!-- torch_parameter_10 -->
<g id="node10" class="node">
<title>torch_parameter_10</title>
<polygon fill="#dcdcdc" stroke="black" points="524,-1672 424,-1672 424,-1594 524,-1594 524,-1672"/>
<polygon fill="none" stroke="black" points="425,-1645 425,-1671 523,-1671 523,-1645 425,-1645"/>
<text text-anchor="start" x="427" y="-1661" font-family="Linux libertine" font-size="10.00">torch.nn.Parameter</text>
<text text-anchor="start" x="453" y="-1650" font-family="Linux libertine" font-size="10.00">bn1.bias</text>
<polygon fill="none" stroke="black" points="425,-1595 425,-1644 523,-1644 523,-1595 425,-1595"/>
<text text-anchor="start" x="452.5" y="-1634" font-family="Linux libertine" font-size="10.00">Output 0</text>
<text text-anchor="start" x="462.5" y="-1623" font-family="Linux libertine" font-size="10.00">(64,)</text>
<text text-anchor="start" x="443" y="-1612" font-family="Linux libertine" font-size="10.00">torch.float32</text>
</g>
<!-- torch_parameter_10&#45;&gt;batch_norm_11 -->
<g id="edge7" class="edge">
<title>torch_parameter_10:#0-&gt;batch_norm_11:$4</title>
<path fill="none" stroke="black" d="M474,-1594C474,-1583.59 462.55,-1585.79 459,-1576 457.34,-1571.4 456.59,-1569.25 459,-1565 464.45,-1555.41 477.06,-1557.84 484.41,-1555.09"/>
<polygon fill="black" stroke="black" points="487.48,-1556.79 490,-1546.5 481.61,-1552.97 487.48,-1556.79"/>
<text text-anchor="middle" x="474.5" y="-1568" font-family="Times,serif" font-size="10.00" fill="white">0 -&gt; 4</text>
</g>
<!-- module_input_13 -->
<g id="node12" class="node">
<title>module_input_13</title>
<polygon fill="#dcdcdc" stroke="black" points="385,-1348 311,-1348 311,-1281 385,-1281 385,-1348"/>
<polygon fill="none" stroke="black" points="312,-1331.5 312,-1346.5 384,-1346.5 384,-1331.5 312,-1331.5"/>
<text text-anchor="start" x="335.5" y="-1336.5" font-family="Linux libertine" font-size="10.00">input</text>
<polygon fill="none" stroke="black" points="312,-1281.5 312,-1330.5 384,-1330.5 384,-1281.5 312,-1281.5"/>
<text text-anchor="start" x="326.5" y="-1320.5" font-family="Linux libertine" font-size="10.00">Output 0</text>
<text text-anchor="start" x="314" y="-1309.5" font-family="Linux libertine" font-size="10.00">(8, 64, 56, 56)</text>
<text text-anchor="start" x="317" y="-1298.5" font-family="Linux libertine" font-size="10.00">torch.float32</text>
</g>
<!-- batch_norm_11&#45;&gt;module_input_13 -->
<g id="edge19" class="edge">
<title>batch_norm_11:#0-&gt;module_input_13</title>
<path fill="none" stroke="black" d="M353,-1445.5C353,-1432.66 335.7,-1439.51 330,-1428 319.26,-1406.33 322.88,-1379.7 329.6,-1357.78"/>
<polygon fill="black" stroke="black" points="333,-1358.68 332.87,-1348.08 326.36,-1356.44 333,-1358.68"/>
<text text-anchor="middle" x="345.5" y="-1420" font-family="Times,serif" font-size="10.00" fill="white">0 -&gt; 0</text>
</g>
<!-- relu_14 -->
<g id="node13" class="node">
<title>relu_14</title>
<polygon fill="#dcdcdc" stroke="black" points="383.5,-1234 190.5,-1234 190.5,-1133 383.5,-1133 383.5,-1234"/>
<polygon fill="none" stroke="black" points="192,-1133.5 192,-1232.5 310,-1232.5 310,-1133.5 192,-1133.5"/>
<text text-anchor="start" x="194" y="-1186" font-family="Linux libertine" font-size="10.00">torch.nn.functional.relu</text>
<text text-anchor="start" x="207" y="-1175" font-family="Linux libertine" font-size="10.00">duration: 186.7 µs</text>
<polygon fill="none" stroke="black" points="311,-1183.5 311,-1232.5 383,-1232.5 383,-1183.5 311,-1183.5"/>
<text text-anchor="start" x="330" y="-1222.5" font-family="Linux libertine" font-size="10.00">Input 0</text>
<text text-anchor="start" x="313" y="-1211.5" font-family="Linux libertine" font-size="10.00">(8, 64, 56, 56)</text>
<text text-anchor="start" x="316" y="-1200.5" font-family="Linux libertine" font-size="10.00">torch.float32</text>
<polygon fill="none" stroke="black" points="311,-1133.5 311,-1182.5 383,-1182.5 383,-1133.5 311,-1133.5"/>
<text text-anchor="start" x="325.5" y="-1172.5" font-family="Linux libertine" font-size="10.00">Output 0</text>
<text text-anchor="start" x="313" y="-1161.5" font-family="Linux libertine" font-size="10.00">(8, 64, 56, 56)</text>
<text text-anchor="start" x="316" y="-1150.5" font-family="Linux libertine" font-size="10.00">torch.float32</text>
</g>
<!-- module_input_13&#45;&gt;relu_14 -->
<g id="edge8" class="edge">
<title>module_input_13:#0-&gt;relu_14:$0</title>
<path fill="none" stroke="black" d="M348,-1281C348,-1268.71 332.14,-1274.17 327,-1263 324.96,-1258.56 325.04,-1256.48 327,-1252 329.96,-1245.24 336.74,-1244.34 341.58,-1241.94"/>
<polygon fill="black" stroke="black" points="344.54,-1243.81 347,-1233.5 338.65,-1240.02 344.54,-1243.81"/>
<text text-anchor="middle" x="342.5" y="-1255" font-family="Times,serif" font-size="10.00" fill="white">0 -&gt; 0</text>
</g>
<!-- module_input_16 -->
<g id="node14" class="node">
<title>module_input_16</title>
<polygon fill="#dcdcdc" stroke="black" points="383,-1029.5 309,-1029.5 309,-962.5 383,-962.5 383,-1029.5"/>
<polygon fill="none" stroke="black" points="310,-1013 310,-1028 382,-1028 382,-1013 310,-1013"/>
<text text-anchor="start" x="333.5" y="-1018" font-family="Linux libertine" font-size="10.00">input</text>
<polygon fill="none" stroke="black" points="310,-963 310,-1012 382,-1012 382,-963 310,-963"/>
<text text-anchor="start" x="324.5" y="-1002" font-family="Linux libertine" font-size="10.00">Output 0</text>
<text text-anchor="start" x="312" y="-991" font-family="Linux libertine" font-size="10.00">(8, 64, 56, 56)</text>
<text text-anchor="start" x="315" y="-980" font-family="Linux libertine" font-size="10.00">torch.float32</text>
</g>
<!-- relu_14&#45;&gt;module_input_16 -->
<g id="edge20" class="edge">
<title>relu_14:#0-&gt;module_input_16</title>
<path fill="none" stroke="black" d="M347,-1132.5C347,-1120.35 331.15,-1126 326,-1115 314.93,-1091.37 319.53,-1062.54 327.1,-1039.28"/>
<polygon fill="black" stroke="black" points="330.45,-1040.29 330.48,-1029.69 323.85,-1037.96 330.45,-1040.29"/>
<text text-anchor="middle" x="341.5" y="-1107" font-family="Times,serif" font-size="10.00" fill="white">0 -&gt; 0</text>
</g>
<!-- conv2d_18 -->
<g id="node16" class="node">
<title>conv2d_18</title>
<polygon fill="#dcdcdc" stroke="black" points="501,-910 275,-910 275,-809 501,-809 501,-910"/>
<polygon fill="none" stroke="black" points="276,-809.5 276,-908.5 360,-908.5 360,-809.5 276,-809.5"/>
<text text-anchor="start" x="286" y="-862" font-family="Linux libertine" font-size="10.00">torch.conv2d</text>
<text text-anchor="start" x="278" y="-851" font-family="Linux libertine" font-size="10.00">duration: 4.4 ms</text>
<polygon fill="none" stroke="black" points="361,-859.5 361,-908.5 433,-908.5 433,-859.5 361,-859.5"/>
<text text-anchor="start" x="380" y="-898.5" font-family="Linux libertine" font-size="10.00">Input 0</text>
<text text-anchor="start" x="363" y="-887.5" font-family="Linux libertine" font-size="10.00">(8, 64, 56, 56)</text>
<text text-anchor="start" x="366" y="-876.5" font-family="Linux libertine" font-size="10.00">torch.float32</text>
<polygon fill="none" stroke="black" points="434,-859.5 434,-908.5 500,-908.5 500,-859.5 434,-859.5"/>
<text text-anchor="start" x="450" y="-898.5" font-family="Linux libertine" font-size="10.00">Input 1</text>
<text text-anchor="start" x="436" y="-887.5" font-family="Linux libertine" font-size="10.00">(64, 64, 3, 3)</text>
<text text-anchor="start" x="436" y="-876.5" font-family="Linux libertine" font-size="10.00">torch.float32</text>
<polygon fill="none" stroke="black" points="361,-809.5 361,-858.5 500,-858.5 500,-809.5 361,-809.5"/>
<text text-anchor="start" x="409" y="-848.5" font-family="Linux libertine" font-size="10.00">Output 0</text>
<text text-anchor="start" x="396.5" y="-837.5" font-family="Linux libertine" font-size="10.00">(8, 64, 56, 56)</text>
<text text-anchor="start" x="399.5" y="-826.5" font-family="Linux libertine" font-size="10.00">torch.float32</text>
</g>
<!-- module_input_16&#45;&gt;conv2d_18 -->
<g id="edge9" class="edge">
<title>module_input_16:#0-&gt;conv2d_18:$0</title>
<path fill="none" stroke="black" d="M346,-962C346,-933.41 385.4,-939.65 394.94,-919.49"/>
<polygon fill="black" stroke="black" points="398.41,-920 397,-909.5 391.55,-918.59 398.41,-920"/>
<text text-anchor="middle" x="402.5" y="-931" font-family="Times,serif" font-size="10.00" fill="white">0 -&gt; 0</text>
</g>
<!-- torch_parameter_17 -->
<g id="node15" class="node">
<title>torch_parameter_17</title>
<polygon fill="#dcdcdc" stroke="black" points="501,-1035 401,-1035 401,-957 501,-957 501,-1035"/>
<polygon fill="none" stroke="black" points="402,-1008 402,-1034 500,-1034 500,-1008 402,-1008"/>
<text text-anchor="start" x="404" y="-1024" font-family="Linux libertine" font-size="10.00">torch.nn.Parameter</text>
<text text-anchor="start" x="418" y="-1013" font-family="Linux libertine" font-size="10.00">conv2.weight</text>
<polygon fill="none" stroke="black" points="402,-958 402,-1007 500,-1007 500,-958 402,-958"/>
<text text-anchor="start" x="429.5" y="-997" font-family="Linux libertine" font-size="10.00">Output 0</text>
<text text-anchor="start" x="420" y="-986" font-family="Linux libertine" font-size="10.00">(64, 64, 3, 3)</text>
<text text-anchor="start" x="420" y="-975" font-family="Linux libertine" font-size="10.00">torch.float32</text>
</g>
<!-- torch_parameter_17&#45;&gt;conv2d_18 -->
<g id="edge10" class="edge">
<title>torch_parameter_17:#0-&gt;conv2d_18:$1</title>
<path fill="none" stroke="black" d="M451,-957C451,-947.13 441.04,-948.39 438,-939 436.5,-934.35 435.65,-932.29 438,-928 442.94,-918.99 454.33,-920.64 461.28,-918.05"/>
<polygon fill="black" stroke="black" points="464.35,-919.76 467,-909.5 458.53,-915.86 464.35,-919.76"/>
<text text-anchor="middle" x="453.5" y="-931" font-family="Times,serif" font-size="10.00" fill="white">0 -&gt; 1</text>
</g>
<!-- module_input_20 -->
<g id="node17" class="node">
<title>module_input_20</title>
<polygon fill="#dcdcdc" stroke="black" points="116,-705.5 42,-705.5 42,-638.5 116,-638.5 116,-705.5"/>
<polygon fill="none" stroke="black" points="43,-689 43,-704 115,-704 115,-689 43,-689"/>
<text text-anchor="start" x="66.5" y="-694" font-family="Linux libertine" font-size="10.00">input</text>
<polygon fill="none" stroke="black" points="43,-639 43,-688 115,-688 115,-639 43,-639"/>
<text text-anchor="start" x="57.5" y="-678" font-family="Linux libertine" font-size="10.00">Output 0</text>
<text text-anchor="start" x="45" y="-667" font-family="Linux libertine" font-size="10.00">(8, 64, 56, 56)</text>
<text text-anchor="start" x="48" y="-656" font-family="Linux libertine" font-size="10.00">torch.float32</text>
</g>
<!-- conv2d_18&#45;&gt;module_input_20 -->
<g id="edge21" class="edge">
<title>conv2d_18:#0-&gt;module_input_20</title>
<path fill="none" stroke="black" d="M431,-808.5C431,-786.52 255.79,-793.86 234,-791 185.24,-784.6 164.02,-801.92 125,-772 106.91,-758.12 95.66,-735.42 88.82,-715.26"/>
<polygon fill="black" stroke="black" points="92.13,-714.11 85.81,-705.61 85.45,-716.2 92.13,-714.11"/>
<text text-anchor="middle" x="249.5" y="-783" font-family="Times,serif" font-size="10.00" fill="white">0 -&gt; 0</text>
</g>
<!-- batch_norm_25 -->
<g id="node22" class="node">
<title>batch_norm_25</title>
<polygon fill="#dcdcdc" stroke="black" points="524,-586 24,-586 24,-485 524,-485 524,-586"/>
<polygon fill="none" stroke="black" points="25,-485.5 25,-584.5 182,-584.5 182,-485.5 25,-485.5"/>
<text text-anchor="start" x="27" y="-538" font-family="Linux libertine" font-size="10.00">torch.nn.functional.batch_norm</text>
<text text-anchor="start" x="59.5" y="-527" font-family="Linux libertine" font-size="10.00">duration: 589.1 µs</text>
<polygon fill="none" stroke="black" points="183,-535.5 183,-584.5 255,-584.5 255,-535.5 183,-535.5"/>
<text text-anchor="start" x="202" y="-574.5" font-family="Linux libertine" font-size="10.00">Input 0</text>
<text text-anchor="start" x="185" y="-563.5" font-family="Linux libertine" font-size="10.00">(8, 64, 56, 56)</text>
<text text-anchor="start" x="188" y="-552.5" font-family="Linux libertine" font-size="10.00">torch.float32</text>
<polygon fill="none" stroke="black" points="256,-535.5 256,-584.5 322,-584.5 322,-535.5 256,-535.5"/>
<text text-anchor="start" x="272" y="-574.5" font-family="Linux libertine" font-size="10.00">Input 1</text>
<text text-anchor="start" x="277.5" y="-563.5" font-family="Linux libertine" font-size="10.00">(64,)</text>
<text text-anchor="start" x="258" y="-552.5" font-family="Linux libertine" font-size="10.00">torch.float32</text>
<polygon fill="none" stroke="black" points="323,-535.5 323,-584.5 389,-584.5 389,-535.5 323,-535.5"/>
<text text-anchor="start" x="339" y="-574.5" font-family="Linux libertine" font-size="10.00">Input 2</text>
<text text-anchor="start" x="344.5" y="-563.5" font-family="Linux libertine" font-size="10.00">(64,)</text>
<text text-anchor="start" x="325" y="-552.5" font-family="Linux libertine" font-size="10.00">torch.float32</text>
<polygon fill="none" stroke="black" points="390,-535.5 390,-584.5 456,-584.5 456,-535.5 390,-535.5"/>
<text text-anchor="start" x="406" y="-574.5" font-family="Linux libertine" font-size="10.00">Input 3</text>
<text text-anchor="start" x="411.5" y="-563.5" font-family="Linux libertine" font-size="10.00">(64,)</text>
<text text-anchor="start" x="392" y="-552.5" font-family="Linux libertine" font-size="10.00">torch.float32</text>
<polygon fill="none" stroke="black" points="457,-535.5 457,-584.5 523,-584.5 523,-535.5 457,-535.5"/>
<text text-anchor="start" x="473" y="-574.5" font-family="Linux libertine" font-size="10.00">Input 4</text>
<text text-anchor="start" x="478.5" y="-563.5" font-family="Linux libertine" font-size="10.00">(64,)</text>
<text text-anchor="start" x="459" y="-552.5" font-family="Linux libertine" font-size="10.00">torch.float32</text>
<polygon fill="none" stroke="black" points="183,-485.5 183,-534.5 523,-534.5 523,-485.5 183,-485.5"/>
<text text-anchor="start" x="331.5" y="-524.5" font-family="Linux libertine" font-size="10.00">Output 0</text>
<text text-anchor="start" x="319" y="-513.5" font-family="Linux libertine" font-size="10.00">(8, 64, 56, 56)</text>
<text text-anchor="start" x="322" y="-502.5" font-family="Linux libertine" font-size="10.00">torch.float32</text>
</g>
<!-- module_input_20&#45;&gt;batch_norm_25 -->
<g id="edge11" class="edge">
<title>module_input_20:#0-&gt;batch_norm_25:$0</title>
<path fill="none" stroke="black" d="M116,-663C129.92,-663 116.06,-643.67 125,-633 137.8,-617.72 196.96,-610.99 214.25,-594.88"/>
<polygon fill="black" stroke="black" points="217.6,-596 219,-585.5 211.36,-592.84 217.6,-596"/>
<text text-anchor="middle" x="212.5" y="-607" font-family="Times,serif" font-size="10.00" fill="white">0 -&gt; 0</text>
</g>
<!-- torch_input_21 -->
<g id="node18" class="node">
<title>torch_input_21</title>
<polygon fill="#dcdcdc" stroke="black" points="202,-705.5 134,-705.5 134,-638.5 202,-638.5 202,-705.5"/>
<polygon fill="none" stroke="black" points="135,-689 135,-704 201,-704 201,-689 135,-689"/>
<text text-anchor="start" x="138" y="-694" font-family="Linux libertine" font-size="10.00">torch.Tensor</text>
<polygon fill="none" stroke="black" points="135,-639 135,-688 201,-688 201,-639 135,-639"/>
<text text-anchor="start" x="146.5" y="-678" font-family="Linux libertine" font-size="10.00">Output 0</text>
<text text-anchor="start" x="156.5" y="-667" font-family="Linux libertine" font-size="10.00">(64,)</text>
<text text-anchor="start" x="137" y="-656" font-family="Linux libertine" font-size="10.00">torch.float32</text>
</g>
<!-- torch_input_21&#45;&gt;batch_norm_25 -->
<g id="edge12" class="edge">
<title>torch_input_21:#0-&gt;batch_norm_25:$1</title>
<path fill="none" stroke="black" d="M202,-663C215.92,-663 202.49,-644.02 211,-633 233.39,-604.01 278.88,-621.71 287.55,-595.62"/>
<polygon fill="black" stroke="black" points="291.05,-595.89 289,-585.5 284.12,-594.9 291.05,-595.89"/>
<text text-anchor="middle" x="296.5" y="-607" font-family="Times,serif" font-size="10.00" fill="white">0 -&gt; 1</text>
</g>
<!-- torch_input_22 -->
<g id="node19" class="node">
<title>torch_input_22</title>
<polygon fill="#dcdcdc" stroke="black" points="288,-705.5 220,-705.5 220,-638.5 288,-638.5 288,-705.5"/>
<polygon fill="none" stroke="black" points="221,-689 221,-704 287,-704 287,-689 221,-689"/>
<text text-anchor="start" x="224" y="-694" font-family="Linux libertine" font-size="10.00">torch.Tensor</text>
<polygon fill="none" stroke="black" points="221,-639 221,-688 287,-688 287,-639 221,-639"/>
<text text-anchor="start" x="232.5" y="-678" font-family="Linux libertine" font-size="10.00">Output 0</text>
<text text-anchor="start" x="242.5" y="-667" font-family="Linux libertine" font-size="10.00">(64,)</text>
<text text-anchor="start" x="223" y="-656" font-family="Linux libertine" font-size="10.00">torch.float32</text>
</g>
<!-- torch_input_22&#45;&gt;batch_norm_25 -->
<g id="edge13" class="edge">
<title>torch_input_22:#0-&gt;batch_norm_25:$2</title>
<path fill="none" stroke="black" d="M288,-663C301.92,-663 289.23,-644.55 297,-633 313.59,-608.34 346.87,-616.44 354.44,-595.51"/>
<polygon fill="black" stroke="black" points="357.92,-595.92 356,-585.5 351,-594.84 357.92,-595.92"/>
<text text-anchor="middle" x="362.5" y="-607" font-family="Times,serif" font-size="10.00" fill="white">0 -&gt; 2</text>
</g>
<!-- torch_parameter_23 -->
<g id="node20" class="node">
<title>torch_parameter_23</title>
<polygon fill="#dcdcdc" stroke="black" points="406,-711 306,-711 306,-633 406,-633 406,-711"/>
<polygon fill="none" stroke="black" points="307,-684 307,-710 405,-710 405,-684 307,-684"/>
<text text-anchor="start" x="309" y="-700" font-family="Linux libertine" font-size="10.00">torch.nn.Parameter</text>
<text text-anchor="start" x="328.5" y="-689" font-family="Linux libertine" font-size="10.00">bn2.weight</text>
<polygon fill="none" stroke="black" points="307,-634 307,-683 405,-683 405,-634 307,-634"/>
<text text-anchor="start" x="334.5" y="-673" font-family="Linux libertine" font-size="10.00">Output 0</text>
<text text-anchor="start" x="344.5" y="-662" font-family="Linux libertine" font-size="10.00">(64,)</text>
<text text-anchor="start" x="325" y="-651" font-family="Linux libertine" font-size="10.00">torch.float32</text>
</g>
<!-- torch_parameter_23&#45;&gt;batch_norm_25 -->
<g id="edge14" class="edge">
<title>torch_parameter_23:#0-&gt;batch_norm_25:$3</title>
<path fill="none" stroke="black" d="M406,-658C409.26,-658 417.96,-615.44 421.49,-595.45"/>
<polygon fill="black" stroke="black" points="424.95,-595.91 423,-585.5 418.03,-594.86 424.95,-595.91"/>
<text text-anchor="middle" x="434.5" y="-607" font-family="Times,serif" font-size="10.00" fill="white">0 -&gt; 3</text>
</g>
<!-- torch_parameter_24 -->
<g id="node21" class="node">
<title>torch_parameter_24</title>
<polygon fill="#dcdcdc" stroke="black" points="524,-711 424,-711 424,-633 524,-633 524,-711"/>
<polygon fill="none" stroke="black" points="425,-684 425,-710 523,-710 523,-684 425,-684"/>
<text text-anchor="start" x="427" y="-700" font-family="Linux libertine" font-size="10.00">torch.nn.Parameter</text>
<text text-anchor="start" x="453" y="-689" font-family="Linux libertine" font-size="10.00">bn2.bias</text>
<polygon fill="none" stroke="black" points="425,-634 425,-683 523,-683 523,-634 425,-634"/>
<text text-anchor="start" x="452.5" y="-673" font-family="Linux libertine" font-size="10.00">Output 0</text>
<text text-anchor="start" x="462.5" y="-662" font-family="Linux libertine" font-size="10.00">(64,)</text>
<text text-anchor="start" x="443" y="-651" font-family="Linux libertine" font-size="10.00">torch.float32</text>
</g>
<!-- torch_parameter_24&#45;&gt;batch_norm_25 -->
<g id="edge15" class="edge">
<title>torch_parameter_24:#0-&gt;batch_norm_25:$4</title>
<path fill="none" stroke="black" d="M474,-633C474,-622.59 462.55,-624.79 459,-615 457.34,-610.4 456.59,-608.25 459,-604 464.45,-594.41 477.06,-596.84 484.41,-594.09"/>
<polygon fill="black" stroke="black" points="487.48,-595.79 490,-585.5 481.61,-591.97 487.48,-595.79"/>
<text text-anchor="middle" x="474.5" y="-607" font-family="Times,serif" font-size="10.00" fill="white">0 -&gt; 4</text>
</g>
<!-- batch_norm_25&#45;&gt;add__27 -->
<g id="edge22" class="edge">
<title>batch_norm_25:#0-&gt;add__27:$0</title>
<path fill="none" stroke="black" d="M353,-484.5C353,-454.6 399.76,-467.26 410.72,-447.33"/>
<polygon fill="black" stroke="black" points="414.15,-448.03 413,-437.5 407.33,-446.45 414.15,-448.03"/>
<text text-anchor="middle" x="415.5" y="-459" font-family="Times,serif" font-size="10.00" fill="white">0 -&gt; 0</text>
</g>
<!-- module_input_28 -->
<g id="node24" class="node">
<title>module_input_28</title>
<polygon fill="#dcdcdc" stroke="black" points="487,-239 413,-239 413,-172 487,-172 487,-239"/>
<polygon fill="none" stroke="black" points="414,-222.5 414,-237.5 486,-237.5 486,-222.5 414,-222.5"/>
<text text-anchor="start" x="437.5" y="-227.5" font-family="Linux libertine" font-size="10.00">input</text>
<polygon fill="none" stroke="black" points="414,-172.5 414,-221.5 486,-221.5 486,-172.5 414,-172.5"/>
<text text-anchor="start" x="428.5" y="-211.5" font-family="Linux libertine" font-size="10.00">Output 0</text>
<text text-anchor="start" x="416" y="-200.5" font-family="Linux libertine" font-size="10.00">(8, 64, 56, 56)</text>
<text text-anchor="start" x="419" y="-189.5" font-family="Linux libertine" font-size="10.00">torch.float32</text>
</g>
<!-- add__27&#45;&gt;module_input_28 -->
<g id="edge24" class="edge">
<title>add__27:#0-&gt;module_input_28</title>
<path fill="none" stroke="black" d="M450,-337C450,-307.73 450,-274.76 450,-249.29"/>
<polygon fill="black" stroke="black" points="453.5,-249.21 450,-239.21 446.5,-249.22 453.5,-249.21"/>
<text text-anchor="middle" x="465.5" y="-311" font-family="Times,serif" font-size="10.00" fill="white">0 -&gt; 0</text>
</g>
<!-- relu_29 -->
<g id="node25" class="node">
<title>relu_29</title>
<polygon fill="#dcdcdc" stroke="black" points="486.5,-125 293.5,-125 293.5,-24 486.5,-24 486.5,-125"/>
<polygon fill="none" stroke="black" points="295,-24.5 295,-123.5 413,-123.5 413,-24.5 295,-24.5"/>
<text text-anchor="start" x="297" y="-77" font-family="Linux libertine" font-size="10.00">torch.nn.functional.relu</text>
<text text-anchor="start" x="313" y="-66" font-family="Linux libertine" font-size="10.00">duration: 49.4 µs</text>
<polygon fill="none" stroke="black" points="414,-74.5 414,-123.5 486,-123.5 486,-74.5 414,-74.5"/>
<text text-anchor="start" x="433" y="-113.5" font-family="Linux libertine" font-size="10.00">Input 0</text>
<text text-anchor="start" x="416" y="-102.5" font-family="Linux libertine" font-size="10.00">(8, 64, 56, 56)</text>
<text text-anchor="start" x="419" y="-91.5" font-family="Linux libertine" font-size="10.00">torch.float32</text>
<polygon fill="none" stroke="black" points="414,-24.5 414,-73.5 486,-73.5 486,-24.5 414,-24.5"/>
<text text-anchor="start" x="428.5" y="-63.5" font-family="Linux libertine" font-size="10.00">Output 0</text>
<text text-anchor="start" x="416" y="-52.5" font-family="Linux libertine" font-size="10.00">(8, 64, 56, 56)</text>
<text text-anchor="start" x="419" y="-41.5" font-family="Linux libertine" font-size="10.00">torch.float32</text>
</g>
<!-- module_input_28&#45;&gt;relu_29 -->
<g id="edge16" class="edge">
<title>module_input_28:#0-&gt;relu_29:$0</title>
<path fill="none" stroke="black" d="M450,-172C450,-154.68 450,-148.02 450,-134.53"/>
<polygon fill="black" stroke="black" points="453.5,-134.5 450,-124.5 446.5,-134.5 453.5,-134.5"/>
<text text-anchor="middle" x="465.5" y="-146" font-family="Times,serif" font-size="10.00" fill="white">0 -&gt; 0</text>
</g>
</g>
</svg>