<?xml version="1.0" encoding="UTF-8"?>
<!-- SPDX-FileCopyrightText: &#x00A9; 2026 Tenstorrent USA, Inc. -->

<!-- SPDX-License-Identifier: Apache-2.0 -->

<svg xmlns="http://www.w3.org/2000/svg" width="1600" height="1120" viewBox="0 0 1600 1120">
  <defs>
    <pattern id="chip-grid" width="80" height="70" patternUnits="userSpaceOnUse" patternTransform="translate(110 140)">
      <rect x="6" y="6" width="68" height="58" rx="7" fill="#aeb4bc" stroke="#6f7782" stroke-width="1.5"/>
    </pattern>
    <marker id="arrow-green" viewBox="0 0 10 10" refX="8" refY="5" markerWidth="7" markerHeight="7" orient="auto-start-reverse">
      <path d="M 0 0 L 10 5 L 0 10 z" fill="#12a150"/>
    </marker>
    <marker id="arrow-pink" viewBox="0 0 10 10" refX="8" refY="5" markerWidth="6" markerHeight="6" orient="auto-start-reverse">
      <path d="M 0 0 L 10 5 L 0 10 z" fill="#ef4f9a"/>
    </marker>
    <filter id="shadow" x="-20%" y="-20%" width="140%" height="140%">
      <feDropShadow dx="0" dy="2" stdDeviation="2" flood-color="#17202a" flood-opacity="0.25"/>
    </filter>
    <style>
      .axis { font: 600 15px sans-serif; fill: #46505c; text-anchor: middle; }
      .tile-label { font: 600 11px sans-serif; fill: #29323c; text-anchor: middle; dominant-baseline: middle; }
      .ring-label { font: 700 12px sans-serif; fill: white; text-anchor: middle; dominant-baseline: middle; }
      .sender-label { font: 700 10px sans-serif; fill: white; text-anchor: middle; dominant-baseline: middle; }
      .weight-link { fill: none; stroke: #ef4f9a; stroke-width: 2.4; stroke-opacity: 0.38; stroke-linejoin: round; marker-mid: url(#arrow-pink); marker-end: url(#arrow-pink); }
      .ring-link { fill: none; stroke: #12a150; stroke-width: 4.2; stroke-opacity: 0.95; stroke-linejoin: round; marker-mid: url(#arrow-green); marker-end: url(#arrow-green); }
      .legend { font: 16px sans-serif; fill: #25303b; dominant-baseline: middle; }
    </style>
  </defs>

  <rect width="1600" height="1120" fill="#f7f9fb"/>
  <text x="800" y="50" text-anchor="middle" font-family="sans-serif" font-size="30" font-weight="700" fill="#17202a">
    Blackhole Tensor Prefetcher - Dual-Sender NoC Routing
  </text>
  <text x="800" y="82" text-anchor="middle" font-family="sans-serif" font-size="16" fill="#52606d">
    Weights: NoC0 X+ then Y+; activation ring: NoC1 Y- then X-; torus links wrap at chip edges
  </text>

  <!-- Coordinate axes. -->
  <g aria-label="NoC0 coordinate axes">
    <text x="790" y="111" text-anchor="middle" font-family="sans-serif" font-size="15" font-weight="700" fill="#46505c">NoC0 x</text>
    <text x="55" y="560" transform="rotate(-90 55 560)" text-anchor="middle" font-family="sans-serif" font-size="15" font-weight="700" fill="#46505c">NoC0 y</text>
    <g class="axis">
      <text x="150" y="130">0</text><text x="230" y="130">1</text><text x="310" y="130">2</text>
      <text x="390" y="130">3</text><text x="470" y="130">4</text><text x="550" y="130">5</text>
      <text x="630" y="130">6</text><text x="710" y="130">7</text><text x="790" y="130">8</text>
      <text x="870" y="130">9</text><text x="950" y="130">10</text><text x="1030" y="130">11</text>
      <text x="1110" y="130">12</text><text x="1190" y="130">13</text><text x="1270" y="130">14</text>
      <text x="1350" y="130">15</text><text x="1430" y="130">16</text>
      <text x="90" y="180">0</text><text x="90" y="250">1</text><text x="90" y="320">2</text>
      <text x="90" y="390">3</text><text x="90" y="460">4</text><text x="90" y="530">5</text>
      <text x="90" y="600">6</text><text x="90" y="670">7</text><text x="90" y="740">8</text>
      <text x="90" y="810">9</text><text x="90" y="880">10</text><text x="90" y="950">11</text>
    </g>
  </g>

  <!-- Every coordinate in the 17-by-12 chip grid is occupied. Gray is the default for all unused resources. -->
  <rect x="110" y="140" width="1360" height="840" fill="url(#chip-grid)"/>

  <!-- Broad labels for unhighlighted resource regions. -->
  <g class="tile-label" opacity="0.72">
    <text x="790" y="175">ARC</text>
    <text x="310" y="175">PCIe</text><text x="1030" y="175">PCIe</text>
    <text x="790" y="245">RTR</text><text x="790" y="315">RTR</text><text x="790" y="385">RTR</text>
    <text x="790" y="455">RTR</text><text x="790" y="525">RTR</text><text x="790" y="595">RTR</text>
    <text x="790" y="665">RTR</text><text x="790" y="735">RTR</text><text x="790" y="805">RTR</text>
    <text x="790" y="875">RTR</text><text x="790" y="945">RTR</text>
    <text x="230" y="245">ETH</text><text x="310" y="245">ETH</text><text x="390" y="245">ETH</text>
    <text x="470" y="245">ETH</text><text x="550" y="245">ETH</text><text x="630" y="245">ETH</text>
    <text x="710" y="245">ETH</text><text x="950" y="245">ETH</text><text x="1030" y="245">ETH</text>
    <text x="1110" y="245">ETH</text><text x="1190" y="245">ETH</text><text x="1270" y="245">ETH</text>
    <text x="1350" y="245">ETH</text><text x="1430" y="245">ETH</text>
    <text x="150" y="945">DRAM</text><text x="870" y="945">DRAM</text>
    <text x="150" y="315">DRAM</text><text x="870" y="385">DRAM</text>
    <text x="150" y="805">DRAM</text><text x="870" y="595">DRAM</text>
  </g>

  <!-- Activation-ring workers, physical NoC0 x={1..7,10}, y={2..5}. -->
  <g fill="#2878d0" stroke="#0e4f98" stroke-width="2.5" filter="url(#shadow)" aria-label="Activation ring worker cores">
    <rect x="196" y="286" width="68" height="58" rx="7"/><rect x="276" y="286" width="68" height="58" rx="7"/>
    <rect x="356" y="286" width="68" height="58" rx="7"/><rect x="436" y="286" width="68" height="58" rx="7"/>
    <rect x="516" y="286" width="68" height="58" rx="7"/><rect x="596" y="286" width="68" height="58" rx="7"/>
    <rect x="676" y="286" width="68" height="58" rx="7"/><rect x="916" y="286" width="68" height="58" rx="7"/>
    <rect x="196" y="356" width="68" height="58" rx="7"/><rect x="276" y="356" width="68" height="58" rx="7"/>
    <rect x="356" y="356" width="68" height="58" rx="7"/><rect x="436" y="356" width="68" height="58" rx="7"/>
    <rect x="516" y="356" width="68" height="58" rx="7"/><rect x="596" y="356" width="68" height="58" rx="7"/>
    <rect x="676" y="356" width="68" height="58" rx="7"/><rect x="916" y="356" width="68" height="58" rx="7"/>
    <rect x="196" y="426" width="68" height="58" rx="7"/><rect x="276" y="426" width="68" height="58" rx="7"/>
    <rect x="356" y="426" width="68" height="58" rx="7"/><rect x="436" y="426" width="68" height="58" rx="7"/>
    <rect x="516" y="426" width="68" height="58" rx="7"/><rect x="596" y="426" width="68" height="58" rx="7"/>
    <rect x="676" y="426" width="68" height="58" rx="7"/><rect x="916" y="426" width="68" height="58" rx="7"/>
    <rect x="196" y="496" width="68" height="58" rx="7"/><rect x="276" y="496" width="68" height="58" rx="7"/>
    <rect x="356" y="496" width="68" height="58" rx="7"/><rect x="436" y="496" width="68" height="58" rx="7"/>
    <rect x="516" y="496" width="68" height="58" rx="7"/><rect x="596" y="496" width="68" height="58" rx="7"/>
    <rect x="676" y="496" width="68" height="58" rx="7"/><rect x="916" y="496" width="68" height="58" rx="7"/>
  </g>

  <!-- Dual DRISC senders: sender 0 is the free subchannel; sender 1 is the NOC1 endpoint, both using NOC0. -->
  <g fill="#d9363e" stroke="#8d1720" stroke-width="2.5" filter="url(#shadow)" aria-label="Tensor Prefetcher DRAM sender cores">
    <rect x="116" y="146" width="68" height="58" rx="7"/><rect x="116" y="216" width="68" height="58" rx="7"/>
    <rect x="116" y="356" width="68" height="58" rx="7"/><rect x="116" y="846" width="68" height="58" rx="7"/>
    <rect x="116" y="706" width="68" height="58" rx="7"/><rect x="116" y="426" width="68" height="58" rx="7"/>
    <rect x="116" y="566" width="68" height="58" rx="7"/><rect x="116" y="636" width="68" height="58" rx="7"/>
    <rect x="836" y="146" width="68" height="58" rx="7"/><rect x="836" y="216" width="68" height="58" rx="7"/>
    <rect x="836" y="286" width="68" height="58" rx="7"/><rect x="836" y="846" width="68" height="58" rx="7"/>
    <rect x="836" y="776" width="68" height="58" rx="7"/><rect x="836" y="426" width="68" height="58" rx="7"/>
    <rect x="836" y="496" width="68" height="58" rx="7"/><rect x="836" y="636" width="68" height="58" rx="7"/>
  </g>

  <!-- Weight delivery uses NoC0 deterministic torus routing: X+ first, then Y+. -->
  <g aria-label="Weight sending paths">
    <path class="weight-link" d="M150,168 L224,168 L224,315"><title>B0 S0 to R0; lane offset for visibility; hardware route is NoC0 X+ then Y+</title></path>
    <path class="weight-link" d="M150,173 L304,173 L304,315"><title>B0 S0 to R1; lane offset for visibility; hardware route is NoC0 X+ then Y+</title></path>
    <path class="weight-link" d="M150,238 L384,238 L384,315"><title>B0 S1 to R2; lane offset for visibility; hardware route is NoC0 X+ then Y+</title></path>
    <path class="weight-link" d="M150,243 L464,243 L464,315"><title>B0 S1 to R3; lane offset for visibility; hardware route is NoC0 X+ then Y+</title></path>
    <path class="weight-link" d="M150,378 L544,378 L544,995 M544,135 L544,315"><title>B1 S0 to R4; lane offset for visibility; hardware route is NoC0 X+ then Y+</title></path>
    <path class="weight-link" d="M150,383 L624,383 L624,995 M624,135 L624,315"><title>B1 S0 to R5; lane offset for visibility; hardware route is NoC0 X+ then Y+</title></path>
    <path class="weight-link" d="M150,868 L704,868 L704,995 M704,135 L704,315"><title>B1 S1 to R6; lane offset for visibility; hardware route is NoC0 X+ then Y+</title></path>
    <path class="weight-link" d="M150,873 L944,873 L944,995 M944,135 L944,315"><title>B1 S1 to R7; lane offset for visibility; hardware route is NoC0 X+ then Y+</title></path>
    <path class="weight-link" d="M150,728 L228,728 L228,995 M228,135 L228,385"><title>B2 S0 to R8; lane offset for visibility; hardware route is NoC0 X+ then Y+</title></path>
    <path class="weight-link" d="M150,733 L308,733 L308,995 M308,135 L308,385"><title>B2 S0 to R9; lane offset for visibility; hardware route is NoC0 X+ then Y+</title></path>
    <path class="weight-link" d="M150,448 L388,448 L388,995 M388,135 L388,385"><title>B2 S1 to R10; lane offset for visibility; hardware route is NoC0 X+ then Y+</title></path>
    <path class="weight-link" d="M150,453 L468,453 L468,995 M468,135 L468,385"><title>B2 S1 to R11; lane offset for visibility; hardware route is NoC0 X+ then Y+</title></path>
    <path class="weight-link" d="M150,588 L548,588 L548,995 M548,135 L548,385"><title>B3 S0 to R12; lane offset for visibility; hardware route is NoC0 X+ then Y+</title></path>
    <path class="weight-link" d="M150,593 L628,593 L628,995 M628,135 L628,385"><title>B3 S0 to R13; lane offset for visibility; hardware route is NoC0 X+ then Y+</title></path>
    <path class="weight-link" d="M150,658 L708,658 L708,995 M708,135 L708,385"><title>B3 S1 to R14; lane offset for visibility; hardware route is NoC0 X+ then Y+</title></path>
    <path class="weight-link" d="M150,663 L948,663 L948,995 M948,135 L948,385"><title>B3 S1 to R15; lane offset for visibility; hardware route is NoC0 X+ then Y+</title></path>
    <path class="weight-link" d="M870,177 L1495,177 M105,177 L232,177 L232,455"><title>B4 S0 to R16; lane offset for visibility; hardware route is NoC0 X+ then Y+</title></path>
    <path class="weight-link" d="M870,182 L1495,182 M105,182 L312,182 L312,455"><title>B4 S0 to R17; lane offset for visibility; hardware route is NoC0 X+ then Y+</title></path>
    <path class="weight-link" d="M870,247 L1495,247 M105,247 L392,247 L392,455"><title>B4 S1 to R18; lane offset for visibility; hardware route is NoC0 X+ then Y+</title></path>
    <path class="weight-link" d="M870,252 L1495,252 M105,252 L472,252 L472,455"><title>B4 S1 to R19; lane offset for visibility; hardware route is NoC0 X+ then Y+</title></path>
    <path class="weight-link" d="M870,317 L1495,317 M105,317 L552,317 L552,455"><title>B5 S0 to R20; lane offset for visibility; hardware route is NoC0 X+ then Y+</title></path>
    <path class="weight-link" d="M870,322 L1495,322 M105,322 L632,322 L632,455"><title>B5 S0 to R21; lane offset for visibility; hardware route is NoC0 X+ then Y+</title></path>
    <path class="weight-link" d="M870,877 L1495,877 M105,877 L712,877 L712,995 M712,135 L712,455"><title>B5 S1 to R22; lane offset for visibility; hardware route is NoC0 X+ then Y+</title></path>
    <path class="weight-link" d="M870,882 L952,882 L952,995 M952,135 L952,455"><title>B5 S1 to R23; lane offset for visibility; hardware route is NoC0 X+ then Y+</title></path>
    <path class="weight-link" d="M870,807 L1495,807 M105,807 L236,807 L236,995 M236,135 L236,525"><title>B6 S0 to R24; lane offset for visibility; hardware route is NoC0 X+ then Y+</title></path>
    <path class="weight-link" d="M870,812 L1495,812 M105,812 L316,812 L316,995 M316,135 L316,525"><title>B6 S0 to R25; lane offset for visibility; hardware route is NoC0 X+ then Y+</title></path>
    <path class="weight-link" d="M870,457 L1495,457 M105,457 L396,457 L396,525"><title>B6 S1 to R26; lane offset for visibility; hardware route is NoC0 X+ then Y+</title></path>
    <path class="weight-link" d="M870,462 L1495,462 M105,462 L476,462 L476,525"><title>B6 S1 to R27; lane offset for visibility; hardware route is NoC0 X+ then Y+</title></path>
    <path class="weight-link" d="M870,527 L1495,527 M105,527 L556,527 L556,525"><title>B7 S0 to R28; lane offset for visibility; hardware route is NoC0 X+ then Y+</title></path>
    <path class="weight-link" d="M870,532 L1495,532 M105,532 L636,532 L636,525"><title>B7 S0 to R29; lane offset for visibility; hardware route is NoC0 X+ then Y+</title></path>
    <path class="weight-link" d="M870,667 L1495,667 M105,667 L716,667 L716,995 M716,135 L716,525"><title>B7 S1 to R30; lane offset for visibility; hardware route is NoC0 X+ then Y+</title></path>
    <path class="weight-link" d="M870,672 L956,672 L956,995 M956,135 L956,525"><title>B7 S1 to R31; lane offset for visibility; hardware route is NoC0 X+ then Y+</title></path>
  </g>

  <!-- Activation gather ring uses dedicated NoC1: Y- first, then X-, with torus wrap. -->
  <g aria-label="Activation ring path">
    <polyline class="ring-link" points="950,300 710,300 630,300 550,300 470,300 390,300 310,300 230,300"/>
    <polyline class="ring-link" points="950,370 710,370 630,370 550,370 470,370 390,370 310,370 230,370"/>
    <polyline class="ring-link" points="950,440 710,440 630,440 550,440 470,440 390,440 310,440 230,440"/>
    <polyline class="ring-link" points="950,510 710,510 630,510 550,510 470,510 390,510 310,510 230,510"/>
    <path class="ring-link" d="M218,385 L218,300 L105,300 M1495,300 L950,300"><title>R8 to R7: visually offset NoC1 Y- then X- route with X wrap</title></path>
    <path class="ring-link" d="M218,455 L218,370 L105,370 M1495,370 L950,370"><title>R16 to R15: visually offset NoC1 Y- then X- route with X wrap</title></path>
    <path class="ring-link" d="M218,525 L218,440 L105,440 M1495,440 L950,440"><title>R24 to R23: visually offset NoC1 Y- then X- route with X wrap</title></path>
    <path class="ring-link" d="M218,315 L218,135 M218,995 L218,510 L105,510 M1495,510 L950,510"><title>R0 to R31: visually offset NoC1 Y wrap followed by X wrap</title></path>
  </g>

  <!-- Labels are drawn last so paths do not obscure core identities. -->
  <g class="ring-label" aria-label="Activation ring indices">
    <text x="230" y="315">R0</text><text x="310" y="315">R1</text><text x="390" y="315">R2</text>
    <text x="470" y="315">R3</text><text x="550" y="315">R4</text><text x="630" y="315">R5</text>
    <text x="710" y="315">R6</text><text x="950" y="315">R7</text>
    <text x="230" y="385">R8</text><text x="310" y="385">R9</text><text x="390" y="385">R10</text>
    <text x="470" y="385">R11</text><text x="550" y="385">R12</text><text x="630" y="385">R13</text>
    <text x="710" y="385">R14</text><text x="950" y="385">R15</text>
    <text x="230" y="455">R16</text><text x="310" y="455">R17</text><text x="390" y="455">R18</text>
    <text x="470" y="455">R19</text><text x="550" y="455">R20</text><text x="630" y="455">R21</text>
    <text x="710" y="455">R22</text><text x="950" y="455">R23</text>
    <text x="230" y="525">R24</text><text x="310" y="525">R25</text><text x="390" y="525">R26</text>
    <text x="470" y="525">R27</text><text x="550" y="525">R28</text><text x="630" y="525">R29</text>
    <text x="710" y="525">R30</text><text x="950" y="525">R31</text>
  </g>
  <g class="sender-label" aria-label="DRAM bank and sender indices">
    <text x="150" y="175">B0 S0</text><text x="150" y="245">B0 S1</text>
    <text x="150" y="385">B1 S0</text><text x="150" y="875">B1 S1</text>
    <text x="150" y="735">B2 S0</text><text x="150" y="455">B2 S1</text>
    <text x="150" y="595">B3 S0</text><text x="150" y="665">B3 S1</text>
    <text x="870" y="175">B4 S0</text><text x="870" y="245">B4 S1</text>
    <text x="870" y="315">B5 S0</text><text x="870" y="875">B5 S1</text>
    <text x="870" y="805">B6 S0</text><text x="870" y="455">B6 S1</text>
    <text x="870" y="525">B7 S0</text><text x="870" y="665">B7 S1</text>
  </g>

  <!-- Legend. -->
  <g transform="translate(120,1025)">
    <rect x="0" y="-22" width="1360" height="78" rx="12" fill="white" stroke="#d5dbe2"/>
    <rect x="28" y="-4" width="34" height="28" rx="5" fill="#2878d0" stroke="#0e4f98" stroke-width="2"/>
    <text class="legend" x="74" y="10">Activation-ring worker</text>
    <rect x="300" y="-4" width="34" height="28" rx="5" fill="#d9363e" stroke="#8d1720" stroke-width="2"/>
    <text class="legend" x="346" y="10">Tensor Prefetcher DRISC</text>
    <rect x="600" y="-4" width="34" height="28" rx="5" fill="#aeb4bc" stroke="#6f7782"/>
    <text class="legend" x="646" y="10">All other chip cores</text>
    <line x1="810" y1="10" x2="850" y2="10" stroke="#12a150" stroke-width="5" marker-end="url(#arrow-green)"/>
    <text class="legend" x="864" y="10">Activation: NoC1 Y- then X-</text>
    <line x1="1095" y1="10" x2="1135" y2="10" stroke="#ef4f9a" stroke-width="4" marker-end="url(#arrow-pink)"/>
    <text class="legend" x="1149" y="10">Weights: NoC0 X+ then Y+</text>
    <text x="680" y="43" text-anchor="middle" font-family="sans-serif" font-size="13" fill="#66727f">
      Ring R0-R31 and sender B0-B7/S0-S1 labels correspond to the current Llama-3.1-8B dual-sender configuration.
    </text>
  </g>
</svg>
