<svg version="1.1" viewBox="0.0 0.0 1445.0 894.0" fill="none" stroke="none" stroke-linecap="square" stroke-miterlimit="10" width="1445" height="894" xmlns:xlink="http://www.w3.org/1999/xlink" xmlns="http://www.w3.org/2000/svg"><path fill="#ffffff" d="M0 0L1445.0 0L1445.0 894.0L0 894.0L0 0Z" fill-rule="nonzero"/><path stroke="#cccccc" stroke-width="1.0" stroke-linecap="butt" d="M313.5 105.5L313.5 797.5" fill-rule="nonzero"/><path stroke="#cccccc" stroke-width="1.0" stroke-linecap="butt" d="M524.5 105.5L524.5 797.5" fill-rule="nonzero"/><path stroke="#cccccc" stroke-width="1.0" stroke-linecap="butt" d="M735.5 105.5L735.5 797.5" fill-rule="nonzero"/><path stroke="#cccccc" stroke-width="1.0" stroke-linecap="butt" d="M945.5 105.5L945.5 797.5" fill-rule="nonzero"/><path stroke="#cccccc" stroke-width="1.0" stroke-linecap="butt" d="M1156.5 105.5L1156.5 797.5" fill-rule="nonzero"/><path stroke="#cccccc" stroke-width="1.0" stroke-linecap="butt" d="M1367.5 105.5L1367.5 797.5" fill-rule="nonzero"/><path stroke="#333333" stroke-width="1.0" stroke-linecap="butt" d="M109.5 797.5L1400.5 797.5" fill-rule="nonzero"/><path stroke="#cccccc" stroke-width="1.0" stroke-linecap="butt" d="M109.5 728.5L1400.5 728.5" fill-rule="nonzero"/><path stroke="#cccccc" stroke-width="1.0" stroke-linecap="butt" d="M109.5 658.5L1400.5 658.5" fill-rule="nonzero"/><path stroke="#cccccc" stroke-width="1.0" stroke-linecap="butt" d="M109.5 589.5L1400.5 589.5" fill-rule="nonzero"/><path stroke="#cccccc" stroke-width="1.0" stroke-linecap="butt" d="M109.5 520.5L1400.5 520.5" fill-rule="nonzero"/><path stroke="#cccccc" stroke-width="1.0" stroke-linecap="butt" d="M109.5 451.5L1400.5 451.5" fill-rule="nonzero"/><path stroke="#cccccc" stroke-width="1.0" stroke-linecap="butt" d="M109.5 382.5L1400.5 382.5" fill-rule="nonzero"/><path stroke="#cccccc" stroke-width="1.0" stroke-linecap="butt" d="M109.5 313.5L1400.5 313.5" fill-rule="nonzero"/><path stroke="#cccccc" stroke-width="1.0" stroke-linecap="butt" d="M109.5 243.5L1400.5 243.5" fill-rule="nonzero"/><path stroke="#cccccc" stroke-width="1.0" stroke-linecap="butt" d="M109.5 174.5L1400.5 174.5" fill-rule="nonzero"/><path stroke="#cccccc" stroke-width="1.0" stroke-linecap="butt" d="M109.5 105.5L1400.5 105.5" fill-rule="nonzero"/><path stroke="#e6e6e6" stroke-width="1.0" stroke-linecap="butt" d="M109.5 783.5L1400.5 783.5" fill-rule="nonzero"/><path stroke="#e6e6e6" stroke-width="1.0" stroke-linecap="butt" d="M109.5 769.5L1400.5 769.5" fill-rule="nonzero"/><path stroke="#e6e6e6" stroke-width="1.0" stroke-linecap="butt" d="M109.5 755.5L1400.5 755.5" fill-rule="nonzero"/><path stroke="#e6e6e6" stroke-width="1.0" stroke-linecap="butt" d="M109.5 741.5L1400.5 741.5" fill-rule="nonzero"/><path stroke="#e6e6e6" stroke-width="1.0" stroke-linecap="butt" d="M109.5 714.5L1400.5 714.5" fill-rule="nonzero"/><path stroke="#e6e6e6" stroke-width="1.0" stroke-linecap="butt" d="M109.5 700.5L1400.5 700.5" fill-rule="nonzero"/><path stroke="#e6e6e6" stroke-width="1.0" stroke-linecap="butt" d="M109.5 686.5L1400.5 686.5" fill-rule="nonzero"/><path stroke="#e6e6e6" stroke-width="1.0" stroke-linecap="butt" d="M109.5 672.5L1400.5 672.5" fill-rule="nonzero"/><path stroke="#e6e6e6" stroke-width="1.0" stroke-linecap="butt" d="M109.5 645.5L1400.5 645.5" fill-rule="nonzero"/><path stroke="#e6e6e6" stroke-width="1.0" stroke-linecap="butt" d="M109.5 631.5L1400.5 631.5" fill-rule="nonzero"/><path stroke="#e6e6e6" stroke-width="1.0" stroke-linecap="butt" d="M109.5 617.5L1400.5 617.5" fill-rule="nonzero"/><path stroke="#e6e6e6" stroke-width="1.0" stroke-linecap="butt" d="M109.5 603.5L1400.5 603.5" fill-rule="nonzero"/><path stroke="#e6e6e6" stroke-width="1.0" stroke-linecap="butt" d="M109.5 575.5L1400.5 575.5" fill-rule="nonzero"/><path stroke="#e6e6e6" stroke-width="1.0" stroke-linecap="butt" d="M109.5 562.5L1400.5 562.5" fill-rule="nonzero"/><path stroke="#e6e6e6" stroke-width="1.0" stroke-linecap="butt" d="M109.5 548.5L1400.5 548.5" fill-rule="nonzero"/><path stroke="#e6e6e6" stroke-width="1.0" stroke-linecap="butt" d="M109.5 534.5L1400.5 534.5" fill-rule="nonzero"/><path stroke="#e6e6e6" stroke-width="1.0" stroke-linecap="butt" d="M109.5 506.5L1400.5 506.5" fill-rule="nonzero"/><path stroke="#e6e6e6" stroke-width="1.0" stroke-linecap="butt" d="M109.5 492.5L1400.5 492.5" fill-rule="nonzero"/><path stroke="#e6e6e6" stroke-width="1.0" stroke-linecap="butt" d="M109.5 479.5L1400.5 479.5" fill-rule="nonzero"/><path stroke="#e6e6e6" stroke-width="1.0" stroke-linecap="butt" d="M109.5 465.5L1400.5 465.5" fill-rule="nonzero"/><path stroke="#e6e6e6" stroke-width="1.0" stroke-linecap="butt" d="M109.5 437.5L1400.5 437.5" fill-rule="nonzero"/><path stroke="#e6e6e6" stroke-width="1.0" stroke-linecap="butt" d="M109.5 423.5L1400.5 423.5" fill-rule="nonzero"/><path stroke="#e6e6e6" stroke-width="1.0" stroke-linecap="butt" d="M109.5 409.5L1400.5 409.5" fill-rule="nonzero"/><path stroke="#e6e6e6" stroke-width="1.0" stroke-linecap="butt" d="M109.5 396.5L1400.5 396.5" fill-rule="nonzero"/><path stroke="#e6e6e6" stroke-width="1.0" stroke-linecap="butt" d="M109.5 368.5L1400.5 368.5" fill-rule="nonzero"/><path stroke="#e6e6e6" stroke-width="1.0" stroke-linecap="butt" d="M109.5 354.5L1400.5 354.5" fill-rule="nonzero"/><path stroke="#e6e6e6" stroke-width="1.0" stroke-linecap="butt" d="M109.5 340.5L1400.5 340.5" fill-rule="nonzero"/><path stroke="#e6e6e6" stroke-width="1.0" stroke-linecap="butt" d="M109.5 326.5L1400.5 326.5" fill-rule="nonzero"/><path stroke="#e6e6e6" stroke-width="1.0" stroke-linecap="butt" d="M109.5 299.5L1400.5 299.5" fill-rule="nonzero"/><path stroke="#e6e6e6" stroke-width="1.0" stroke-linecap="butt" d="M109.5 285.5L1400.5 285.5" fill-rule="nonzero"/><path stroke="#e6e6e6" stroke-width="1.0" stroke-linecap="butt" d="M109.5 271.5L1400.5 271.5" fill-rule="nonzero"/><path stroke="#e6e6e6" stroke-width="1.0" stroke-linecap="butt" d="M109.5 257.5L1400.5 257.5" fill-rule="nonzero"/><path stroke="#e6e6e6" stroke-width="1.0" stroke-linecap="butt" d="M109.5 230.5L1400.5 230.5" fill-rule="nonzero"/><path stroke="#e6e6e6" stroke-width="1.0" stroke-linecap="butt" d="M109.5 216.5L1400.5 216.5" fill-rule="nonzero"/><path stroke="#e6e6e6" stroke-width="1.0" stroke-linecap="butt" d="M109.5 202.5L1400.5 202.5" fill-rule="nonzero"/><path stroke="#e6e6e6" stroke-width="1.0" stroke-linecap="butt" d="M109.5 188.5L1400.5 188.5" fill-rule="nonzero"/><path stroke="#e6e6e6" stroke-width="1.0" stroke-linecap="butt" d="M109.5 160.5L1400.5 160.5" fill-rule="nonzero"/><path stroke="#e6e6e6" stroke-width="1.0" stroke-linecap="butt" d="M109.5 147.5L1400.5 147.5" fill-rule="nonzero"/><path stroke="#e6e6e6" stroke-width="1.0" stroke-linecap="butt" d="M109.5 133.5L1400.5 133.5" fill-rule="nonzero"/><path stroke="#e6e6e6" stroke-width="1.0" stroke-linecap="butt" d="M109.5 119.5L1400.5 119.5" fill-rule="nonzero"/><path stroke="#000000" stroke-width="1.0" stroke-linecap="butt" d="M109.5 797.5L109.5 105.5" fill-rule="nonzero"/><clipPath id="id_0"><path d="M109.7 105.5L1400.3 105.5L1400.3 797.3L109.7 797.3L109.7 105.5Z" clip-rule="nonzero"/></clipPath><path stroke="#4285f4" stroke-width="2.0" stroke-linecap="butt" clip-path="url(#id_0)" d="M109.7 629.5909L116.443825 527.3293L123.18765 458.4592L129.93149 408.92105L156.9068 299.82584L210.8574 218.53922L318.75867 167.04805L534.56116 137.70671L541.305 137.23395L548.04877 136.77487L566.5943 135.57826L608.7432 133.172L650.89215 131.12222L693.0411 129.35518L735.19 127.81613L777.3389 146.19412L819.48785 143.93333L861.6368 141.91052L903.7857 140.09L945.93463 138.44286L966.1661 137.70671L972.9099 137.46858L988.08356 136.94545L1030.2324 135.57826L1072.3813 134.325L1114.5303 133.172L1156.6792 132.1077L1198.8281 131.12222L1240.977 130.20714L1283.126 129.35518L1325.2749 128.56L1367.4238 127.81613L1393.5562 137.80698L1400.3 137.64684" fill-rule="nonzero"/><path fill="#4285f4" clip-path="url(#id_0)" d="M109.7 629.5909C109.7 629.5909 109.7 629.5909 109.7 629.5909C109.7 629.5909 109.7 629.5909 109.7 629.5909C109.7 629.5909 109.7 629.5909 109.7 629.5909C109.7 629.5909 109.7 629.5909 109.7 629.5909Z" fill-rule="nonzero"/><path fill="#4285f4" clip-path="url(#id_0)" d="M116.443825 527.3293C116.443825 527.3293 116.443825 527.3293 116.443825 527.3293C116.443825 527.3293 116.443825 527.3293 116.443825 527.3293C116.443825 527.3293 116.443825 527.3293 116.443825 527.3293C116.443825 527.3293 116.443825 527.3293 116.443825 527.3293Z" fill-rule="nonzero"/><path fill="#4285f4" clip-path="url(#id_0)" d="M123.18765 458.4592C123.18765 458.4592 123.18765 458.4592 123.18765 458.4592C123.18765 458.4592 123.18765 458.4592 123.18765 458.4592C123.18765 458.4592 123.18765 458.4592 123.18765 458.4592C123.18765 458.4592 123.18765 458.4592 123.18765 458.4592Z" fill-rule="nonzero"/><path fill="#4285f4" clip-path="url(#id_0)" d="M129.93149 408.92105C129.93149 408.92105 129.93149 408.92105 129.93149 408.92105C129.93149 408.92105 129.93149 408.92105 129.93149 408.92105C129.93149 408.92105 129.93149 408.92105 129.93149 408.92105C129.93149 408.92105 129.93149 408.92105 129.93149 408.92105Z" fill-rule="nonzero"/><path fill="#4285f4" clip-path="url(#id_0)" d="M156.9068 299.82584C156.9068 299.82584 156.9068 299.82584 156.9068 299.82584C156.9068 299.82584 156.9068 299.82584 156.9068 299.82584C156.9068 299.82584 156.9068 299.82584 156.9068 299.82584C156.9068 299.82584 156.9068 299.82584 156.9068 299.82584Z" fill-rule="nonzero"/><path fill="#4285f4" clip-path="url(#id_0)" d="M210.8574 218.53922C210.8574 218.53922 210.8574 218.53922 210.8574 218.53922C210.8574 218.53922 210.8574 218.53922 210.8574 218.53922C210.8574 218.53922 210.8574 218.53922 210.8574 218.53922C210.8574 218.53922 210.8574 218.53922 210.8574 218.53922Z" fill-rule="nonzero"/><path fill="#4285f4" clip-path="url(#id_0)" d="M318.75867 167.04805C318.75867 167.04805 318.75867 167.04805 318.75867 167.04805C318.75867 167.04805 318.75867 167.04805 318.75867 167.04805C318.75867 167.04805 318.75867 167.04805 318.75867 167.04805C318.75867 167.04805 318.75867 167.04805 318.75867 167.04805Z" fill-rule="nonzero"/><path fill="#4285f4" clip-path="url(#id_0)" d="M534.56116 137.70671C534.56116 137.70671 534.56116 137.70671 534.56116 137.70671C534.56116 137.70671 534.56116 137.70671 534.56116 137.70671C534.56116 137.70671 534.56116 137.70671 534.56116 137.70671C534.56116 137.70671 534.56116 137.70671 534.56116 137.70671Z" fill-rule="nonzero"/><path fill="#4285f4" clip-path="url(#id_0)" d="M541.305 137.23395C541.305 137.23395 541.305 137.23395 541.305 137.23395C541.305 137.23395 541.305 137.23395 541.305 137.23395C541.305 137.23395 541.305 137.23395 541.305 137.23395C541.305 137.23395 541.305 137.23395 541.305 137.23395Z" fill-rule="nonzero"/><path fill="#4285f4" clip-path="url(#id_0)" d="M548.04877 136.77487C548.04877 136.77487 548.04877 136.77487 548.04877 136.77487C548.04877 136.77487 548.04877 136.77487 548.04877 136.77487C548.04877 136.77487 548.04877 136.77487 548.04877 136.77487C548.04877 136.77487 548.04877 136.77487 548.04877 136.77487Z" fill-rule="nonzero"/><path fill="#4285f4" clip-path="url(#id_0)" d="M566.5943 135.57826C566.5943 135.57826 566.5943 135.57826 566.5943 135.57826C566.5943 135.57826 566.5943 135.57826 566.5943 135.57826C566.5943 135.57826 566.5943 135.57826 566.5943 135.57826C566.5943 135.57826 566.5943 135.57826 566.5943 135.57826Z" fill-rule="nonzero"/><path fill="#4285f4" clip-path="url(#id_0)" d="M608.7432 133.172C608.7432 133.172 608.7432 133.172 608.7432 133.172C608.7432 133.172 608.7432 133.172 608.7432 133.172C608.7432 133.172 608.7432 133.172 608.7432 133.172C608.7432 133.172 608.7432 133.172 608.7432 133.172Z" fill-rule="nonzero"/><path fill="#4285f4" clip-path="url(#id_0)" d="M650.89215 131.12222C650.89215 131.12222 650.89215 131.12222 650.89215 131.12222C650.89215 131.12222 650.89215 131.12222 650.89215 131.12222C650.89215 131.12222 650.89215 131.12222 650.89215 131.12222C650.89215 131.12222 650.89215 131.12222 650.89215 131.12222Z" fill-rule="nonzero"/><path fill="#4285f4" clip-path="url(#id_0)" d="M693.0411 129.35518C693.0411 129.35518 693.0411 129.35518 693.0411 129.35518C693.0411 129.35518 693.0411 129.35518 693.0411 129.35518C693.0411 129.35518 693.0411 129.35518 693.0411 129.35518C693.0411 129.35518 693.0411 129.35518 693.0411 129.35518Z" fill-rule="nonzero"/><path fill="#4285f4" clip-path="url(#id_0)" d="M735.19 127.81613C735.19 127.81613 735.19 127.81613 735.19 127.81613C735.19 127.81613 735.19 127.81613 735.19 127.81613C735.19 127.81613 735.19 127.81613 735.19 127.81613C735.19 127.81613 735.19 127.81613 735.19 127.81613Z" fill-rule="nonzero"/><path fill="#4285f4" clip-path="url(#id_0)" d="M777.3389 146.19412C777.3389 146.19412 777.3389 146.19412 777.3389 146.19412C777.3389 146.19412 777.3389 146.19412 777.3389 146.19412C777.3389 146.19412 777.3389 146.19412 777.3389 146.19412C777.3389 146.19412 777.3389 146.19412 777.3389 146.19412Z" fill-rule="nonzero"/><path fill="#4285f4" clip-path="url(#id_0)" d="M819.48785 143.93333C819.48785 143.93333 819.48785 143.93333 819.48785 143.93333C819.48785 143.93333 819.48785 143.93333 819.48785 143.93333C819.48785 143.93333 819.48785 143.93333 819.48785 143.93333C819.48785 143.93333 819.48785 143.93333 819.48785 143.93333Z" fill-rule="nonzero"/><path fill="#4285f4" clip-path="url(#id_0)" d="M861.6368 141.91052C861.6368 141.91052 861.6368 141.91052 861.6368 141.91052C861.6368 141.91052 861.6368 141.91052 861.6368 141.91052C861.6368 141.91052 861.6368 141.91052 861.6368 141.91052C861.6368 141.91052 861.6368 141.91052 861.6368 141.91052Z" fill-rule="nonzero"/><path fill="#4285f4" clip-path="url(#id_0)" d="M903.7857 140.09C903.7857 140.09 903.7857 140.09 903.7857 140.09C903.7857 140.09 903.7857 140.09 903.7857 140.09C903.7857 140.09 903.7857 140.09 903.7857 140.09C903.7857 140.09 903.7857 140.09 903.7857 140.09Z" fill-rule="nonzero"/><path fill="#4285f4" clip-path="url(#id_0)" d="M945.93463 138.44286C945.93463 138.44286 945.93463 138.44286 945.93463 138.44286C945.93463 138.44286 945.93463 138.44286 945.93463 138.44286C945.93463 138.44286 945.93463 138.44286 945.93463 138.44286C945.93463 138.44286 945.93463 138.44286 945.93463 138.44286Z" fill-rule="nonzero"/><path fill="#4285f4" clip-path="url(#id_0)" d="M966.1661 137.70671C966.1661 137.70671 966.1661 137.70671 966.1661 137.70671C966.1661 137.70671 966.1661 137.70671 966.1661 137.70671C966.1661 137.70671 966.1661 137.70671 966.1661 137.70671C966.1661 137.70671 966.1661 137.70671 966.1661 137.70671Z" fill-rule="nonzero"/><path fill="#4285f4" clip-path="url(#id_0)" d="M972.9099 137.46858C972.9099 137.46858 972.9099 137.46858 972.9099 137.46858C972.9099 137.46858 972.9099 137.46858 972.9099 137.46858C972.9099 137.46858 972.9099 137.46858 972.9099 137.46858C972.9099 137.46858 972.9099 137.46858 972.9099 137.46858Z" fill-rule="nonzero"/><path fill="#4285f4" clip-path="url(#id_0)" d="M988.08356 136.94545C988.08356 136.94545 988.08356 136.94545 988.08356 136.94545C988.08356 136.94545 988.08356 136.94545 988.08356 136.94545C988.08356 136.94545 988.08356 136.94545 988.08356 136.94545C988.08356 136.94545 988.08356 136.94545 988.08356 136.94545Z" fill-rule="nonzero"/><path fill="#4285f4" clip-path="url(#id_0)" d="M1030.2324 135.57826C1030.2324 135.57826 1030.2324 135.57826 1030.2324 135.57826C1030.2324 135.57826 1030.2324 135.57826 1030.2324 135.57826C1030.2324 135.57826 1030.2324 135.57826 1030.2324 135.57826C1030.2324 135.57826 1030.2324 135.57826 1030.2324 135.57826Z" fill-rule="nonzero"/><path fill="#4285f4" clip-path="url(#id_0)" d="M1072.3813 134.325C1072.3813 134.325 1072.3813 134.325 1072.3813 134.325C1072.3813 134.325 1072.3813 134.325 1072.3813 134.325C1072.3813 134.325 1072.3813 134.325 1072.3813 134.325C1072.3813 134.325 1072.3813 134.325 1072.3813 134.325Z" fill-rule="nonzero"/><path fill="#4285f4" clip-path="url(#id_0)" d="M1114.5303 133.172C1114.5303 133.172 1114.5303 133.172 1114.5303 133.172C1114.5303 133.172 1114.5303 133.172 1114.5303 133.172C1114.5303 133.172 1114.5303 133.172 1114.5303 133.172C1114.5303 133.172 1114.5303 133.172 1114.5303 133.172Z" fill-rule="nonzero"/><path fill="#4285f4" clip-path="url(#id_0)" d="M1156.6792 132.1077C1156.6792 132.1077 1156.6792 132.1077 1156.6792 132.1077C1156.6792 132.1077 1156.6792 132.1077 1156.6792 132.1077C1156.6792 132.1077 1156.6792 132.1077 1156.6792 132.1077C1156.6792 132.1077 1156.6792 132.1077 1156.6792 132.1077Z" fill-rule="nonzero"/><path fill="#4285f4" clip-path="url(#id_0)" d="M1198.8281 131.12222C1198.8281 131.12222 1198.8281 131.12222 1198.8281 131.12222C1198.8281 131.12222 1198.8281 131.12222 1198.8281 131.12222C1198.8281 131.12222 1198.8281 131.12222 1198.8281 131.12222C1198.8281 131.12222 1198.8281 131.12222 1198.8281 131.12222Z" fill-rule="nonzero"/><path fill="#4285f4" clip-path="url(#id_0)" d="M1240.977 130.20714C1240.977 130.20714 1240.977 130.20714 1240.977 130.20714C1240.977 130.20714 1240.977 130.20714 1240.977 130.20714C1240.977 130.20714 1240.977 130.20714 1240.977 130.20714C1240.977 130.20714 1240.977 130.20714 1240.977 130.20714Z" fill-rule="nonzero"/><path fill="#4285f4" clip-path="url(#id_0)" d="M1283.126 129.35518C1283.126 129.35518 1283.126 129.35518 1283.126 129.35518C1283.126 129.35518 1283.126 129.35518 1283.126 129.35518C1283.126 129.35518 1283.126 129.35518 1283.126 129.35518C1283.126 129.35518 1283.126 129.35518 1283.126 129.35518Z" fill-rule="nonzero"/><path fill="#4285f4" clip-path="url(#id_0)" d="M1325.2749 128.56C1325.2749 128.56 1325.2749 128.56 1325.2749 128.56C1325.2749 128.56 1325.2749 128.56 1325.2749 128.56C1325.2749 128.56 1325.2749 128.56 1325.2749 128.56C1325.2749 128.56 1325.2749 128.56 1325.2749 128.56Z" fill-rule="nonzero"/><path fill="#4285f4" clip-path="url(#id_0)" d="M1367.4238 127.81613C1367.4238 127.81613 1367.4238 127.81613 1367.4238 127.81613C1367.4238 127.81613 1367.4238 127.81613 1367.4238 127.81613C1367.4238 127.81613 1367.4238 127.81613 1367.4238 127.81613C1367.4238 127.81613 1367.4238 127.81613 1367.4238 127.81613Z" fill-rule="nonzero"/><path fill="#4285f4" clip-path="url(#id_0)" d="M1393.5562 137.80698C1393.5562 137.80698 1393.5562 137.80698 1393.5562 137.80698C1393.5562 137.80698 1393.5562 137.80698 1393.5562 137.80698C1393.5562 137.80698 1393.5562 137.80698 1393.5562 137.80698C1393.5562 137.80698 1393.5562 137.80698 1393.5562 137.80698Z" fill-rule="nonzero"/><path fill="#4285f4" clip-path="url(#id_0)" d="M1400.3 137.64684C1400.3 137.64684 1400.3 137.64684 1400.3 137.64684C1400.3 137.64684 1400.3 137.64684 1400.3 137.64684C1400.3 137.64684 1400.3 137.64684 1400.3 137.64684C1400.3 137.64684 1400.3 137.64684 1400.3 137.64684Z" fill-rule="nonzero"/><path stroke="#000000" stroke-width="1.0" stroke-linecap="butt" d="M103.5 797.5L115.5 797.5" fill-rule="nonzero"/><path stroke="#000000" stroke-width="1.0" stroke-linecap="butt" d="M103.5 728.5L115.5 728.5" fill-rule="nonzero"/><path stroke="#000000" stroke-width="1.0" stroke-linecap="butt" d="M103.5 658.5L115.5 658.5" fill-rule="nonzero"/><path stroke="#000000" stroke-width="1.0" stroke-linecap="butt" d="M103.5 589.5L115.5 589.5" fill-rule="nonzero"/><path stroke="#000000" stroke-width="1.0" stroke-linecap="butt" d="M103.5 520.5L115.5 520.5" fill-rule="nonzero"/><path stroke="#000000" stroke-width="1.0" stroke-linecap="butt" d="M103.5 451.5L115.5 451.5" fill-rule="nonzero"/><path stroke="#000000" stroke-width="1.0" stroke-linecap="butt" d="M103.5 382.5L115.5 382.5" fill-rule="nonzero"/><path stroke="#000000" stroke-width="1.0" stroke-linecap="butt" d="M103.5 313.5L115.5 313.5" fill-rule="nonzero"/><path stroke="#000000" stroke-width="1.0" stroke-linecap="butt" d="M103.5 243.5L115.5 243.5" fill-rule="nonzero"/><path stroke="#000000" stroke-width="1.0" stroke-linecap="butt" d="M103.5 174.5L115.5 174.5" fill-rule="nonzero"/><path stroke="#000000" stroke-width="1.0" stroke-linecap="butt" d="M103.5 105.5L115.5 105.5" fill-rule="nonzero"/><path fill="#000000" d="M711.4219 846.3L711.4219 837.70624L714.6719 837.70624Q715.5156 837.70624 715.96875 837.78436Q716.6094 837.89374 717.03125 838.1906Q717.46875 838.4875 717.71875 839.01874Q717.9844 839.55 717.9844 840.1906Q717.9844 841.28436 717.28125 842.05Q716.59375 842.8 714.7656 842.8L712.5625 842.8L712.5625 846.3L711.4219 846.3ZM712.5625 841.8L714.78125 841.8Q715.8906 841.8 716.34375 841.39374Q716.8125 840.97186 716.8125 840.22186Q716.8125 839.6906 716.53125 839.3156Q716.2656 838.925 715.8281 838.8Q715.53125 838.72186 714.7656 838.72186L712.5625 838.72186L712.5625 841.8ZM723.3594 845.53436Q722.7656 846.03436 722.21875 846.2375Q721.6875 846.4406 721.0625 846.4406Q720.03125 846.4406 719.4844 845.9406Q718.9375 845.4406 718.9375 844.65936Q718.9375 844.20624 719.1406 843.83124Q719.34375 843.4406 719.6875 843.22186Q720.03125 842.9875 720.4531 842.8781Q720.75 842.78436 721.3906 842.70624Q722.65625 842.5656 723.2656 842.34686Q723.2656 842.1281 723.2656 842.08124Q723.2656 841.425 722.96875 841.15936Q722.5625 840.8156 721.7656 840.8156Q721.03125 840.8156 720.6719 841.08124Q720.3125 841.33124 720.1406 841.9875L719.1094 841.84686Q719.25 841.1906 719.5781 840.78436Q719.90625 840.3781 720.5156 840.15936Q721.125 839.9406 721.9219 839.9406Q722.71875 839.9406 723.21875 840.1281Q723.71875 840.3156 723.9531 840.59686Q724.1875 840.8781 724.28125 841.3156Q724.3281 841.58124 724.3281 842.28436L724.3281 843.6906Q724.3281 845.15936 724.3906 845.55Q724.46875 845.9406 724.6719 846.3L723.5625 846.3Q723.40625 845.97186 723.3594 845.53436ZM723.2656 843.175Q722.6875 843.40936 721.5469 843.58124Q720.8906 843.675 720.625 843.8Q720.3594 843.90936 720.2031 844.1281Q720.0625 844.34686 720.0625 844.6281Q720.0625 845.05 720.375 845.33124Q720.7031 845.6125 721.3125 845.6125Q721.9219 845.6125 722.3906 845.34686Q722.875 845.08124 723.09375 844.6125Q723.2656 844.2531 723.2656 843.5656L723.2656 843.175ZM726.25 848.6906L726.125 847.70624Q726.46875 847.8 726.7344 847.8Q727.0781 847.8 727.28125 847.675Q727.5 847.5656 727.6406 847.3625Q727.7344 847.1906 727.96875 846.5656Q727.9844 846.4875 728.0625 846.3156L725.6875 840.08124L726.8281 840.08124L728.125 843.675Q728.375 844.3625 728.5781 845.1281Q728.7656 844.39374 729.0156 843.70624L730.34375 840.08124L731.3906 840.08124L729.03125 846.40936Q728.6406 847.425 728.4375 847.8156Q728.15625 848.34686 727.78125 848.58124Q727.4219 848.83124 726.9219 848.83124Q726.625 848.83124 726.25 848.6906ZM731.2656 846.3L731.2656 837.70624L732.3281 837.70624L732.3281 846.3L731.2656 846.3ZM733.90625 843.1906Q733.90625 841.45624 734.8594 840.6281Q735.65625 839.9406 736.8125 839.9406Q738.09375 839.9406 738.90625 840.78436Q739.7344 841.6125 739.7344 843.09686Q739.7344 844.3 739.375 844.9875Q739.0156 845.675 738.3125 846.0656Q737.625 846.4406 736.8125 846.4406Q735.5156 846.4406 734.7031 845.6125Q733.90625 844.76874 733.90625 843.1906ZM734.9844 843.1906Q734.9844 844.3781 735.5 844.97186Q736.03125 845.5656 736.8125 845.5656Q737.6094 845.5656 738.125 844.97186Q738.6406 844.3781 738.6406 843.15936Q738.6406 842.0031 738.1094 841.40936Q737.59375 840.8156 736.8125 840.8156Q736.03125 840.8156 735.5 841.40936Q734.9844 841.9875 734.9844 843.1906ZM745.3594 845.53436Q744.7656 846.03436 744.21875 846.2375Q743.6875 846.4406 743.0625 846.4406Q742.03125 846.4406 741.4844 845.9406Q740.9375 845.4406 740.9375 844.65936Q740.9375 844.20624 741.1406 843.83124Q741.34375 843.4406 741.6875 843.22186Q742.03125 842.9875 742.4531 842.8781Q742.75 842.78436 743.3906 842.70624Q744.65625 842.5656 745.2656 842.34686Q745.2656 842.1281 745.2656 842.08124Q745.2656 841.425 744.96875 841.15936Q744.5625 840.8156 743.7656 840.8156Q743.03125 840.8156 742.6719 841.08124Q742.3125 841.33124 742.1406 841.9875L741.1094 841.84686Q741.25 841.1906 741.5781 840.78436Q741.90625 840.3781 742.5156 840.15936Q743.125 839.9406 743.9219 839.9406Q744.71875 839.9406 745.21875 840.1281Q745.71875 840.3156 745.9531 840.59686Q746.1875 840.8781 746.28125 841.3156Q746.3281 841.58124 746.3281 842.28436L746.3281 843.6906Q746.3281 845.15936 746.3906 845.55Q746.46875 845.9406 746.6719 846.3L745.5625 846.3Q745.40625 845.97186 745.3594 845.53436ZM745.2656 843.175Q744.6875 843.40936 743.5469 843.58124Q742.8906 843.675 742.625 843.8Q742.3594 843.90936 742.2031 844.1281Q742.0625 844.34686 742.0625 844.6281Q742.0625 845.05 742.375 845.33124Q742.7031 845.6125 743.3125 845.6125Q743.9219 845.6125 744.3906 845.34686Q744.875 845.08124 745.09375 844.6125Q745.2656 844.2531 745.2656 843.5656L745.2656 843.175ZM752.3281 846.3L752.3281 845.51874Q751.7344 846.4406 750.59375 846.4406Q749.84375 846.4406 749.21875 846.03436Q748.59375 845.6125 748.25 844.8781Q747.90625 844.14374 747.90625 843.1906Q747.90625 842.26874 748.21875 841.5031Q748.53125 840.7375 749.15625 840.34686Q749.78125 839.9406 750.5469 839.9406Q751.1094 839.9406 751.5469 840.175Q751.9844 840.40936 752.2656 840.78436L752.2656 837.70624L753.3125 837.70624L753.3125 846.3L752.3281 846.3ZM749.0 843.1906Q749.0 844.39374 749.5 844.9875Q750.0 845.5656 750.6875 845.5656Q751.375 845.5656 751.8594 845.0031Q752.34375 844.4406 752.34375 843.28436Q752.34375 842.0031 751.84375 841.40936Q751.3594 840.8156 750.6406 840.8156Q749.9375 840.8156 749.46875 841.39374Q749.0 841.95624 749.0 843.1906ZM758.0469 843.53436L759.1094 843.4406Q759.1875 844.09686 759.46875 844.5031Q759.75 844.90936 760.3281 845.175Q760.9219 845.425 761.65625 845.425Q762.2969 845.425 762.7969 845.2375Q763.2969 845.03436 763.53125 844.70624Q763.78125 844.3625 763.78125 843.97186Q763.78125 843.5656 763.5469 843.26874Q763.3125 842.95624 762.78125 842.7531Q762.4219 842.6125 761.2344 842.33124Q760.0625 842.05 759.59375 841.8Q758.96875 841.47186 758.6719 841.0031Q758.375 840.51874 758.375 839.925Q758.375 839.28436 758.7344 838.72186Q759.1094 838.14374 759.8125 837.8625Q760.53125 837.5656 761.3906 837.5656Q762.34375 837.5656 763.0781 837.8781Q763.8125 838.175 764.2031 838.78436Q764.59375 839.3781 764.625 840.1281L763.53125 840.20624Q763.4375 839.39374 762.9219 838.9875Q762.4219 838.5656 761.4375 838.5656Q760.40625 838.5656 759.9375 838.9406Q759.46875 839.3156 759.46875 839.84686Q759.46875 840.3156 759.7969 840.6125Q760.125 840.90936 761.5 841.22186Q762.8906 841.53436 763.40625 841.76874Q764.15625 842.1281 764.5156 842.65936Q764.875 843.175 764.875 843.8781Q764.875 844.5656 764.4844 845.175Q764.09375 845.76874 763.3594 846.1125Q762.625 846.4406 761.7031 846.4406Q760.53125 846.4406 759.7344 846.1125Q758.9531 845.76874 758.5 845.08124Q758.0625 844.39374 758.0469 843.53436ZM766.2969 838.925L766.2969 837.70624L767.3594 837.70624L767.3594 838.925L766.2969 838.925ZM766.2969 846.3L766.2969 840.08124L767.3594 840.08124L767.3594 846.3L766.2969 846.3ZM768.7344 846.3L768.7344 845.4406L772.7031 840.89374Q772.0156 840.925 771.5 840.925L768.96875 840.925L768.96875 840.08124L774.0625 840.08124L774.0625 840.76874L770.6875 844.72186L770.03125 845.4406Q770.75 845.39374 771.3594 845.39374L774.25 845.39374L774.25 846.3L768.7344 846.3ZM778.5469 844.3L779.6406 844.425Q779.3906 845.3781 778.6875 845.90936Q777.9844 846.4406 776.90625 846.4406Q775.5469 846.4406 774.7344 845.59686Q773.9375 844.7531 773.9375 843.2375Q773.9375 841.675 774.75 840.8156Q775.5625 839.9406 776.84375 839.9406Q778.09375 839.9406 778.875 840.78436Q779.6719 841.6281 779.6719 843.175Q779.6719 843.26874 779.6719 843.45624L775.03125 843.45624Q775.09375 844.4875 775.6094 845.03436Q776.125 845.5656 776.90625 845.5656Q777.4844 845.5656 777.8906 845.26874Q778.3125 844.95624 778.5469 844.3ZM775.09375 842.59686L778.5625 842.59686Q778.5 841.8 778.1719 841.40936Q777.65625 840.8 776.8594 840.8Q776.125 840.8 775.625 841.28436Q775.1406 841.76874 775.09375 842.59686ZM786.3125 848.83124Q785.4375 847.72186 784.8281 846.2531Q784.2344 844.76874 784.2344 843.1906Q784.2344 841.8 784.6719 840.51874Q785.2031 839.03436 786.3125 837.5656L787.0625 837.5656Q786.3594 838.78436 786.125 839.3Q785.7656 840.1125 785.5625 840.9875Q785.3125 842.08124 785.3125 843.1906Q785.3125 846.01874 787.0625 848.83124L786.3125 848.83124ZM788.375 846.3L788.375 837.70624L791.6094 837.70624Q792.59375 837.70624 793.1875 837.97186Q793.78125 838.2375 794.1094 838.78436Q794.4531 839.3156 794.4531 839.90936Q794.4531 840.45624 794.15625 840.9406Q793.8594 841.425 793.25 841.72186Q794.03125 841.95624 794.4375 842.51874Q794.8594 843.0656 794.8594 843.8156Q794.8594 844.40936 794.6094 844.9406Q794.3594 845.45624 793.9844 845.7375Q793.6094 846.01874 793.03125 846.15936Q792.46875 846.3 791.65625 846.3L788.375 846.3ZM789.5156 841.3156L791.375 841.3156Q792.125 841.3156 792.4531 841.22186Q792.8906 841.09686 793.1094 840.8Q793.3281 840.4875 793.3281 840.03436Q793.3281 839.6125 793.125 839.28436Q792.9219 838.95624 792.53125 838.84686Q792.15625 838.72186 791.2344 838.72186L789.5156 838.72186L789.5156 841.3156ZM789.5156 845.28436L791.65625 845.28436Q792.2031 845.28436 792.4219 845.2375Q792.8281 845.175 793.0781 845.01874Q793.34375 844.84686 793.5156 844.53436Q793.6875 844.22186 793.6875 843.8156Q793.6875 843.33124 793.4375 842.97186Q793.2031 842.6125 792.7656 842.47186Q792.3281 842.33124 791.5 842.33124L789.5156 842.33124L789.5156 845.28436ZM796.9844 848.83124L796.2344 848.83124Q797.9844 846.01874 797.9844 843.1906Q797.9844 842.09686 797.7344 841.0031Q797.53125 840.1281 797.1719 839.3156Q796.9375 838.8 796.2344 837.5656L796.9844 837.5656Q798.0781 839.03436 798.6094 840.51874Q799.0625 841.8 799.0625 843.1906Q799.0625 844.76874 798.4531 846.2531Q797.84375 847.72186 796.9844 848.83124Z" fill-rule="nonzero"/><path fill="#000000" d="M55.69999 481.47812L47.10624 481.47812L47.10624 478.22812Q47.10624 477.38437 47.184364 476.93124Q47.29374 476.29062 47.590614 475.86874Q47.88749 475.43124 48.41874 475.18124Q48.94999 474.91562 49.590614 474.91562Q50.684364 474.91562 51.44999 475.61874Q52.19999 476.30624 52.19999 478.13437L52.19999 480.3375L55.69999 480.3375L55.69999 481.47812ZM51.19999 480.3375L51.19999 478.11874Q51.19999 477.00937 50.79374 476.55624Q50.371864 476.0875 49.621864 476.0875Q49.090614 476.0875 48.715614 476.36874Q48.32499 476.63437 48.19999 477.07187Q48.121864 477.36874 48.121864 478.13437L48.121864 480.3375L51.19999 480.3375ZM53.69999 469.35312L53.82499 468.25937Q54.778114 468.50937 55.309364 469.2125Q55.840614 469.91562 55.840614 470.99374Q55.840614 472.35312 54.996864 473.16562Q54.153114 473.9625 52.63749 473.9625Q51.07499 473.9625 50.215614 473.15Q49.340614 472.3375 49.340614 471.05624Q49.340614 469.80624 50.184364 469.025Q51.028114 468.22812 52.57499 468.22812Q52.66874 468.22812 52.85624 468.22812L52.85624 472.86874Q53.88749 472.80624 54.434364 472.29062Q54.965614 471.775 54.965614 470.99374Q54.965614 470.41562 54.66874 470.00937Q54.35624 469.5875 53.69999 469.35312ZM51.996864 472.80624L51.996864 469.3375Q51.19999 469.4 50.809364 469.72812Q50.19999 470.24374 50.19999 471.04062Q50.19999 471.775 50.684364 472.275Q51.16874 472.75937 51.996864 472.80624ZM54.934364 462.54062Q55.434364 463.13437 55.63749 463.68124Q55.840614 464.2125 55.840614 464.8375Q55.840614 465.86874 55.340614 466.41562Q54.840614 466.9625 54.059364 466.9625Q53.60624 466.9625 53.23124 466.75937Q52.840614 466.55624 52.621864 466.2125Q52.38749 465.86874 52.278114 465.44687Q52.184364 465.15 52.10624 464.50937Q51.965614 463.24374 51.746864 462.63437Q51.528114 462.63437 51.48124 462.63437Q50.82499 462.63437 50.559364 462.93124Q50.215614 463.3375 50.215614 464.13437Q50.215614 464.86874 50.48124 465.22812Q50.73124 465.5875 51.38749 465.75937L51.246864 466.79062Q50.590614 466.65 50.184364 466.32187Q49.778114 465.99374 49.559364 465.38437Q49.340614 464.775 49.340614 463.97812Q49.340614 463.18124 49.528114 462.68124Q49.715614 462.18124 49.996864 461.94687Q50.278114 461.7125 50.715614 461.61874Q50.98124 461.57187 51.684364 461.57187L53.090614 461.57187Q54.559364 461.57187 54.94999 461.50937Q55.340614 461.43124 55.69999 461.22812L55.69999 462.3375Q55.371864 462.49374 54.934364 462.54062ZM52.57499 462.63437Q52.809364 463.2125 52.98124 464.35312Q53.07499 465.00937 53.19999 465.275Q53.309364 465.54062 53.528114 465.69687Q53.746864 465.8375 54.028114 465.8375Q54.44999 465.8375 54.73124 465.525Q55.01249 465.19687 55.01249 464.5875Q55.01249 463.97812 54.746864 463.50937Q54.48124 463.025 54.01249 462.80624Q53.653114 462.63437 52.965614 462.63437L52.57499 462.63437ZM55.69999 459.60312L47.10624 459.60312L47.10624 458.54062L52.01249 458.54062L49.48124 456.05624L49.48124 454.68124L51.778114 457.07187L55.69999 454.44687L55.69999 455.74374L52.51249 457.80624L53.23124 458.54062L55.69999 458.54062L55.69999 459.60312ZM47.10624 444.8375L47.10624 443.69687L52.07499 443.69687Q53.371864 443.69687 54.13749 443.99374Q54.88749 444.29062 55.371864 445.05624Q55.840614 445.82187 55.840614 447.05624Q55.840614 448.25937 55.434364 449.04062Q55.01249 449.80624 54.23124 450.13437Q53.434364 450.4625 52.07499 450.4625L47.10624 450.4625L47.10624 449.32187L52.059364 449.32187Q53.184364 449.32187 53.715614 449.11874Q54.246864 448.9 54.54374 448.4Q54.82499 447.88437 54.82499 447.15Q54.82499 445.9 54.26249 445.36874Q53.684364 444.8375 52.059364 444.8375L47.10624 444.8375ZM54.76249 439.30624L55.684364 439.15Q55.778114 439.60312 55.778114 439.94687Q55.778114 440.525 55.60624 440.8375Q55.41874 441.15 55.121864 441.29062Q54.82499 441.41562 53.871864 441.41562L50.29374 441.41562L50.29374 442.18124L49.48124 442.18124L49.48124 441.41562L47.934364 441.41562L47.309364 440.36874L49.48124 440.36874L49.48124 439.30624L50.29374 439.30624L50.29374 440.36874L53.934364 440.36874Q54.38749 440.36874 54.51249 440.32187Q54.63749 440.25937 54.715614 440.13437Q54.79374 440.00937 54.79374 439.775Q54.79374 439.5875 54.76249 439.30624ZM48.32499 438.60312L47.10624 438.60312L47.10624 437.54062L48.32499 437.54062L48.32499 438.60312ZM55.69999 438.60312L49.48124 438.60312L49.48124 437.54062L55.69999 437.54062L55.69999 438.60312ZM55.69999 435.63437L47.10624 435.63437L47.10624 434.57187L55.69999 434.57187L55.69999 435.63437Z" fill-rule="nonzero"/><path fill="#000000" d="M91.2 797.0656Q91.2 795.53436 91.5125 794.6125Q91.825 793.675 92.43437 793.175Q93.05937 792.675 93.99687 792.675Q94.68437 792.675 95.2 792.95624Q95.73125 793.2375 96.075 793.76874Q96.41875 794.28436 96.60625 795.03436Q96.79375 795.78436 96.79375 797.0656Q96.79375 798.58124 96.48125 799.5031Q96.18437 800.425 95.55937 800.9406Q94.95 801.4406 93.99687 801.4406Q92.7625 801.4406 92.04375 800.55Q91.2 799.4875 91.2 797.0656ZM92.27812 797.0656Q92.27812 799.175 92.77812 799.8781Q93.27812 800.58124 93.99687 800.58124Q94.73125 800.58124 95.21562 799.8781Q95.71562 799.175 95.71562 797.0656Q95.71562 794.9406 95.21562 794.2531Q94.73125 793.55 93.98125 793.55Q93.2625 793.55 92.825 794.15936Q92.27812 794.9406 92.27812 797.0656Z" fill-rule="nonzero"/><path fill="#000000" d="M88.16875 732.12L87.12187 732.12L87.12187 725.40125Q86.73125 725.7606 86.10625 726.1356Q85.49687 726.495 85.0125 726.6669L85.0125 725.65125Q85.8875 725.2294 86.54375 724.65125Q87.21562 724.0575 87.49687 723.495L88.16875 723.495L88.16875 732.12ZM91.2 727.8856Q91.2 726.3544 91.5125 725.4325Q91.825 724.495 92.43437 723.995Q93.05937 723.495 93.99687 723.495Q94.68437 723.495 95.2 723.77625Q95.73125 724.0575 96.075 724.58875Q96.41875 725.1044 96.60625 725.8544Q96.79375 726.6044 96.79375 727.8856Q96.79375 729.40125 96.48125 730.3231Q96.18437 731.245 95.55937 731.7606Q94.95 732.2606 93.99687 732.2606Q92.7625 732.2606 92.04375 731.37Q91.2 730.3075 91.2 727.8856ZM92.27812 727.8856Q92.27812 729.995 92.77812 730.6981Q93.27812 731.40125 93.99687 731.40125Q94.73125 731.40125 95.21562 730.6981Q95.71562 729.995 95.71562 727.8856Q95.71562 725.7606 95.21562 725.0731Q94.73125 724.37 93.98125 724.37Q93.2625 724.37 92.825 724.9794Q92.27812 725.7606 92.27812 727.8856Z" fill-rule="nonzero"/><path fill="#000000" d="M89.74687 661.9244L89.74687 662.94L84.05937 662.94Q84.05937 662.565 84.18437 662.2056Q84.40312 661.6275 84.87187 661.065Q85.35625 660.5025 86.2625 659.7681Q87.66875 658.6119 88.15312 657.94Q88.65312 657.2681 88.65312 656.6744Q88.65312 656.0494 88.2 655.6275Q87.74687 655.19 87.02812 655.19Q86.2625 655.19 85.80937 655.6431Q85.35625 656.09625 85.34062 656.90875L84.2625 656.7994Q84.37187 655.5806 85.09062 654.9556Q85.825 654.315 87.05937 654.315Q88.29375 654.315 89.0125 655.0025Q89.73125 655.69 89.73125 656.7056Q89.73125 657.22125 89.5125 657.72125Q89.30937 658.2056 88.80937 658.7681Q88.325 659.315 87.2 660.2681Q86.24687 661.065 85.96562 661.3619Q85.7 661.6431 85.52812 661.9244L89.74687 661.9244ZM91.2 658.7056Q91.2 657.1744 91.5125 656.2525Q91.825 655.315 92.43437 654.815Q93.05937 654.315 93.99687 654.315Q94.68437 654.315 95.2 654.59625Q95.73125 654.8775 96.075 655.40875Q96.41875 655.9244 96.60625 656.6744Q96.79375 657.4244 96.79375 658.7056Q96.79375 660.22125 96.48125 661.1431Q96.18437 662.065 95.55937 662.5806Q94.95 663.0806 93.99687 663.0806Q92.7625 663.0806 92.04375 662.19Q91.2 661.1275 91.2 658.7056ZM92.27812 658.7056Q92.27812 660.815 92.77812 661.5181Q93.27812 662.22125 93.99687 662.22125Q94.73125 662.22125 95.21562 661.5181Q95.71562 660.815 95.71562 658.7056Q95.71562 656.5806 95.21562 655.8931Q94.73125 655.19 93.98125 655.19Q93.2625 655.19 92.825 655.7994Q92.27812 656.5806 92.27812 658.7056Z" fill-rule="nonzero"/><path fill="#000000" d="M84.2 591.4944L85.2625 591.35376Q85.43437 592.2444 85.87187 592.65063Q86.30937 593.04126 86.93437 593.04126Q87.68437 593.04126 88.2 592.52563Q88.71562 592.01 88.71562 591.2444Q88.71562 590.52563 88.23125 590.0569Q87.7625 589.5725 87.02812 589.5725Q86.73125 589.5725 86.27812 589.6975L86.40312 588.76Q86.5125 588.77563 86.575 588.77563Q87.24687 588.77563 87.77812 588.4319Q88.325 588.0725 88.325 587.33813Q88.325 586.76 87.93437 586.385Q87.54375 585.9944 86.91875 585.9944Q86.30937 585.9944 85.8875 586.385Q85.48125 586.77563 85.37187 587.54126L84.30937 587.35376Q84.49687 586.3069 85.18437 585.72876Q85.87187 585.135 86.8875 585.135Q87.59062 585.135 88.18437 585.4475Q88.77812 585.7444 89.09062 586.26Q89.40312 586.77563 89.40312 587.3694Q89.40312 587.91626 89.10625 588.385Q88.80937 588.83813 88.23125 589.10376Q88.98125 589.27563 89.40312 589.83813Q89.825 590.385 89.825 591.22876Q89.825 592.35376 88.99687 593.135Q88.18437 593.91626 86.93437 593.91626Q85.80937 593.91626 85.05937 593.2444Q84.30937 592.5569 84.2 591.4944ZM91.2 589.52563Q91.2 587.9944 91.5125 587.0725Q91.825 586.135 92.43437 585.635Q93.05937 585.135 93.99687 585.135Q94.68437 585.135 95.2 585.41626Q95.73125 585.6975 96.075 586.22876Q96.41875 586.7444 96.60625 587.4944Q96.79375 588.2444 96.79375 589.52563Q96.79375 591.04126 96.48125 591.96313Q96.18437 592.885 95.55937 593.40063Q94.95 593.90063 93.99687 593.90063Q92.7625 593.90063 92.04375 593.01Q91.2 591.9475 91.2 589.52563ZM92.27812 589.52563Q92.27812 591.635 92.77812 592.33813Q93.27812 593.04126 93.99687 593.04126Q94.73125 593.04126 95.21562 592.33813Q95.71562 591.635 95.71562 589.52563Q95.71562 587.40063 95.21562 586.71313Q94.73125 586.01 93.98125 586.01Q93.2625 586.01 92.825 586.6194Q92.27812 587.40063 92.27812 589.52563Z" fill-rule="nonzero"/><path fill="#000000" d="M87.575 524.58L87.575 522.5175L83.85625 522.5175L83.85625 521.54877L87.77812 515.98627L88.6375 515.98627L88.6375 521.54877L89.79375 521.54877L89.79375 522.5175L88.6375 522.5175L88.6375 524.58L87.575 524.58ZM87.575 521.54877L87.575 517.6894L84.8875 521.54877L87.575 521.54877ZM91.2 520.34564Q91.2 518.8144 91.5125 517.8925Q91.825 516.955 92.43437 516.455Q93.05937 515.955 93.99687 515.955Q94.68437 515.955 95.2 516.23627Q95.73125 516.5175 96.075 517.04877Q96.41875 517.5644 96.60625 518.3144Q96.79375 519.0644 96.79375 520.34564Q96.79375 521.86127 96.48125 522.78314Q96.18437 523.705 95.55937 524.22064Q94.95 524.72064 93.99687 524.72064Q92.7625 524.72064 92.04375 523.83Q91.2 522.7675 91.2 520.34564ZM92.27812 520.34564Q92.27812 522.455 92.77812 523.15814Q93.27812 523.86127 93.99687 523.86127Q94.73125 523.86127 95.21562 523.15814Q95.71562 522.455 95.71562 520.34564Q95.71562 518.22064 95.21562 517.53314Q94.73125 516.83 93.98125 516.83Q93.2625 516.83 92.825 517.4394Q92.27812 518.22064 92.27812 520.34564Z" fill-rule="nonzero"/><path fill="#000000" d="M84.2 453.15L85.30937 453.05624Q85.43437 453.86874 85.87187 454.275Q86.325 454.68124 86.96562 454.68124Q87.71562 454.68124 88.24687 454.10312Q88.77812 453.525 88.77812 452.5875Q88.77812 451.68124 88.2625 451.16562Q87.7625 450.63437 86.93437 450.63437Q86.43437 450.63437 86.0125 450.86874Q85.60625 451.10312 85.37187 451.4625L84.3875 451.3375L85.21562 446.93124L89.49687 446.93124L89.49687 447.93124L86.05937 447.93124L85.60625 450.24374Q86.37187 449.69687 87.21562 449.69687Q88.34062 449.69687 89.10625 450.47812Q89.8875 451.25937 89.8875 452.49374Q89.8875 453.65 89.21562 454.50937Q88.3875 455.54062 86.96562 455.54062Q85.79375 455.54062 85.04375 454.88437Q84.30937 454.22812 84.2 453.15ZM91.2 451.16562Q91.2 449.63437 91.5125 448.7125Q91.825 447.775 92.43437 447.275Q93.05937 446.775 93.99687 446.775Q94.68437 446.775 95.2 447.05624Q95.73125 447.3375 96.075 447.86874Q96.41875 448.38437 96.60625 449.13437Q96.79375 449.88437 96.79375 451.16562Q96.79375 452.68124 96.48125 453.60312Q96.18437 454.525 95.55937 455.04062Q94.95 455.54062 93.99687 455.54062Q92.7625 455.54062 92.04375 454.65Q91.2 453.5875 91.2 451.16562ZM92.27812 451.16562Q92.27812 453.275 92.77812 453.97812Q93.27812 454.68124 93.99687 454.68124Q94.73125 454.68124 95.21562 453.97812Q95.71562 453.275 95.71562 451.16562Q95.71562 449.04062 95.21562 448.35312Q94.73125 447.65 93.98125 447.65Q93.2625 447.65 92.825 448.25937Q92.27812 449.04062 92.27812 451.16562Z" fill-rule="nonzero"/><path fill="#000000" d="M89.66875 379.73563L88.62187 379.81375Q88.48125 379.18875 88.23125 378.9075Q87.79375 378.45438 87.16875 378.45438Q86.66875 378.45438 86.27812 378.73563Q85.79375 379.11063 85.49687 379.81375Q85.21562 380.50125 85.2 381.7825Q85.575 381.20438 86.12187 380.92313Q86.68437 380.64188 87.29375 380.64188Q88.34062 380.64188 89.075 381.42313Q89.825 382.20438 89.825 383.42313Q89.825 384.23563 89.46562 384.93875Q89.12187 385.62625 88.5125 386.00125Q87.90312 386.36063 87.1375 386.36063Q85.80937 386.36063 84.98125 385.39188Q84.15312 384.42313 84.15312 382.20438Q84.15312 379.70438 85.075 378.57938Q85.87187 377.595 87.23125 377.595Q88.24687 377.595 88.8875 378.17313Q89.54375 378.73563 89.66875 379.73563ZM85.37187 383.43875Q85.37187 383.98563 85.59062 384.48563Q85.825 384.97 86.23125 385.23563Q86.65312 385.50125 87.12187 385.50125Q87.77812 385.50125 88.2625 384.97Q88.74687 384.42313 88.74687 383.50125Q88.74687 382.61063 88.2625 382.095Q87.79375 381.57938 87.075 381.57938Q86.35625 381.57938 85.85625 382.095Q85.37187 382.61063 85.37187 383.43875ZM91.2 381.98563Q91.2 380.45438 91.5125 379.5325Q91.825 378.595 92.43437 378.095Q93.05937 377.595 93.99687 377.595Q94.68437 377.595 95.2 377.87625Q95.73125 378.1575 96.075 378.68875Q96.41875 379.20438 96.60625 379.95438Q96.79375 380.70438 96.79375 381.98563Q96.79375 383.50125 96.48125 384.42313Q96.18437 385.345 95.55937 385.86063Q94.95 386.36063 93.99687 386.36063Q92.7625 386.36063 92.04375 385.47Q91.2 384.4075 91.2 381.98563ZM92.27812 381.98563Q92.27812 384.095 92.77812 384.79813Q93.27812 385.50125 93.99687 385.50125Q94.73125 385.50125 95.21562 384.79813Q95.71562 384.095 95.71562 381.98563Q95.71562 379.86063 95.21562 379.17313Q94.73125 378.47 93.98125 378.47Q93.2625 378.47 92.825 379.07938Q92.27812 379.86063 92.27812 381.98563Z" fill-rule="nonzero"/><path fill="#000000" d="M84.2625 309.57126L84.2625 308.55563L89.825 308.55563L89.825 309.38376Q89.0125 310.25876 88.2 311.71188Q87.40312 313.14938 86.96562 314.68063Q86.6375 315.75876 86.55937 317.04L85.46562 317.04Q85.48125 316.02438 85.85625 314.58688Q86.24687 313.14938 86.95 311.82126Q87.66875 310.49313 88.48125 309.57126L84.2625 309.57126ZM91.2 312.80563Q91.2 311.27438 91.5125 310.3525Q91.825 309.415 92.43437 308.915Q93.05937 308.415 93.99687 308.415Q94.68437 308.415 95.2 308.69626Q95.73125 308.9775 96.075 309.50876Q96.41875 310.02438 96.60625 310.77438Q96.79375 311.52438 96.79375 312.80563Q96.79375 314.32126 96.48125 315.24313Q96.18437 316.165 95.55937 316.68063Q94.95 317.18063 93.99687 317.18063Q92.7625 317.18063 92.04375 316.29Q91.2 315.2275 91.2 312.80563ZM92.27812 312.80563Q92.27812 314.915 92.77812 315.61813Q93.27812 316.32126 93.99687 316.32126Q94.73125 316.32126 95.21562 315.61813Q95.71562 314.915 95.71562 312.80563Q95.71562 310.68063 95.21562 309.99313Q94.73125 309.29 93.98125 309.29Q93.2625 309.29 92.825 309.89938Q92.27812 310.68063 92.27812 312.80563Z" fill-rule="nonzero"/><path fill="#000000" d="M85.825 243.20375Q85.16875 242.95375 84.84062 242.51625Q84.52812 242.06313 84.52812 241.45375Q84.52812 240.51625 85.2 239.87563Q85.8875 239.235 86.99687 239.235Q88.12187 239.235 88.80937 239.89125Q89.49687 240.5475 89.49687 241.485Q89.49687 242.07875 89.18437 242.51625Q88.87187 242.95375 88.23125 243.20375Q89.02812 243.45375 89.43437 244.03188Q89.84062 244.61 89.84062 245.40688Q89.84062 246.50063 89.05937 247.25063Q88.29375 248.00063 87.0125 248.00063Q85.74687 248.00063 84.96562 247.25063Q84.18437 246.50063 84.18437 245.37563Q84.18437 244.53188 84.60625 243.96938Q85.04375 243.40688 85.825 243.20375ZM85.60625 241.40688Q85.60625 242.01625 85.99687 242.40688Q86.40312 242.7975 87.02812 242.7975Q87.6375 242.7975 88.02812 242.4225Q88.41875 242.03188 88.41875 241.46938Q88.41875 240.89125 88.0125 240.50063Q87.60625 240.09438 87.0125 240.09438Q86.40312 240.09438 85.99687 240.485Q85.60625 240.87563 85.60625 241.40688ZM85.27812 245.37563Q85.27812 245.82875 85.48125 246.25063Q85.7 246.6725 86.12187 246.90688Q86.54375 247.14125 87.02812 247.14125Q87.77812 247.14125 88.2625 246.65688Q88.7625 246.1725 88.7625 245.4225Q88.7625 244.65688 88.2625 244.15688Q87.7625 243.65688 86.99687 243.65688Q86.24687 243.65688 85.7625 244.15688Q85.27812 244.64125 85.27812 245.37563ZM91.2 243.62563Q91.2 242.09438 91.5125 241.1725Q91.825 240.235 92.43437 239.735Q93.05937 239.235 93.99687 239.235Q94.68437 239.235 95.2 239.51625Q95.73125 239.7975 96.075 240.32875Q96.41875 240.84438 96.60625 241.59438Q96.79375 242.34438 96.79375 243.62563Q96.79375 245.14125 96.48125 246.06313Q96.18437 246.985 95.55937 247.50063Q94.95 248.00063 93.99687 248.00063Q92.7625 248.00063 92.04375 247.11Q91.2 246.0475 91.2 243.62563ZM92.27812 243.62563Q92.27812 245.735 92.77812 246.43813Q93.27812 247.14125 93.99687 247.14125Q94.73125 247.14125 95.21562 246.43813Q95.71562 245.735 95.71562 243.62563Q95.71562 241.50063 95.21562 240.81313Q94.73125 240.11 93.98125 240.11Q93.2625 240.11 92.825 240.71938Q92.27812 241.50063 92.27812 243.62563Z" fill-rule="nonzero"/><path fill="#000000" d="M84.35625 176.69562L85.37187 176.60187Q85.49687 177.32062 85.85625 177.64874Q86.23125 177.96124 86.79375 177.96124Q87.27812 177.96124 87.6375 177.7425Q88.0125 177.50812 88.24687 177.14874Q88.48125 176.77374 88.6375 176.14874Q88.79375 175.50812 88.79375 174.85187Q88.79375 174.77374 88.79375 174.63312Q88.48125 175.13312 87.93437 175.46124Q87.3875 175.77374 86.74687 175.77374Q85.66875 175.77374 84.93437 175.00812Q84.2 174.22687 84.2 172.96124Q84.2 171.64874 84.96562 170.85187Q85.74687 170.055 86.90312 170.055Q87.73125 170.055 88.41875 170.50812Q89.12187 170.96124 89.48125 171.805Q89.84062 172.63312 89.84062 174.21124Q89.84062 175.85187 89.48125 176.83624Q89.1375 177.805 88.41875 178.32062Q87.71562 178.82062 86.77812 178.82062Q85.7625 178.82062 85.12187 178.27374Q84.48125 177.71124 84.35625 176.69562ZM88.66875 172.89874Q88.66875 171.9925 88.18437 171.46124Q87.71562 170.93 87.02812 170.93Q86.325 170.93 85.79375 171.50812Q85.27812 172.07062 85.27812 172.9925Q85.27812 173.805 85.77812 174.32062Q86.27812 174.83624 86.99687 174.83624Q87.73125 174.83624 88.2 174.32062Q88.66875 173.805 88.66875 172.89874ZM91.2 174.44562Q91.2 172.91437 91.5125 171.9925Q91.825 171.055 92.43437 170.555Q93.05937 170.055 93.99687 170.055Q94.68437 170.055 95.2 170.33624Q95.73125 170.6175 96.075 171.14874Q96.41875 171.66437 96.60625 172.41437Q96.79375 173.16437 96.79375 174.44562Q96.79375 175.96124 96.48125 176.88312Q96.18437 177.805 95.55937 178.32062Q94.95 178.82062 93.99687 178.82062Q92.7625 178.82062 92.04375 177.93Q91.2 176.8675 91.2 174.44562ZM92.27812 174.44562Q92.27812 176.555 92.77812 177.25812Q93.27812 177.96124 93.99687 177.96124Q94.73125 177.96124 95.21562 177.25812Q95.71562 176.555 95.71562 174.44562Q95.71562 172.32062 95.21562 171.63312Q94.73125 170.93 93.98125 170.93Q93.2625 170.93 92.825 171.53937Q92.27812 172.32062 92.27812 174.44562Z" fill-rule="nonzero"/><path fill="#000000" d="M81.16875 109.5L80.12187 109.5L80.12187 102.78125Q79.73125 103.140625 79.10625 103.515625Q78.49687 103.875 78.0125 104.046875L78.0125 103.03125Q78.8875 102.609375 79.54375 102.03125Q80.21562 101.4375 80.49687 100.875L81.16875 100.875L81.16875 109.5ZM84.2 105.265625Q84.2 103.734375 84.5125 102.8125Q84.825 101.875 85.43437 101.375Q86.05937 100.875 86.99687 100.875Q87.68437 100.875 88.2 101.15625Q88.73125 101.4375 89.075 101.96875Q89.41875 102.484375 89.60625 103.234375Q89.79375 103.984375 89.79375 105.265625Q89.79375 106.78125 89.48125 107.703125Q89.18437 108.625 88.55937 109.140625Q87.95 109.640625 86.99687 109.640625Q85.7625 109.640625 85.04375 108.75Q84.2 107.6875 84.2 105.265625ZM85.27812 105.265625Q85.27812 107.375 85.77812 108.078125Q86.27812 108.78125 86.99687 108.78125Q87.73125 108.78125 88.21562 108.078125Q88.71562 107.375 88.71562 105.265625Q88.71562 103.140625 88.21562 102.453125Q87.73125 101.75 86.98125 101.75Q86.2625 101.75 85.825 102.359375Q85.27812 103.140625 85.27812 105.265625ZM91.2 105.265625Q91.2 103.734375 91.5125 102.8125Q91.825 101.875 92.43437 101.375Q93.05937 100.875 93.99687 100.875Q94.68437 100.875 95.2 101.15625Q95.73125 101.4375 96.075 101.96875Q96.41875 102.484375 96.60625 103.234375Q96.79375 103.984375 96.79375 105.265625Q96.79375 106.78125 96.48125 107.703125Q96.18437 108.625 95.55937 109.140625Q94.95 109.640625 93.99687 109.640625Q92.7625 109.640625 92.04375 108.75Q91.2 107.6875 91.2 105.265625ZM92.27812 105.265625Q92.27812 107.375 92.77812 108.078125Q93.27812 108.78125 93.99687 108.78125Q94.73125 108.78125 95.21562 108.078125Q95.71562 107.375 95.71562 105.265625Q95.71562 103.140625 95.21562 102.453125Q94.73125 101.75 93.98125 101.75Q93.2625 101.75 92.825 102.359375Q92.27812 103.140625 92.27812 105.265625Z" fill-rule="nonzero"/><path fill="#000000" d="M303.70078 812.05L304.81015 811.95624Q304.93515 812.76874 305.37265 813.175Q305.82578 813.58124 306.4664 813.58124Q307.2164 813.58124 307.74765 813.0031Q308.2789 812.425 308.2789 811.4875Q308.2789 810.58124 307.76328 810.0656Q307.26328 809.53436 306.43515 809.53436Q305.93515 809.53436 305.51328 809.76874Q305.10703 810.0031 304.87265 810.3625L303.88828 810.2375L304.7164 805.83124L308.99765 805.83124L308.99765 806.83124L305.56015 806.83124L305.10703 809.14374Q305.87265 808.59686 306.7164 808.59686Q307.8414 808.59686 308.60703 809.3781Q309.38828 810.15936 309.38828 811.39374Q309.38828 812.55 308.7164 813.40936Q307.88828 814.4406 306.4664 814.4406Q305.29453 814.4406 304.54453 813.78436Q303.81015 813.1281 303.70078 812.05ZM310.70078 810.0656Q310.70078 808.53436 311.01328 807.6125Q311.32578 806.675 311.93515 806.175Q312.56015 805.675 313.49765 805.675Q314.18515 805.675 314.70078 805.95624Q315.23203 806.2375 315.57578 806.76874Q315.91953 807.28436 316.10703 808.03436Q316.29453 808.78436 316.29453 810.0656Q316.29453 811.58124 315.98203 812.5031Q315.68515 813.425 315.06015 813.9406Q314.45078 814.4406 313.49765 814.4406Q312.26328 814.4406 311.54453 813.55Q310.70078 812.4875 310.70078 810.0656ZM311.7789 810.0656Q311.7789 812.175 312.2789 812.8781Q312.7789 813.58124 313.49765 813.58124Q314.23203 813.58124 314.7164 812.8781Q315.2164 812.175 315.2164 810.0656Q315.2164 807.9406 314.7164 807.2531Q314.23203 806.55 313.48203 806.55Q312.76328 806.55 312.32578 807.15936Q311.7789 807.9406 311.7789 810.0656ZM317.70078 810.0656Q317.70078 808.53436 318.01328 807.6125Q318.32578 806.675 318.93515 806.175Q319.56015 805.675 320.49765 805.675Q321.18515 805.675 321.70078 805.95624Q322.23203 806.2375 322.57578 806.76874Q322.91953 807.28436 323.10703 808.03436Q323.29453 808.78436 323.29453 810.0656Q323.29453 811.58124 322.98203 812.5031Q322.68515 813.425 322.06015 813.9406Q321.45078 814.4406 320.49765 814.4406Q319.26328 814.4406 318.54453 813.55Q317.70078 812.4875 317.70078 810.0656ZM318.7789 810.0656Q318.7789 812.175 319.2789 812.8781Q319.7789 813.58124 320.49765 813.58124Q321.23203 813.58124 321.7164 812.8781Q322.2164 812.175 322.2164 810.0656Q322.2164 807.9406 321.7164 807.2531Q321.23203 806.55 320.48203 806.55Q319.76328 806.55 319.32578 807.15936Q318.7789 807.9406 318.7789 810.0656Z" fill-rule="nonzero"/><path fill="#000000" d="M514.9142 814.3L513.8673 814.3L513.8673 807.58124Q513.4767 807.9406 512.8517 808.3156Q512.2423 808.675 511.7579 808.84686L511.7579 807.83124Q512.63293 807.40936 513.2892 806.83124Q513.96106 806.2375 514.2423 805.675L514.9142 805.675L514.9142 814.3ZM517.94543 810.0656Q517.94543 808.53436 518.25793 807.6125Q518.57043 806.675 519.1798 806.175Q519.8048 805.675 520.7423 805.675Q521.4298 805.675 521.94543 805.95624Q522.4767 806.2375 522.82043 806.76874Q523.1642 807.28436 523.3517 808.03436Q523.5392 808.78436 523.5392 810.0656Q523.5392 811.58124 523.2267 812.5031Q522.9298 813.425 522.3048 813.9406Q521.69543 814.4406 520.7423 814.4406Q519.50793 814.4406 518.7892 813.55Q517.94543 812.4875 517.94543 810.0656ZM519.02356 810.0656Q519.02356 812.175 519.52356 812.8781Q520.02356 813.58124 520.7423 813.58124Q521.4767 813.58124 521.96106 812.8781Q522.46106 812.175 522.46106 810.0656Q522.46106 807.9406 521.96106 807.2531Q521.4767 806.55 520.7267 806.55Q520.00793 806.55 519.57043 807.15936Q519.02356 807.9406 519.02356 810.0656ZM524.94543 810.0656Q524.94543 808.53436 525.25793 807.6125Q525.57043 806.675 526.1798 806.175Q526.8048 805.675 527.7423 805.675Q528.4298 805.675 528.94543 805.95624Q529.4767 806.2375 529.82043 806.76874Q530.1642 807.28436 530.3517 808.03436Q530.5392 808.78436 530.5392 810.0656Q530.5392 811.58124 530.2267 812.5031Q529.9298 813.425 529.3048 813.9406Q528.69543 814.4406 527.7423 814.4406Q526.50793 814.4406 525.7892 813.55Q524.94543 812.4875 524.94543 810.0656ZM526.02356 810.0656Q526.02356 812.175 526.52356 812.8781Q527.02356 813.58124 527.7423 813.58124Q528.4767 813.58124 528.96106 812.8781Q529.46106 812.175 529.46106 810.0656Q529.46106 807.9406 528.96106 807.2531Q528.4767 806.55 527.7267 806.55Q527.00793 806.55 526.57043 807.15936Q526.02356 807.9406 526.02356 810.0656ZM531.94543 810.0656Q531.94543 808.53436 532.25793 807.6125Q532.57043 806.675 533.1798 806.175Q533.8048 805.675 534.7423 805.675Q535.4298 805.675 535.94543 805.95624Q536.4767 806.2375 536.82043 806.76874Q537.1642 807.28436 537.3517 808.03436Q537.5392 808.78436 537.5392 810.0656Q537.5392 811.58124 537.2267 812.5031Q536.9298 813.425 536.3048 813.9406Q535.69543 814.4406 534.7423 814.4406Q533.50793 814.4406 532.7892 813.55Q531.94543 812.4875 531.94543 810.0656ZM533.02356 810.0656Q533.02356 812.175 533.52356 812.8781Q534.02356 813.58124 534.7423 813.58124Q535.4767 813.58124 535.96106 812.8781Q536.46106 812.175 536.46106 810.0656Q536.46106 807.9406 535.96106 807.2531Q535.4767 806.55 534.7267 806.55Q534.00793 806.55 533.57043 807.15936Q533.02356 807.9406 533.02356 810.0656Z" fill-rule="nonzero"/><path fill="#000000" d="M725.65875 814.3L724.6119 814.3L724.6119 807.58124Q724.22125 807.9406 723.59625 808.3156Q722.9869 808.675 722.5025 808.84686L722.5025 807.83124Q723.3775 807.40936 724.03375 806.83124Q724.7056 806.2375 724.9869 805.675L725.65875 805.675L725.65875 814.3ZM728.69 812.05L729.7994 811.95624Q729.9244 812.76874 730.3619 813.175Q730.815 813.58124 731.4556 813.58124Q732.2056 813.58124 732.7369 813.0031Q733.2681 812.425 733.2681 811.4875Q733.2681 810.58124 732.7525 810.0656Q732.2525 809.53436 731.4244 809.53436Q730.9244 809.53436 730.5025 809.76874Q730.09625 810.0031 729.8619 810.3625L728.8775 810.2375L729.7056 805.83124L733.9869 805.83124L733.9869 806.83124L730.5494 806.83124L730.09625 809.14374Q730.8619 808.59686 731.7056 808.59686Q732.8306 808.59686 733.59625 809.3781Q734.3775 810.15936 734.3775 811.39374Q734.3775 812.55 733.7056 813.40936Q732.8775 814.4406 731.4556 814.4406Q730.28375 814.4406 729.53375 813.78436Q728.7994 813.1281 728.69 812.05ZM735.69 810.0656Q735.69 808.53436 736.0025 807.6125Q736.315 806.675 736.9244 806.175Q737.5494 805.675 738.4869 805.675Q739.1744 805.675 739.69 805.95624Q740.22125 806.2375 740.565 806.76874Q740.90875 807.28436 741.09625 808.03436Q741.28375 808.78436 741.28375 810.0656Q741.28375 811.58124 740.97125 812.5031Q740.6744 813.425 740.0494 813.9406Q739.44 814.4406 738.4869 814.4406Q737.2525 814.4406 736.53375 813.55Q735.69 812.4875 735.69 810.0656ZM736.7681 810.0656Q736.7681 812.175 737.2681 812.8781Q737.7681 813.58124 738.4869 813.58124Q739.22125 813.58124 739.7056 812.8781Q740.2056 812.175 740.2056 810.0656Q740.2056 807.9406 739.7056 807.2531Q739.22125 806.55 738.47125 806.55Q737.7525 806.55 737.315 807.15936Q736.7681 807.9406 736.7681 810.0656ZM742.69 810.0656Q742.69 808.53436 743.0025 807.6125Q743.315 806.675 743.9244 806.175Q744.5494 805.675 745.4869 805.675Q746.1744 805.675 746.69 805.95624Q747.22125 806.2375 747.565 806.76874Q747.90875 807.28436 748.09625 808.03436Q748.28375 808.78436 748.28375 810.0656Q748.28375 811.58124 747.97125 812.5031Q747.6744 813.425 747.0494 813.9406Q746.44 814.4406 745.4869 814.4406Q744.2525 814.4406 743.53375 813.55Q742.69 812.4875 742.69 810.0656ZM743.7681 810.0656Q743.7681 812.175 744.2681 812.8781Q744.7681 813.58124 745.4869 813.58124Q746.22125 813.58124 746.7056 812.8781Q747.2056 812.175 747.2056 810.0656Q747.2056 807.9406 746.7056 807.2531Q746.22125 806.55 745.47125 806.55Q744.7525 806.55 744.315 807.15936Q743.7681 807.9406 743.7681 810.0656Z" fill-rule="nonzero"/><path fill="#000000" d="M937.9815 813.28436L937.9815 814.3L932.294 814.3Q932.294 813.925 932.419 813.5656Q932.63776 812.9875 933.1065 812.425Q933.5909 811.8625 934.49713 811.1281Q935.9034 809.97186 936.38776 809.3Q936.88776 808.6281 936.88776 808.03436Q936.88776 807.40936 936.43463 806.9875Q935.9815 806.55 935.26276 806.55Q934.49713 806.55 934.044 807.0031Q933.5909 807.45624 933.57526 808.26874L932.49713 808.15936Q932.6065 806.9406 933.32526 806.3156Q934.05963 805.675 935.294 805.675Q936.5284 805.675 937.24713 806.3625Q937.9659 807.05 937.9659 808.0656Q937.9659 808.58124 937.74713 809.08124Q937.544 809.5656 937.044 810.1281Q936.55963 810.675 935.43463 811.6281Q934.4815 812.425 934.20026 812.72186Q933.93463 813.0031 933.76276 813.28436L937.9815 813.28436ZM939.43463 810.0656Q939.43463 808.53436 939.74713 807.6125Q940.05963 806.675 940.669 806.175Q941.294 805.675 942.2315 805.675Q942.919 805.675 943.43463 805.95624Q943.9659 806.2375 944.30963 806.76874Q944.6534 807.28436 944.8409 808.03436Q945.0284 808.78436 945.0284 810.0656Q945.0284 811.58124 944.7159 812.5031Q944.419 813.425 943.794 813.9406Q943.18463 814.4406 942.2315 814.4406Q940.99713 814.4406 940.2784 813.55Q939.43463 812.4875 939.43463 810.0656ZM940.51276 810.0656Q940.51276 812.175 941.01276 812.8781Q941.51276 813.58124 942.2315 813.58124Q942.9659 813.58124 943.45026 812.8781Q943.95026 812.175 943.95026 810.0656Q943.95026 807.9406 943.45026 807.2531Q942.9659 806.55 942.2159 806.55Q941.49713 806.55 941.05963 807.15936Q940.51276 807.9406 940.51276 810.0656ZM946.43463 810.0656Q946.43463 808.53436 946.74713 807.6125Q947.05963 806.675 947.669 806.175Q948.294 805.675 949.2315 805.675Q949.919 805.675 950.43463 805.95624Q950.9659 806.2375 951.30963 806.76874Q951.6534 807.28436 951.8409 808.03436Q952.0284 808.78436 952.0284 810.0656Q952.0284 811.58124 951.7159 812.5031Q951.419 813.425 950.794 813.9406Q950.18463 814.4406 949.2315 814.4406Q947.99713 814.4406 947.2784 813.55Q946.43463 812.4875 946.43463 810.0656ZM947.51276 810.0656Q947.51276 812.175 948.01276 812.8781Q948.51276 813.58124 949.2315 813.58124Q949.9659 813.58124 950.45026 812.8781Q950.95026 812.175 950.95026 810.0656Q950.95026 807.9406 950.45026 807.2531Q949.9659 806.55 949.2159 806.55Q948.49713 806.55 948.05963 807.15936Q947.51276 807.9406 947.51276 810.0656ZM953.43463 810.0656Q953.43463 808.53436 953.74713 807.6125Q954.05963 806.675 954.669 806.175Q955.294 805.675 956.2315 805.675Q956.919 805.675 957.43463 805.95624Q957.9659 806.2375 958.30963 806.76874Q958.6534 807.28436 958.8409 808.03436Q959.0284 808.78436 959.0284 810.0656Q959.0284 811.58124 958.7159 812.5031Q958.419 813.425 957.794 813.9406Q957.18463 814.4406 956.2315 814.4406Q954.99713 814.4406 954.2784 813.55Q953.43463 812.4875 953.43463 810.0656ZM954.51276 810.0656Q954.51276 812.175 955.01276 812.8781Q955.51276 813.58124 956.2315 813.58124Q956.9659 813.58124 957.45026 812.8781Q957.95026 812.175 957.95026 810.0656Q957.95026 807.9406 957.45026 807.2531Q956.9659 806.55 956.2159 806.55Q955.49713 806.55 955.05963 807.15936Q954.51276 807.9406 954.51276 810.0656Z" fill-rule="nonzero"/><path fill="#000000" d="M1148.7261 813.28436L1148.7261 814.3L1143.0386 814.3Q1143.0386 813.925 1143.1636 813.5656Q1143.3823 812.9875 1143.8511 812.425Q1144.3354 811.8625 1145.2417 811.1281Q1146.648 809.97186 1147.1323 809.3Q1147.6323 808.6281 1147.6323 808.03436Q1147.6323 807.40936 1147.1792 806.9875Q1146.7261 806.55 1146.0073 806.55Q1145.2417 806.55 1144.7886 807.0031Q1144.3354 807.45624 1144.3198 808.26874L1143.2417 808.15936Q1143.3511 806.9406 1144.0698 806.3156Q1144.8042 805.675 1146.0386 805.675Q1147.273 805.675 1147.9917 806.3625Q1148.7104 807.05 1148.7104 808.0656Q1148.7104 808.58124 1148.4917 809.08124Q1148.2886 809.5656 1147.7886 810.1281Q1147.3042 810.675 1146.1792 811.6281Q1145.2261 812.425 1144.9448 812.72186Q1144.6792 813.0031 1144.5073 813.28436L1148.7261 813.28436ZM1150.1792 812.05L1151.2886 811.95624Q1151.4136 812.76874 1151.8511 813.175Q1152.3042 813.58124 1152.9448 813.58124Q1153.6948 813.58124 1154.2261 813.0031Q1154.7573 812.425 1154.7573 811.4875Q1154.7573 810.58124 1154.2417 810.0656Q1153.7417 809.53436 1152.9136 809.53436Q1152.4136 809.53436 1151.9917 809.76874Q1151.5854 810.0031 1151.3511 810.3625L1150.3667 810.2375L1151.1948 805.83124L1155.4761 805.83124L1155.4761 806.83124L1152.0386 806.83124L1151.5854 809.14374Q1152.3511 808.59686 1153.1948 808.59686Q1154.3198 808.59686 1155.0854 809.3781Q1155.8667 810.15936 1155.8667 811.39374Q1155.8667 812.55 1155.1948 813.40936Q1154.3667 814.4406 1152.9448 814.4406Q1151.773 814.4406 1151.023 813.78436Q1150.2886 813.1281 1150.1792 812.05ZM1157.1792 810.0656Q1157.1792 808.53436 1157.4917 807.6125Q1157.8042 806.675 1158.4136 806.175Q1159.0386 805.675 1159.9761 805.675Q1160.6636 805.675 1161.1792 805.95624Q1161.7104 806.2375 1162.0542 806.76874Q1162.398 807.28436 1162.5854 808.03436Q1162.773 808.78436 1162.773 810.0656Q1162.773 811.58124 1162.4604 812.5031Q1162.1636 813.425 1161.5386 813.9406Q1160.9292 814.4406 1159.9761 814.4406Q1158.7417 814.4406 1158.023 813.55Q1157.1792 812.4875 1157.1792 810.0656ZM1158.2573 810.0656Q1158.2573 812.175 1158.7573 812.8781Q1159.2573 813.58124 1159.9761 813.58124Q1160.7104 813.58124 1161.1948 812.8781Q1161.6948 812.175 1161.6948 810.0656Q1161.6948 807.9406 1161.1948 807.2531Q1160.7104 806.55 1159.9604 806.55Q1159.2417 806.55 1158.8042 807.15936Q1158.2573 807.9406 1158.2573 810.0656ZM1164.1792 810.0656Q1164.1792 808.53436 1164.4917 807.6125Q1164.8042 806.675 1165.4136 806.175Q1166.0386 805.675 1166.9761 805.675Q1167.6636 805.675 1168.1792 805.95624Q1168.7104 806.2375 1169.0542 806.76874Q1169.398 807.28436 1169.5854 808.03436Q1169.773 808.78436 1169.773 810.0656Q1169.773 811.58124 1169.4604 812.5031Q1169.1636 813.425 1168.5386 813.9406Q1167.9292 814.4406 1166.9761 814.4406Q1165.7417 814.4406 1165.023 813.55Q1164.1792 812.4875 1164.1792 810.0656ZM1165.2573 810.0656Q1165.2573 812.175 1165.7573 812.8781Q1166.2573 813.58124 1166.9761 813.58124Q1167.7104 813.58124 1168.1948 812.8781Q1168.6948 812.175 1168.6948 810.0656Q1168.6948 807.9406 1168.1948 807.2531Q1167.7104 806.55 1166.9604 806.55Q1166.2417 806.55 1165.8042 807.15936Q1165.2573 807.9406 1165.2573 810.0656Z" fill-rule="nonzero"/><path fill="#000000" d="M1353.9238 812.03436L1354.9863 811.89374Q1355.1582 812.78436 1355.5957 813.1906Q1356.0332 813.58124 1356.6582 813.58124Q1357.4082 813.58124 1357.9238 813.0656Q1358.4395 812.55 1358.4395 811.78436Q1358.4395 811.0656 1357.9551 810.59686Q1357.4863 810.1125 1356.752 810.1125Q1356.4551 810.1125 1356.002 810.2375L1356.127 809.3Q1356.2363 809.3156 1356.2988 809.3156Q1356.9707 809.3156 1357.502 808.97186Q1358.0488 808.6125 1358.0488 807.8781Q1358.0488 807.3 1357.6582 806.925Q1357.2676 806.53436 1356.6426 806.53436Q1356.0332 806.53436 1355.6113 806.925Q1355.2051 807.3156 1355.0957 808.08124L1354.0332 807.89374Q1354.2207 806.84686 1354.9082 806.26874Q1355.5957 805.675 1356.6113 805.675Q1357.3145 805.675 1357.9082 805.9875Q1358.502 806.28436 1358.8145 806.8Q1359.127 807.3156 1359.127 807.90936Q1359.127 808.45624 1358.8301 808.925Q1358.5332 809.3781 1357.9551 809.64374Q1358.7051 809.8156 1359.127 810.3781Q1359.5488 810.925 1359.5488 811.76874Q1359.5488 812.89374 1358.7207 813.675Q1357.9082 814.45624 1356.6582 814.45624Q1355.5332 814.45624 1354.7832 813.78436Q1354.0332 813.09686 1353.9238 812.03436ZM1360.9238 810.0656Q1360.9238 808.53436 1361.2363 807.6125Q1361.5488 806.675 1362.1582 806.175Q1362.7832 805.675 1363.7207 805.675Q1364.4082 805.675 1364.9238 805.95624Q1365.4551 806.2375 1365.7988 806.76874Q1366.1426 807.28436 1366.3301 808.03436Q1366.5176 808.78436 1366.5176 810.0656Q1366.5176 811.58124 1366.2051 812.5031Q1365.9082 813.425 1365.2832 813.9406Q1364.6738 814.4406 1363.7207 814.4406Q1362.4863 814.4406 1361.7676 813.55Q1360.9238 812.4875 1360.9238 810.0656ZM1362.002 810.0656Q1362.002 812.175 1362.502 812.8781Q1363.002 813.58124 1363.7207 813.58124Q1364.4551 813.58124 1364.9395 812.8781Q1365.4395 812.175 1365.4395 810.0656Q1365.4395 807.9406 1364.9395 807.2531Q1364.4551 806.55 1363.7051 806.55Q1362.9863 806.55 1362.5488 807.15936Q1362.002 807.9406 1362.002 810.0656ZM1367.9238 810.0656Q1367.9238 808.53436 1368.2363 807.6125Q1368.5488 806.675 1369.1582 806.175Q1369.7832 805.675 1370.7207 805.675Q1371.4082 805.675 1371.9238 805.95624Q1372.4551 806.2375 1372.7988 806.76874Q1373.1426 807.28436 1373.3301 808.03436Q1373.5176 808.78436 1373.5176 810.0656Q1373.5176 811.58124 1373.2051 812.5031Q1372.9082 813.425 1372.2832 813.9406Q1371.6738 814.4406 1370.7207 814.4406Q1369.4863 814.4406 1368.7676 813.55Q1367.9238 812.4875 1367.9238 810.0656ZM1369.002 810.0656Q1369.002 812.175 1369.502 812.8781Q1370.002 813.58124 1370.7207 813.58124Q1371.4551 813.58124 1371.9395 812.8781Q1372.4395 812.175 1372.4395 810.0656Q1372.4395 807.9406 1371.9395 807.2531Q1371.4551 806.55 1370.7051 806.55Q1369.9863 806.55 1369.5488 807.15936Q1369.002 807.9406 1369.002 810.0656ZM1374.9238 810.0656Q1374.9238 808.53436 1375.2363 807.6125Q1375.5488 806.675 1376.1582 806.175Q1376.7832 805.675 1377.7207 805.675Q1378.4082 805.675 1378.9238 805.95624Q1379.4551 806.2375 1379.7988 806.76874Q1380.1426 807.28436 1380.3301 808.03436Q1380.5176 808.78436 1380.5176 810.0656Q1380.5176 811.58124 1380.2051 812.5031Q1379.9082 813.425 1379.2832 813.9406Q1378.6738 814.4406 1377.7207 814.4406Q1376.4863 814.4406 1375.7676 813.55Q1374.9238 812.4875 1374.9238 810.0656ZM1376.002 810.0656Q1376.002 812.175 1376.502 812.8781Q1377.002 813.58124 1377.7207 813.58124Q1378.4551 813.58124 1378.9395 812.8781Q1379.4395 812.175 1379.4395 810.0656Q1379.4395 807.9406 1378.9395 807.2531Q1378.4551 806.55 1377.7051 806.55Q1376.9863 806.55 1376.5488 807.15936Q1376.002 807.9406 1376.002 810.0656Z" fill-rule="nonzero"/><path fill="#757575" d="M44.66875 63.7L50.16875 49.3875L52.215626 49.3875L58.075 63.7L55.91875 63.7L54.246876 59.35625L48.2625 59.35625L46.684376 63.7L44.66875 63.7ZM48.809376 57.825L53.653126 57.825L52.16875 53.85625Q51.48125 52.04375 51.153126 50.8875Q50.871876 52.2625 50.371876 53.621876L48.809376 57.825ZM65.79375 59.903126L67.5125 60.121876Q67.23125 61.91875 66.05937 62.934376Q64.90312 63.934376 63.2 63.934376Q61.075 63.934376 59.778126 62.54375Q58.48125 61.153126 58.48125 58.559376Q58.48125 56.871876 59.028126 55.621876Q59.590626 54.35625 60.73125 53.73125Q61.871876 53.090626 63.215626 53.090626Q64.90312 53.090626 65.96562 53.95Q67.04375 54.809376 67.35625 56.371876L65.6375 56.6375Q65.40312 55.590626 64.77812 55.075Q64.15312 54.54375 63.278126 54.54375Q61.95 54.54375 61.121876 55.496876Q60.29375 56.45 60.29375 58.496876Q60.29375 60.590626 61.090626 61.54375Q61.8875 62.48125 63.184376 62.48125Q64.21562 62.48125 64.90312 61.85625Q65.60625 61.215626 65.79375 59.903126ZM69.0125 63.7L69.0125 49.3875L70.77812 49.3875L70.77812 54.5125Q72.0125 53.090626 73.8875 53.090626Q75.02812 53.090626 75.87187 53.54375Q76.73125 53.996876 77.09062 54.809376Q77.46562 55.60625 77.46562 57.121876L77.46562 63.7L75.71562 63.7L75.71562 57.121876Q75.71562 55.809376 75.1375 55.215626Q74.55937 54.60625 73.52812 54.60625Q72.74687 54.60625 72.04375 55.0125Q71.35625 55.41875 71.05937 56.121876Q70.77812 56.809376 70.77812 58.028126L70.77812 63.7L69.0125 63.7ZM79.02812 51.403126L79.02812 49.3875L80.79375 49.3875L80.79375 51.403126L79.02812 51.403126ZM79.02812 63.7L79.02812 53.325L80.79375 53.325L80.79375 63.7L79.02812 63.7ZM90.12187 60.35625L91.93437 60.590626Q91.5125 62.16875 90.34062 63.059376Q89.18437 63.934376 87.37187 63.934376Q85.10625 63.934376 83.7625 62.54375Q82.43437 61.1375 82.43437 58.60625Q82.43437 55.98125 83.77812 54.54375Q85.12187 53.090626 87.27812 53.090626Q89.35625 53.090626 90.66875 54.5125Q91.99687 55.91875 91.99687 58.496876Q91.99687 58.653126 91.98125 58.965626L84.24687 58.965626Q84.34062 60.66875 85.21562 61.575Q86.09062 62.48125 87.3875 62.48125Q88.35625 62.48125 89.02812 61.98125Q89.71562 61.465626 90.12187 60.35625ZM84.34062 57.5125L90.1375 57.5125Q90.02812 56.215626 89.48125 55.559376Q88.6375 54.54375 87.29375 54.54375Q86.09062 54.54375 85.2625 55.35625Q84.43437 56.153126 84.34062 57.5125ZM96.90312 63.7L92.95 53.325L94.80937 53.325L97.04375 59.54375Q97.40312 60.54375 97.7 61.621876Q97.93437 60.809376 98.35625 59.653126L100.65312 53.325L102.46562 53.325L98.54375 63.7L96.90312 63.7ZM109.79375 62.41875Q108.80937 63.246876 107.90312 63.590626Q106.99687 63.934376 105.96562 63.934376Q104.2625 63.934376 103.34062 63.10625Q102.41875 62.2625 102.41875 60.965626Q102.41875 60.2 102.7625 59.575Q103.12187 58.95 103.68437 58.575Q104.24687 58.184376 104.95 57.98125Q105.46562 57.85625 106.5125 57.715626Q108.6375 57.465626 109.6375 57.121876Q109.65312 56.7625 109.65312 56.653126Q109.65312 55.590626 109.15312 55.1375Q108.48125 54.54375 107.15312 54.54375Q105.90312 54.54375 105.30937 54.98125Q104.73125 55.41875 104.45 56.528126L102.73125 56.29375Q102.96562 55.184376 103.49687 54.5125Q104.02812 53.825 105.04375 53.465626Q106.05937 53.090626 107.40312 53.090626Q108.73125 53.090626 109.55937 53.403126Q110.3875 53.715626 110.77812 54.2Q111.16875 54.66875 111.325 55.3875Q111.41875 55.840626 111.41875 57.0125L111.41875 59.35625Q111.41875 61.809376 111.52812 62.465626Q111.6375 63.10625 111.98125 63.7L110.1375 63.7Q109.87187 63.153126 109.79375 62.41875ZM109.6375 58.496876Q108.68437 58.8875 106.7625 59.153126Q105.68437 59.309376 105.23125 59.5125Q104.79375 59.7 104.54375 60.075Q104.29375 60.45 104.29375 60.91875Q104.29375 61.621876 104.825 62.090626Q105.35625 62.559376 106.3875 62.559376Q107.40312 62.559376 108.18437 62.121876Q108.98125 61.66875 109.35625 60.903126Q109.6375 60.29375 109.6375 59.1375L109.6375 58.496876ZM115.6375 63.7L114.0125 63.7L114.0125 49.3875L115.7625 49.3875L115.7625 54.496876Q116.8875 53.090626 118.60625 53.090626Q119.55937 53.090626 120.41875 53.48125Q121.27812 53.871876 121.825 54.575Q122.37187 55.2625 122.68437 56.246876Q122.99687 57.23125 122.99687 58.35625Q122.99687 61.028126 121.68437 62.48125Q120.37187 63.934376 118.52812 63.934376Q116.68437 63.934376 115.6375 62.403126L115.6375 63.7ZM115.62187 58.434376Q115.62187 60.29375 116.12187 61.1375Q116.96562 62.48125 118.37187 62.48125Q119.52812 62.48125 120.35625 61.48125Q121.2 60.48125 121.2 58.496876Q121.2 56.465626 120.3875 55.5125Q119.59062 54.54375 118.45 54.54375Q117.29375 54.54375 116.45 55.54375Q115.62187 56.54375 115.62187 58.434376ZM124.98125 63.7L124.98125 49.3875L126.73125 49.3875L126.73125 63.7L124.98125 63.7ZM136.12187 60.35625L137.93437 60.590626Q137.5125 62.16875 136.34062 63.059376Q135.18437 63.934376 133.37187 63.934376Q131.10625 63.934376 129.7625 62.54375Q128.43437 61.1375 128.43437 58.60625Q128.43437 55.98125 129.77812 54.54375Q131.12187 53.090626 133.27812 53.090626Q135.35625 53.090626 136.66875 54.5125Q137.99687 55.91875 137.99687 58.496876Q137.99687 58.653126 137.98125 58.965626L130.24687 58.965626Q130.34062 60.66875 131.21562 61.575Q132.09062 62.48125 133.3875 62.48125Q134.35625 62.48125 135.02812 61.98125Q135.71562 61.465626 136.12187 60.35625ZM130.34062 57.5125L136.1375 57.5125Q136.02812 56.215626 135.48125 55.559376Q134.6375 54.54375 133.29375 54.54375Q132.09062 54.54375 131.2625 55.35625Q130.43437 56.153126 130.34062 57.5125ZM148.74687 63.7L144.95 49.3875L146.8875 49.3875L149.05937 58.7625Q149.41875 60.246876 149.66875 61.7Q150.21562 59.403126 150.30937 59.04375L153.04375 49.3875L155.325 49.3875L157.37187 56.621876Q158.15312 59.325 158.49687 61.7Q158.7625 60.340626 159.2 58.575L161.45 49.3875L163.35625 49.3875L159.43437 63.7L157.60625 63.7L154.59062 52.79375Q154.2 51.41875 154.1375 51.10625Q153.90312 52.090626 153.71562 52.79375L150.68437 63.7L148.74687 63.7ZM164.37187 58.5125Q164.37187 55.6375 165.96562 54.246876Q167.30937 53.090626 169.23125 53.090626Q171.37187 53.090626 172.71562 54.496876Q174.075 55.903126 174.075 58.371876Q174.075 60.371876 173.48125 61.528126Q172.8875 62.66875 171.73125 63.309376Q170.59062 63.934376 169.23125 63.934376Q167.04375 63.934376 165.7 62.54375Q164.37187 61.1375 164.37187 58.5125ZM166.16875 58.5125Q166.16875 60.5125 167.02812 61.496876Q167.90312 62.48125 169.23125 62.48125Q170.54375 62.48125 171.40312 61.496876Q172.27812 60.496876 172.27812 58.45Q172.27812 56.528126 171.40312 55.54375Q170.52812 54.54375 169.23125 54.54375Q167.90312 54.54375 167.02812 55.54375Q166.16875 56.528126 166.16875 58.5125ZM175.99687 63.7L175.99687 53.325L177.575 53.325L177.575 54.903126Q178.18437 53.79375 178.7 53.45Q179.21562 53.090626 179.825 53.090626Q180.71562 53.090626 181.6375 53.653126L181.02812 55.29375Q180.3875 54.903126 179.74687 54.903126Q179.16875 54.903126 178.7 55.2625Q178.24687 55.60625 178.04375 56.215626Q177.7625 57.153126 177.7625 58.2625L177.7625 63.7L175.99687 63.7ZM183.02812 63.7L183.02812 49.3875L184.79375 49.3875L184.79375 57.54375L188.95 53.325L191.21562 53.325L187.2625 57.16875L191.62187 63.7L189.45 63.7L186.02812 58.403126L184.79375 59.590626L184.79375 63.7L183.02812 63.7ZM192.98125 63.7L192.98125 49.3875L194.73125 49.3875L194.73125 63.7L192.98125 63.7ZM196.37187 58.5125Q196.37187 55.6375 197.96562 54.246876Q199.30937 53.090626 201.23125 53.090626Q203.37187 53.090626 204.71562 54.496876Q206.075 55.903126 206.075 58.371876Q206.075 60.371876 205.48125 61.528126Q204.8875 62.66875 203.73125 63.309376Q202.59062 63.934376 201.23125 63.934376Q199.04375 63.934376 197.7 62.54375Q196.37187 61.1375 196.37187 58.5125ZM198.16875 58.5125Q198.16875 60.5125 199.02812 61.496876Q199.90312 62.48125 201.23125 62.48125Q202.54375 62.48125 203.40312 61.496876Q204.27812 60.496876 204.27812 58.45Q204.27812 56.528126 203.40312 55.54375Q202.52812 54.54375 201.23125 54.54375Q199.90312 54.54375 199.02812 55.54375Q198.16875 56.528126 198.16875 58.5125ZM214.79375 62.41875Q213.80937 63.246876 212.90312 63.590626Q211.99687 63.934376 210.96562 63.934376Q209.2625 63.934376 208.34062 63.10625Q207.41875 62.2625 207.41875 60.965626Q207.41875 60.2 207.7625 59.575Q208.12187 58.95 208.68437 58.575Q209.24687 58.184376 209.95 57.98125Q210.46562 57.85625 211.5125 57.715626Q213.6375 57.465626 214.6375 57.121876Q214.65312 56.7625 214.65312 56.653126Q214.65312 55.590626 214.15312 55.1375Q213.48125 54.54375 212.15312 54.54375Q210.90312 54.54375 210.30937 54.98125Q209.73125 55.41875 209.45 56.528126L207.73125 56.29375Q207.96562 55.184376 208.49687 54.5125Q209.02812 53.825 210.04375 53.465626Q211.05937 53.090626 212.40312 53.090626Q213.73125 53.090626 214.55937 53.403126Q215.3875 53.715626 215.77812 54.2Q216.16875 54.66875 216.325 55.3875Q216.41875 55.840626 216.41875 57.0125L216.41875 59.35625Q216.41875 61.809376 216.52812 62.465626Q216.6375 63.10625 216.98125 63.7L215.1375 63.7Q214.87187 63.153126 214.79375 62.41875ZM214.6375 58.496876Q213.68437 58.8875 211.7625 59.153126Q210.68437 59.309376 210.23125 59.5125Q209.79375 59.7 209.54375 60.075Q209.29375 60.45 209.29375 60.91875Q209.29375 61.621876 209.825 62.090626Q210.35625 62.559376 211.3875 62.559376Q212.40312 62.559376 213.18437 62.121876Q213.98125 61.66875 214.35625 60.903126Q214.6375 60.29375 214.6375 59.1375L214.6375 58.496876ZM225.74687 63.7L225.74687 62.3875Q224.7625 63.934376 222.84062 63.934376Q221.60625 63.934376 220.55937 63.246876Q219.52812 62.559376 218.95 61.340626Q218.3875 60.121876 218.3875 58.528126Q218.3875 56.965626 218.90312 55.7Q219.41875 54.434376 220.45 53.7625Q221.49687 53.090626 222.7625 53.090626Q223.7 53.090626 224.43437 53.496876Q225.16875 53.8875 225.6375 54.5125L225.6375 49.3875L227.37187 49.3875L227.37187 63.7L225.74687 63.7ZM220.18437 58.528126Q220.18437 60.5125 221.02812 61.496876Q221.87187 62.48125 223.0125 62.48125Q224.16875 62.48125 224.96562 61.54375Q225.77812 60.60625 225.77812 58.66875Q225.77812 56.54375 224.95 55.54375Q224.1375 54.54375 222.93437 54.54375Q221.7625 54.54375 220.96562 55.5125Q220.18437 56.465626 220.18437 58.528126ZM236.24687 63.7L236.24687 49.3875L241.6375 49.3875Q243.075 49.3875 243.825 49.5125Q244.87187 49.7 245.59062 50.2Q246.30937 50.684376 246.73125 51.575Q247.16875 52.465626 247.16875 53.528126Q247.16875 55.35625 245.99687 56.621876Q244.84062 57.871876 241.80937 57.871876L238.1375 57.871876L238.1375 63.7L236.24687 63.7ZM238.1375 56.184376L241.84062 56.184376Q243.66875 56.184376 244.43437 55.5125Q245.21562 54.825 245.21562 53.575Q245.21562 52.684376 244.7625 52.04375Q244.30937 51.403126 243.575 51.2Q243.09062 51.075 241.79375 51.075L238.1375 51.075L238.1375 56.184376ZM256.1219 60.35625L257.9344 60.590626Q257.5125 62.16875 256.34064 63.059376Q255.18437 63.934376 253.37187 63.934376Q251.10625 63.934376 249.7625 62.54375Q248.43437 61.1375 248.43437 58.60625Q248.43437 55.98125 249.77812 54.54375Q251.12187 53.090626 253.27812 53.090626Q255.35625 53.090626 256.66876 54.5125Q257.9969 55.91875 257.9969 58.496876Q257.9969 58.653126 257.98126 58.965626L250.24687 58.965626Q250.34062 60.66875 251.21562 61.575Q252.09062 62.48125 253.3875 62.48125Q254.35625 62.48125 255.02812 61.98125Q255.71562 61.465626 256.1219 60.35625ZM250.34062 57.5125L256.1375 57.5125Q256.02814 56.215626 255.48125 55.559376Q254.6375 54.54375 253.29375 54.54375Q252.09062 54.54375 251.2625 55.35625Q250.43437 56.153126 250.34062 57.5125ZM266.79376 62.41875Q265.8094 63.246876 264.90314 63.590626Q263.9969 63.934376 262.96564 63.934376Q261.2625 63.934376 260.34064 63.10625Q259.41876 62.2625 259.41876 60.965626Q259.41876 60.2 259.7625 59.575Q260.1219 58.95 260.6844 58.575Q261.2469 58.184376 261.95 57.98125Q262.46564 57.85625 263.5125 57.715626Q265.6375 57.465626 266.6375 57.121876Q266.65314 56.7625 266.65314 56.653126Q266.65314 55.590626 266.15314 55.1375Q265.48126 54.54375 264.15314 54.54375Q262.90314 54.54375 262.3094 54.98125Q261.73126 55.41875 261.45 56.528126L259.73126 56.29375Q259.96564 55.184376 260.4969 54.5125Q261.02814 53.825 262.04376 53.465626Q263.0594 53.090626 264.40314 53.090626Q265.73126 53.090626 266.5594 53.403126Q267.3875 53.715626 267.77814 54.2Q268.16876 54.66875 268.325 55.3875Q268.41876 55.840626 268.41876 57.0125L268.41876 59.35625Q268.41876 61.809376 268.52814 62.465626Q268.6375 63.10625 268.98126 63.7L267.1375 63.7Q266.8719 63.153126 266.79376 62.41875ZM266.6375 58.496876Q265.6844 58.8875 263.7625 59.153126Q262.6844 59.309376 262.23126 59.5125Q261.79376 59.7 261.54376 60.075Q261.29376 60.45 261.29376 60.91875Q261.29376 61.621876 261.825 62.090626Q262.35626 62.559376 263.3875 62.559376Q264.40314 62.559376 265.1844 62.121876Q265.98126 61.66875 266.35626 60.903126Q266.6375 60.29375 266.6375 59.1375L266.6375 58.496876ZM271.02814 63.7L271.02814 49.3875L272.79376 49.3875L272.79376 57.54375L276.95 53.325L279.21564 53.325L275.2625 57.16875L279.6219 63.7L277.45 63.7L274.02814 58.403126L272.79376 59.590626L272.79376 63.7L271.02814 63.7ZM296.6375 49.3875L298.52814 49.3875L298.52814 57.653126Q298.52814 59.809376 298.04376 61.090626Q297.5594 62.35625 296.27814 63.153126Q295.0125 63.95 292.9344 63.95Q290.91876 63.95 289.6375 63.2625Q288.3719 62.559376 287.825 61.246876Q287.27814 59.934376 287.27814 57.653126L287.27814 49.3875L289.16876 49.3875L289.16876 57.6375Q289.16876 59.5125 289.5125 60.403126Q289.85626 61.278126 290.7 61.7625Q291.54376 62.23125 292.77814 62.23125Q294.85626 62.23125 295.7469 61.29375Q296.6375 60.340626 296.6375 57.6375L296.6375 49.3875ZM303.85626 62.121876L304.10626 63.684376Q303.3719 63.840626 302.77814 63.840626Q301.825 63.840626 301.29376 63.54375Q300.77814 63.23125 300.5594 62.746876Q300.34064 62.246876 300.34064 60.66875L300.34064 54.7L299.0594 54.7L299.0594 53.325L300.34064 53.325L300.34064 50.7625L302.09064 49.7L302.09064 53.325L303.85626 53.325L303.85626 54.7L302.09064 54.7L302.09064 60.7625Q302.09064 61.5125 302.1844 61.73125Q302.27814 61.934376 302.48126 62.075Q302.7 62.2 303.09064 62.2Q303.3719 62.2 303.85626 62.121876ZM306.02814 51.403126L306.02814 49.3875L307.79376 49.3875L307.79376 51.403126L306.02814 51.403126ZM306.02814 63.7L306.02814 53.325L307.79376 53.325L307.79376 63.7L306.02814 63.7ZM309.98126 63.7L309.98126 49.3875L311.73126 49.3875L311.73126 63.7L309.98126 63.7ZM323.3719 67.90312Q321.91876 66.075 320.91876 63.621876Q319.91876 61.153126 319.91876 58.5125Q319.91876 56.184376 320.66876 54.059376Q321.54376 51.590626 323.3719 49.1375L324.6375 49.1375Q323.45 51.16875 323.075 52.04375Q322.48126 53.3875 322.1375 54.85625Q321.71564 56.684376 321.71564 58.528126Q321.71564 63.215626 324.6375 67.90312L323.3719 67.90312ZM326.85626 52.825Q326.85626 51.29375 327.6219 50.215626Q328.40314 49.1375 329.8719 49.1375Q331.21564 49.1375 332.09064 50.10625Q332.98126 51.059376 332.98126 52.934376Q332.98126 54.746876 332.09064 55.73125Q331.2 56.7 329.8875 56.7Q328.59064 56.7 327.71564 55.746876Q326.85626 54.778126 326.85626 52.825ZM329.91876 50.35625Q329.2625 50.35625 328.825 50.91875Q328.40314 51.48125 328.40314 52.996876Q328.40314 54.371876 328.84064 54.934376Q329.27814 55.496876 329.91876 55.496876Q330.59064 55.496876 331.0125 54.934376Q331.45 54.35625 331.45 52.85625Q331.45 51.465626 331.0125 50.91875Q330.575 50.35625 329.91876 50.35625ZM329.9344 64.23125L337.7625 49.1375L339.1844 49.1375L331.3875 64.23125L329.9344 64.23125ZM336.1219 60.340626Q336.1219 58.79375 336.8875 57.73125Q337.66876 56.653126 339.1375 56.653126Q340.48126 56.653126 341.35626 57.621876Q342.2469 58.575 342.2469 60.45Q342.2469 62.2625 341.35626 63.246876Q340.46564 64.23125 339.15314 64.23125Q337.85626 64.23125 336.98126 63.2625Q336.1219 62.278126 336.1219 60.340626ZM339.1844 57.871876Q338.52814 57.871876 338.09064 58.434376Q337.65314 58.996876 337.65314 60.5125Q337.65314 61.8875 338.09064 62.45Q338.52814 63.0125 339.1844 63.0125Q339.85626 63.0125 340.27814 62.45Q340.71564 61.8875 340.71564 60.371876Q340.71564 58.996876 340.27814 58.434376Q339.84064 57.871876 339.1844 57.871876ZM346.16876 67.90312L344.91876 67.90312Q347.825 63.215626 347.825 58.528126Q347.825 56.684376 347.41876 54.8875Q347.075 53.41875 346.48126 52.075Q346.10626 51.184376 344.91876 49.1375L346.16876 49.1375Q348.0125 51.590626 348.8875 54.059376Q349.6375 56.184376 349.6375 58.5125Q349.6375 61.153126 348.6219 63.621876Q347.6219 66.075 346.16876 67.90312ZM360.90314 63.7L356.95 53.325L358.8094 53.325L361.04376 59.54375Q361.40314 60.54375 361.7 61.621876Q361.9344 60.809376 362.35626 59.653126L364.65314 53.325L366.46564 53.325L362.54376 63.7L360.90314 63.7ZM366.3094 60.60625L368.0594 60.325Q368.2 61.371876 368.8719 61.934376Q369.54376 62.48125 370.7469 62.48125Q371.95 62.48125 372.52814 61.996876Q373.1219 61.496876 373.1219 60.840626Q373.1219 60.246876 372.60626 59.903126Q372.2469 59.66875 370.8094 59.309376Q368.8719 58.809376 368.1219 58.465626Q367.3875 58.10625 366.9969 57.48125Q366.60626 56.840626 366.60626 56.075Q366.60626 55.3875 366.91876 54.79375Q367.2469 54.2 367.79376 53.809376Q368.2 53.5125 368.90314 53.309376Q369.6219 53.090626 370.4344 53.090626Q371.65314 53.090626 372.575 53.45Q373.4969 53.79375 373.9344 54.403126Q374.3719 54.996876 374.54376 55.996876L372.825 56.23125Q372.7 55.434376 372.1375 54.996876Q371.575 54.54375 370.5594 54.54375Q369.34064 54.54375 368.825 54.95Q368.3094 55.340626 368.3094 55.871876Q368.3094 56.215626 368.52814 56.496876Q368.73126 56.778126 369.2 56.965626Q369.46564 57.059376 370.7469 57.403126Q372.6219 57.903126 373.35626 58.23125Q374.09064 58.54375 374.5125 59.153126Q374.9344 59.746876 374.9344 60.653126Q374.9344 61.528126 374.41876 62.309376Q373.90314 63.090626 372.9344 63.5125Q371.96564 63.934376 370.7469 63.934376Q368.73126 63.934376 367.66876 63.090626Q366.60626 62.246876 366.3094 60.60625ZM377.5125 63.7L377.5125 61.7L379.5125 61.7L379.5125 63.7L377.5125 63.7ZM389.2469 63.7L389.2469 49.3875L394.6375 49.3875Q396.075 49.3875 396.825 49.5125Q397.8719 49.7 398.59064 50.2Q399.3094 50.684376 399.73126 51.575Q400.16876 52.465626 400.16876 53.528126Q400.16876 55.35625 398.9969 56.621876Q397.84064 57.871876 394.8094 57.871876L391.1375 57.871876L391.1375 63.7L389.2469 63.7ZM391.1375 56.184376L394.84064 56.184376Q396.66876 56.184376 397.4344 55.5125Q398.21564 54.825 398.21564 53.575Q398.21564 52.684376 397.7625 52.04375Q397.3094 51.403126 396.575 51.2Q396.09064 51.075 394.79376 51.075L391.1375 51.075L391.1375 56.184376ZM408.79376 62.41875Q407.8094 63.246876 406.90314 63.590626Q405.9969 63.934376 404.96564 63.934376Q403.2625 63.934376 402.34064 63.10625Q401.41876 62.2625 401.41876 60.965626Q401.41876 60.2 401.7625 59.575Q402.1219 58.95 402.6844 58.575Q403.2469 58.184376 403.95 57.98125Q404.46564 57.85625 405.5125 57.715626Q407.6375 57.465626 408.6375 57.121876Q408.65314 56.7625 408.65314 56.653126Q408.65314 55.590626 408.15314 55.1375Q407.48126 54.54375 406.15314 54.54375Q404.90314 54.54375 404.3094 54.98125Q403.73126 55.41875 403.45 56.528126L401.73126 56.29375Q401.96564 55.184376 402.4969 54.5125Q403.02814 53.825 404.04376 53.465626Q405.0594 53.090626 406.40314 53.090626Q407.73126 53.090626 408.5594 53.403126Q409.3875 53.715626 409.77814 54.2Q410.16876 54.66875 410.325 55.3875Q410.41876 55.840626 410.41876 57.0125L410.41876 59.35625Q410.41876 61.809376 410.52814 62.465626Q410.6375 63.10625 410.98126 63.7L409.1375 63.7Q408.8719 63.153126 408.79376 62.41875ZM408.6375 58.496876Q407.6844 58.8875 405.7625 59.153126Q404.6844 59.309376 404.23126 59.5125Q403.79376 59.7 403.54376 60.075Q403.29376 60.45 403.29376 60.91875Q403.29376 61.621876 403.825 62.090626Q404.35626 62.559376 405.3875 62.559376Q406.40314 62.559376 407.1844 62.121876Q407.98126 61.66875 408.35626 60.903126Q408.6375 60.29375 408.6375 59.1375L408.6375 58.496876ZM412.9344 67.7L412.7469 66.04375Q413.325 66.2 413.7469 66.2Q414.34064 66.2 414.6844 65.99687Q415.04376 65.80937 415.2625 65.46562Q415.4344 65.2 415.8094 64.15312Q415.85626 63.996876 415.96564 63.715626L412.02814 53.325L413.91876 53.325L416.075 59.340626Q416.4969 60.48125 416.825 61.73125Q417.1375 60.528126 417.54376 59.371876L419.7625 53.325L421.52814 53.325L417.575 63.871876Q416.95 65.59062 416.59064 66.23125Q416.1219 67.10625 415.5125 67.49687Q414.91876 67.90312 414.075 67.90312Q413.5594 67.90312 412.9344 67.7ZM422.98126 63.7L422.98126 49.3875L424.73126 49.3875L424.73126 63.7L422.98126 63.7ZM426.3719 58.5125Q426.3719 55.6375 427.96564 54.246876Q429.3094 53.090626 431.23126 53.090626Q433.3719 53.090626 434.71564 54.496876Q436.075 55.903126 436.075 58.371876Q436.075 60.371876 435.48126 61.528126Q434.8875 62.66875 433.73126 63.309376Q432.59064 63.934376 431.23126 63.934376Q429.04376 63.934376 427.7 62.54375Q426.3719 61.1375 426.3719 58.5125ZM428.16876 58.5125Q428.16876 60.5125 429.02814 61.496876Q429.90314 62.48125 431.23126 62.48125Q432.54376 62.48125 433.40314 61.496876Q434.27814 60.496876 434.27814 58.45Q434.27814 56.528126 433.40314 55.54375Q432.52814 54.54375 431.23126 54.54375Q429.90314 54.54375 429.02814 55.54375Q428.16876 56.528126 428.16876 58.5125ZM444.79376 62.41875Q443.8094 63.246876 442.90314 63.590626Q441.9969 63.934376 440.96564 63.934376Q439.2625 63.934376 438.34064 63.10625Q437.41876 62.2625 437.41876 60.965626Q437.41876 60.2 437.7625 59.575Q438.1219 58.95 438.6844 58.575Q439.2469 58.184376 439.95 57.98125Q440.46564 57.85625 441.5125 57.715626Q443.6375 57.465626 444.6375 57.121876Q444.65314 56.7625 444.65314 56.653126Q444.65314 55.590626 444.15314 55.1375Q443.48126 54.54375 442.15314 54.54375Q440.90314 54.54375 440.3094 54.98125Q439.73126 55.41875 439.45 56.528126L437.73126 56.29375Q437.96564 55.184376 438.4969 54.5125Q439.02814 53.825 440.04376 53.465626Q441.0594 53.090626 442.40314 53.090626Q443.73126 53.090626 444.5594 53.403126Q445.3875 53.715626 445.77814 54.2Q446.16876 54.66875 446.325 55.3875Q446.41876 55.840626 446.41876 57.0125L446.41876 59.35625Q446.41876 61.809376 446.52814 62.465626Q446.6375 63.10625 446.98126 63.7L445.1375 63.7Q444.8719 63.153126 444.79376 62.41875ZM444.6375 58.496876Q443.6844 58.8875 441.7625 59.153126Q440.6844 59.309376 440.23126 59.5125Q439.79376 59.7 439.54376 60.075Q439.29376 60.45 439.29376 60.91875Q439.29376 61.621876 439.825 62.090626Q440.35626 62.559376 441.3875 62.559376Q442.40314 62.559376 443.1844 62.121876Q443.98126 61.66875 444.35626 60.903126Q444.6375 60.29375 444.6375 59.1375L444.6375 58.496876ZM455.7469 63.7L455.7469 62.3875Q454.7625 63.934376 452.84064 63.934376Q451.60626 63.934376 450.5594 63.246876Q449.52814 62.559376 448.95 61.340626Q448.3875 60.121876 448.3875 58.528126Q448.3875 56.965626 448.90314 55.7Q449.41876 54.434376 450.45 53.7625Q451.4969 53.090626 452.7625 53.090626Q453.7 53.090626 454.4344 53.496876Q455.16876 53.8875 455.6375 54.5125L455.6375 49.3875L457.3719 49.3875L457.3719 63.7L455.7469 63.7ZM450.1844 58.528126Q450.1844 60.5125 451.02814 61.496876Q451.8719 62.48125 453.0125 62.48125Q454.16876 62.48125 454.96564 61.54375Q455.77814 60.60625 455.77814 58.66875Q455.77814 56.54375 454.95 55.54375Q454.1375 54.54375 452.9344 54.54375Q451.7625 54.54375 450.96564 55.5125Q450.1844 56.465626 450.1844 58.528126ZM465.60626 59.10625L467.3875 58.95Q467.5125 60.0125 467.96564 60.7Q468.4344 61.3875 469.40314 61.825Q470.3875 62.246876 471.6219 62.246876Q472.7 62.246876 473.52814 61.934376Q474.35626 61.60625 474.7625 61.04375Q475.16876 60.48125 475.16876 59.809376Q475.16876 59.1375 474.77814 58.6375Q474.3875 58.1375 473.4969 57.79375Q472.91876 57.559376 470.9344 57.090626Q468.96564 56.621876 468.1844 56.2Q467.15314 55.66875 466.65314 54.871876Q466.15314 54.075 466.15314 53.090626Q466.15314 51.996876 466.7625 51.059376Q467.3719 50.121876 468.5594 49.6375Q469.7469 49.1375 471.1844 49.1375Q472.77814 49.1375 473.9969 49.653126Q475.21564 50.16875 475.85626 51.16875Q476.5125 52.153126 476.5594 53.41875L474.7469 53.559376Q474.60626 52.2 473.7625 51.5125Q472.91876 50.809376 471.2625 50.809376Q469.54376 50.809376 468.7469 51.45Q467.96564 52.075 467.96564 52.95Q467.96564 53.73125 468.52814 54.23125Q469.075 54.73125 471.3875 55.246876Q473.7 55.7625 474.5594 56.153126Q475.8094 56.73125 476.40314 57.621876Q476.9969 58.496876 476.9969 59.653126Q476.9969 60.79375 476.34064 61.809376Q475.6844 62.825 474.45 63.3875Q473.23126 63.95 471.7 63.95Q469.7625 63.95 468.45 63.3875Q467.1375 62.809376 466.3875 61.66875Q465.6375 60.528126 465.60626 59.10625ZM479.02814 51.403126L479.02814 49.3875L480.79376 49.3875L480.79376 51.403126L479.02814 51.403126ZM479.02814 63.7L479.02814 53.325L480.79376 53.325L480.79376 63.7L479.02814 63.7ZM482.09064 63.7L482.09064 62.278126L488.7 54.7Q487.575 54.746876 486.71564 54.746876L482.48126 54.746876L482.48126 53.325L490.96564 53.325L490.96564 54.496876L485.34064 61.075L484.2625 62.278126Q485.4344 62.184376 486.48126 62.184376L491.27814 62.184376L491.27814 63.7L482.09064 63.7ZM499.1219 60.35625L500.9344 60.590626Q500.5125 62.16875 499.34064 63.059376Q498.1844 63.934376 496.3719 63.934376Q494.10626 63.934376 492.7625 62.54375Q491.4344 61.1375 491.4344 58.60625Q491.4344 55.98125 492.77814 54.54375Q494.1219 53.090626 496.27814 53.090626Q498.35626 53.090626 499.66876 54.5125Q500.9969 55.91875 500.9969 58.496876Q500.9969 58.653126 500.98126 58.965626L493.2469 58.965626Q493.34064 60.66875 494.21564 61.575Q495.09064 62.48125 496.3875 62.48125Q497.35626 62.48125 498.02814 61.98125Q498.71564 61.465626 499.1219 60.35625ZM493.34064 57.5125L499.1375 57.5125Q499.02814 56.215626 498.48126 55.559376Q497.6375 54.54375 496.29376 54.54375Q495.09064 54.54375 494.2625 55.35625Q493.4344 56.153126 493.34064 57.5125ZM512.3719 67.90312Q510.91876 66.075 509.91876 63.621876Q508.91876 61.153126 508.91876 58.5125Q508.91876 56.184376 509.66876 54.059376Q510.54376 51.590626 512.3719 49.1375L513.6375 49.1375Q512.45 51.16875 512.075 52.04375Q511.48126 53.3875 511.1375 54.85625Q510.71564 56.684376 510.71564 58.528126Q510.71564 63.215626 513.6375 67.90312L512.3719 67.90312ZM516.16876 63.7L516.16876 49.3875L521.54376 49.3875Q523.1844 49.3875 524.16876 49.825Q525.15314 50.246876 525.71564 51.153126Q526.27814 52.059376 526.27814 53.04375Q526.27814 53.965626 525.77814 54.778126Q525.29376 55.590626 524.27814 56.075Q525.575 56.465626 526.27814 57.3875Q526.98126 58.29375 526.98126 59.54375Q526.98126 60.559376 526.54376 61.41875Q526.1219 62.278126 525.4969 62.746876Q524.8719 63.215626 523.9344 63.465626Q522.9969 63.7 521.6219 63.7L516.16876 63.7ZM518.0594 55.403126L521.15314 55.403126Q522.41876 55.403126 522.96564 55.23125Q523.6844 55.0125 524.04376 54.528126Q524.41876 54.028126 524.41876 53.2625Q524.41876 52.559376 524.075 52.0125Q523.73126 51.465626 523.09064 51.278126Q522.46564 51.075 520.91876 51.075L518.0594 51.075L518.0594 55.403126ZM518.0594 62.0125L521.6219 62.0125Q522.54376 62.0125 522.91876 61.934376Q523.575 61.825 524.0125 61.559376Q524.45 61.278126 524.73126 60.7625Q525.0125 60.23125 525.0125 59.54375Q525.0125 58.746876 524.60626 58.153126Q524.2 57.559376 523.46564 57.325Q522.73126 57.090626 521.3719 57.090626L518.0594 57.090626L518.0594 62.0125ZM530.16876 67.90312L528.91876 67.90312Q531.825 63.215626 531.825 58.528126Q531.825 56.684376 531.41876 54.8875Q531.075 53.41875 530.48126 52.075Q530.10626 51.184376 528.91876 49.1375L530.16876 49.1375Q532.0125 51.590626 532.8875 54.059376Q533.6375 56.184376 533.6375 58.5125Q533.6375 61.153126 532.6219 63.621876Q531.6219 66.075 530.16876 67.90312Z" fill-rule="nonzero"/></svg>
