<svg aria-label="Tenstorrent" class="w-full block" width="359" height="84" viewBox="0 0 359 84" fill="none" xmlns="http://www.w3.org/2000/svg">
<path d="M21.4062 48.0411V72.0137L42.524 84L63.6417 72.0137V48.0411L42.524 60.0274L21.4062 48.0411Z" fill="#786BB0"></path>
<path d="M21.4063 48.0411V24.4041L42.5241 36.3904L63.6418 24.4041L42.5241 11.9863L21.4063 0L0 12.0822V36.0548L21.4063 48.0411Z" fill="#FFD10A"></path>
<path d="M85.0001 12.0821L63.6418 0.0478516V24.404V47.9931L85.0001 36.0547V12.0821Z" fill="#F04F5E"></path>
<path d="M63.6412 48.0405V47.9932L63.5938 48.0405H63.6412Z" fill="white"></path>
<path d="M305.221 38.8795H302.512C298.312 38.8795 294.885 42.2958 294.885 46.4836V50.3958C294.885 54.5836 298.312 57.9999 302.512 57.9999H312.903V54.5836H302.512C300.191 54.5836 298.312 52.7101 298.312 50.3958V50.1203H312.903V46.4836C312.848 42.2958 309.421 38.8795 305.221 38.8795ZM309.421 46.7591H298.256V46.4836C298.256 44.1693 300.136 42.2958 302.457 42.2958H305.165C307.487 42.2958 309.366 44.1693 309.366 46.4836V46.7591H309.421Z" fill="#FFFEF6"></path>
<path d="M204.129 46.7591H197.441C196.169 46.7591 195.175 45.7673 195.175 44.4999C195.175 43.2326 196.169 42.2958 197.441 42.2958H207.942V38.8795H197.441C194.345 38.8795 191.803 41.4142 191.803 44.4999C191.803 47.5856 194.345 50.1203 197.441 50.1203H204.129C205.4 50.1203 206.339 51.1122 206.339 52.3244C206.339 53.5918 205.345 54.5836 204.129 54.5836H192.522V57.9999H204.129C207.224 57.9999 209.766 55.4652 209.766 52.3795C209.822 49.2938 207.279 46.7591 204.129 46.7591Z" fill="#FFFEF6"></path>
<path d="M246.246 38.8795H242.321C238.121 38.8795 234.694 42.2958 234.694 46.4836V50.3958C234.694 54.5836 238.121 57.9999 242.321 57.9999H246.246C250.446 57.9999 253.873 54.5836 253.873 50.3958V46.4836C253.928 42.2958 250.446 38.8795 246.246 38.8795ZM250.502 50.3958C250.502 52.7101 248.622 54.5836 246.301 54.5836H242.377C240.055 54.5836 238.176 52.7101 238.176 50.3958V46.4836C238.176 44.1693 240.055 42.2958 242.377 42.2958H246.301C248.622 42.2958 250.502 44.1693 250.502 46.4836V50.3958Z" fill="#FFFEF6"></path>
<path d="M222.423 31H219.052V38.8796H212.64V42.2959H219.052V50.451C219.052 54.6388 222.479 58.0551 226.679 58.0551H230.051V54.6939H226.679C224.358 54.6939 222.479 52.8204 222.479 50.5061V42.2959H230.106V38.8796H222.479V31H222.423Z" fill="#FFFEF6"></path>
<path d="M131.336 31H127.964V38.8796H121V42.2959H127.964V50.451C127.964 54.6388 131.391 58.0551 135.592 58.0551H138.963V54.6939H135.592C133.27 54.6939 131.391 52.8204 131.391 50.5061V42.2959H139.019V38.8796H131.336V31Z" fill="#FFFEF6"></path>
<path d="M359 42.2959V38.8796H351.372V31H348.001V38.8796H341.037V42.2959H348.001V50.451C348.001 54.6388 351.428 58.0551 355.628 58.0551H359V54.6939H355.628C353.307 54.6939 351.428 52.8204 351.428 50.5061V42.2959H359Z" fill="#FFFEF6"></path>
<path d="M154.218 38.8795H151.51C147.309 38.8795 143.883 42.2958 143.883 46.4836V50.3958C143.883 54.5836 147.309 57.9999 151.51 57.9999H161.901V54.5836H151.51C149.189 54.5836 147.309 52.7101 147.309 50.3958V50.1203H161.901V46.4836C161.846 42.2958 158.419 38.8795 154.218 38.8795ZM158.419 46.7591H147.254V46.4836C147.254 44.1693 149.133 42.2958 151.455 42.2958H154.163C156.485 42.2958 158.364 44.1693 158.364 46.4836V46.7591H158.419Z" fill="#FFFEF6"></path>
<path d="M265.591 41.0285L262.606 43.949V38.8796H259.235V58H262.606V48.302L266.641 44.2796C268.189 42.7367 269.184 42.2408 270.786 42.2408H272.997V38.8245H270.786C268.797 38.8796 267.083 39.5959 265.591 41.0285Z" fill="#FFFEF6"></path>
<path d="M281.288 38.8796H277.916V58H281.288V48.302L285.323 44.2796C286.87 42.7367 287.865 42.2408 289.468 42.2408H291.679V38.8245H289.468C287.423 38.8245 285.765 39.5408 284.273 41.0285L281.288 43.949V38.8796V38.8796Z" fill="#FFFEF6"></path>
<path d="M180.251 38.8795H179.92C177.875 38.8795 176.217 39.5958 174.724 41.0836L171.739 44.004V38.9346H168.368V57.9999H171.739V48.302L175.774 44.2795C177.267 42.7918 178.317 42.2407 179.92 42.2407H180.362C181.854 42.2407 182.96 43.1775 182.96 44.4448V57.9999H186.331V44.4999C186.387 41.304 183.789 38.8795 180.251 38.8795Z" fill="#FFFEF6"></path>
<path d="M331.254 38.8795H330.922C328.877 38.8795 327.219 39.5958 325.727 41.0836L322.742 44.004V38.9346H319.426V57.9999H322.797V48.302L326.832 44.2795C328.324 42.7918 329.374 42.2407 330.977 42.2407H331.42C332.912 42.2407 334.017 43.1775 334.017 44.4448V57.9999H337.389V44.4999C337.389 41.304 334.736 38.8795 331.254 38.8795Z" fill="#FFFEF6"></path>
</svg>
