<?xml version="1.0" encoding="UTF-8" standalone="no"?>
<!DOCTYPE svg PUBLIC "-//W3C//DTD SVG 1.1//EN"
 "http://www.w3.org/Graphics/SVG/1.1/DTD/svg11.dtd">
<!-- Generated by graphviz version 2.43.0 (0)
 -->
<!-- Title: %3 Pages: 1 -->
<svg width="540pt" height="1504pt"
 viewBox="0.00 0.00 540.00 1503.50" xmlns="http://www.w3.org/2000/svg" xmlns:xlink="http://www.w3.org/1999/xlink">
<g id="graph0" class="graph" transform="scale(1 1) rotate(0) translate(4 1499.5)">
<title>%3</title>
<polygon fill="white" stroke="transparent" points="-4,4 -4,-1499.5 536,-1499.5 536,4 -4,4"/>
<g id="clust1" class="cluster">
<title>_32</title>
<polygon fill="#0000ff" fill-opacity="0.501961" stroke="black" points="8,-137 8,-1380.5 430,-1380.5 430,-137 8,-137"/>
<text text-anchor="middle" x="219" y="-1365.3" font-family="Times,serif" font-size="14.00">transformers.models.bert.modeling_bert.BertSelfOutput</text>
<text text-anchor="middle" x="219" y="-1350.3" font-family="Times,serif" font-size="14.00">duration: 3.8 ms</text>
</g>
<g id="clust2" class="cluster">
<title>dense_22</title>
<polygon fill="#ee00ee" fill-opacity="0.501961" stroke="black" points="39,-935.5 39,-1230.5 385,-1230.5 385,-935.5 39,-935.5"/>
<text text-anchor="middle" x="212" y="-1215.3" font-family="Times,serif" font-size="14.00">torch.nn.modules.linear.Linear</text>
<text text-anchor="middle" x="212" y="-1200.3" font-family="Times,serif" font-size="14.00">dense</text>
<text text-anchor="middle" x="212" y="-1185.3" font-family="Times,serif" font-size="14.00">duration: 2.0 ms</text>
</g>
<g id="clust3" class="cluster">
<title>dropout_25</title>
<polygon fill="#ee00ee" fill-opacity="0.501961" stroke="black" points="75,-617 75,-906.5 340,-906.5 340,-617 75,-617"/>
<text text-anchor="middle" x="207.5" y="-891.3" font-family="Times,serif" font-size="14.00">torch.nn.modules.dropout.Dropout</text>
<text text-anchor="middle" x="207.5" y="-876.3" font-family="Times,serif" font-size="14.00">dropout</text>
<text text-anchor="middle" x="207.5" y="-861.3" font-family="Times,serif" font-size="14.00">duration: 216.2 µs</text>
</g>
<g id="clust4" class="cluster">
<title>LayerNorm_31</title>
<polygon fill="#ee00ee" fill-opacity="0.501961" stroke="black" points="48,-145 48,-440 422,-440 422,-145 48,-145"/>
<text text-anchor="middle" x="235" y="-424.8" font-family="Times,serif" font-size="14.00">torch.nn.modules.normalization.LayerNorm</text>
<text text-anchor="middle" x="235" y="-409.8" font-family="Times,serif" font-size="14.00">LayerNorm</text>
<text text-anchor="middle" x="235" y="-394.8" font-family="Times,serif" font-size="14.00">duration: 713.8 µs</text>
</g>
<!-- torch_input_14 -->
<g id="node1" class="node">
<title>torch_input_14</title>
<polygon fill="#dcdcdc" stroke="black" points="153,-1495.5 59,-1495.5 59,-1417.5 153,-1417.5 153,-1495.5"/>
<polygon fill="none" stroke="black" points="60,-1468.5 60,-1494.5 152,-1494.5 152,-1468.5 60,-1468.5"/>
<text text-anchor="start" x="81" y="-1484.5" font-family="Linux libertine" font-size="10.00">torch.rand</text>
<text text-anchor="start" x="62" y="-1473.5" font-family="Linux libertine" font-size="10.00">duration: 159.7 µs</text>
<polygon fill="none" stroke="black" points="60,-1418.5 60,-1467.5 152,-1467.5 152,-1418.5 60,-1418.5"/>
<text text-anchor="start" x="84.5" y="-1457.5" font-family="Linux libertine" font-size="10.00">Output 0</text>
<text text-anchor="start" x="78" y="-1446.5" font-family="Linux libertine" font-size="10.00">(1, 64, 256)</text>
<text text-anchor="start" x="75" y="-1435.5" font-family="Linux libertine" font-size="10.00">torch.float32</text>
</g>
<!-- module_input_16 -->
<g id="node3" class="node">
<title>module_input_16</title>
<polygon fill="#dcdcdc" stroke="black" points="143.5,-1334.5 68.5,-1334.5 68.5,-1267.5 143.5,-1267.5 143.5,-1334.5"/>
<polygon fill="none" stroke="black" points="70,-1318 70,-1333 143,-1333 143,-1318 70,-1318"/>
<text text-anchor="start" x="72" y="-1323" font-family="Linux libertine" font-size="10.00">hidden_states</text>
<polygon fill="none" stroke="black" points="70,-1268 70,-1317 143,-1317 143,-1268 70,-1268"/>
<text text-anchor="start" x="85" y="-1307" font-family="Linux libertine" font-size="10.00">Output 0</text>
<text text-anchor="start" x="78.5" y="-1296" font-family="Linux libertine" font-size="10.00">(1, 64, 256)</text>
<text text-anchor="start" x="75.5" y="-1285" font-family="Linux libertine" font-size="10.00">torch.float32</text>
</g>
<!-- torch_input_14&#45;&gt;module_input_16 -->
<g id="edge13" class="edge">
<title>torch_input_14:#0&#45;&gt;module_input_16</title>
<path fill="none" stroke="black" d="M106,-1417.5C106,-1393.46 106,-1366.61 106,-1344.85"/>
<polygon fill="black" stroke="black" points="109.5,-1344.61 106,-1334.61 102.5,-1344.61 109.5,-1344.61"/>
<text text-anchor="middle" x="121.5" y="-1391.5" font-family="Times,serif" font-size="10.00">0 &#45;&gt; 0</text>
</g>
<!-- torch_input_15 -->
<g id="node2" class="node">
<title>torch_input_15</title>
<polygon fill="#dcdcdc" stroke="black" points="532,-851 438,-851 438,-773 532,-773 532,-851"/>
<polygon fill="none" stroke="black" points="439,-824 439,-850 531,-850 531,-824 439,-824"/>
<text text-anchor="start" x="460" y="-840" font-family="Linux libertine" font-size="10.00">torch.rand</text>
<text text-anchor="start" x="441" y="-829" font-family="Linux libertine" font-size="10.00">duration: 116.3 µs</text>
<polygon fill="none" stroke="black" points="439,-774 439,-823 531,-823 531,-774 439,-774"/>
<text text-anchor="start" x="463.5" y="-813" font-family="Linux libertine" font-size="10.00">Output 0</text>
<text text-anchor="start" x="457" y="-802" font-family="Linux libertine" font-size="10.00">(1, 64, 256)</text>
<text text-anchor="start" x="454" y="-791" font-family="Linux libertine" font-size="10.00">torch.float32</text>
</g>
<!-- module_input_17 -->
<g id="node4" class="node">
<title>module_input_17</title>
<polygon fill="#dcdcdc" stroke="black" points="418,-709 350,-709 350,-642 418,-642 418,-709"/>
<polygon fill="none" stroke="black" points="351,-692.5 351,-707.5 417,-707.5 417,-692.5 351,-692.5"/>
<text text-anchor="start" x="353.5" y="-697.5" font-family="Linux libertine" font-size="10.00">input_tensor</text>
<polygon fill="none" stroke="black" points="351,-642.5 351,-691.5 417,-691.5 417,-642.5 351,-642.5"/>
<text text-anchor="start" x="362.5" y="-681.5" font-family="Linux libertine" font-size="10.00">Output 0</text>
<text text-anchor="start" x="356" y="-670.5" font-family="Linux libertine" font-size="10.00">(1, 64, 256)</text>
<text text-anchor="start" x="353" y="-659.5" font-family="Linux libertine" font-size="10.00">torch.float32</text>
</g>
<!-- torch_input_15&#45;&gt;module_input_17 -->
<g id="edge14" class="edge">
<title>torch_input_15:#0&#45;&gt;module_input_17</title>
<path fill="none" stroke="black" d="M485,-773C485,-738.86 454.46,-713.09 426.97,-696.8"/>
<polygon fill="black" stroke="black" points="428.62,-693.72 418.19,-691.85 425.18,-699.81 428.62,-693.72"/>
<text text-anchor="middle" x="495.5" y="-747" font-family="Times,serif" font-size="10.00">0 &#45;&gt; 0</text>
</g>
<!-- module_input_18 -->
<g id="node5" class="node">
<title>module_input_18</title>
<polygon fill="#dcdcdc" stroke="black" points="141,-1164 73,-1164 73,-1097 141,-1097 141,-1164"/>
<polygon fill="none" stroke="black" points="74,-1147.5 74,-1162.5 140,-1162.5 140,-1147.5 74,-1147.5"/>
<text text-anchor="start" x="94.5" y="-1152.5" font-family="Linux libertine" font-size="10.00">input</text>
<polygon fill="none" stroke="black" points="74,-1097.5 74,-1146.5 140,-1146.5 140,-1097.5 74,-1097.5"/>
<text text-anchor="start" x="85.5" y="-1136.5" font-family="Linux libertine" font-size="10.00">Output 0</text>
<text text-anchor="start" x="79" y="-1125.5" font-family="Linux libertine" font-size="10.00">(1, 64, 256)</text>
<text text-anchor="start" x="76" y="-1114.5" font-family="Linux libertine" font-size="10.00">torch.float32</text>
</g>
<!-- module_input_16&#45;&gt;module_input_18 -->
<g id="edge8" class="edge">
<title>module_input_16:#0&#45;&gt;module_input_18</title>
<path fill="none" stroke="black" d="M107,-1267.5C107,-1236.34 107,-1201.16 107,-1174.39"/>
<polygon fill="black" stroke="black" points="110.5,-1174.2 107,-1164.2 103.5,-1174.2 110.5,-1174.2"/>
<text text-anchor="middle" x="122.5" y="-1241.5" font-family="Times,serif" font-size="10.00" fill="white">0 &#45;&gt; 0</text>
</g>
<!-- add_26 -->
<g id="node11" class="node">
<title>add_26</title>
<polygon fill="#dcdcdc" stroke="black" points="377,-578 155,-578 155,-477 377,-477 377,-578"/>
<polygon fill="none" stroke="black" points="156,-477.5 156,-576.5 242,-576.5 242,-477.5 156,-477.5"/>
<text text-anchor="start" x="159" y="-530" font-family="Linux libertine" font-size="10.00">torch.Tensor.add</text>
<text text-anchor="start" x="158" y="-519" font-family="Linux libertine" font-size="10.00">duration: 82.7 µs</text>
<polygon fill="none" stroke="black" points="243,-527.5 243,-576.5 309,-576.5 309,-527.5 243,-527.5"/>
<text text-anchor="start" x="259" y="-566.5" font-family="Linux libertine" font-size="10.00">Input 0</text>
<text text-anchor="start" x="248" y="-555.5" font-family="Linux libertine" font-size="10.00">(1, 64, 256)</text>
<text text-anchor="start" x="245" y="-544.5" font-family="Linux libertine" font-size="10.00">torch.float32</text>
<polygon fill="none" stroke="black" points="310,-527.5 310,-576.5 376,-576.5 376,-527.5 310,-527.5"/>
<text text-anchor="start" x="326" y="-566.5" font-family="Linux libertine" font-size="10.00">Input 1</text>
<text text-anchor="start" x="315" y="-555.5" font-family="Linux libertine" font-size="10.00">(1, 64, 256)</text>
<text text-anchor="start" x="312" y="-544.5" font-family="Linux libertine" font-size="10.00">torch.float32</text>
<polygon fill="none" stroke="black" points="243,-477.5 243,-526.5 376,-526.5 376,-477.5 243,-477.5"/>
<text text-anchor="start" x="288" y="-516.5" font-family="Linux libertine" font-size="10.00">Output 0</text>
<text text-anchor="start" x="281.5" y="-505.5" font-family="Linux libertine" font-size="10.00">(1, 64, 256)</text>
<text text-anchor="start" x="278.5" y="-494.5" font-family="Linux libertine" font-size="10.00">torch.float32</text>
</g>
<!-- module_input_17&#45;&gt;add_26 -->
<g id="edge11" class="edge">
<title>module_input_17:#0&#45;&gt;add_26:$1</title>
<path fill="none" stroke="black" d="M384,-641.5C384,-611.55 351.76,-610.95 344.46,-587.65"/>
<polygon fill="black" stroke="black" points="347.89,-586.9 343,-577.5 340.96,-587.9 347.89,-586.9"/>
<text text-anchor="middle" x="374.5" y="-599" font-family="Times,serif" font-size="10.00" fill="white">0 &#45;&gt; 1</text>
</g>
<!-- linear_21 -->
<g id="node8" class="node">
<title>linear_21</title>
<polygon fill="#dcdcdc" stroke="black" points="377,-1044.5 47,-1044.5 47,-943.5 377,-943.5 377,-1044.5"/>
<polygon fill="none" stroke="black" points="48,-944 48,-1043 175,-1043 175,-944 48,-944"/>
<text text-anchor="start" x="50" y="-996.5" font-family="Linux libertine" font-size="10.00">torch.nn.functional.linear</text>
<text text-anchor="start" x="71.5" y="-985.5" font-family="Linux libertine" font-size="10.00">duration: 1.8 ms</text>
<polygon fill="none" stroke="black" points="176,-994 176,-1043 242,-1043 242,-994 176,-994"/>
<text text-anchor="start" x="192" y="-1033" font-family="Linux libertine" font-size="10.00">Input 0</text>
<text text-anchor="start" x="181" y="-1022" font-family="Linux libertine" font-size="10.00">(1, 64, 256)</text>
<text text-anchor="start" x="178" y="-1011" font-family="Linux libertine" font-size="10.00">torch.float32</text>
<polygon fill="none" stroke="black" points="243,-994 243,-1043 309,-1043 309,-994 243,-994"/>
<text text-anchor="start" x="259" y="-1033" font-family="Linux libertine" font-size="10.00">Input 1</text>
<text text-anchor="start" x="251" y="-1022" font-family="Linux libertine" font-size="10.00">(256, 256)</text>
<text text-anchor="start" x="245" y="-1011" font-family="Linux libertine" font-size="10.00">torch.float32</text>
<polygon fill="none" stroke="black" points="310,-994 310,-1043 376,-1043 376,-994 310,-994"/>
<text text-anchor="start" x="326" y="-1033" font-family="Linux libertine" font-size="10.00">Input 2</text>
<text text-anchor="start" x="328.5" y="-1022" font-family="Linux libertine" font-size="10.00">(256,)</text>
<text text-anchor="start" x="312" y="-1011" font-family="Linux libertine" font-size="10.00">torch.float32</text>
<polygon fill="none" stroke="black" points="176,-944 176,-993 376,-993 376,-944 176,-944"/>
<text text-anchor="start" x="254.5" y="-983" font-family="Linux libertine" font-size="10.00">Output 0</text>
<text text-anchor="start" x="248" y="-972" font-family="Linux libertine" font-size="10.00">(1, 64, 256)</text>
<text text-anchor="start" x="245" y="-961" font-family="Linux libertine" font-size="10.00">torch.float32</text>
</g>
<!-- module_input_18&#45;&gt;linear_21 -->
<g id="edge1" class="edge">
<title>module_input_18:#0&#45;&gt;linear_21:$0</title>
<path fill="none" stroke="black" d="M107,-1096.5C107,-1074.39 183.71,-1070.32 204.08,-1053"/>
<polygon fill="black" stroke="black" points="207.27,-1054.45 209,-1044 201.13,-1051.1 207.27,-1054.45"/>
<text text-anchor="middle" x="200.5" y="-1065.5" font-family="Times,serif" font-size="10.00" fill="white">0 &#45;&gt; 0</text>
</g>
<!-- torch_parameter_19 -->
<g id="node6" class="node">
<title>torch_parameter_19</title>
<polygon fill="#dcdcdc" stroke="black" points="259,-1169.5 159,-1169.5 159,-1091.5 259,-1091.5 259,-1169.5"/>
<polygon fill="none" stroke="black" points="160,-1142.5 160,-1168.5 258,-1168.5 258,-1142.5 160,-1142.5"/>
<text text-anchor="start" x="162" y="-1158.5" font-family="Linux libertine" font-size="10.00">torch.nn.Parameter</text>
<text text-anchor="start" x="176" y="-1147.5" font-family="Linux libertine" font-size="10.00">dense.weight</text>
<polygon fill="none" stroke="black" points="160,-1092.5 160,-1141.5 258,-1141.5 258,-1092.5 160,-1092.5"/>
<text text-anchor="start" x="187.5" y="-1131.5" font-family="Linux libertine" font-size="10.00">Output 0</text>
<text text-anchor="start" x="184" y="-1120.5" font-family="Linux libertine" font-size="10.00">(256, 256)</text>
<text text-anchor="start" x="178" y="-1109.5" font-family="Linux libertine" font-size="10.00">torch.float32</text>
</g>
<!-- torch_parameter_19&#45;&gt;linear_21 -->
<g id="edge2" class="edge">
<title>torch_parameter_19:#0&#45;&gt;linear_21:$1</title>
<path fill="none" stroke="black" d="M209,-1091.5C209,-1058.99 262.15,-1075.66 273.77,-1053.91"/>
<polygon fill="black" stroke="black" points="277.22,-1054.52 276,-1044 270.39,-1052.99 277.22,-1054.52"/>
<text text-anchor="middle" x="279.5" y="-1065.5" font-family="Times,serif" font-size="10.00" fill="white">0 &#45;&gt; 1</text>
</g>
<!-- torch_parameter_20 -->
<g id="node7" class="node">
<title>torch_parameter_20</title>
<polygon fill="#dcdcdc" stroke="black" points="377,-1169.5 277,-1169.5 277,-1091.5 377,-1091.5 377,-1169.5"/>
<polygon fill="none" stroke="black" points="278,-1142.5 278,-1168.5 376,-1168.5 376,-1142.5 278,-1142.5"/>
<text text-anchor="start" x="280" y="-1158.5" font-family="Linux libertine" font-size="10.00">torch.nn.Parameter</text>
<text text-anchor="start" x="300.5" y="-1147.5" font-family="Linux libertine" font-size="10.00">dense.bias</text>
<polygon fill="none" stroke="black" points="278,-1092.5 278,-1141.5 376,-1141.5 376,-1092.5 278,-1092.5"/>
<text text-anchor="start" x="305.5" y="-1131.5" font-family="Linux libertine" font-size="10.00">Output 0</text>
<text text-anchor="start" x="312.5" y="-1120.5" font-family="Linux libertine" font-size="10.00">(256,)</text>
<text text-anchor="start" x="296" y="-1109.5" font-family="Linux libertine" font-size="10.00">torch.float32</text>
</g>
<!-- torch_parameter_20&#45;&gt;linear_21 -->
<g id="edge3" class="edge">
<title>torch_parameter_20:#0&#45;&gt;linear_21:$2</title>
<path fill="none" stroke="black" d="M327,-1091.5C327,-1073.05 337.97,-1067.86 341.74,-1053.97"/>
<polygon fill="black" stroke="black" points="345.22,-1054.36 343,-1044 338.28,-1053.48 345.22,-1054.36"/>
<text text-anchor="middle" x="352.5" y="-1065.5" font-family="Times,serif" font-size="10.00" fill="white">0 &#45;&gt; 2</text>
</g>
<!-- module_input_23 -->
<g id="node9" class="node">
<title>module_input_23</title>
<polygon fill="#dcdcdc" stroke="black" points="310,-845.5 242,-845.5 242,-778.5 310,-778.5 310,-845.5"/>
<polygon fill="none" stroke="black" points="243,-829 243,-844 309,-844 309,-829 243,-829"/>
<text text-anchor="start" x="263.5" y="-834" font-family="Linux libertine" font-size="10.00">input</text>
<polygon fill="none" stroke="black" points="243,-779 243,-828 309,-828 309,-779 243,-779"/>
<text text-anchor="start" x="254.5" y="-818" font-family="Linux libertine" font-size="10.00">Output 0</text>
<text text-anchor="start" x="248" y="-807" font-family="Linux libertine" font-size="10.00">(1, 64, 256)</text>
<text text-anchor="start" x="245" y="-796" font-family="Linux libertine" font-size="10.00">torch.float32</text>
</g>
<!-- linear_21&#45;&gt;module_input_23 -->
<g id="edge9" class="edge">
<title>linear_21:#0&#45;&gt;module_input_23</title>
<path fill="none" stroke="black" d="M276,-943C276,-913.84 276,-881 276,-855.62"/>
<polygon fill="black" stroke="black" points="279.5,-855.59 276,-845.59 272.5,-855.59 279.5,-855.59"/>
<text text-anchor="middle" x="291.5" y="-917.5" font-family="Times,serif" font-size="10.00" fill="white">0 &#45;&gt; 0</text>
</g>
<!-- dropout_24 -->
<g id="node10" class="node">
<title>dropout_24</title>
<polygon fill="#dcdcdc" stroke="black" points="310,-726 104,-726 104,-625 310,-625 310,-726"/>
<polygon fill="none" stroke="black" points="105,-625.5 105,-724.5 242,-724.5 242,-625.5 105,-625.5"/>
<text text-anchor="start" x="107" y="-678" font-family="Linux libertine" font-size="10.00">torch.nn.functional.dropout</text>
<text text-anchor="start" x="132.5" y="-667" font-family="Linux libertine" font-size="10.00">duration: 67.9 µs</text>
<polygon fill="none" stroke="black" points="243,-675.5 243,-724.5 309,-724.5 309,-675.5 243,-675.5"/>
<text text-anchor="start" x="259" y="-714.5" font-family="Linux libertine" font-size="10.00">Input 0</text>
<text text-anchor="start" x="248" y="-703.5" font-family="Linux libertine" font-size="10.00">(1, 64, 256)</text>
<text text-anchor="start" x="245" y="-692.5" font-family="Linux libertine" font-size="10.00">torch.float32</text>
<polygon fill="none" stroke="black" points="243,-625.5 243,-674.5 309,-674.5 309,-625.5 243,-625.5"/>
<text text-anchor="start" x="254.5" y="-664.5" font-family="Linux libertine" font-size="10.00">Output 0</text>
<text text-anchor="start" x="248" y="-653.5" font-family="Linux libertine" font-size="10.00">(1, 64, 256)</text>
<text text-anchor="start" x="245" y="-642.5" font-family="Linux libertine" font-size="10.00">torch.float32</text>
</g>
<!-- module_input_23&#45;&gt;dropout_24 -->
<g id="edge4" class="edge">
<title>module_input_23:#0&#45;&gt;dropout_24:$0</title>
<path fill="none" stroke="black" d="M276,-778C276,-758.49 276,-751.22 276,-735.73"/>
<polygon fill="black" stroke="black" points="279.5,-735.5 276,-725.5 272.5,-735.5 279.5,-735.5"/>
<text text-anchor="middle" x="291.5" y="-747" font-family="Times,serif" font-size="10.00" fill="white">0 &#45;&gt; 0</text>
</g>
<!-- dropout_24&#45;&gt;add_26 -->
<g id="edge10" class="edge">
<title>dropout_24:#0&#45;&gt;add_26:$0</title>
<path fill="none" stroke="black" d="M276,-624.5C276,-607.53 276,-600.9 276,-587.8"/>
<polygon fill="black" stroke="black" points="279.5,-587.5 276,-577.5 272.5,-587.5 279.5,-587.5"/>
<text text-anchor="middle" x="291.5" y="-599" font-family="Times,serif" font-size="10.00" fill="white">0 &#45;&gt; 0</text>
</g>
<!-- module_input_27 -->
<g id="node12" class="node">
<title>module_input_27</title>
<polygon fill="#dcdcdc" stroke="black" points="178,-373.5 110,-373.5 110,-306.5 178,-306.5 178,-373.5"/>
<polygon fill="none" stroke="black" points="111,-357 111,-372 177,-372 177,-357 111,-357"/>
<text text-anchor="start" x="131.5" y="-362" font-family="Linux libertine" font-size="10.00">input</text>
<polygon fill="none" stroke="black" points="111,-307 111,-356 177,-356 177,-307 111,-307"/>
<text text-anchor="start" x="122.5" y="-346" font-family="Linux libertine" font-size="10.00">Output 0</text>
<text text-anchor="start" x="116" y="-335" font-family="Linux libertine" font-size="10.00">(1, 64, 256)</text>
<text text-anchor="start" x="113" y="-324" font-family="Linux libertine" font-size="10.00">torch.float32</text>
</g>
<!-- add_26&#45;&gt;module_input_27 -->
<g id="edge12" class="edge">
<title>add_26:#0&#45;&gt;module_input_27</title>
<path fill="none" stroke="black" d="M310,-477C310,-419.91 229.67,-477.93 187,-440 170.47,-425.3 160.04,-403.11 153.6,-383.46"/>
<polygon fill="black" stroke="black" points="156.91,-382.32 150.67,-373.76 150.21,-384.35 156.91,-382.32"/>
<text text-anchor="middle" x="320.5" y="-451" font-family="Times,serif" font-size="10.00" fill="white">0 &#45;&gt; 0</text>
</g>
<!-- layer_norm_30 -->
<g id="node15" class="node">
<title>layer_norm_30</title>
<polygon fill="#dcdcdc" stroke="black" points="414,-254 56,-254 56,-153 414,-153 414,-254"/>
<polygon fill="none" stroke="black" points="57,-153.5 57,-252.5 212,-252.5 212,-153.5 57,-153.5"/>
<text text-anchor="start" x="59" y="-206" font-family="Linux libertine" font-size="10.00">torch.nn.functional.layer_norm</text>
<text text-anchor="start" x="90.5" y="-195" font-family="Linux libertine" font-size="10.00">duration: 309.0 µs</text>
<polygon fill="none" stroke="black" points="213,-203.5 213,-252.5 279,-252.5 279,-203.5 213,-203.5"/>
<text text-anchor="start" x="229" y="-242.5" font-family="Linux libertine" font-size="10.00">Input 0</text>
<text text-anchor="start" x="218" y="-231.5" font-family="Linux libertine" font-size="10.00">(1, 64, 256)</text>
<text text-anchor="start" x="215" y="-220.5" font-family="Linux libertine" font-size="10.00">torch.float32</text>
<polygon fill="none" stroke="black" points="280,-203.5 280,-252.5 346,-252.5 346,-203.5 280,-203.5"/>
<text text-anchor="start" x="296" y="-242.5" font-family="Linux libertine" font-size="10.00">Input 1</text>
<text text-anchor="start" x="298.5" y="-231.5" font-family="Linux libertine" font-size="10.00">(256,)</text>
<text text-anchor="start" x="282" y="-220.5" font-family="Linux libertine" font-size="10.00">torch.float32</text>
<polygon fill="none" stroke="black" points="347,-203.5 347,-252.5 413,-252.5 413,-203.5 347,-203.5"/>
<text text-anchor="start" x="363" y="-242.5" font-family="Linux libertine" font-size="10.00">Input 2</text>
<text text-anchor="start" x="365.5" y="-231.5" font-family="Linux libertine" font-size="10.00">(256,)</text>
<text text-anchor="start" x="349" y="-220.5" font-family="Linux libertine" font-size="10.00">torch.float32</text>
<polygon fill="none" stroke="black" points="213,-153.5 213,-202.5 413,-202.5 413,-153.5 213,-153.5"/>
<text text-anchor="start" x="291.5" y="-192.5" font-family="Linux libertine" font-size="10.00">Output 0</text>
<text text-anchor="start" x="285" y="-181.5" font-family="Linux libertine" font-size="10.00">(1, 64, 256)</text>
<text text-anchor="start" x="282" y="-170.5" font-family="Linux libertine" font-size="10.00">torch.float32</text>
</g>
<!-- module_input_27&#45;&gt;layer_norm_30 -->
<g id="edge5" class="edge">
<title>module_input_27:#0&#45;&gt;layer_norm_30:$0</title>
<path fill="none" stroke="black" d="M144,-306C144,-283.89 220.71,-279.82 241.08,-262.5"/>
<polygon fill="black" stroke="black" points="244.27,-263.95 246,-253.5 238.13,-260.6 244.27,-263.95"/>
<text text-anchor="middle" x="237.5" y="-275" font-family="Times,serif" font-size="10.00" fill="white">0 &#45;&gt; 0</text>
</g>
<!-- torch_parameter_28 -->
<g id="node13" class="node">
<title>torch_parameter_28</title>
<polygon fill="#dcdcdc" stroke="black" points="296,-379 196,-379 196,-301 296,-301 296,-379"/>
<polygon fill="none" stroke="black" points="197,-352 197,-378 295,-378 295,-352 197,-352"/>
<text text-anchor="start" x="199" y="-368" font-family="Linux libertine" font-size="10.00">torch.nn.Parameter</text>
<text text-anchor="start" x="200.5" y="-357" font-family="Linux libertine" font-size="10.00">LayerNorm.weight</text>
<polygon fill="none" stroke="black" points="197,-302 197,-351 295,-351 295,-302 197,-302"/>
<text text-anchor="start" x="224.5" y="-341" font-family="Linux libertine" font-size="10.00">Output 0</text>
<text text-anchor="start" x="231.5" y="-330" font-family="Linux libertine" font-size="10.00">(256,)</text>
<text text-anchor="start" x="215" y="-319" font-family="Linux libertine" font-size="10.00">torch.float32</text>
</g>
<!-- torch_parameter_28&#45;&gt;layer_norm_30 -->
<g id="edge6" class="edge">
<title>torch_parameter_28:#0&#45;&gt;layer_norm_30:$1</title>
<path fill="none" stroke="black" d="M246,-301C246,-268.49 299.15,-285.16 310.77,-263.41"/>
<polygon fill="black" stroke="black" points="314.22,-264.02 313,-253.5 307.39,-262.49 314.22,-264.02"/>
<text text-anchor="middle" x="316.5" y="-275" font-family="Times,serif" font-size="10.00" fill="white">0 &#45;&gt; 1</text>
</g>
<!-- torch_parameter_29 -->
<g id="node14" class="node">
<title>torch_parameter_29</title>
<polygon fill="#dcdcdc" stroke="black" points="414,-379 314,-379 314,-301 414,-301 414,-379"/>
<polygon fill="none" stroke="black" points="315,-352 315,-378 413,-378 413,-352 315,-352"/>
<text text-anchor="start" x="317" y="-368" font-family="Linux libertine" font-size="10.00">torch.nn.Parameter</text>
<text text-anchor="start" x="325" y="-357" font-family="Linux libertine" font-size="10.00">LayerNorm.bias</text>
<polygon fill="none" stroke="black" points="315,-302 315,-351 413,-351 413,-302 315,-302"/>
<text text-anchor="start" x="342.5" y="-341" font-family="Linux libertine" font-size="10.00">Output 0</text>
<text text-anchor="start" x="349.5" y="-330" font-family="Linux libertine" font-size="10.00">(256,)</text>
<text text-anchor="start" x="333" y="-319" font-family="Linux libertine" font-size="10.00">torch.float32</text>
</g>
<!-- torch_parameter_29&#45;&gt;layer_norm_30 -->
<g id="edge7" class="edge">
<title>torch_parameter_29:#0&#45;&gt;layer_norm_30:$2</title>
<path fill="none" stroke="black" d="M364,-301C364,-282.55 374.97,-277.36 378.74,-263.47"/>
<polygon fill="black" stroke="black" points="382.22,-263.86 380,-253.5 375.28,-262.98 382.22,-263.86"/>
<text text-anchor="middle" x="389.5" y="-275" font-family="Times,serif" font-size="10.00" fill="white">0 &#45;&gt; 2</text>
</g>
<!-- ttnn.from_torch_36 -->
<g id="node16" class="node">
<title>ttnn.from_torch_36</title>
<g id="a_node16"><a xlink:href="/operation_buffer_report/3" xlink:title="&lt;TABLE&gt;">
<polygon fill="#dcdcdc" stroke="black" points="373.5,-100 158.5,-100 158.5,0 373.5,0 373.5,-100"/>
<polygon fill="none" stroke="black" points="160,-1 160,-99 252,-99 252,-1 160,-1"/>
<text text-anchor="start" x="162" y="-47.5" font-family="Linux libertine" font-size="10.00">3: ttnn.from_torch</text>
<polygon fill="none" stroke="black" points="253,-50 253,-99 373,-99 373,-50 253,-50"/>
<text text-anchor="start" x="296" y="-89" font-family="Linux libertine" font-size="10.00">Input 0</text>
<text text-anchor="start" x="285" y="-78" font-family="Linux libertine" font-size="10.00">(1, 64, 256)</text>
<text text-anchor="start" x="282" y="-67" font-family="Linux libertine" font-size="10.00">torch.float32</text>
<polygon fill="none" stroke="black" points="253,-1 253,-49 373,-49 373,-1 253,-1"/>
<text text-anchor="start" x="291.5" y="-39" font-family="Linux libertine" font-size="10.00">Output 0</text>
<text text-anchor="start" x="255" y="-28" font-family="Linux libertine" font-size="10.00">ttnn.Shape([1, 64, 256])</text>
<text text-anchor="start" x="267" y="-17" font-family="Linux libertine" font-size="10.00">DataType.FLOAT32</text>
<text text-anchor="start" x="262" y="-6" font-family="Linux libertine" font-size="10.00">Layout: ROW_MAJOR</text>
</a>
</g>
</g>
<!-- layer_norm_30&#45;&gt;ttnn.from_torch_36 -->
<g id="edge15" class="edge">
<title>layer_norm_30:#0&#45;&gt;ttnn.from_torch_36:$0</title>
<path fill="none" stroke="black" d="M313,-152.5C313,-132.99 313,-125.72 313,-110.23"/>
<polygon fill="black" stroke="black" points="316.5,-110 313,-100 309.5,-110 316.5,-110"/>
<text text-anchor="middle" x="328.5" y="-121" font-family="Times,serif" font-size="10.00">0 &#45;&gt; 0</text>
</g>
</g>
</svg>
