<svg width="714" height="234" viewBox="0 0 714 234" fill="none" xmlns="http://www.w3.org/2000/svg">
<rect width="714" height="234" fill="white"/>
<path d="M138 171.508L205.103 115" stroke="black" stroke-width="2"/>
<rect x="45" y="93" width="93" height="78" fill="#FFA3A3" stroke="black" stroke-width="2"/>
<line x1="108" y1="35" x2="206" y2="35" stroke="black" stroke-width="2"/>
<line x1="207" y1="34" x2="207" y2="116" stroke="black" stroke-width="2"/>
<path d="M100.08 55H99.0227C98.9602 54.696 98.8509 54.429 98.6946 54.1989C98.5412 53.9688 98.3537 53.7756 98.1321 53.6193C97.9134 53.4602 97.6705 53.3409 97.4034 53.2614C97.1364 53.1818 96.858 53.142 96.5682 53.142C96.0398 53.142 95.5611 53.2756 95.1321 53.5426C94.706 53.8097 94.3665 54.2031 94.1136 54.723C93.8636 55.2429 93.7386 55.8807 93.7386 56.6364C93.7386 57.392 93.8636 58.0298 94.1136 58.5497C94.3665 59.0696 94.706 59.4631 95.1321 59.7301C95.5611 59.9972 96.0398 60.1307 96.5682 60.1307C96.858 60.1307 97.1364 60.0909 97.4034 60.0114C97.6705 59.9318 97.9134 59.8139 98.1321 59.6577C98.3537 59.4986 98.5412 59.304 98.6946 59.0739C98.8509 58.8409 98.9602 58.5739 99.0227 58.2727H100.08C100 58.7187 99.8551 59.1179 99.6449 59.4702C99.4347 59.8224 99.1733 60.1222 98.8608 60.3693C98.5483 60.6136 98.1974 60.7997 97.8082 60.9276C97.4219 61.0554 97.0085 61.1193 96.5682 61.1193C95.8239 61.1193 95.1619 60.9375 94.5824 60.5739C94.0028 60.2102 93.5469 59.6932 93.2145 59.0227C92.8821 58.3523 92.7159 57.5568 92.7159 56.6364C92.7159 55.7159 92.8821 54.9205 93.2145 54.25C93.5469 53.5795 94.0028 53.0625 94.5824 52.6989C95.1619 52.3352 95.8239 52.1534 96.5682 52.1534C97.0085 52.1534 97.4219 52.2173 97.8082 52.3452C98.1974 52.473 98.5483 52.6605 98.8608 52.9077C99.1733 53.152 99.4347 53.4503 99.6449 53.8026C99.8551 54.152 100 54.5511 100.08 55ZM101.31 62.5V58.1364H102.213V62.5H101.31ZM101.77 57.5398C101.625 57.5398 101.5 57.4886 101.395 57.3864C101.293 57.2841 101.242 57.1648 101.242 57.0284C101.242 56.892 101.293 56.7727 101.395 56.6705C101.5 56.5682 101.625 56.517 101.77 56.517C101.907 56.517 102.026 56.5682 102.128 56.6705C102.23 56.7727 102.282 56.892 102.282 57.0284C102.282 57.1733 102.23 57.2955 102.128 57.3949C102.026 57.4915 101.907 57.5398 101.77 57.5398ZM104.111 55.8352V54.9148H109.361V55.8352H104.111ZM104.111 58.358V57.4375H109.361V58.358H104.111ZM114.544 61.1193C113.981 61.1193 113.48 61.0227 113.039 60.8295C112.602 60.6364 112.254 60.3679 111.995 60.0241C111.74 59.6776 111.6 59.2756 111.578 58.8182H112.652C112.674 59.0994 112.771 59.3423 112.941 59.5469C113.112 59.7486 113.335 59.9048 113.61 60.0156C113.886 60.1264 114.191 60.1818 114.527 60.1818C114.902 60.1818 115.234 60.1165 115.524 59.9858C115.814 59.8551 116.041 59.6733 116.206 59.4403C116.37 59.2074 116.453 58.9375 116.453 58.6307C116.453 58.3097 116.373 58.027 116.214 57.7827C116.055 57.5355 115.822 57.3423 115.515 57.2031C115.208 57.0639 114.833 56.9943 114.39 56.9943H113.691V56.0568H114.39C114.737 56.0568 115.041 55.9943 115.302 55.8693C115.566 55.7443 115.772 55.5682 115.92 55.3409C116.071 55.1136 116.146 54.8466 116.146 54.5398C116.146 54.2443 116.081 53.9872 115.95 53.7685C115.819 53.5497 115.635 53.3793 115.396 53.2571C115.16 53.1349 114.882 53.0739 114.561 53.0739C114.26 53.0739 113.975 53.1293 113.708 53.2401C113.444 53.348 113.228 53.5057 113.061 53.7131C112.893 53.9176 112.802 54.1648 112.788 54.4545H111.765C111.782 53.9972 111.92 53.5966 112.179 53.2528C112.437 52.9062 112.775 52.6364 113.193 52.4432C113.613 52.25 114.075 52.1534 114.578 52.1534C115.118 52.1534 115.581 52.2628 115.967 52.4815C116.353 52.6974 116.65 52.983 116.858 53.3381C117.065 53.6932 117.169 54.0767 117.169 54.4886C117.169 54.9801 117.039 55.3991 116.781 55.7457C116.525 56.0923 116.177 56.3324 115.737 56.4659V56.5341C116.288 56.625 116.718 56.8594 117.028 57.2372C117.338 57.6122 117.493 58.0767 117.493 58.6307C117.493 59.1051 117.363 59.5312 117.105 59.9091C116.849 60.2841 116.5 60.5795 116.056 60.7955C115.613 61.0114 115.109 61.1193 114.544 61.1193ZM119.235 61V60.233L122.116 57.0795C122.454 56.7102 122.733 56.3892 122.951 56.1165C123.17 55.8409 123.332 55.5824 123.437 55.3409C123.545 55.0966 123.599 54.8409 123.599 54.5739C123.599 54.267 123.525 54.0014 123.377 53.777C123.233 53.5526 123.034 53.3793 122.781 53.2571C122.528 53.1349 122.244 53.0739 121.929 53.0739C121.593 53.0739 121.301 53.1435 121.051 53.2827C120.804 53.419 120.612 53.6108 120.475 53.858C120.342 54.1051 120.275 54.3949 120.275 54.7273H119.27C119.27 54.2159 119.387 53.767 119.623 53.3807C119.859 52.9943 120.18 52.6932 120.586 52.4773C120.995 52.2614 121.454 52.1534 121.963 52.1534C122.474 52.1534 122.927 52.2614 123.322 52.4773C123.717 52.6932 124.027 52.9844 124.251 53.3509C124.475 53.7173 124.588 54.125 124.588 54.5739C124.588 54.8949 124.529 55.2088 124.413 55.5156C124.299 55.8196 124.1 56.1591 123.816 56.5341C123.535 56.9062 123.145 57.3608 122.645 57.8977L120.684 59.9943V60.0625H124.741V61H119.235Z" fill="black"/>
<path d="M50.0568 135V126.273H51.1136V130.602H51.2159L55.1364 126.273H56.517L52.8523 130.21L56.517 135H55.2386L52.2045 130.943L51.1136 132.17V135H50.0568ZM57.4034 137V131.764H58.1935V134.039H60.804V131.764H61.5966V137H60.804V134.717H58.1935V137H57.4034ZM63.7174 129.835V128.915H68.9674V129.835H63.7174ZM63.7174 132.358V131.438H68.9674V132.358H63.7174ZM74.1503 135.119C73.5878 135.119 73.0864 135.023 72.646 134.83C72.2085 134.636 71.8605 134.368 71.602 134.024C71.3463 133.678 71.2071 133.276 71.1844 132.818H72.2583C72.281 133.099 72.3776 133.342 72.548 133.547C72.7185 133.749 72.9415 133.905 73.2171 134.016C73.4926 134.126 73.798 134.182 74.1333 134.182C74.5083 134.182 74.8406 134.116 75.1304 133.986C75.4202 133.855 75.6475 133.673 75.8122 133.44C75.977 133.207 76.0594 132.938 76.0594 132.631C76.0594 132.31 75.9798 132.027 75.8208 131.783C75.6617 131.536 75.4287 131.342 75.1219 131.203C74.8151 131.064 74.4401 130.994 73.9969 130.994H73.298V130.057H73.9969C74.3435 130.057 74.6475 129.994 74.9088 129.869C75.173 129.744 75.379 129.568 75.5267 129.341C75.6773 129.114 75.7526 128.847 75.7526 128.54C75.7526 128.244 75.6872 127.987 75.5566 127.768C75.4259 127.55 75.2412 127.379 75.0026 127.257C74.7668 127.135 74.4884 127.074 74.1673 127.074C73.8662 127.074 73.5821 127.129 73.3151 127.24C73.0509 127.348 72.835 127.506 72.6673 127.713C72.4997 127.918 72.4088 128.165 72.3946 128.455H71.3719C71.3889 127.997 71.5267 127.597 71.7852 127.253C72.0438 126.906 72.3818 126.636 72.7995 126.443C73.2199 126.25 73.6816 126.153 74.1844 126.153C74.7242 126.153 75.1872 126.263 75.5736 126.482C75.96 126.697 76.2568 126.983 76.4642 127.338C76.6716 127.693 76.7753 128.077 76.7753 128.489C76.7753 128.98 76.646 129.399 76.3875 129.746C76.1318 130.092 75.7838 130.332 75.3435 130.466V130.534C75.8946 130.625 76.325 130.859 76.6347 131.237C76.9443 131.612 77.0992 132.077 77.0992 132.631C77.0992 133.105 76.9699 133.531 76.7114 133.909C76.4557 134.284 76.1063 134.58 75.6631 134.795C75.2199 135.011 74.7156 135.119 74.1503 135.119Z" fill="black"/>
<path d="M78.0568 105V96.2727H79.1136V100.602H79.2159L83.1364 96.2727H84.517L80.8523 100.21L84.517 105H83.2386L80.2045 100.943L79.1136 102.17V105H78.0568ZM86.4287 107L84.9764 101.764H85.8074L86.8276 105.819H86.8761L87.9372 101.764H88.7605L89.8216 105.821H89.8702L90.8878 101.764H91.7213L90.2665 107H89.4713L88.3693 103.078H88.3284L87.2264 107H86.4287ZM93.412 99.8352V98.9148H98.662V99.8352H93.412ZM93.412 102.358V101.438H98.662V102.358H93.412ZM103.845 105.119C103.282 105.119 102.781 105.023 102.341 104.83C101.903 104.636 101.555 104.368 101.297 104.024C101.041 103.678 100.902 103.276 100.879 102.818H101.953C101.976 103.099 102.072 103.342 102.243 103.547C102.413 103.749 102.636 103.905 102.912 104.016C103.187 104.126 103.493 104.182 103.828 104.182C104.203 104.182 104.535 104.116 104.825 103.986C105.115 103.855 105.342 103.673 105.507 103.44C105.672 103.207 105.754 102.938 105.754 102.631C105.754 102.31 105.674 102.027 105.515 101.783C105.356 101.536 105.123 101.342 104.816 101.203C104.51 101.064 104.135 100.994 103.691 100.994H102.993V100.057H103.691C104.038 100.057 104.342 99.9943 104.603 99.8693C104.868 99.7443 105.074 99.5682 105.221 99.3409C105.372 99.1136 105.447 98.8466 105.447 98.5398C105.447 98.2443 105.382 97.9872 105.251 97.7685C105.12 97.5497 104.936 97.3793 104.697 97.2571C104.461 97.1349 104.183 97.0739 103.862 97.0739C103.561 97.0739 103.277 97.1293 103.01 97.2401C102.745 97.348 102.529 97.5057 102.362 97.7131C102.194 97.9176 102.103 98.1648 102.089 98.4545H101.066C101.083 97.9972 101.221 97.5966 101.48 97.2528C101.738 96.9062 102.076 96.6364 102.494 96.4432C102.914 96.25 103.376 96.1534 103.879 96.1534C104.419 96.1534 104.882 96.2628 105.268 96.4815C105.654 96.6974 105.951 96.983 106.159 97.3381C106.366 97.6932 106.47 98.0767 106.47 98.4886C106.47 98.9801 106.341 99.3991 106.082 99.7457C105.826 100.092 105.478 100.332 105.038 100.466V100.534C105.589 100.625 106.02 100.859 106.329 101.237C106.639 101.612 106.794 102.077 106.794 102.631C106.794 103.105 106.664 103.531 106.406 103.909C106.15 104.284 105.801 104.58 105.358 104.795C104.914 105.011 104.41 105.119 103.845 105.119Z" fill="black"/>
<line x1="137.357" y1="93.2345" x2="206.357" y2="35.2345" stroke="black" stroke-width="2"/>
<line x1="44.6279" y1="93.2595" x2="109.122" y2="34.7191" stroke="black" stroke-width="2"/>
<path d="M272.867 166.348L342.75 108.062" stroke="black" stroke-width="2"/>
<rect x="180" y="88" width="93" height="78" fill="#FFE0A3" stroke="black" stroke-width="2"/>
<line x1="243" y1="30" x2="341" y2="30" stroke="black" stroke-width="2"/>
<line x1="342" y1="29" x2="342" y2="111" stroke="black" stroke-width="2"/>
<path d="M229.08 55H228.023C227.96 54.696 227.851 54.429 227.695 54.1989C227.541 53.9688 227.354 53.7756 227.132 53.6193C226.913 53.4602 226.67 53.3409 226.403 53.2614C226.136 53.1818 225.858 53.142 225.568 53.142C225.04 53.142 224.561 53.2756 224.132 53.5426C223.706 53.8097 223.366 54.2031 223.114 54.723C222.864 55.2429 222.739 55.8807 222.739 56.6364C222.739 57.392 222.864 58.0298 223.114 58.5497C223.366 59.0696 223.706 59.4631 224.132 59.7301C224.561 59.9972 225.04 60.1307 225.568 60.1307C225.858 60.1307 226.136 60.0909 226.403 60.0114C226.67 59.9318 226.913 59.8139 227.132 59.6577C227.354 59.4986 227.541 59.304 227.695 59.0739C227.851 58.8409 227.96 58.5739 228.023 58.2727H229.08C229 58.7187 228.855 59.1179 228.645 59.4702C228.435 59.8224 228.173 60.1222 227.861 60.3693C227.548 60.6136 227.197 60.7997 226.808 60.9276C226.422 61.0554 226.009 61.1193 225.568 61.1193C224.824 61.1193 224.162 60.9375 223.582 60.5739C223.003 60.2102 222.547 59.6932 222.214 59.0227C221.882 58.3523 221.716 57.5568 221.716 56.6364C221.716 55.7159 221.882 54.9205 222.214 54.25C222.547 53.5795 223.003 53.0625 223.582 52.6989C224.162 52.3352 224.824 52.1534 225.568 52.1534C226.009 52.1534 226.422 52.2173 226.808 52.3452C227.197 52.473 227.548 52.6605 227.861 52.9077C228.173 53.152 228.435 53.4503 228.645 53.8026C228.855 54.152 229 54.5511 229.08 55ZM230.31 62.5V58.1364H231.213V62.5H230.31ZM230.77 57.5398C230.625 57.5398 230.5 57.4886 230.395 57.3864C230.293 57.2841 230.242 57.1648 230.242 57.0284C230.242 56.892 230.293 56.7727 230.395 56.6705C230.5 56.5682 230.625 56.517 230.77 56.517C230.907 56.517 231.026 56.5682 231.128 56.6705C231.23 56.7727 231.282 56.892 231.282 57.0284C231.282 57.1733 231.23 57.2955 231.128 57.3949C231.026 57.4915 230.907 57.5398 230.77 57.5398ZM233.111 55.8352V54.9148H238.361V55.8352H233.111ZM233.111 58.358V57.4375H238.361V58.358H233.111ZM243.544 61.1193C242.981 61.1193 242.48 61.0227 242.039 60.8295C241.602 60.6364 241.254 60.3679 240.995 60.0241C240.74 59.6776 240.6 59.2756 240.578 58.8182H241.652C241.674 59.0994 241.771 59.3423 241.941 59.5469C242.112 59.7486 242.335 59.9048 242.61 60.0156C242.886 60.1264 243.191 60.1818 243.527 60.1818C243.902 60.1818 244.234 60.1165 244.524 59.9858C244.814 59.8551 245.041 59.6733 245.206 59.4403C245.37 59.2074 245.453 58.9375 245.453 58.6307C245.453 58.3097 245.373 58.027 245.214 57.7827C245.055 57.5355 244.822 57.3423 244.515 57.2031C244.208 57.0639 243.833 56.9943 243.39 56.9943H242.691V56.0568H243.39C243.737 56.0568 244.041 55.9943 244.302 55.8693C244.566 55.7443 244.772 55.5682 244.92 55.3409C245.071 55.1136 245.146 54.8466 245.146 54.5398C245.146 54.2443 245.081 53.9872 244.95 53.7685C244.819 53.5497 244.635 53.3793 244.396 53.2571C244.16 53.1349 243.882 53.0739 243.561 53.0739C243.26 53.0739 242.975 53.1293 242.708 53.2401C242.444 53.348 242.228 53.5057 242.061 53.7131C241.893 53.9176 241.802 54.1648 241.788 54.4545H240.765C240.782 53.9972 240.92 53.5966 241.179 53.2528C241.437 52.9062 241.775 52.6364 242.193 52.4432C242.613 52.25 243.075 52.1534 243.578 52.1534C244.118 52.1534 244.581 52.2628 244.967 52.4815C245.353 52.6974 245.65 52.983 245.858 53.3381C246.065 53.6932 246.169 54.0767 246.169 54.4886C246.169 54.9801 246.039 55.3991 245.781 55.7457C245.525 56.0923 245.177 56.3324 244.737 56.4659V56.5341C245.288 56.625 245.718 56.8594 246.028 57.2372C246.338 57.6122 246.493 58.0767 246.493 58.6307C246.493 59.1051 246.363 59.5312 246.105 59.9091C245.849 60.2841 245.5 60.5795 245.056 60.7955C244.613 61.0114 244.109 61.1193 243.544 61.1193ZM248.235 61V60.233L251.116 57.0795C251.454 56.7102 251.733 56.3892 251.951 56.1165C252.17 55.8409 252.332 55.5824 252.437 55.3409C252.545 55.0966 252.599 54.8409 252.599 54.5739C252.599 54.267 252.525 54.0014 252.377 53.777C252.233 53.5526 252.034 53.3793 251.781 53.2571C251.528 53.1349 251.244 53.0739 250.929 53.0739C250.593 53.0739 250.301 53.1435 250.051 53.2827C249.804 53.419 249.612 53.6108 249.475 53.858C249.342 54.1051 249.275 54.3949 249.275 54.7273H248.27C248.27 54.2159 248.387 53.767 248.623 53.3807C248.859 52.9943 249.18 52.6932 249.586 52.4773C249.995 52.2614 250.454 52.1534 250.963 52.1534C251.474 52.1534 251.927 52.2614 252.322 52.4773C252.717 52.6932 253.027 52.9844 253.251 53.3509C253.475 53.7173 253.588 54.125 253.588 54.5739C253.588 54.8949 253.529 55.2088 253.413 55.5156C253.299 55.8196 253.1 56.1591 252.816 56.5341C252.535 56.9062 252.145 57.3608 251.645 57.8977L249.684 59.9943V60.0625H253.741V61H248.235Z" fill="black"/>
<path d="M185.057 130V121.273H186.114V125.602H186.216L190.136 121.273H191.517L187.852 125.21L191.517 130H190.239L187.205 125.943L186.114 127.17V130H185.057ZM192.403 132V126.764H193.193V129.039H195.804V126.764H196.597V132H195.804V129.717H193.193V132H192.403ZM198.717 124.835V123.915H203.967V124.835H198.717ZM198.717 127.358V126.438H203.967V127.358H198.717ZM209.15 130.119C208.588 130.119 208.086 130.023 207.646 129.83C207.209 129.636 206.861 129.368 206.602 129.024C206.346 128.678 206.207 128.276 206.184 127.818H207.258C207.281 128.099 207.378 128.342 207.548 128.547C207.718 128.749 207.941 128.905 208.217 129.016C208.493 129.126 208.798 129.182 209.133 129.182C209.508 129.182 209.841 129.116 210.13 128.986C210.42 128.855 210.647 128.673 210.812 128.44C210.977 128.207 211.059 127.938 211.059 127.631C211.059 127.31 210.98 127.027 210.821 126.783C210.662 126.536 210.429 126.342 210.122 126.203C209.815 126.064 209.44 125.994 208.997 125.994H208.298V125.057H208.997C209.343 125.057 209.647 124.994 209.909 124.869C210.173 124.744 210.379 124.568 210.527 124.341C210.677 124.114 210.753 123.847 210.753 123.54C210.753 123.244 210.687 122.987 210.557 122.768C210.426 122.55 210.241 122.379 210.003 122.257C209.767 122.135 209.488 122.074 209.167 122.074C208.866 122.074 208.582 122.129 208.315 122.24C208.051 122.348 207.835 122.506 207.667 122.713C207.5 122.918 207.409 123.165 207.395 123.455H206.372C206.389 122.997 206.527 122.597 206.785 122.253C207.044 121.906 207.382 121.636 207.799 121.443C208.22 121.25 208.682 121.153 209.184 121.153C209.724 121.153 210.187 121.263 210.574 121.482C210.96 121.697 211.257 121.983 211.464 122.338C211.672 122.693 211.775 123.077 211.775 123.489C211.775 123.98 211.646 124.399 211.388 124.746C211.132 125.092 210.784 125.332 210.343 125.466V125.534C210.895 125.625 211.325 125.859 211.635 126.237C211.944 126.612 212.099 127.077 212.099 127.631C212.099 128.105 211.97 128.531 211.711 128.909C211.456 129.284 211.106 129.58 210.663 129.795C210.22 130.011 209.716 130.119 209.15 130.119Z" fill="black"/>
<path d="M213.057 100V91.2727H214.114V95.6023H214.216L218.136 91.2727H219.517L215.852 95.2102L219.517 100H218.239L215.205 95.9432L214.114 97.1705V100H213.057ZM221.429 102L219.976 96.7636H220.807L221.828 100.819H221.876L222.937 96.7636H223.761L224.822 100.821H224.87L225.888 96.7636H226.721L225.266 102H224.471L223.369 98.0778H223.328L222.226 102H221.429ZM228.412 94.8352V93.9148H233.662V94.8352H228.412ZM228.412 97.358V96.4375H233.662V97.358H228.412ZM238.845 100.119C238.282 100.119 237.781 100.023 237.341 99.8295C236.903 99.6364 236.555 99.3679 236.297 99.0241C236.041 98.6776 235.902 98.2756 235.879 97.8182H236.953C236.976 98.0994 237.072 98.3423 237.243 98.5469C237.413 98.7486 237.636 98.9048 237.912 99.0156C238.187 99.1264 238.493 99.1818 238.828 99.1818C239.203 99.1818 239.535 99.1165 239.825 98.9858C240.115 98.8551 240.342 98.6733 240.507 98.4403C240.672 98.2074 240.754 97.9375 240.754 97.6307C240.754 97.3097 240.674 97.027 240.515 96.7827C240.356 96.5355 240.123 96.3423 239.816 96.2031C239.51 96.0639 239.135 95.9943 238.691 95.9943H237.993V95.0568H238.691C239.038 95.0568 239.342 94.9943 239.603 94.8693C239.868 94.7443 240.074 94.5682 240.221 94.3409C240.372 94.1136 240.447 93.8466 240.447 93.5398C240.447 93.2443 240.382 92.9872 240.251 92.7685C240.12 92.5497 239.936 92.3793 239.697 92.2571C239.461 92.1349 239.183 92.0739 238.862 92.0739C238.561 92.0739 238.277 92.1293 238.01 92.2401C237.745 92.348 237.529 92.5057 237.362 92.7131C237.194 92.9176 237.103 93.1648 237.089 93.4545H236.066C236.083 92.9972 236.221 92.5966 236.48 92.2528C236.738 91.9062 237.076 91.6364 237.494 91.4432C237.914 91.25 238.376 91.1534 238.879 91.1534C239.419 91.1534 239.882 91.2628 240.268 91.4815C240.654 91.6974 240.951 91.983 241.159 92.3381C241.366 92.6932 241.47 93.0767 241.47 93.4886C241.47 93.9801 241.341 94.3991 241.082 94.7457C240.826 95.0923 240.478 95.3324 240.038 95.4659V95.5341C240.589 95.625 241.02 95.8594 241.329 96.2372C241.639 96.6122 241.794 97.0767 241.794 97.6307C241.794 98.1051 241.664 98.5312 241.406 98.9091C241.15 99.2841 240.801 99.5795 240.358 99.7955C239.914 100.011 239.41 100.119 238.845 100.119Z" fill="black"/>
<line x1="272.357" y1="88.2345" x2="341.357" y2="30.2345" stroke="black" stroke-width="2"/>
<line x1="179.628" y1="88.2595" x2="244.122" y2="29.7191" stroke="black" stroke-width="2"/>
<rect x="206" y="66" width="3" height="21" fill="white"/>
<rect x="213.606" y="59" width="2.29558" height="21" transform="rotate(48 213.606 59)" fill="white"/>
<path d="M406.867 165.348L476.75 107.062" stroke="black" stroke-width="2"/>
<rect x="314" y="87" width="93" height="78" fill="#D1FFA3" stroke="black" stroke-width="2"/>
<line x1="377" y1="29" x2="475" y2="29" stroke="black" stroke-width="2"/>
<line x1="476" y1="28" x2="476" y2="110" stroke="black" stroke-width="2"/>
<path d="M363.08 54H362.023C361.96 53.696 361.851 53.429 361.695 53.1989C361.541 52.9688 361.354 52.7756 361.132 52.6193C360.913 52.4602 360.67 52.3409 360.403 52.2614C360.136 52.1818 359.858 52.142 359.568 52.142C359.04 52.142 358.561 52.2756 358.132 52.5426C357.706 52.8097 357.366 53.2031 357.114 53.723C356.864 54.2429 356.739 54.8807 356.739 55.6364C356.739 56.392 356.864 57.0298 357.114 57.5497C357.366 58.0696 357.706 58.4631 358.132 58.7301C358.561 58.9972 359.04 59.1307 359.568 59.1307C359.858 59.1307 360.136 59.0909 360.403 59.0114C360.67 58.9318 360.913 58.8139 361.132 58.6577C361.354 58.4986 361.541 58.304 361.695 58.0739C361.851 57.8409 361.96 57.5739 362.023 57.2727H363.08C363 57.7187 362.855 58.1179 362.645 58.4702C362.435 58.8224 362.173 59.1222 361.861 59.3693C361.548 59.6136 361.197 59.7997 360.808 59.9276C360.422 60.0554 360.009 60.1193 359.568 60.1193C358.824 60.1193 358.162 59.9375 357.582 59.5739C357.003 59.2102 356.547 58.6932 356.214 58.0227C355.882 57.3523 355.716 56.5568 355.716 55.6364C355.716 54.7159 355.882 53.9205 356.214 53.25C356.547 52.5795 357.003 52.0625 357.582 51.6989C358.162 51.3352 358.824 51.1534 359.568 51.1534C360.009 51.1534 360.422 51.2173 360.808 51.3452C361.197 51.473 361.548 51.6605 361.861 51.9077C362.173 52.152 362.435 52.4503 362.645 52.8026C362.855 53.152 363 53.5511 363.08 54ZM364.31 61.5V57.1364H365.213V61.5H364.31ZM364.77 56.5398C364.625 56.5398 364.5 56.4886 364.395 56.3864C364.293 56.2841 364.242 56.1648 364.242 56.0284C364.242 55.892 364.293 55.7727 364.395 55.6705C364.5 55.5682 364.625 55.517 364.77 55.517C364.907 55.517 365.026 55.5682 365.128 55.6705C365.23 55.7727 365.282 55.892 365.282 56.0284C365.282 56.1733 365.23 56.2955 365.128 56.3949C365.026 56.4915 364.907 56.5398 364.77 56.5398ZM367.111 54.8352V53.9148H372.361V54.8352H367.111ZM367.111 57.358V56.4375H372.361V57.358H367.111ZM377.544 60.1193C376.981 60.1193 376.48 60.0227 376.039 59.8295C375.602 59.6364 375.254 59.3679 374.995 59.0241C374.74 58.6776 374.6 58.2756 374.578 57.8182H375.652C375.674 58.0994 375.771 58.3423 375.941 58.5469C376.112 58.7486 376.335 58.9048 376.61 59.0156C376.886 59.1264 377.191 59.1818 377.527 59.1818C377.902 59.1818 378.234 59.1165 378.524 58.9858C378.814 58.8551 379.041 58.6733 379.206 58.4403C379.37 58.2074 379.453 57.9375 379.453 57.6307C379.453 57.3097 379.373 57.027 379.214 56.7827C379.055 56.5355 378.822 56.3423 378.515 56.2031C378.208 56.0639 377.833 55.9943 377.39 55.9943H376.691V55.0568H377.39C377.737 55.0568 378.041 54.9943 378.302 54.8693C378.566 54.7443 378.772 54.5682 378.92 54.3409C379.071 54.1136 379.146 53.8466 379.146 53.5398C379.146 53.2443 379.081 52.9872 378.95 52.7685C378.819 52.5497 378.635 52.3793 378.396 52.2571C378.16 52.1349 377.882 52.0739 377.561 52.0739C377.26 52.0739 376.975 52.1293 376.708 52.2401C376.444 52.348 376.228 52.5057 376.061 52.7131C375.893 52.9176 375.802 53.1648 375.788 53.4545H374.765C374.782 52.9972 374.92 52.5966 375.179 52.2528C375.437 51.9062 375.775 51.6364 376.193 51.4432C376.613 51.25 377.075 51.1534 377.578 51.1534C378.118 51.1534 378.581 51.2628 378.967 51.4815C379.353 51.6974 379.65 51.983 379.858 52.3381C380.065 52.6932 380.169 53.0767 380.169 53.4886C380.169 53.9801 380.039 54.3991 379.781 54.7457C379.525 55.0923 379.177 55.3324 378.737 55.4659V55.5341C379.288 55.625 379.718 55.8594 380.028 56.2372C380.338 56.6122 380.493 57.0767 380.493 57.6307C380.493 58.1051 380.363 58.5312 380.105 58.9091C379.849 59.2841 379.5 59.5795 379.056 59.7955C378.613 60.0114 378.109 60.1193 377.544 60.1193ZM382.235 60V59.233L385.116 56.0795C385.454 55.7102 385.733 55.3892 385.951 55.1165C386.17 54.8409 386.332 54.5824 386.437 54.3409C386.545 54.0966 386.599 53.8409 386.599 53.5739C386.599 53.267 386.525 53.0014 386.377 52.777C386.233 52.5526 386.034 52.3793 385.781 52.2571C385.528 52.1349 385.244 52.0739 384.929 52.0739C384.593 52.0739 384.301 52.1435 384.051 52.2827C383.804 52.419 383.612 52.6108 383.475 52.858C383.342 53.1051 383.275 53.3949 383.275 53.7273H382.27C382.27 53.2159 382.387 52.767 382.623 52.3807C382.859 51.9943 383.18 51.6932 383.586 51.4773C383.995 51.2614 384.454 51.1534 384.963 51.1534C385.474 51.1534 385.927 51.2614 386.322 51.4773C386.717 51.6932 387.027 51.9844 387.251 52.3509C387.475 52.7173 387.588 53.125 387.588 53.5739C387.588 53.8949 387.529 54.2088 387.413 54.5156C387.299 54.8196 387.1 55.1591 386.816 55.5341C386.535 55.9062 386.145 56.3608 385.645 56.8977L383.684 58.9943V59.0625H387.741V60H382.235Z" fill="black"/>
<path d="M319.057 129V120.273H320.114V124.602H320.216L324.136 120.273H325.517L321.852 124.21L325.517 129H324.239L321.205 124.943L320.114 126.17V129H319.057ZM326.403 131V125.764H327.193V128.039H329.804V125.764H330.597V131H329.804V128.717H327.193V131H326.403ZM332.717 123.835V122.915H337.967V123.835H332.717ZM332.717 126.358V125.438H337.967V126.358H332.717ZM343.15 129.119C342.588 129.119 342.086 129.023 341.646 128.83C341.209 128.636 340.861 128.368 340.602 128.024C340.346 127.678 340.207 127.276 340.184 126.818H341.258C341.281 127.099 341.378 127.342 341.548 127.547C341.718 127.749 341.941 127.905 342.217 128.016C342.493 128.126 342.798 128.182 343.133 128.182C343.508 128.182 343.841 128.116 344.13 127.986C344.42 127.855 344.647 127.673 344.812 127.44C344.977 127.207 345.059 126.938 345.059 126.631C345.059 126.31 344.98 126.027 344.821 125.783C344.662 125.536 344.429 125.342 344.122 125.203C343.815 125.064 343.44 124.994 342.997 124.994H342.298V124.057H342.997C343.343 124.057 343.647 123.994 343.909 123.869C344.173 123.744 344.379 123.568 344.527 123.341C344.677 123.114 344.753 122.847 344.753 122.54C344.753 122.244 344.687 121.987 344.557 121.768C344.426 121.55 344.241 121.379 344.003 121.257C343.767 121.135 343.488 121.074 343.167 121.074C342.866 121.074 342.582 121.129 342.315 121.24C342.051 121.348 341.835 121.506 341.667 121.713C341.5 121.918 341.409 122.165 341.395 122.455H340.372C340.389 121.997 340.527 121.597 340.785 121.253C341.044 120.906 341.382 120.636 341.799 120.443C342.22 120.25 342.682 120.153 343.184 120.153C343.724 120.153 344.187 120.263 344.574 120.482C344.96 120.697 345.257 120.983 345.464 121.338C345.672 121.693 345.775 122.077 345.775 122.489C345.775 122.98 345.646 123.399 345.388 123.746C345.132 124.092 344.784 124.332 344.343 124.466V124.534C344.895 124.625 345.325 124.859 345.635 125.237C345.944 125.612 346.099 126.077 346.099 126.631C346.099 127.105 345.97 127.531 345.711 127.909C345.456 128.284 345.106 128.58 344.663 128.795C344.22 129.011 343.716 129.119 343.15 129.119Z" fill="black"/>
<path d="M347.057 99V90.2727H348.114V94.6023H348.216L352.136 90.2727H353.517L349.852 94.2102L353.517 99H352.239L349.205 94.9432L348.114 96.1705V99H347.057ZM355.429 101L353.976 95.7636H354.807L355.828 99.8187H355.876L356.937 95.7636H357.761L358.822 99.8213H358.87L359.888 95.7636H360.721L359.266 101H358.471L357.369 97.0778H357.328L356.226 101H355.429ZM362.412 93.8352V92.9148H367.662V93.8352H362.412ZM362.412 96.358V95.4375H367.662V96.358H362.412ZM372.845 99.1193C372.282 99.1193 371.781 99.0227 371.341 98.8295C370.903 98.6364 370.555 98.3679 370.297 98.0241C370.041 97.6776 369.902 97.2756 369.879 96.8182H370.953C370.976 97.0994 371.072 97.3423 371.243 97.5469C371.413 97.7486 371.636 97.9048 371.912 98.0156C372.187 98.1264 372.493 98.1818 372.828 98.1818C373.203 98.1818 373.535 98.1165 373.825 97.9858C374.115 97.8551 374.342 97.6733 374.507 97.4403C374.672 97.2074 374.754 96.9375 374.754 96.6307C374.754 96.3097 374.674 96.027 374.515 95.7827C374.356 95.5355 374.123 95.3423 373.816 95.2031C373.51 95.0639 373.135 94.9943 372.691 94.9943H371.993V94.0568H372.691C373.038 94.0568 373.342 93.9943 373.603 93.8693C373.868 93.7443 374.074 93.5682 374.221 93.3409C374.372 93.1136 374.447 92.8466 374.447 92.5398C374.447 92.2443 374.382 91.9872 374.251 91.7685C374.12 91.5497 373.936 91.3793 373.697 91.2571C373.461 91.1349 373.183 91.0739 372.862 91.0739C372.561 91.0739 372.277 91.1293 372.01 91.2401C371.745 91.348 371.529 91.5057 371.362 91.7131C371.194 91.9176 371.103 92.1648 371.089 92.4545H370.066C370.083 91.9972 370.221 91.5966 370.48 91.2528C370.738 90.9062 371.076 90.6364 371.494 90.4432C371.914 90.25 372.376 90.1534 372.879 90.1534C373.419 90.1534 373.882 90.2628 374.268 90.4815C374.654 90.6974 374.951 90.983 375.159 91.3381C375.366 91.6932 375.47 92.0767 375.47 92.4886C375.47 92.9801 375.341 93.3991 375.082 93.7457C374.826 94.0923 374.478 94.3324 374.038 94.4659V94.5341C374.589 94.625 375.02 94.8594 375.329 95.2372C375.639 95.6122 375.794 96.0767 375.794 96.6307C375.794 97.1051 375.664 97.5312 375.406 97.9091C375.15 98.2841 374.801 98.5795 374.358 98.7955C373.914 99.0114 373.41 99.1193 372.845 99.1193Z" fill="black"/>
<line x1="406.357" y1="87.2345" x2="475.357" y2="29.2345" stroke="black" stroke-width="2"/>
<line x1="313.628" y1="87.2595" x2="378.122" y2="28.7191" stroke="black" stroke-width="2"/>
<rect x="340" y="65" width="3" height="21" fill="white"/>
<rect x="347.606" y="58" width="2.29558" height="21" transform="rotate(48 347.606 58)" fill="white"/>
<path d="M76.0795 178H75.0227C74.9602 177.696 74.8509 177.429 74.6946 177.199C74.5412 176.969 74.3537 176.776 74.1321 176.619C73.9134 176.46 73.6705 176.341 73.4034 176.261C73.1364 176.182 72.858 176.142 72.5682 176.142C72.0398 176.142 71.5611 176.276 71.1321 176.543C70.706 176.81 70.3665 177.203 70.1136 177.723C69.8636 178.243 69.7386 178.881 69.7386 179.636C69.7386 180.392 69.8636 181.03 70.1136 181.55C70.3665 182.07 70.706 182.463 71.1321 182.73C71.5611 182.997 72.0398 183.131 72.5682 183.131C72.858 183.131 73.1364 183.091 73.4034 183.011C73.6705 182.932 73.9134 182.814 74.1321 182.658C74.3537 182.499 74.5412 182.304 74.6946 182.074C74.8509 181.841 74.9602 181.574 75.0227 181.273H76.0795C76 181.719 75.8551 182.118 75.6449 182.47C75.4347 182.822 75.1733 183.122 74.8608 183.369C74.5483 183.614 74.1974 183.8 73.8082 183.928C73.4219 184.055 73.0085 184.119 72.5682 184.119C71.8239 184.119 71.1619 183.938 70.5824 183.574C70.0028 183.21 69.5469 182.693 69.2145 182.023C68.8821 181.352 68.7159 180.557 68.7159 179.636C68.7159 178.716 68.8821 177.92 69.2145 177.25C69.5469 176.58 70.0028 176.062 70.5824 175.699C71.1619 175.335 71.8239 175.153 72.5682 175.153C73.0085 175.153 73.4219 175.217 73.8082 175.345C74.1974 175.473 74.5483 175.661 74.8608 175.908C75.1733 176.152 75.4347 176.45 75.6449 176.803C75.8551 177.152 76 177.551 76.0795 178ZM81.8543 183.382C81.8543 183.941 81.7521 184.422 81.5475 184.824C81.343 185.224 81.0626 185.533 80.7063 185.749C80.3518 185.964 79.9487 186.072 79.4969 186.072C79.0435 186.072 78.6387 185.964 78.2825 185.749C77.9279 185.533 77.6484 185.224 77.4438 184.821C77.2393 184.419 77.137 183.939 77.137 183.382C77.137 182.823 77.2393 182.343 77.4438 181.942C77.6484 181.54 77.9279 181.232 78.2825 181.017C78.6387 180.8 79.0435 180.692 79.4969 180.692C79.9487 180.692 80.3518 180.8 80.7063 181.017C81.0626 181.232 81.343 181.54 81.5475 181.942C81.7521 182.343 81.8543 182.823 81.8543 183.382ZM81.0719 183.382C81.0719 182.956 81.0029 182.597 80.8648 182.305C80.7285 182.012 80.541 181.791 80.3023 181.641C80.0654 181.489 79.7969 181.413 79.4969 181.413C79.1952 181.413 78.9259 181.489 78.689 181.641C78.4521 181.791 78.2646 182.012 78.1265 182.305C77.9901 182.597 77.9219 182.956 77.9219 183.382C77.9219 183.808 77.9901 184.168 78.1265 184.461C78.2646 184.752 78.4521 184.974 78.689 185.126C78.9259 185.276 79.1952 185.351 79.4969 185.351C79.7969 185.351 80.0654 185.276 80.3023 185.126C80.541 184.974 80.7285 184.752 80.8648 184.461C81.0029 184.168 81.0719 183.808 81.0719 183.382ZM83.8096 178.835V177.915H89.0596V178.835H83.8096ZM83.8096 181.358V180.438H89.0596V181.358H83.8096ZM94.1402 184.119C93.4982 184.119 92.9513 183.945 92.4996 183.595C92.0479 183.243 91.7027 182.733 91.4641 182.065C91.2254 181.395 91.1061 180.585 91.1061 179.636C91.1061 178.693 91.2254 177.888 91.4641 177.22C91.7056 176.55 92.0522 176.038 92.5039 175.686C92.9584 175.331 93.5039 175.153 94.1402 175.153C94.7766 175.153 95.3206 175.331 95.7723 175.686C96.2269 176.038 96.5735 176.55 96.8121 177.22C97.0536 177.888 97.1743 178.693 97.1743 179.636C97.1743 180.585 97.055 181.395 96.8164 182.065C96.5777 182.733 96.2325 183.243 95.7808 183.595C95.3291 183.945 94.7823 184.119 94.1402 184.119ZM94.1402 183.182C94.7766 183.182 95.2709 182.875 95.6232 182.261C95.9754 181.648 96.1516 180.773 96.1516 179.636C96.1516 178.881 96.0706 178.237 95.9087 177.706C95.7496 177.175 95.5195 176.77 95.2183 176.491C94.92 176.213 94.5607 176.074 94.1402 176.074C93.5095 176.074 93.0166 176.385 92.6615 177.007C92.3064 177.626 92.1289 178.503 92.1289 179.636C92.1289 180.392 92.2084 181.034 92.3675 181.562C92.5266 182.091 92.7553 182.493 93.0536 182.768C93.3547 183.044 93.7169 183.182 94.1402 183.182Z" fill="black"/>
<path d="M217.08 178H216.023C215.96 177.696 215.851 177.429 215.695 177.199C215.541 176.969 215.354 176.776 215.132 176.619C214.913 176.46 214.67 176.341 214.403 176.261C214.136 176.182 213.858 176.142 213.568 176.142C213.04 176.142 212.561 176.276 212.132 176.543C211.706 176.81 211.366 177.203 211.114 177.723C210.864 178.243 210.739 178.881 210.739 179.636C210.739 180.392 210.864 181.03 211.114 181.55C211.366 182.07 211.706 182.463 212.132 182.73C212.561 182.997 213.04 183.131 213.568 183.131C213.858 183.131 214.136 183.091 214.403 183.011C214.67 182.932 214.913 182.814 215.132 182.658C215.354 182.499 215.541 182.304 215.695 182.074C215.851 181.841 215.96 181.574 216.023 181.273H217.08C217 181.719 216.855 182.118 216.645 182.47C216.435 182.822 216.173 183.122 215.861 183.369C215.548 183.614 215.197 183.8 214.808 183.928C214.422 184.055 214.009 184.119 213.568 184.119C212.824 184.119 212.162 183.938 211.582 183.574C211.003 183.21 210.547 182.693 210.214 182.023C209.882 181.352 209.716 180.557 209.716 179.636C209.716 178.716 209.882 177.92 210.214 177.25C210.547 176.58 211.003 176.062 211.582 175.699C212.162 175.335 212.824 175.153 213.568 175.153C214.009 175.153 214.422 175.217 214.808 175.345C215.197 175.473 215.548 175.661 215.861 175.908C216.173 176.152 216.435 176.45 216.645 176.803C216.855 177.152 217 177.551 217.08 178ZM222.854 183.382C222.854 183.941 222.752 184.422 222.548 184.824C222.343 185.224 222.063 185.533 221.706 185.749C221.352 185.964 220.949 186.072 220.497 186.072C220.044 186.072 219.639 185.964 219.282 185.749C218.928 185.533 218.648 185.224 218.444 184.821C218.239 184.419 218.137 183.939 218.137 183.382C218.137 182.823 218.239 182.343 218.444 181.942C218.648 181.54 218.928 181.232 219.282 181.017C219.639 180.8 220.044 180.692 220.497 180.692C220.949 180.692 221.352 180.8 221.706 181.017C222.063 181.232 222.343 181.54 222.548 181.942C222.752 182.343 222.854 182.823 222.854 183.382ZM222.072 183.382C222.072 182.956 222.003 182.597 221.865 182.305C221.728 182.012 221.541 181.791 221.302 181.641C221.065 181.489 220.797 181.413 220.497 181.413C220.195 181.413 219.926 181.489 219.689 181.641C219.452 181.791 219.265 182.012 219.126 182.305C218.99 182.597 218.922 182.956 218.922 183.382C218.922 183.808 218.99 184.168 219.126 184.461C219.265 184.752 219.452 184.974 219.689 185.126C219.926 185.276 220.195 185.351 220.497 185.351C220.797 185.351 221.065 185.276 221.302 185.126C221.541 184.974 221.728 184.752 221.865 184.461C222.003 184.168 222.072 183.808 222.072 183.382ZM224.81 178.835V177.915H230.06V178.835H224.81ZM224.81 181.358V180.438H230.06V181.358H224.81ZM235.362 175.273V184H234.305V176.381H234.254L232.123 177.795V176.722L234.305 175.273H235.362Z" fill="black"/>
<path d="M355.08 178H354.023C353.96 177.696 353.851 177.429 353.695 177.199C353.541 176.969 353.354 176.776 353.132 176.619C352.913 176.46 352.67 176.341 352.403 176.261C352.136 176.182 351.858 176.142 351.568 176.142C351.04 176.142 350.561 176.276 350.132 176.543C349.706 176.81 349.366 177.203 349.114 177.723C348.864 178.243 348.739 178.881 348.739 179.636C348.739 180.392 348.864 181.03 349.114 181.55C349.366 182.07 349.706 182.463 350.132 182.73C350.561 182.997 351.04 183.131 351.568 183.131C351.858 183.131 352.136 183.091 352.403 183.011C352.67 182.932 352.913 182.814 353.132 182.658C353.354 182.499 353.541 182.304 353.695 182.074C353.851 181.841 353.96 181.574 354.023 181.273H355.08C355 181.719 354.855 182.118 354.645 182.47C354.435 182.822 354.173 183.122 353.861 183.369C353.548 183.614 353.197 183.8 352.808 183.928C352.422 184.055 352.009 184.119 351.568 184.119C350.824 184.119 350.162 183.938 349.582 183.574C349.003 183.21 348.547 182.693 348.214 182.023C347.882 181.352 347.716 180.557 347.716 179.636C347.716 178.716 347.882 177.92 348.214 177.25C348.547 176.58 349.003 176.062 349.582 175.699C350.162 175.335 350.824 175.153 351.568 175.153C352.009 175.153 352.422 175.217 352.808 175.345C353.197 175.473 353.548 175.661 353.861 175.908C354.173 176.152 354.435 176.45 354.645 176.803C354.855 177.152 355 177.551 355.08 178ZM360.854 183.382C360.854 183.941 360.752 184.422 360.548 184.824C360.343 185.224 360.063 185.533 359.706 185.749C359.352 185.964 358.949 186.072 358.497 186.072C358.044 186.072 357.639 185.964 357.282 185.749C356.928 185.533 356.648 185.224 356.444 184.821C356.239 184.419 356.137 183.939 356.137 183.382C356.137 182.823 356.239 182.343 356.444 181.942C356.648 181.54 356.928 181.232 357.282 181.017C357.639 180.8 358.044 180.692 358.497 180.692C358.949 180.692 359.352 180.8 359.706 181.017C360.063 181.232 360.343 181.54 360.548 181.942C360.752 182.343 360.854 182.823 360.854 183.382ZM360.072 183.382C360.072 182.956 360.003 182.597 359.865 182.305C359.728 182.012 359.541 181.791 359.302 181.641C359.065 181.489 358.797 181.413 358.497 181.413C358.195 181.413 357.926 181.489 357.689 181.641C357.452 181.791 357.265 182.012 357.126 182.305C356.99 182.597 356.922 182.956 356.922 183.382C356.922 183.808 356.99 184.168 357.126 184.461C357.265 184.752 357.452 184.974 357.689 185.126C357.926 185.276 358.195 185.351 358.497 185.351C358.797 185.351 359.065 185.276 359.302 185.126C359.541 184.974 359.728 184.752 359.865 184.461C360.003 184.168 360.072 183.808 360.072 183.382ZM362.81 178.835V177.915H368.06V178.835H362.81ZM362.81 181.358V180.438H368.06V181.358H362.81ZM370.294 184V183.233L373.174 180.08C373.512 179.71 373.791 179.389 374.01 179.116C374.228 178.841 374.39 178.582 374.495 178.341C374.603 178.097 374.657 177.841 374.657 177.574C374.657 177.267 374.583 177.001 374.436 176.777C374.291 176.553 374.092 176.379 373.839 176.257C373.586 176.135 373.302 176.074 372.987 176.074C372.652 176.074 372.359 176.143 372.109 176.283C371.862 176.419 371.67 176.611 371.534 176.858C371.4 177.105 371.333 177.395 371.333 177.727H370.328C370.328 177.216 370.446 176.767 370.681 176.381C370.917 175.994 371.238 175.693 371.644 175.477C372.054 175.261 372.512 175.153 373.021 175.153C373.532 175.153 373.985 175.261 374.38 175.477C374.775 175.693 375.085 175.984 375.309 176.351C375.534 176.717 375.646 177.125 375.646 177.574C375.646 177.895 375.588 178.209 375.471 178.516C375.358 178.82 375.159 179.159 374.875 179.534C374.593 179.906 374.203 180.361 373.703 180.898L371.742 182.994V183.062H375.799V184H370.294Z" fill="black"/>
<path d="M615.867 160.348L685.75 102.062" stroke="black" stroke-width="2"/>
<rect x="523" y="82" width="93" height="78" fill="#A3BCFF" stroke="black" stroke-width="2"/>
<line x1="586" y1="24" x2="684" y2="24" stroke="black" stroke-width="2"/>
<line x1="685" y1="23" x2="685" y2="105" stroke="black" stroke-width="2"/>
<path d="M572.08 49H571.023C570.96 48.696 570.851 48.429 570.695 48.1989C570.541 47.9688 570.354 47.7756 570.132 47.6193C569.913 47.4602 569.67 47.3409 569.403 47.2614C569.136 47.1818 568.858 47.142 568.568 47.142C568.04 47.142 567.561 47.2756 567.132 47.5426C566.706 47.8097 566.366 48.2031 566.114 48.723C565.864 49.2429 565.739 49.8807 565.739 50.6364C565.739 51.392 565.864 52.0298 566.114 52.5497C566.366 53.0696 566.706 53.4631 567.132 53.7301C567.561 53.9972 568.04 54.1307 568.568 54.1307C568.858 54.1307 569.136 54.0909 569.403 54.0114C569.67 53.9318 569.913 53.8139 570.132 53.6577C570.354 53.4986 570.541 53.304 570.695 53.0739C570.851 52.8409 570.96 52.5739 571.023 52.2727H572.08C572 52.7187 571.855 53.1179 571.645 53.4702C571.435 53.8224 571.173 54.1222 570.861 54.3693C570.548 54.6136 570.197 54.7997 569.808 54.9276C569.422 55.0554 569.009 55.1193 568.568 55.1193C567.824 55.1193 567.162 54.9375 566.582 54.5739C566.003 54.2102 565.547 53.6932 565.214 53.0227C564.882 52.3523 564.716 51.5568 564.716 50.6364C564.716 49.7159 564.882 48.9205 565.214 48.25C565.547 47.5795 566.003 47.0625 566.582 46.6989C567.162 46.3352 567.824 46.1534 568.568 46.1534C569.009 46.1534 569.422 46.2173 569.808 46.3452C570.197 46.473 570.548 46.6605 570.861 46.9077C571.173 47.152 571.435 47.4503 571.645 47.8026C571.855 48.152 572 48.5511 572.08 49ZM573.31 56.5V52.1364H574.213V56.5H573.31ZM573.77 51.5398C573.625 51.5398 573.5 51.4886 573.395 51.3864C573.293 51.2841 573.242 51.1648 573.242 51.0284C573.242 50.892 573.293 50.7727 573.395 50.6705C573.5 50.5682 573.625 50.517 573.77 50.517C573.907 50.517 574.026 50.5682 574.128 50.6705C574.23 50.7727 574.282 50.892 574.282 51.0284C574.282 51.1733 574.23 51.2955 574.128 51.3949C574.026 51.4915 573.907 51.5398 573.77 51.5398ZM576.111 49.8352V48.9148H581.361V49.8352H576.111ZM576.111 52.358V51.4375H581.361V52.358H576.111ZM586.544 55.1193C585.981 55.1193 585.48 55.0227 585.039 54.8295C584.602 54.6364 584.254 54.3679 583.995 54.0241C583.74 53.6776 583.6 53.2756 583.578 52.8182H584.652C584.674 53.0994 584.771 53.3423 584.941 53.5469C585.112 53.7486 585.335 53.9048 585.61 54.0156C585.886 54.1264 586.191 54.1818 586.527 54.1818C586.902 54.1818 587.234 54.1165 587.524 53.9858C587.814 53.8551 588.041 53.6733 588.206 53.4403C588.37 53.2074 588.453 52.9375 588.453 52.6307C588.453 52.3097 588.373 52.027 588.214 51.7827C588.055 51.5355 587.822 51.3423 587.515 51.2031C587.208 51.0639 586.833 50.9943 586.39 50.9943H585.691V50.0568H586.39C586.737 50.0568 587.041 49.9943 587.302 49.8693C587.566 49.7443 587.772 49.5682 587.92 49.3409C588.071 49.1136 588.146 48.8466 588.146 48.5398C588.146 48.2443 588.081 47.9872 587.95 47.7685C587.819 47.5497 587.635 47.3793 587.396 47.2571C587.16 47.1349 586.882 47.0739 586.561 47.0739C586.26 47.0739 585.975 47.1293 585.708 47.2401C585.444 47.348 585.228 47.5057 585.061 47.7131C584.893 47.9176 584.802 48.1648 584.788 48.4545H583.765C583.782 47.9972 583.92 47.5966 584.179 47.2528C584.437 46.9062 584.775 46.6364 585.193 46.4432C585.613 46.25 586.075 46.1534 586.578 46.1534C587.118 46.1534 587.581 46.2628 587.967 46.4815C588.353 46.6974 588.65 46.983 588.858 47.3381C589.065 47.6932 589.169 48.0767 589.169 48.4886C589.169 48.9801 589.039 49.3991 588.781 49.7457C588.525 50.0923 588.177 50.3324 587.737 50.4659V50.5341C588.288 50.625 588.718 50.8594 589.028 51.2372C589.338 51.6122 589.493 52.0767 589.493 52.6307C589.493 53.1051 589.363 53.5312 589.105 53.9091C588.849 54.2841 588.5 54.5795 588.056 54.7955C587.613 55.0114 587.109 55.1193 586.544 55.1193ZM591.235 55V54.233L594.116 51.0795C594.454 50.7102 594.733 50.3892 594.951 50.1165C595.17 49.8409 595.332 49.5824 595.437 49.3409C595.545 49.0966 595.599 48.8409 595.599 48.5739C595.599 48.267 595.525 48.0014 595.377 47.777C595.233 47.5526 595.034 47.3793 594.781 47.2571C594.528 47.1349 594.244 47.0739 593.929 47.0739C593.593 47.0739 593.301 47.1435 593.051 47.2827C592.804 47.419 592.612 47.6108 592.475 47.858C592.342 48.1051 592.275 48.3949 592.275 48.7273H591.27C591.27 48.2159 591.387 47.767 591.623 47.3807C591.859 46.9943 592.18 46.6932 592.586 46.4773C592.995 46.2614 593.454 46.1534 593.963 46.1534C594.474 46.1534 594.927 46.2614 595.322 46.4773C595.717 46.6932 596.027 46.9844 596.251 47.3509C596.475 47.7173 596.588 48.125 596.588 48.5739C596.588 48.8949 596.529 49.2088 596.413 49.5156C596.299 49.8196 596.1 50.1591 595.816 50.5341C595.535 50.9062 595.145 51.3608 594.645 51.8977L592.684 53.9943V54.0625H596.741V55H591.235Z" fill="black"/>
<path d="M528.057 124V115.273H529.114V119.602H529.216L533.136 115.273H534.517L530.852 119.21L534.517 124H533.239L530.205 119.943L529.114 121.17V124H528.057ZM535.403 126V120.764H536.193V123.039H538.804V120.764H539.597V126H538.804V123.717H536.193V126H535.403ZM541.717 118.835V117.915H546.967V118.835H541.717ZM541.717 121.358V120.438H546.967V121.358H541.717ZM552.15 124.119C551.588 124.119 551.086 124.023 550.646 123.83C550.209 123.636 549.861 123.368 549.602 123.024C549.346 122.678 549.207 122.276 549.184 121.818H550.258C550.281 122.099 550.378 122.342 550.548 122.547C550.718 122.749 550.941 122.905 551.217 123.016C551.493 123.126 551.798 123.182 552.133 123.182C552.508 123.182 552.841 123.116 553.13 122.986C553.42 122.855 553.647 122.673 553.812 122.44C553.977 122.207 554.059 121.938 554.059 121.631C554.059 121.31 553.98 121.027 553.821 120.783C553.662 120.536 553.429 120.342 553.122 120.203C552.815 120.064 552.44 119.994 551.997 119.994H551.298V119.057H551.997C552.343 119.057 552.647 118.994 552.909 118.869C553.173 118.744 553.379 118.568 553.527 118.341C553.677 118.114 553.753 117.847 553.753 117.54C553.753 117.244 553.687 116.987 553.557 116.768C553.426 116.55 553.241 116.379 553.003 116.257C552.767 116.135 552.488 116.074 552.167 116.074C551.866 116.074 551.582 116.129 551.315 116.24C551.051 116.348 550.835 116.506 550.667 116.713C550.5 116.918 550.409 117.165 550.395 117.455H549.372C549.389 116.997 549.527 116.597 549.785 116.253C550.044 115.906 550.382 115.636 550.799 115.443C551.22 115.25 551.682 115.153 552.184 115.153C552.724 115.153 553.187 115.263 553.574 115.482C553.96 115.697 554.257 115.983 554.464 116.338C554.672 116.693 554.775 117.077 554.775 117.489C554.775 117.98 554.646 118.399 554.388 118.746C554.132 119.092 553.784 119.332 553.343 119.466V119.534C553.895 119.625 554.325 119.859 554.635 120.237C554.944 120.612 555.099 121.077 555.099 121.631C555.099 122.105 554.97 122.531 554.711 122.909C554.456 123.284 554.106 123.58 553.663 123.795C553.22 124.011 552.716 124.119 552.15 124.119Z" fill="black"/>
<path d="M556.057 94V85.2727H557.114V89.6023H557.216L561.136 85.2727H562.517L558.852 89.2102L562.517 94H561.239L558.205 89.9432L557.114 91.1705V94H556.057ZM564.429 96L562.976 90.7636H563.807L564.828 94.8187H564.876L565.937 90.7636H566.761L567.822 94.8213H567.87L568.888 90.7636H569.721L568.266 96H567.471L566.369 92.0778H566.328L565.226 96H564.429ZM571.412 88.8352V87.9148H576.662V88.8352H571.412ZM571.412 91.358V90.4375H576.662V91.358H571.412ZM581.845 94.1193C581.282 94.1193 580.781 94.0227 580.341 93.8295C579.903 93.6364 579.555 93.3679 579.297 93.0241C579.041 92.6776 578.902 92.2756 578.879 91.8182H579.953C579.976 92.0994 580.072 92.3423 580.243 92.5469C580.413 92.7486 580.636 92.9048 580.912 93.0156C581.187 93.1264 581.493 93.1818 581.828 93.1818C582.203 93.1818 582.535 93.1165 582.825 92.9858C583.115 92.8551 583.342 92.6733 583.507 92.4403C583.672 92.2074 583.754 91.9375 583.754 91.6307C583.754 91.3097 583.674 91.027 583.515 90.7827C583.356 90.5355 583.123 90.3423 582.816 90.2031C582.51 90.0639 582.135 89.9943 581.691 89.9943H580.993V89.0568H581.691C582.038 89.0568 582.342 88.9943 582.603 88.8693C582.868 88.7443 583.074 88.5682 583.221 88.3409C583.372 88.1136 583.447 87.8466 583.447 87.5398C583.447 87.2443 583.382 86.9872 583.251 86.7685C583.12 86.5497 582.936 86.3793 582.697 86.2571C582.461 86.1349 582.183 86.0739 581.862 86.0739C581.561 86.0739 581.277 86.1293 581.01 86.2401C580.745 86.348 580.529 86.5057 580.362 86.7131C580.194 86.9176 580.103 87.1648 580.089 87.4545H579.066C579.083 86.9972 579.221 86.5966 579.48 86.2528C579.738 85.9062 580.076 85.6364 580.494 85.4432C580.914 85.25 581.376 85.1534 581.879 85.1534C582.419 85.1534 582.882 85.2628 583.268 85.4815C583.654 85.6974 583.951 85.983 584.159 86.3381C584.366 86.6932 584.47 87.0767 584.47 87.4886C584.47 87.9801 584.341 88.3991 584.082 88.7457C583.826 89.0923 583.478 89.3324 583.038 89.4659V89.5341C583.589 89.625 584.02 89.8594 584.329 90.2372C584.639 90.6122 584.794 91.0767 584.794 91.6307C584.794 92.1051 584.664 92.5312 584.406 92.9091C584.15 93.2841 583.801 93.5795 583.358 93.7955C582.914 94.0114 582.41 94.1193 581.845 94.1193Z" fill="black"/>
<line x1="615.357" y1="82.2345" x2="684.357" y2="24.2345" stroke="black" stroke-width="2"/>
<line x1="522.628" y1="82.2595" x2="587.122" y2="23.7191" stroke="black" stroke-width="2"/>
<rect x="549" y="60" width="3" height="21" fill="white"/>
<rect x="556.606" y="53" width="2.29558" height="21" transform="rotate(48 556.606 53)" fill="white"/>
<path d="M553.08 175H552.023C551.96 174.696 551.851 174.429 551.695 174.199C551.541 173.969 551.354 173.776 551.132 173.619C550.913 173.46 550.67 173.341 550.403 173.261C550.136 173.182 549.858 173.142 549.568 173.142C549.04 173.142 548.561 173.276 548.132 173.543C547.706 173.81 547.366 174.203 547.114 174.723C546.864 175.243 546.739 175.881 546.739 176.636C546.739 177.392 546.864 178.03 547.114 178.55C547.366 179.07 547.706 179.463 548.132 179.73C548.561 179.997 549.04 180.131 549.568 180.131C549.858 180.131 550.136 180.091 550.403 180.011C550.67 179.932 550.913 179.814 551.132 179.658C551.354 179.499 551.541 179.304 551.695 179.074C551.851 178.841 551.96 178.574 552.023 178.273H553.08C553 178.719 552.855 179.118 552.645 179.47C552.435 179.822 552.173 180.122 551.861 180.369C551.548 180.614 551.197 180.8 550.808 180.928C550.422 181.055 550.009 181.119 549.568 181.119C548.824 181.119 548.162 180.938 547.582 180.574C547.003 180.21 546.547 179.693 546.214 179.023C545.882 178.352 545.716 177.557 545.716 176.636C545.716 175.716 545.882 174.92 546.214 174.25C546.547 173.58 547.003 173.062 547.582 172.699C548.162 172.335 548.824 172.153 549.568 172.153C550.009 172.153 550.422 172.217 550.808 172.345C551.197 172.473 551.548 172.661 551.861 172.908C552.173 173.152 552.435 173.45 552.645 173.803C552.855 174.152 553 174.551 553.08 175ZM558.854 180.382C558.854 180.941 558.752 181.422 558.548 181.824C558.343 182.224 558.063 182.533 557.706 182.749C557.352 182.964 556.949 183.072 556.497 183.072C556.044 183.072 555.639 182.964 555.282 182.749C554.928 182.533 554.648 182.224 554.444 181.821C554.239 181.419 554.137 180.939 554.137 180.382C554.137 179.823 554.239 179.343 554.444 178.942C554.648 178.54 554.928 178.232 555.282 178.017C555.639 177.8 556.044 177.692 556.497 177.692C556.949 177.692 557.352 177.8 557.706 178.017C558.063 178.232 558.343 178.54 558.548 178.942C558.752 179.343 558.854 179.823 558.854 180.382ZM558.072 180.382C558.072 179.956 558.003 179.597 557.865 179.305C557.728 179.012 557.541 178.791 557.302 178.641C557.065 178.489 556.797 178.413 556.497 178.413C556.195 178.413 555.926 178.489 555.689 178.641C555.452 178.791 555.265 179.012 555.126 179.305C554.99 179.597 554.922 179.956 554.922 180.382C554.922 180.808 554.99 181.168 555.126 181.461C555.265 181.752 555.452 181.974 555.689 182.126C555.926 182.276 556.195 182.351 556.497 182.351C556.797 182.351 557.065 182.276 557.302 182.126C557.541 181.974 557.728 181.752 557.865 181.461C558.003 181.168 558.072 180.808 558.072 180.382ZM560.81 175.835V174.915H566.06V175.835H560.81ZM560.81 178.358V177.438H566.06V178.358H560.81ZM571.191 181.119C570.833 181.114 570.475 181.045 570.117 180.915C569.76 180.784 569.433 180.564 569.137 180.254C568.842 179.942 568.605 179.52 568.426 178.989C568.247 178.455 568.157 177.784 568.157 176.977C568.157 176.205 568.23 175.52 568.375 174.923C568.519 174.324 568.73 173.82 569.005 173.411C569.281 172.999 569.613 172.686 570.002 172.473C570.394 172.26 570.836 172.153 571.328 172.153C571.816 172.153 572.251 172.251 572.632 172.447C573.015 172.641 573.328 172.911 573.569 173.257C573.811 173.604 573.967 174.003 574.038 174.455H572.998C572.902 174.062 572.714 173.737 572.436 173.479C572.157 173.22 571.788 173.091 571.328 173.091C570.652 173.091 570.119 173.385 569.73 173.973C569.343 174.561 569.149 175.386 569.146 176.449H569.214C569.373 176.207 569.562 176.001 569.781 175.831C570.002 175.658 570.247 175.524 570.514 175.43C570.781 175.337 571.064 175.29 571.362 175.29C571.862 175.29 572.319 175.415 572.734 175.665C573.149 175.912 573.481 176.254 573.731 176.692C573.981 177.126 574.106 177.625 574.106 178.188C574.106 178.727 573.985 179.222 573.744 179.67C573.502 180.116 573.163 180.472 572.725 180.736C572.291 180.997 571.779 181.125 571.191 181.119ZM571.191 180.182C571.549 180.182 571.87 180.092 572.154 179.913C572.441 179.734 572.667 179.494 572.832 179.193C573 178.892 573.083 178.557 573.083 178.188C573.083 177.827 573.002 177.499 572.841 177.203C572.681 176.905 572.461 176.668 572.18 176.491C571.902 176.315 571.583 176.227 571.225 176.227C570.956 176.227 570.704 176.281 570.471 176.389C570.238 176.494 570.034 176.639 569.858 176.824C569.684 177.009 569.548 177.22 569.448 177.459C569.349 177.695 569.299 177.943 569.299 178.205C569.299 178.551 569.38 178.875 569.542 179.176C569.707 179.477 569.931 179.72 570.216 179.905C570.502 180.089 570.828 180.182 571.191 180.182ZM578.731 181.119C578.168 181.119 577.667 181.023 577.227 180.83C576.789 180.636 576.441 180.368 576.182 180.024C575.927 179.678 575.788 179.276 575.765 178.818H576.839C576.861 179.099 576.958 179.342 577.128 179.547C577.299 179.749 577.522 179.905 577.798 180.016C578.073 180.126 578.379 180.182 578.714 180.182C579.089 180.182 579.421 180.116 579.711 179.986C580.001 179.855 580.228 179.673 580.393 179.44C580.557 179.207 580.64 178.938 580.64 178.631C580.64 178.31 580.56 178.027 580.401 177.783C580.242 177.536 580.009 177.342 579.702 177.203C579.396 177.064 579.021 176.994 578.577 176.994H577.878V176.057H578.577C578.924 176.057 579.228 175.994 579.489 175.869C579.754 175.744 579.959 175.568 580.107 175.341C580.258 175.114 580.333 174.847 580.333 174.54C580.333 174.244 580.268 173.987 580.137 173.768C580.006 173.55 579.822 173.379 579.583 173.257C579.347 173.135 579.069 173.074 578.748 173.074C578.447 173.074 578.163 173.129 577.896 173.24C577.631 173.348 577.415 173.506 577.248 173.713C577.08 173.918 576.989 174.165 576.975 174.455H575.952C575.969 173.997 576.107 173.597 576.366 173.253C576.624 172.906 576.962 172.636 577.38 172.443C577.8 172.25 578.262 172.153 578.765 172.153C579.305 172.153 579.768 172.263 580.154 172.482C580.54 172.697 580.837 172.983 581.045 173.338C581.252 173.693 581.356 174.077 581.356 174.489C581.356 174.98 581.227 175.399 580.968 175.746C580.712 176.092 580.364 176.332 579.924 176.466V176.534C580.475 176.625 580.905 176.859 581.215 177.237C581.525 177.612 581.68 178.077 581.68 178.631C581.68 179.105 581.55 179.531 581.292 179.909C581.036 180.284 580.687 180.58 580.244 180.795C579.8 181.011 579.296 181.119 578.731 181.119Z" fill="black"/>
<path d="M474.614 140.273C473.773 140.273 473.051 139.972 472.449 139.369C471.847 138.767 471.545 138.045 471.545 137.205C471.545 136.364 471.847 135.642 472.449 135.04C473.051 134.437 473.773 134.136 474.614 134.136C475.455 134.136 476.176 134.437 476.778 135.04C477.381 135.642 477.682 136.364 477.682 137.205C477.682 137.761 477.54 138.273 477.256 138.739C476.983 139.205 476.614 139.58 476.148 139.864C475.693 140.136 475.182 140.273 474.614 140.273ZM487.832 140.273C486.991 140.273 486.27 139.972 485.668 139.369C485.065 138.767 484.764 138.045 484.764 137.205C484.764 136.364 485.065 135.642 485.668 135.04C486.27 134.437 486.991 134.136 487.832 134.136C488.673 134.136 489.395 134.437 489.997 135.04C490.599 135.642 490.901 136.364 490.901 137.205C490.901 137.761 490.759 138.273 490.474 138.739C490.202 139.205 489.832 139.58 489.366 139.864C488.912 140.136 488.401 140.273 487.832 140.273ZM501.051 140.273C500.21 140.273 499.489 139.972 498.886 139.369C498.284 138.767 497.983 138.045 497.983 137.205C497.983 136.364 498.284 135.642 498.886 135.04C499.489 134.437 500.21 134.136 501.051 134.136C501.892 134.136 502.614 134.437 503.216 135.04C503.818 135.642 504.119 136.364 504.119 137.205C504.119 137.761 503.977 138.273 503.693 138.739C503.42 139.205 503.051 139.58 502.585 139.864C502.131 140.136 501.619 140.273 501.051 140.273Z" fill="black"/>
</svg>
