<svg width="449" height="424" viewBox="0 0 449 424" fill="none" xmlns="http://www.w3.org/2000/svg">
<rect width="449" height="424" fill="white"/>
<path d="M63 168.421L204.421 27" stroke="black" stroke-width="2"/>
<path d="M263 168.421L404.421 27" stroke="black" stroke-width="2"/>
<path d="M263 368.421L404.421 227" stroke="black" stroke-width="2"/>
<rect x="64" y="169" width="198" height="198" fill="white" stroke="black" stroke-width="2"/>
<line x1="204" y1="26" x2="404" y2="26" stroke="black" stroke-width="2"/>
<line x1="405" y1="27" x2="405" y2="227" stroke="black" stroke-width="2"/>
<path d="M148.057 180V171.273H149.114V175.159H153.767V171.273H154.824V180H153.767V176.097H149.114V180H148.057ZM156.462 181.5V177.136H157.366V181.5H156.462ZM156.923 176.54C156.778 176.54 156.653 176.489 156.548 176.386C156.445 176.284 156.394 176.165 156.394 176.028C156.394 175.892 156.445 175.773 156.548 175.67C156.653 175.568 156.778 175.517 156.923 175.517C157.059 175.517 157.178 175.568 157.281 175.67C157.383 175.773 157.434 175.892 157.434 176.028C157.434 176.173 157.383 176.295 157.281 176.395C157.178 176.491 157.059 176.54 156.923 176.54ZM159.263 174.835V173.915H164.513V174.835H159.263ZM159.263 177.358V176.438H164.513V177.358H159.263ZM169.815 171.273V180H168.759V172.381H168.707L166.577 173.795V172.722L168.759 171.273H169.815ZM175.223 180.119C174.865 180.114 174.507 180.045 174.149 179.915C173.791 179.784 173.464 179.564 173.169 179.254C172.874 178.942 172.636 178.52 172.457 177.989C172.278 177.455 172.189 176.784 172.189 175.977C172.189 175.205 172.261 174.52 172.406 173.923C172.551 173.324 172.761 172.82 173.037 172.411C173.313 171.999 173.645 171.686 174.034 171.473C174.426 171.26 174.868 171.153 175.359 171.153C175.848 171.153 176.283 171.251 176.663 171.447C177.047 171.641 177.359 171.911 177.601 172.257C177.842 172.604 177.999 173.003 178.07 173.455H177.03C176.933 173.062 176.746 172.737 176.467 172.479C176.189 172.22 175.82 172.091 175.359 172.091C174.683 172.091 174.151 172.385 173.761 172.973C173.375 173.561 173.18 174.386 173.178 175.449H173.246C173.405 175.207 173.594 175.001 173.812 174.831C174.034 174.658 174.278 174.524 174.545 174.43C174.813 174.337 175.095 174.29 175.393 174.29C175.893 174.29 176.351 174.415 176.766 174.665C177.18 174.912 177.513 175.254 177.763 175.692C178.013 176.126 178.138 176.625 178.138 177.188C178.138 177.727 178.017 178.222 177.776 178.67C177.534 179.116 177.195 179.472 176.757 179.736C176.322 179.997 175.811 180.125 175.223 180.119ZM175.223 179.182C175.581 179.182 175.902 179.092 176.186 178.913C176.473 178.734 176.699 178.494 176.864 178.193C177.031 177.892 177.115 177.557 177.115 177.188C177.115 176.827 177.034 176.499 176.872 176.203C176.713 175.905 176.493 175.668 176.212 175.491C175.933 175.315 175.615 175.227 175.257 175.227C174.987 175.227 174.736 175.281 174.503 175.389C174.27 175.494 174.065 175.639 173.889 175.824C173.716 176.009 173.58 176.22 173.48 176.459C173.381 176.695 173.331 176.943 173.331 177.205C173.331 177.551 173.412 177.875 173.574 178.176C173.739 178.477 173.963 178.72 174.247 178.905C174.534 179.089 174.859 179.182 175.223 179.182Z" fill="black"/>
<path d="M164.08 79H163.023C162.96 78.696 162.851 78.429 162.695 78.1989C162.541 77.9688 162.354 77.7756 162.132 77.6193C161.913 77.4602 161.67 77.3409 161.403 77.2614C161.136 77.1818 160.858 77.142 160.568 77.142C160.04 77.142 159.561 77.2756 159.132 77.5426C158.706 77.8097 158.366 78.2031 158.114 78.723C157.864 79.2429 157.739 79.8807 157.739 80.6364C157.739 81.392 157.864 82.0298 158.114 82.5497C158.366 83.0696 158.706 83.4631 159.132 83.7301C159.561 83.9972 160.04 84.1307 160.568 84.1307C160.858 84.1307 161.136 84.0909 161.403 84.0114C161.67 83.9318 161.913 83.8139 162.132 83.6577C162.354 83.4986 162.541 83.304 162.695 83.0739C162.851 82.8409 162.96 82.5739 163.023 82.2727H164.08C164 82.7187 163.855 83.1179 163.645 83.4702C163.435 83.8224 163.173 84.1222 162.861 84.3693C162.548 84.6136 162.197 84.7997 161.808 84.9276C161.422 85.0554 161.009 85.1193 160.568 85.1193C159.824 85.1193 159.162 84.9375 158.582 84.5739C158.003 84.2102 157.547 83.6932 157.214 83.0227C156.882 82.3523 156.716 81.5568 156.716 80.6364C156.716 79.7159 156.882 78.9205 157.214 78.25C157.547 77.5795 158.003 77.0625 158.582 76.6989C159.162 76.3352 159.824 76.1534 160.568 76.1534C161.009 76.1534 161.422 76.2173 161.808 76.3452C162.197 76.473 162.548 76.6605 162.861 76.9077C163.173 77.152 163.435 77.4503 163.645 77.8026C163.855 78.152 164 78.5511 164.08 79ZM165.31 86.5V82.1364H166.213V86.5H165.31ZM165.77 81.5398C165.625 81.5398 165.5 81.4886 165.395 81.3864C165.293 81.2841 165.242 81.1648 165.242 81.0284C165.242 80.892 165.293 80.7727 165.395 80.6705C165.5 80.5682 165.625 80.517 165.77 80.517C165.907 80.517 166.026 80.5682 166.128 80.6705C166.23 80.7727 166.282 80.892 166.282 81.0284C166.282 81.1733 166.23 81.2955 166.128 81.3949C166.026 81.4915 165.907 81.5398 165.77 81.5398ZM168.111 79.8352V78.9148H173.361V79.8352H168.111ZM168.111 82.358V81.4375H173.361V82.358H168.111ZM178.544 85.1193C177.981 85.1193 177.48 85.0227 177.039 84.8295C176.602 84.6364 176.254 84.3679 175.995 84.0241C175.74 83.6776 175.6 83.2756 175.578 82.8182H176.652C176.674 83.0994 176.771 83.3423 176.941 83.5469C177.112 83.7486 177.335 83.9048 177.61 84.0156C177.886 84.1264 178.191 84.1818 178.527 84.1818C178.902 84.1818 179.234 84.1165 179.524 83.9858C179.814 83.8551 180.041 83.6733 180.206 83.4403C180.37 83.2074 180.453 82.9375 180.453 82.6307C180.453 82.3097 180.373 82.027 180.214 81.7827C180.055 81.5355 179.822 81.3423 179.515 81.2031C179.208 81.0639 178.833 80.9943 178.39 80.9943H177.691V80.0568H178.39C178.737 80.0568 179.041 79.9943 179.302 79.8693C179.566 79.7443 179.772 79.5682 179.92 79.3409C180.071 79.1136 180.146 78.8466 180.146 78.5398C180.146 78.2443 180.081 77.9872 179.95 77.7685C179.819 77.5497 179.635 77.3793 179.396 77.2571C179.16 77.1349 178.882 77.0739 178.561 77.0739C178.26 77.0739 177.975 77.1293 177.708 77.2401C177.444 77.348 177.228 77.5057 177.061 77.7131C176.893 77.9176 176.802 78.1648 176.788 78.4545H175.765C175.782 77.9972 175.92 77.5966 176.179 77.2528C176.437 76.9062 176.775 76.6364 177.193 76.4432C177.613 76.25 178.075 76.1534 178.578 76.1534C179.118 76.1534 179.581 76.2628 179.967 76.4815C180.353 76.6974 180.65 76.983 180.858 77.3381C181.065 77.6932 181.169 78.0767 181.169 78.4886C181.169 78.9801 181.039 79.3991 180.781 79.7457C180.525 80.0923 180.177 80.3324 179.737 80.4659V80.5341C180.288 80.625 180.718 80.8594 181.028 81.2372C181.338 81.6122 181.493 82.0767 181.493 82.6307C181.493 83.1051 181.363 83.5312 181.105 83.9091C180.849 84.2841 180.5 84.5795 180.056 84.7955C179.613 85.0114 179.109 85.1193 178.544 85.1193ZM183.235 85V84.233L186.116 81.0795C186.454 80.7102 186.733 80.3892 186.951 80.1165C187.17 79.8409 187.332 79.5824 187.437 79.3409C187.545 79.0966 187.599 78.8409 187.599 78.5739C187.599 78.267 187.525 78.0014 187.377 77.777C187.233 77.5526 187.034 77.3793 186.781 77.2571C186.528 77.1349 186.244 77.0739 185.929 77.0739C185.593 77.0739 185.301 77.1435 185.051 77.2827C184.804 77.419 184.612 77.6108 184.475 77.858C184.342 78.1051 184.275 78.3949 184.275 78.7273H183.27C183.27 78.2159 183.387 77.767 183.623 77.3807C183.859 76.9943 184.18 76.6932 184.586 76.4773C184.995 76.2614 185.454 76.1534 185.963 76.1534C186.474 76.1534 186.927 76.2614 187.322 76.4773C187.717 76.6932 188.027 76.9844 188.251 77.3509C188.475 77.7173 188.588 78.125 188.588 78.5739C188.588 78.8949 188.529 79.2088 188.413 79.5156C188.299 79.8196 188.1 80.1591 187.816 80.5341C187.535 80.9062 187.145 81.3608 186.645 81.8977L184.684 83.9943V84.0625H188.741V85H183.235Z" fill="black"/>
<path d="M68.642 268L66.2557 259.273H67.3295L69.1534 266.381H69.2386L71.0966 259.273H72.2898L74.1477 266.381H74.233L76.0568 259.273H77.1307L74.7443 268H73.6534L71.7273 261.045H71.6591L69.733 268H68.642ZM77.9702 269.5V265.136H78.8736V269.5H77.9702ZM78.4304 264.54C78.2855 264.54 78.1605 264.489 78.0554 264.386C77.9531 264.284 77.902 264.165 77.902 264.028C77.902 263.892 77.9531 263.773 78.0554 263.67C78.1605 263.568 78.2855 263.517 78.4304 263.517C78.5668 263.517 78.6861 263.568 78.7884 263.67C78.8906 263.773 78.9418 263.892 78.9418 264.028C78.9418 264.173 78.8906 264.295 78.7884 264.395C78.6861 264.491 78.5668 264.54 78.4304 264.54ZM80.771 262.835V261.915H86.021V262.835H80.771ZM80.771 265.358V264.438H86.021V265.358H80.771ZM91.3232 259.273V268H90.2663V260.381H90.2152L88.0845 261.795V260.722L90.2663 259.273H91.3232ZM96.7308 268.119C96.3729 268.114 96.0149 268.045 95.657 267.915C95.299 267.784 94.9723 267.564 94.6768 267.254C94.3814 266.942 94.1442 266.52 93.9652 265.989C93.7862 265.455 93.6967 264.784 93.6967 263.977C93.6967 263.205 93.7692 262.52 93.9141 261.923C94.0589 261.324 94.2692 260.82 94.5447 260.411C94.8203 259.999 95.1527 259.686 95.5419 259.473C95.9339 259.26 96.3757 259.153 96.8672 259.153C97.3558 259.153 97.7905 259.251 98.1712 259.447C98.5547 259.641 98.8672 259.911 99.1087 260.257C99.3501 260.604 99.5064 261.003 99.5774 261.455H98.5376C98.4411 261.062 98.2536 260.737 97.9751 260.479C97.6967 260.22 97.3274 260.091 96.8672 260.091C96.1911 260.091 95.6584 260.385 95.2692 260.973C94.8828 261.561 94.6882 262.386 94.6854 263.449H94.7536C94.9126 263.207 95.1016 263.001 95.3203 262.831C95.5419 262.658 95.7862 262.524 96.0533 262.43C96.3203 262.337 96.603 262.29 96.9013 262.29C97.4013 262.29 97.8587 262.415 98.2734 262.665C98.6882 262.912 99.0206 263.254 99.2706 263.692C99.5206 264.126 99.6456 264.625 99.6456 265.188C99.6456 265.727 99.5249 266.222 99.2834 266.67C99.0419 267.116 98.7024 267.472 98.2649 267.736C97.8303 267.997 97.3189 268.125 96.7308 268.119ZM96.7308 267.182C97.0888 267.182 97.4098 267.092 97.6939 266.913C97.9808 266.734 98.2067 266.494 98.3714 266.193C98.5391 265.892 98.6229 265.557 98.6229 265.188C98.6229 264.827 98.5419 264.499 98.38 264.203C98.2209 263.905 98.0007 263.668 97.7195 263.491C97.4411 263.315 97.1229 263.227 96.7649 263.227C96.495 263.227 96.2436 263.281 96.0107 263.389C95.7777 263.494 95.5732 263.639 95.397 263.824C95.2237 264.009 95.0874 264.22 94.9879 264.459C94.8885 264.695 94.8388 264.943 94.8388 265.205C94.8388 265.551 94.9197 265.875 95.0817 266.176C95.2464 266.477 95.4709 266.72 95.755 266.905C96.0419 267.089 96.3672 267.182 96.7308 267.182Z" fill="black"/>
</svg>
