<svg width="447" height="397" viewBox="0 0 447 397" fill="none" xmlns="http://www.w3.org/2000/svg">
<rect width="447" height="397" fill="white"/>
<path d="M271.869 144.869L285.44 144.81L271.81 158.44L271.869 144.869Z" fill="#FFA3A3"/>
<path d="M271.869 144.869L285.44 144.81L271.81 158.44L271.869 144.869Z" fill="#FFA3A3"/>
<path d="M271.869 144.869L285.44 144.81L271.81 158.44L271.869 144.869Z" fill="#FFE0A3"/>
<path d="M86.3208 157.679L74.8052 157.732L86.3739 146.164L86.3208 157.679Z" fill="#FFA3A3"/>
<path d="M86.3208 157.679L74.8052 157.732L86.3739 146.164L86.3208 157.679Z" fill="#FFA3A3"/>
<path d="M86.3208 157.679L74.8052 157.732L86.3739 146.164L86.3208 157.679Z" fill="#FFE0A3"/>
<rect x="86" y="145" width="187" height="13" fill="#FFA3A3"/>
<rect x="86" y="145" width="187" height="13" fill="#FFA3A3"/>
<rect x="86" y="145" width="187" height="13" fill="#FFE0A3"/>
<path d="M283.869 132.869L297.44 132.81L283.81 146.44L283.869 132.869Z" fill="#FFA3A3"/>
<path d="M283.869 132.869L297.44 132.81L283.81 146.44L283.869 132.869Z" fill="#FFA3A3"/>
<path d="M283.869 132.869L297.44 132.81L283.81 146.44L283.869 132.869Z" fill="#D1FFA3"/>
<path d="M98.3208 145.679L86.8052 145.732L98.3739 134.164L98.3208 145.679Z" fill="#FFA3A3"/>
<path d="M98.3208 145.679L86.8052 145.732L98.3739 134.164L98.3208 145.679Z" fill="#FFA3A3"/>
<path d="M98.3208 145.679L86.8052 145.732L98.3739 134.164L98.3208 145.679Z" fill="#D1FFA3"/>
<rect x="98" y="133" width="187" height="13" fill="#FFA3A3"/>
<rect x="98" y="133" width="187" height="13" fill="#FFA3A3"/>
<rect x="98" y="133" width="187" height="13" fill="#D1FFA3"/>
<path d="M388.869 26.8689L402.44 26.8104L388.81 40.4398L388.869 26.8689Z" fill="#FFA3A3"/>
<path d="M388.869 26.8689L402.44 26.8104L388.81 40.4398L388.869 26.8689Z" fill="#FFA3A3"/>
<path d="M388.869 26.8689L402.44 26.8104L388.81 40.4398L388.869 26.8689Z" fill="#A3BCFF"/>
<path d="M203.321 39.6792L191.805 39.7322L203.374 28.1636L203.321 39.6792Z" fill="#FFA3A3"/>
<path d="M203.321 39.6792L191.805 39.7322L203.374 28.1636L203.321 39.6792Z" fill="#FFA3A3"/>
<path d="M203.321 39.6792L191.805 39.7322L203.374 28.1636L203.321 39.6792Z" fill="#A3BCFF"/>
<rect x="203" y="27" width="187" height="13" fill="#FFA3A3"/>
<rect x="203" y="27" width="187" height="13" fill="#FFA3A3"/>
<rect x="203" y="27" width="187" height="13" fill="#A3BCFF"/>
<path d="M389.732 227.636L389.667 241.598L404.791 227.576L389.732 227.636Z" fill="#FFA3A3"/>
<path d="M389.732 227.636L389.667 241.598L404.791 227.576L389.732 227.636Z" fill="#FFA3A3"/>
<path d="M389.732 227.636L389.667 241.598L404.791 227.576L389.732 227.636Z" fill="#A3BCFF"/>
<path d="M403.947 36.734L404.006 24.8862L391.168 36.7886L403.947 36.734Z" fill="#FFA3A3"/>
<path d="M403.947 36.734L404.006 24.8862L391.168 36.7886L403.947 36.734Z" fill="#FFA3A3"/>
<path d="M403.947 36.734L404.006 24.8862L391.168 36.7886L403.947 36.734Z" fill="#A3BCFF"/>
<rect width="192.396" height="14.4255" transform="matrix(0 1 1 0 389.877 36.404)" fill="#FFA3A3"/>
<rect width="192.396" height="14.4255" transform="matrix(0 1 1 0 389.877 36.404)" fill="#FFA3A3"/>
<rect width="192.396" height="14.4255" transform="matrix(0 1 1 0 389.877 36.404)" fill="#A3BCFF"/>
<path d="M261.588 355.025L263.327 368.061L276.087 354.847L261.588 355.025Z" fill="#FFA3A3"/>
<path d="M261.588 355.025L263.327 368.061L276.087 354.847L261.588 355.025Z" fill="#FFA3A3"/>
<path d="M261.588 355.025L263.327 368.061L276.087 354.847L261.588 355.025Z" fill="#FFA3A3"/>
<path d="M274.947 169.404L275.006 157.822L262.168 169.457L274.947 169.404Z" fill="#FFA3A3"/>
<path d="M274.947 169.404L275.006 157.822L262.168 169.457L274.947 169.404Z" fill="#FFA3A3"/>
<path d="M274.947 169.404L275.006 157.822L262.168 169.457L274.947 169.404Z" fill="#FFA3A3"/>
<rect width="188.082" height="14.4255" transform="matrix(0 1 1 0 260.877 169.081)" fill="#FFA3A3"/>
<rect width="188.082" height="14.4255" transform="matrix(0 1 1 0 260.877 169.081)" fill="#FFA3A3"/>
<rect width="188.082" height="14.4255" transform="matrix(0 1 1 0 260.877 169.081)" fill="#FFA3A3"/>
<path d="M273.251 342.857L272.514 356.715L288.536 343.741L273.251 342.857Z" fill="#FFA3A3"/>
<path d="M273.251 342.857L272.514 356.715L288.536 343.741L273.251 342.857Z" fill="#FFA3A3"/>
<path d="M273.251 342.857L272.514 356.715L288.536 343.741L273.251 342.857Z" fill="#FFE0A3"/>
<path d="M286.725 157.404L286.784 145.822L273.947 157.457L286.725 157.404Z" fill="#FFA3A3"/>
<path d="M286.725 157.404L286.784 145.822L273.947 157.457L286.725 157.404Z" fill="#FFA3A3"/>
<path d="M286.725 157.404L286.784 145.822L273.947 157.457L286.725 157.404Z" fill="#FFE0A3"/>
<rect width="188.082" height="14.4255" transform="matrix(0 1 1 0 272.656 157.081)" fill="#FFA3A3"/>
<rect width="188.082" height="14.4255" transform="matrix(0 1 1 0 272.656 157.081)" fill="#FFA3A3"/>
<rect width="188.082" height="14.4255" transform="matrix(0 1 1 0 272.656 157.081)" fill="#FFE0A3"/>
<path d="M286.844 329.246L287.254 343.47L302.403 331.202L286.844 329.246Z" fill="#FFA3A3"/>
<path d="M286.844 329.246L287.254 343.47L302.403 331.202L286.844 329.246Z" fill="#FFA3A3"/>
<path d="M286.844 329.246L287.254 343.47L302.403 331.202L286.844 329.246Z" fill="#D1FFA3"/>
<path d="M300.725 143.404L300.784 131.822L287.947 143.457L300.725 143.404Z" fill="#FFA3A3"/>
<path d="M300.725 143.404L300.784 131.822L287.947 143.457L300.725 143.404Z" fill="#FFA3A3"/>
<path d="M300.725 143.404L300.784 131.822L287.947 143.457L300.725 143.404Z" fill="#D1FFA3"/>
<rect width="188.082" height="14.4255" transform="matrix(0 1 1 0 286.656 143.081)" fill="#FFA3A3"/>
<rect width="188.082" height="14.4255" transform="matrix(0 1 1 0 286.656 143.081)" fill="#FFA3A3"/>
<rect width="188.082" height="14.4255" transform="matrix(0 1 1 0 286.656 143.081)" fill="#D1FFA3"/>
<path d="M259.869 156.869L273.44 156.81L259.81 170.44L259.869 156.869Z" fill="#FFA3A3"/>
<path d="M259.869 156.869L273.44 156.81L259.81 170.44L259.869 156.869Z" fill="#FFA3A3"/>
<path d="M259.869 156.869L273.44 156.81L259.81 170.44L259.869 156.869Z" fill="#FFA3A3"/>
<path d="M74.3208 169.679L62.8053 169.732L74.3739 158.164L74.3208 169.679Z" fill="#FFA3A3"/>
<path d="M74.3208 169.679L62.8053 169.732L74.3739 158.164L74.3208 169.679Z" fill="#FFA3A3"/>
<path d="M74.3208 169.679L62.8053 169.732L74.3739 158.164L74.3208 169.679Z" fill="#FFA3A3"/>
<rect x="74" y="157" width="187" height="13" fill="#FFA3A3"/>
<rect x="74" y="157" width="187" height="13" fill="#FFA3A3"/>
<rect x="74" y="157" width="187" height="13" fill="#FFA3A3"/>
<path d="M63 168.421L204.421 27" stroke="black" stroke-width="2"/>
<path d="M263 168.421L404.421 27" stroke="black" stroke-width="2"/>
<path d="M263 368.421L404.421 227" stroke="black" stroke-width="2"/>
<rect x="64" y="169" width="198" height="198" fill="#FFA3A3" stroke="black" stroke-width="2"/>
<line x1="204" y1="26" x2="404" y2="26" stroke="black" stroke-width="2"/>
<line x1="405" y1="27" x2="405" y2="227" stroke="black" stroke-width="2"/>
<path d="M148.057 180V171.273H149.114V175.159H153.767V171.273H154.824V180H153.767V176.097H149.114V180H148.057ZM161.007 179.382C161.007 179.941 160.904 180.422 160.7 180.824C160.495 181.224 160.215 181.533 159.859 181.749C159.504 181.964 159.101 182.072 158.649 182.072C158.196 182.072 157.791 181.964 157.435 181.749C157.08 181.533 156.801 181.224 156.596 180.821C156.392 180.419 156.289 179.939 156.289 179.382C156.289 178.823 156.392 178.343 156.596 177.942C156.801 177.54 157.08 177.232 157.435 177.017C157.791 176.8 158.196 176.692 158.649 176.692C159.101 176.692 159.504 176.8 159.859 177.017C160.215 177.232 160.495 177.54 160.7 177.942C160.904 178.343 161.007 178.823 161.007 179.382ZM160.224 179.382C160.224 178.956 160.155 178.597 160.017 178.305C159.881 178.012 159.693 177.791 159.455 177.641C159.218 177.489 158.949 177.413 158.649 177.413C158.348 177.413 158.078 177.489 157.841 177.641C157.604 177.791 157.417 178.012 157.279 178.305C157.142 178.597 157.074 178.956 157.074 179.382C157.074 179.808 157.142 180.168 157.279 180.461C157.417 180.752 157.604 180.974 157.841 181.126C158.078 181.276 158.348 181.351 158.649 181.351C158.949 181.351 159.218 181.276 159.455 181.126C159.693 180.974 159.881 180.752 160.017 180.461C160.155 180.168 160.224 179.808 160.224 179.382ZM162.962 174.835V173.915H168.212V174.835H162.962ZM162.962 177.358V176.438H168.212V177.358H162.962ZM173.241 180.119C172.656 180.119 172.139 180.016 171.69 179.808C171.244 179.598 170.896 179.31 170.646 178.943C170.396 178.574 170.273 178.153 170.276 177.682C170.273 177.312 170.345 176.972 170.493 176.659C170.641 176.344 170.842 176.081 171.098 175.871C171.356 175.658 171.645 175.523 171.963 175.466V175.415C171.545 175.307 171.213 175.072 170.966 174.712C170.719 174.348 170.597 173.935 170.599 173.472C170.597 173.028 170.709 172.632 170.936 172.283C171.163 171.933 171.476 171.658 171.874 171.456C172.274 171.254 172.73 171.153 173.241 171.153C173.747 171.153 174.199 171.254 174.597 171.456C174.994 171.658 175.307 171.933 175.534 172.283C175.764 172.632 175.881 173.028 175.883 173.472C175.881 173.935 175.754 174.348 175.504 174.712C175.257 175.072 174.929 175.307 174.52 175.415V175.466C174.835 175.523 175.119 175.658 175.372 175.871C175.625 176.081 175.827 176.344 175.977 176.659C176.128 176.972 176.204 177.312 176.207 177.682C176.204 178.153 176.077 178.574 175.824 178.943C175.574 179.31 175.226 179.598 174.78 179.808C174.337 180.016 173.824 180.119 173.241 180.119ZM173.241 179.182C173.636 179.182 173.977 179.118 174.264 178.99C174.551 178.862 174.773 178.682 174.929 178.449C175.085 178.216 175.165 177.943 175.168 177.631C175.165 177.301 175.079 177.01 174.912 176.757C174.744 176.504 174.516 176.305 174.226 176.161C173.939 176.016 173.611 175.943 173.241 175.943C172.869 175.943 172.537 176.016 172.244 176.161C171.954 176.305 171.726 176.504 171.558 176.757C171.393 177.01 171.312 177.301 171.315 177.631C171.312 177.943 171.388 178.216 171.541 178.449C171.697 178.682 171.92 178.862 172.21 178.99C172.5 179.118 172.844 179.182 173.241 179.182ZM173.241 175.04C173.554 175.04 173.831 174.977 174.072 174.852C174.317 174.727 174.508 174.553 174.648 174.328C174.787 174.104 174.858 173.841 174.861 173.54C174.858 173.244 174.788 172.987 174.652 172.768C174.516 172.547 174.327 172.376 174.085 172.257C173.844 172.135 173.562 172.074 173.241 172.074C172.915 172.074 172.629 172.135 172.385 172.257C172.141 172.376 171.952 172.547 171.818 172.768C171.685 172.987 171.619 173.244 171.622 173.54C171.619 173.841 171.686 174.104 171.822 174.328C171.962 174.553 172.153 174.727 172.398 174.852C172.642 174.977 172.923 175.04 173.241 175.04Z" fill="black"/>
<path d="M164.08 79H163.023C162.96 78.696 162.851 78.429 162.695 78.1989C162.541 77.9688 162.354 77.7756 162.132 77.6193C161.913 77.4602 161.67 77.3409 161.403 77.2614C161.136 77.1818 160.858 77.142 160.568 77.142C160.04 77.142 159.561 77.2756 159.132 77.5426C158.706 77.8097 158.366 78.2031 158.114 78.723C157.864 79.2429 157.739 79.8807 157.739 80.6364C157.739 81.392 157.864 82.0298 158.114 82.5497C158.366 83.0696 158.706 83.4631 159.132 83.7301C159.561 83.9972 160.04 84.1307 160.568 84.1307C160.858 84.1307 161.136 84.0909 161.403 84.0114C161.67 83.9318 161.913 83.8139 162.132 83.6577C162.354 83.4986 162.541 83.304 162.695 83.0739C162.851 82.8409 162.96 82.5739 163.023 82.2727H164.08C164 82.7187 163.855 83.1179 163.645 83.4702C163.435 83.8224 163.173 84.1222 162.861 84.3693C162.548 84.6136 162.197 84.7997 161.808 84.9276C161.422 85.0554 161.009 85.1193 160.568 85.1193C159.824 85.1193 159.162 84.9375 158.582 84.5739C158.003 84.2102 157.547 83.6932 157.214 83.0227C156.882 82.3523 156.716 81.5568 156.716 80.6364C156.716 79.7159 156.882 78.9205 157.214 78.25C157.547 77.5795 158.003 77.0625 158.582 76.6989C159.162 76.3352 159.824 76.1534 160.568 76.1534C161.009 76.1534 161.422 76.2173 161.808 76.3452C162.197 76.473 162.548 76.6605 162.861 76.9077C163.173 77.152 163.435 77.4503 163.645 77.8026C163.855 78.152 164 78.5511 164.08 79ZM169.854 84.3818C169.854 84.9409 169.752 85.4216 169.548 85.8239C169.343 86.2244 169.063 86.533 168.706 86.7494C168.352 86.9642 167.949 87.0716 167.497 87.0716C167.044 87.0716 166.639 86.9642 166.282 86.7494C165.928 86.533 165.648 86.2236 165.444 85.8213C165.239 85.419 165.137 84.9392 165.137 84.3818C165.137 83.8227 165.239 83.3429 165.444 82.9423C165.648 82.5401 165.928 82.2315 166.282 82.0168C166.639 81.8003 167.044 81.692 167.497 81.692C167.949 81.692 168.352 81.8003 168.706 82.0168C169.063 82.2315 169.343 82.5401 169.548 82.9423C169.752 83.3429 169.854 83.8227 169.854 84.3818ZM169.072 84.3818C169.072 83.9557 169.003 83.5969 168.865 83.3054C168.728 83.0122 168.541 82.7906 168.302 82.6406C168.065 82.4889 167.797 82.4131 167.497 82.4131C167.195 82.4131 166.926 82.4889 166.689 82.6406C166.452 82.7906 166.265 83.0122 166.126 83.3054C165.99 83.5969 165.922 83.9557 165.922 84.3818C165.922 84.808 165.99 85.1676 166.126 85.4608C166.265 85.7523 166.452 85.9739 166.689 86.1256C166.926 86.2756 167.195 86.3506 167.497 86.3506C167.797 86.3506 168.065 86.2756 168.302 86.1256C168.541 85.9739 168.728 85.7523 168.865 85.4608C169.003 85.1676 169.072 84.808 169.072 84.3818ZM171.81 79.8352V78.9148H177.06V79.8352H171.81ZM171.81 82.358V81.4375H177.06V82.358H171.81ZM182.191 85.1193C181.833 85.1136 181.475 85.0455 181.117 84.9148C180.76 84.7841 180.433 84.5639 180.137 84.2543C179.842 83.9418 179.605 83.5199 179.426 82.9886C179.247 82.4545 179.157 81.7841 179.157 80.9773C179.157 80.2045 179.23 79.5199 179.375 78.9233C179.519 78.3239 179.73 77.8196 180.005 77.4105C180.281 76.9986 180.613 76.6861 181.002 76.473C181.394 76.2599 181.836 76.1534 182.328 76.1534C182.816 76.1534 183.251 76.2514 183.632 76.4474C184.015 76.6406 184.328 76.9105 184.569 77.2571C184.811 77.6037 184.967 78.0028 185.038 78.4545H183.998C183.902 78.0625 183.714 77.7372 183.436 77.4787C183.157 77.2202 182.788 77.0909 182.328 77.0909C181.652 77.0909 181.119 77.3849 180.73 77.973C180.343 78.5611 180.149 79.3864 180.146 80.4489H180.214C180.373 80.2074 180.562 80.0014 180.781 79.831C181.002 79.6577 181.247 79.5241 181.514 79.4304C181.781 79.3366 182.064 79.2898 182.362 79.2898C182.862 79.2898 183.319 79.4148 183.734 79.6648C184.149 79.9119 184.481 80.2543 184.731 80.6918C184.981 81.1264 185.106 81.625 185.106 82.1875C185.106 82.7273 184.985 83.2216 184.744 83.6705C184.502 84.1165 184.163 84.4716 183.725 84.7358C183.291 84.9972 182.779 85.125 182.191 85.1193ZM182.191 84.1818C182.549 84.1818 182.87 84.0923 183.154 83.9134C183.441 83.7344 183.667 83.4943 183.832 83.1932C184 82.892 184.083 82.5568 184.083 82.1875C184.083 81.8267 184.002 81.4986 183.841 81.2031C183.681 80.9048 183.461 80.6676 183.18 80.4915C182.902 80.3153 182.583 80.2273 182.225 80.2273C181.956 80.2273 181.704 80.2812 181.471 80.3892C181.238 80.4943 181.034 80.6392 180.858 80.8239C180.684 81.0085 180.548 81.2202 180.448 81.4588C180.349 81.6946 180.299 81.9432 180.299 82.2045C180.299 82.5511 180.38 82.875 180.542 83.1761C180.707 83.4773 180.931 83.7202 181.216 83.9048C181.502 84.0895 181.828 84.1818 182.191 84.1818ZM186.577 83.2102V82.3409L190.413 76.2727H191.043V77.6193H190.617L187.719 82.2045V82.2727H192.884V83.2102H186.577ZM190.685 85V82.946V82.5412V76.2727H191.691V85H190.685Z" fill="black"/>
<path d="M68.642 268L66.2557 259.273H67.3295L69.1534 266.381H69.2386L71.0966 259.273H72.2898L74.1477 266.381H74.233L76.0568 259.273H77.1307L74.7443 268H73.6534L71.7273 261.045H71.6591L69.733 268H68.642ZM82.5145 267.382C82.5145 267.941 82.4122 268.422 82.2077 268.824C82.0031 269.224 81.7227 269.533 81.3665 269.749C81.0119 269.964 80.6088 270.072 80.1571 270.072C79.7037 270.072 79.2989 269.964 78.9426 269.749C78.5881 269.533 78.3085 269.224 78.104 268.821C77.8994 268.419 77.7972 267.939 77.7972 267.382C77.7972 266.823 77.8994 266.343 78.104 265.942C78.3085 265.54 78.5881 265.232 78.9426 265.017C79.2989 264.8 79.7037 264.692 80.1571 264.692C80.6088 264.692 81.0119 264.8 81.3665 265.017C81.7227 265.232 82.0031 265.54 82.2077 265.942C82.4122 266.343 82.5145 266.823 82.5145 267.382ZM81.7321 267.382C81.7321 266.956 81.6631 266.597 81.525 266.305C81.3886 266.012 81.2011 265.791 80.9625 265.641C80.7256 265.489 80.4571 265.413 80.1571 265.413C79.8554 265.413 79.5861 265.489 79.3491 265.641C79.1122 265.791 78.9247 266.012 78.7866 266.305C78.6503 266.597 78.5821 266.956 78.5821 267.382C78.5821 267.808 78.6503 268.168 78.7866 268.461C78.9247 268.752 79.1122 268.974 79.3491 269.126C79.5861 269.276 79.8554 269.351 80.1571 269.351C80.4571 269.351 80.7256 269.276 80.9625 269.126C81.2011 268.974 81.3886 268.752 81.525 268.461C81.6631 268.168 81.7321 267.808 81.7321 267.382ZM84.4698 262.835V261.915H89.7198V262.835H84.4698ZM84.4698 265.358V264.438H89.7198V265.358H84.4698ZM94.7492 268.119C94.164 268.119 93.647 268.016 93.1981 267.808C92.7521 267.598 92.4041 267.31 92.1541 266.943C91.9041 266.574 91.7805 266.153 91.7833 265.682C91.7805 265.312 91.8529 264.972 92.0007 264.659C92.1484 264.344 92.3501 264.081 92.6058 263.871C92.8643 263.658 93.1526 263.523 93.4708 263.466V263.415C93.0532 263.307 92.7208 263.072 92.4737 262.712C92.2265 262.348 92.1044 261.935 92.1072 261.472C92.1044 261.028 92.2166 260.632 92.4438 260.283C92.6711 259.933 92.9836 259.658 93.3813 259.456C93.7819 259.254 94.2379 259.153 94.7492 259.153C95.2549 259.153 95.7066 259.254 96.1044 259.456C96.5021 259.658 96.8146 259.933 97.0419 260.283C97.272 260.632 97.3884 261.028 97.3913 261.472C97.3884 261.935 97.262 262.348 97.012 262.712C96.7649 263.072 96.4367 263.307 96.0276 263.415V263.466C96.343 263.523 96.6271 263.658 96.8799 263.871C97.1328 264.081 97.3345 264.344 97.485 264.659C97.6356 264.972 97.7123 265.312 97.7151 265.682C97.7123 266.153 97.5845 266.574 97.3316 266.943C97.0816 267.31 96.7336 267.598 96.2876 267.808C95.8444 268.016 95.3316 268.119 94.7492 268.119ZM94.7492 267.182C95.1441 267.182 95.485 267.118 95.772 266.99C96.0589 266.862 96.2805 266.682 96.4367 266.449C96.593 266.216 96.6725 265.943 96.6754 265.631C96.6725 265.301 96.5873 265.01 96.4197 264.757C96.2521 264.504 96.0234 264.305 95.7336 264.161C95.4467 264.016 95.1186 263.943 94.7492 263.943C94.3771 263.943 94.0447 264.016 93.7521 264.161C93.4623 264.305 93.2336 264.504 93.066 264.757C92.9012 265.01 92.8203 265.301 92.8231 265.631C92.8203 265.943 92.8955 266.216 93.049 266.449C93.2052 266.682 93.4282 266.862 93.718 266.99C94.0078 267.118 94.3515 267.182 94.7492 267.182ZM94.7492 263.04C95.0617 263.04 95.3387 262.977 95.5802 262.852C95.8245 262.727 96.0163 262.553 96.1555 262.328C96.2947 262.104 96.3657 261.841 96.3686 261.54C96.3657 261.244 96.2961 260.987 96.1597 260.768C96.0234 260.547 95.8345 260.376 95.593 260.257C95.3515 260.135 95.0703 260.074 94.7492 260.074C94.4225 260.074 94.137 260.135 93.8927 260.257C93.6484 260.376 93.4595 260.547 93.3259 260.768C93.1924 260.987 93.1271 261.244 93.1299 261.54C93.1271 261.841 93.1938 262.104 93.3302 262.328C93.4694 262.553 93.6612 262.727 93.9055 262.852C94.1498 262.977 94.4311 263.04 94.7492 263.04Z" fill="black"/>
</svg>
